{
    "asset" : {
        "generator" : "Khronos glTF Blender I/O v1.7.33",
        "version" : "2.0"
    },
    "scene" : 0,
    "scenes" : [
        {
            "name" : "Scene",
            "nodes" : [
                0
            ]
        }
    ],
    "nodes" : [
        {
            "mesh" : 0,
            "name" : "Retopo_Cylinder.007_cell.002",
            "translation" : [
                0.07346057891845703,
                1.803173303604126,
                -0.05100652575492859
            ]
        }
    ],
    "materials" : [
        {
            "doubleSided" : true,
            "name" : "Material.014",
            "pbrMetallicRoughness" : {
                "baseColorFactor" : [
                    0.6146152019500732,
                    0.3461061418056488,
                    0.12927377223968506,
                    1
                ],
                "roughnessFactor" : 0.21074381470680237
            }
        },
        {
            "doubleSided" : true,
            "emissiveFactor" : [
                1,
                1,
                1
            ],
            "name" : "Material.015",
            "pbrMetallicRoughness" : {
                "baseColorFactor" : [
                    0.6104958057403564,
                    1.0000001192092896,
                    0.7835378646850586,
                    1
                ],
                "metallicFactor" : 0,
                "roughnessFactor" : 0.5
            }
        },
        {
            "doubleSided" : true,
            "name" : "Material.017",
            "pbrMetallicRoughness" : {
                "baseColorFactor" : [
                    0.8000000715255737,
                    0.5829361081123352,
                    0.09079191088676453,
                    1
                ],
                "roughnessFactor" : 0.2851239740848541
            }
        },
        {
            "doubleSided" : true,
            "name" : "Material.022",
            "pbrMetallicRoughness" : {
                "baseColorFactor" : [
                    0.25293827056884766,
                    0.25293827056884766,
                    0.25293827056884766,
                    1
                ],
                "roughnessFactor" : 0.11157023906707764
            }
        },
        {
            "doubleSided" : true,
            "emissiveFactor" : [
                1,
                1,
                1
            ],
            "name" : "Material.023",
            "pbrMetallicRoughness" : {
                "baseColorFactor" : [
                    0.800000011920929,
                    0.800000011920929,
                    0.800000011920929,
                    1
                ],
                "metallicFactor" : 0,
                "roughnessFactor" : 0.11363637447357178
            }
        },
        {
            "doubleSided" : true,
            "name" : "Material.024",
            "pbrMetallicRoughness" : {
                "baseColorFactor" : [
                    0.800000011920929,
                    0.800000011920929,
                    0.800000011920929,
                    1
                ],
                "roughnessFactor" : 0
            }
        },
        {
            "doubleSided" : true,
            "emissiveFactor" : [
                1,
                1,
                1
            ],
            "name" : "Material.026",
            "pbrMetallicRoughness" : {
                "baseColorFactor" : [
                    0.800000011920929,
                    0.800000011920929,
                    0.800000011920929,
                    1
                ],
                "metallicFactor" : 0,
                "roughnessFactor" : 0.11363637447357178
            }
        },
        {
            "doubleSided" : true,
            "emissiveFactor" : [
                0.8095366954803467,
                1,
                1
            ],
            "name" : "Material.027",
            "pbrMetallicRoughness" : {
                "baseColorFactor" : [
                    0.07428835332393646,
                    0.8000000715255737,
                    0.8000000715255737,
                    1
                ],
                "metallicFactor" : 0,
                "roughnessFactor" : 0.5
            }
        },
        {
            "doubleSided" : true,
            "emissiveFactor" : [
                1,
                1,
                1
            ],
            "name" : "Material.028",
            "pbrMetallicRoughness" : {
                "baseColorFactor" : [
                    0.043882038444280624,
                    0.8900054693222046,
                    0,
                    1
                ],
                "metallicFactor" : 0,
                "roughnessFactor" : 0.5
            }
        }
    ],
    "meshes" : [
        {
            "name" : "mesh.001",
            "primitives" : [
                {
                    "attributes" : {
                        "POSITION" : 0,
                        "NORMAL" : 1,
                        "TEXCOORD_0" : 2
                    },
                    "indices" : 3,
                    "material" : 0
                },
                {
                    "attributes" : {
                        "POSITION" : 4,
                        "NORMAL" : 5,
                        "TEXCOORD_0" : 6
                    },
                    "indices" : 7,
                    "material" : 1
                },
                {
                    "attributes" : {
                        "POSITION" : 8,
                        "NORMAL" : 9,
                        "TEXCOORD_0" : 10
                    },
                    "indices" : 11,
                    "material" : 2
                },
                {
                    "attributes" : {
                        "POSITION" : 12,
                        "NORMAL" : 13,
                        "TEXCOORD_0" : 14
                    },
                    "indices" : 15,
                    "material" : 3
                },
                {
                    "attributes" : {
                        "POSITION" : 16,
                        "NORMAL" : 17,
                        "TEXCOORD_0" : 18
                    },
                    "indices" : 19,
                    "material" : 4
                },
                {
                    "attributes" : {
                        "POSITION" : 20,
                        "NORMAL" : 21,
                        "TEXCOORD_0" : 22
                    },
                    "indices" : 23,
                    "material" : 5
                },
                {
                    "attributes" : {
                        "POSITION" : 24,
                        "NORMAL" : 25,
                        "TEXCOORD_0" : 26
                    },
                    "indices" : 27,
                    "material" : 6
                },
                {
                    "attributes" : {
                        "POSITION" : 28,
                        "NORMAL" : 29,
                        "TEXCOORD_0" : 30
                    },
                    "indices" : 31,
                    "material" : 7
                },
                {
                    "attributes" : {
                        "POSITION" : 32,
                        "NORMAL" : 33,
                        "TEXCOORD_0" : 34
                    },
                    "indices" : 35,
                    "material" : 8
                }
            ]
        }
    ],
    "accessors" : [
        {
            "bufferView" : 0,
            "componentType" : 5126,
            "count" : 25936,
            "max" : [
                1.3655487298965454,
                -1.2636845111846924,
                1.3592443466186523
            ],
            "min" : [
                -0.2517765164375305,
                -1.8439193964004517,
                -1.1892625093460083
            ],
            "type" : "VEC3"
        },
        {
            "bufferView" : 1,
            "componentType" : 5126,
            "count" : 25936,
            "type" : "VEC3"
        },
        {
            "bufferView" : 2,
            "componentType" : 5126,
            "count" : 25936,
            "type" : "VEC2"
        },
        {
            "bufferView" : 3,
            "componentType" : 5123,
            "count" : 34275,
            "type" : "SCALAR"
        },
        {
            "bufferView" : 4,
            "componentType" : 5126,
            "count" : 18332,
            "max" : [
                1.3655487298965454,
                -1.2636845111846924,
                1.3592901229858398
            ],
            "min" : [
                -0.42085695266723633,
                -1.8439193964004517,
                -1.1891582012176514
            ],
            "type" : "VEC3"
        },
        {
            "bufferView" : 5,
            "componentType" : 5126,
            "count" : 18332,
            "type" : "VEC3"
        },
        {
            "bufferView" : 6,
            "componentType" : 5126,
            "count" : 18332,
            "type" : "VEC2"
        },
        {
            "bufferView" : 7,
            "componentType" : 5123,
            "count" : 23502,
            "type" : "SCALAR"
        },
        {
            "bufferView" : 8,
            "componentType" : 5126,
            "count" : 14454,
            "max" : [
                0.5581269860267639,
                4.033445358276367,
                1.5520219802856445
            ],
            "min" : [
                -0.5559056401252747,
                -1.409725546836853,
                -1.2788243293762207
            ],
            "type" : "VEC3"
        },
        {
            "bufferView" : 9,
            "componentType" : 5126,
            "count" : 14454,
            "type" : "VEC3"
        },
        {
            "bufferView" : 10,
            "componentType" : 5126,
            "count" : 14454,
            "type" : "VEC2"
        },
        {
            "bufferView" : 11,
            "componentType" : 5123,
            "count" : 18996,
            "type" : "SCALAR"
        },
        {
            "bufferView" : 12,
            "componentType" : 5126,
            "count" : 25200,
            "max" : [
                0.28543031215667725,
                -1.259293556213379,
                1.072267770767212
            ],
            "min" : [
                -1.3478606939315796,
                -1.8395283222198486,
                -1.4735865592956543
            ],
            "type" : "VEC3"
        },
        {
            "bufferView" : 13,
            "componentType" : 5126,
            "count" : 25200,
            "type" : "VEC3"
        },
        {
            "bufferView" : 14,
            "componentType" : 5126,
            "count" : 25200,
            "type" : "VEC2"
        },
        {
            "bufferView" : 15,
            "componentType" : 5123,
            "count" : 34251,
            "type" : "SCALAR"
        },
        {
            "bufferView" : 16,
            "componentType" : 5126,
            "count" : 889,
            "max" : [
                0.3103902339935303,
                0.6886643171310425,
                0.38800376653671265
            ],
            "min" : [
                -0.37891364097595215,
                0.26818883419036865,
                -0.3013001084327698
            ],
            "type" : "VEC3"
        },
        {
            "bufferView" : 17,
            "componentType" : 5126,
            "count" : 889,
            "type" : "VEC3"
        },
        {
            "bufferView" : 18,
            "componentType" : 5126,
            "count" : 889,
            "type" : "VEC2"
        },
        {
            "bufferView" : 19,
            "componentType" : 5123,
            "count" : 906,
            "type" : "SCALAR"
        },
        {
            "bufferView" : 20,
            "componentType" : 5126,
            "count" : 335,
            "max" : [
                0.5782407522201538,
                3.0258936882019043,
                -0.5825481414794922
            ],
            "min" : [
                -0.23499907553195953,
                2.228074550628662,
                -1.3456370830535889
            ],
            "type" : "VEC3"
        },
        {
            "bufferView" : 21,
            "componentType" : 5126,
            "count" : 335,
            "type" : "VEC3"
        },
        {
            "bufferView" : 22,
            "componentType" : 5126,
            "count" : 335,
            "type" : "VEC2"
        },
        {
            "bufferView" : 23,
            "componentType" : 5123,
            "count" : 423,
            "type" : "SCALAR"
        },
        {
            "bufferView" : 24,
            "componentType" : 5126,
            "count" : 33,
            "max" : [
                0.20593680441379547,
                2.5506467819213867,
                -0.9355485439300537
            ],
            "min" : [
                -0.04555036127567291,
                2.3713765144348145,
                -1.147775650024414
            ],
            "type" : "VEC3"
        },
        {
            "bufferView" : 25,
            "componentType" : 5126,
            "count" : 33,
            "type" : "VEC3"
        },
        {
            "bufferView" : 26,
            "componentType" : 5126,
            "count" : 33,
            "type" : "VEC2"
        },
        {
            "bufferView" : 27,
            "componentType" : 5123,
            "count" : 33,
            "type" : "SCALAR"
        },
        {
            "bufferView" : 28,
            "componentType" : 5126,
            "count" : 2180,
            "max" : [
                0.15938664972782135,
                -1.3940197229385376,
                1.0479390621185303
            ],
            "min" : [
                -1.223052978515625,
                -1.7979375123977661,
                -1.415283203125
            ],
            "type" : "VEC3"
        },
        {
            "bufferView" : 29,
            "componentType" : 5126,
            "count" : 2180,
            "type" : "VEC3"
        },
        {
            "bufferView" : 30,
            "componentType" : 5126,
            "count" : 2180,
            "type" : "VEC2"
        },
        {
            "bufferView" : 31,
            "componentType" : 5123,
            "count" : 5193,
            "type" : "SCALAR"
        },
        {
            "bufferView" : 32,
            "componentType" : 5126,
            "count" : 16151,
            "max" : [
                0.15518192946910858,
                -1.259293556213379,
                1.0721628665924072
            ],
            "min" : [
                -1.3478606939315796,
                -1.8395283222198486,
                -1.4737286567687988
            ],
            "type" : "VEC3"
        },
        {
            "bufferView" : 33,
            "componentType" : 5126,
            "count" : 16151,
            "type" : "VEC3"
        },
        {
            "bufferView" : 34,
            "componentType" : 5126,
            "count" : 16151,
            "type" : "VEC2"
        },
        {
            "bufferView" : 35,
            "componentType" : 5123,
            "count" : 18321,
            "type" : "SCALAR"
        }
    ],
    "bufferViews" : [
        {
            "buffer" : 0,
            "byteLength" : 311232,
            "byteOffset" : 0
        },
        {
            "buffer" : 0,
            "byteLength" : 311232,
            "byteOffset" : 311232
        },
        {
            "buffer" : 0,
            "byteLength" : 207488,
            "byteOffset" : 622464
        },
        {
            "buffer" : 0,
            "byteLength" : 68550,
            "byteOffset" : 829952
        },
        {
            "buffer" : 0,
            "byteLength" : 219984,
            "byteOffset" : 898504
        },
        {
            "buffer" : 0,
            "byteLength" : 219984,
            "byteOffset" : 1118488
        },
        {
            "buffer" : 0,
            "byteLength" : 146656,
            "byteOffset" : 1338472
        },
        {
            "buffer" : 0,
            "byteLength" : 47004,
            "byteOffset" : 1485128
        },
        {
            "buffer" : 0,
            "byteLength" : 173448,
            "byteOffset" : 1532132
        },
        {
            "buffer" : 0,
            "byteLength" : 173448,
            "byteOffset" : 1705580
        },
        {
            "buffer" : 0,
            "byteLength" : 115632,
            "byteOffset" : 1879028
        },
        {
            "buffer" : 0,
            "byteLength" : 37992,
            "byteOffset" : 1994660
        },
        {
            "buffer" : 0,
            "byteLength" : 302400,
            "byteOffset" : 2032652
        },
        {
            "buffer" : 0,
            "byteLength" : 302400,
            "byteOffset" : 2335052
        },
        {
            "buffer" : 0,
            "byteLength" : 201600,
            "byteOffset" : 2637452
        },
        {
            "buffer" : 0,
            "byteLength" : 68502,
            "byteOffset" : 2839052
        },
        {
            "buffer" : 0,
            "byteLength" : 10668,
            "byteOffset" : 2907556
        },
        {
            "buffer" : 0,
            "byteLength" : 10668,
            "byteOffset" : 2918224
        },
        {
            "buffer" : 0,
            "byteLength" : 7112,
            "byteOffset" : 2928892
        },
        {
            "buffer" : 0,
            "byteLength" : 1812,
            "byteOffset" : 2936004
        },
        {
            "buffer" : 0,
            "byteLength" : 4020,
            "byteOffset" : 2937816
        },
        {
            "buffer" : 0,
            "byteLength" : 4020,
            "byteOffset" : 2941836
        },
        {
            "buffer" : 0,
            "byteLength" : 2680,
            "byteOffset" : 2945856
        },
        {
            "buffer" : 0,
            "byteLength" : 846,
            "byteOffset" : 2948536
        },
        {
            "buffer" : 0,
            "byteLength" : 396,
            "byteOffset" : 2949384
        },
        {
            "buffer" : 0,
            "byteLength" : 396,
            "byteOffset" : 2949780
        },
        {
            "buffer" : 0,
            "byteLength" : 264,
            "byteOffset" : 2950176
        },
        {
            "buffer" : 0,
            "byteLength" : 66,
            "byteOffset" : 2950440
        },
        {
            "buffer" : 0,
            "byteLength" : 26160,
            "byteOffset" : 2950508
        },
        {
            "buffer" : 0,
            "byteLength" : 26160,
            "byteOffset" : 2976668
        },
        {
            "buffer" : 0,
            "byteLength" : 17440,
            "byteOffset" : 3002828
        },
        {
            "buffer" : 0,
            "byteLength" : 10386,
            "byteOffset" : 3020268
        },
        {
            "buffer" : 0,
            "byteLength" : 193812,
            "byteOffset" : 3030656
        },
        {
            "buffer" : 0,
            "byteLength" : 193812,
            "byteOffset" : 3224468
        },
        {
            "buffer" : 0,
            "byteLength" : 129208,
            "byteOffset" : 3418280
        },
        {
            "buffer" : 0,
            "byteLength" : 36642,
            "byteOffset" : 3547488
        }
    ],
    "buffers" : [
        {
            "byteLength" : 3584132,
            "uri" : "cactus gold.bin"
        }
    ]
}
