{
    "asset" : {
        "generator" : "Khronos glTF Blender I/O v1.5.17",
        "version" : "2.0"
    },
    "scene" : 0,
    "scenes" : [
        {
            "name" : "Scene",
            "nodes" : [
                0,
                1,
                2
            ]
        }
    ],
    "nodes" : [
        {
            "name" : "Light",
            "rotation" : [
                0.16907575726509094,
                0.7558803558349609,
                -0.27217137813568115,
                0.570947527885437
            ],
            "translation" : [
                -14.15256404876709,
                22.913734436035156,
                -11.167220115661621
            ]
        },
        {
            "mesh" : 0,
            "name" : "\u041f\u043b\u043e\u0441\u043a\u043e\u0441\u0442\u044c",
            "scale" : [
                3.5080783367156982,
                3.5080783367156982,
                3.5080783367156982
            ]
        },
        {
            "name" : "\u041a\u0430\u043c\u0435\u0440\u0430",
            "rotation" : [
                0.4946320652961731,
                -0.4317686855792999,
                0.31073513627052307,
                0.6872835159301758
            ],
            "translation" : [
                -48.65589141845703,
                25.64299774169922,
                23.1903018951416
            ]
        }
    ],
    "materials" : [
        {
            "doubleSided" : true,
            "name" : "\u041c\u0430\u0442\u0435\u0440\u0438\u0430\u043b",
            "pbrMetallicRoughness" : {
                "baseColorFactor" : [
                    0,
                    0,
                    0,
                    1
                ],
                "metallicFactor" : 0.20000040531158447,
                "roughnessFactor" : 0.5588235855102539
            }
        },
        {
            "doubleSided" : true,
            "name" : "1",
            "pbrMetallicRoughness" : {
                "baseColorFactor" : [
                    0,
                    0.21586056053638458,
                    0.15896086394786835,
                    1
                ],
                "metallicFactor" : 0
            }
        },
        {
            "doubleSided" : true,
            "name" : "2",
            "pbrMetallicRoughness" : {
                "baseColorFactor" : [
                    0,
                    0.26225075125694275,
                    0.19806936383247375,
                    1
                ],
                "metallicFactor" : 0,
                "roughnessFactor" : 0.5
            }
        },
        {
            "doubleSided" : true,
            "name" : "3",
            "pbrMetallicRoughness" : {
                "baseColorFactor" : [
                    0,
                    0.31854692101478577,
                    0.23839762806892395,
                    1
                ],
                "metallicFactor" : 0,
                "roughnessFactor" : 0.5
            }
        },
        {
            "doubleSided" : true,
            "name" : "4",
            "pbrMetallicRoughness" : {
                "baseColorFactor" : [
                    0,
                    0.4178851544857025,
                    0.30946898460388184,
                    1
                ],
                "metallicFactor" : 0,
                "roughnessFactor" : 0.5
            }
        },
        {
            "doubleSided" : true,
            "name" : "5",
            "pbrMetallicRoughness" : {
                "baseColorFactor" : [
                    0,
                    0.5209956765174866,
                    0.3864295780658722,
                    1
                ],
                "metallicFactor" : 0,
                "roughnessFactor" : 0.5
            }
        },
        {
            "doubleSided" : true,
            "name" : "6",
            "pbrMetallicRoughness" : {
                "baseColorFactor" : [
                    0,
                    0.6038273572921753,
                    0.4452012777328491,
                    1
                ],
                "metallicFactor" : 0,
                "roughnessFactor" : 0.5
            }
        }
    ],
    "meshes" : [
        {
            "name" : "\u041f\u043b\u043e\u0441\u043a\u043e\u0441\u0442\u044c",
            "primitives" : [
                {
                    "attributes" : {
                        "POSITION" : 0,
                        "NORMAL" : 1,
                        "TEXCOORD_0" : 2
                    },
                    "indices" : 3,
                    "material" : 0
                },
                {
                    "attributes" : {
                        "POSITION" : 4,
                        "NORMAL" : 5,
                        "TEXCOORD_0" : 6
                    },
                    "indices" : 7,
                    "material" : 1
                },
                {
                    "attributes" : {
                        "POSITION" : 8,
                        "NORMAL" : 9,
                        "TEXCOORD_0" : 10
                    },
                    "indices" : 11,
                    "material" : 2
                },
                {
                    "attributes" : {
                        "POSITION" : 12,
                        "NORMAL" : 13,
                        "TEXCOORD_0" : 14
                    },
                    "indices" : 15,
                    "material" : 3
                },
                {
                    "attributes" : {
                        "POSITION" : 16,
                        "NORMAL" : 17,
                        "TEXCOORD_0" : 18
                    },
                    "indices" : 19,
                    "material" : 4
                },
                {
                    "attributes" : {
                        "POSITION" : 20,
                        "NORMAL" : 21,
                        "TEXCOORD_0" : 22
                    },
                    "indices" : 23,
                    "material" : 5
                },
                {
                    "attributes" : {
                        "POSITION" : 24,
                        "NORMAL" : 25,
                        "TEXCOORD_0" : 26
                    },
                    "indices" : 27,
                    "material" : 6
                }
            ]
        }
    ],
    "accessors" : [
        {
            "bufferView" : 0,
            "componentType" : 5126,
            "count" : 6,
            "max" : [
                1.4911339282989502,
                5.737582683563232,
                -1.1929067373275757
            ],
            "min" : [
                -1.2425975799560547,
                2.5768778324127197,
                -1.3241510391235352
            ],
            "type" : "VEC3"
        },
        {
            "bufferView" : 1,
            "componentType" : 5126,
            "count" : 6,
            "type" : "VEC3"
        },
        {
            "bufferView" : 2,
            "componentType" : 5126,
            "count" : 6,
            "type" : "VEC2"
        },
        {
            "bufferView" : 3,
            "componentType" : 5123,
            "count" : 6,
            "type" : "SCALAR"
        },
        {
            "bufferView" : 4,
            "componentType" : 5126,
            "count" : 19,
            "max" : [
                1.629601240158081,
                4.843358993530273,
                2.1256439685821533
            ],
            "min" : [
                -1.4435721635818481,
                -0.7332503199577332,
                -2.921985626220703
            ],
            "type" : "VEC3"
        },
        {
            "bufferView" : 5,
            "componentType" : 5126,
            "count" : 19,
            "type" : "VEC3"
        },
        {
            "bufferView" : 6,
            "componentType" : 5126,
            "count" : 19,
            "type" : "VEC2"
        },
        {
            "bufferView" : 7,
            "componentType" : 5123,
            "count" : 21,
            "type" : "SCALAR"
        },
        {
            "bufferView" : 8,
            "componentType" : 5126,
            "count" : 48,
            "max" : [
                1.6296427249908447,
                10.146145820617676,
                3.7819361686706543
            ],
            "min" : [
                -1.4435721635818481,
                -0.7332503199577332,
                -5.675307750701904
            ],
            "type" : "VEC3"
        },
        {
            "bufferView" : 9,
            "componentType" : 5126,
            "count" : 48,
            "type" : "VEC3"
        },
        {
            "bufferView" : 10,
            "componentType" : 5126,
            "count" : 48,
            "type" : "VEC2"
        },
        {
            "bufferView" : 11,
            "componentType" : 5123,
            "count" : 48,
            "type" : "SCALAR"
        },
        {
            "bufferView" : 12,
            "componentType" : 5126,
            "count" : 63,
            "max" : [
                1.6296427249908447,
                12.191312789916992,
                5.082425117492676
            ],
            "min" : [
                -1.2425975799560547,
                2.5768778324127197,
                -5.675307750701904
            ],
            "type" : "VEC3"
        },
        {
            "bufferView" : 13,
            "componentType" : 5126,
            "count" : 63,
            "type" : "VEC3"
        },
        {
            "bufferView" : 14,
            "componentType" : 5126,
            "count" : 63,
            "type" : "VEC2"
        },
        {
            "bufferView" : 15,
            "componentType" : 5123,
            "count" : 63,
            "type" : "SCALAR"
        },
        {
            "bufferView" : 16,
            "componentType" : 5126,
            "count" : 69,
            "max" : [
                1.567793607711792,
                15.774998664855957,
                5.082425117492676
            ],
            "min" : [
                -1.229696273803711,
                3.501662492752075,
                -5.675307750701904
            ],
            "type" : "VEC3"
        },
        {
            "bufferView" : 17,
            "componentType" : 5126,
            "count" : 69,
            "type" : "VEC3"
        },
        {
            "bufferView" : 18,
            "componentType" : 5126,
            "count" : 69,
            "type" : "VEC2"
        },
        {
            "bufferView" : 19,
            "componentType" : 5123,
            "count" : 69,
            "type" : "SCALAR"
        },
        {
            "bufferView" : 20,
            "componentType" : 5126,
            "count" : 45,
            "max" : [
                1.567793607711792,
                15.774998664855957,
                5.082425117492676
            ],
            "min" : [
                -1.229696273803711,
                4.7827630043029785,
                -5.675307750701904
            ],
            "type" : "VEC3"
        },
        {
            "bufferView" : 21,
            "componentType" : 5126,
            "count" : 45,
            "type" : "VEC3"
        },
        {
            "bufferView" : 22,
            "componentType" : 5126,
            "count" : 45,
            "type" : "VEC2"
        },
        {
            "bufferView" : 23,
            "componentType" : 5123,
            "count" : 45,
            "type" : "SCALAR"
        },
        {
            "bufferView" : 24,
            "componentType" : 5126,
            "count" : 18,
            "max" : [
                1.567793607711792,
                15.774998664855957,
                5.082425117492676
            ],
            "min" : [
                -1.229696273803711,
                9.60806655883789,
                -1.0597186088562012
            ],
            "type" : "VEC3"
        },
        {
            "bufferView" : 25,
            "componentType" : 5126,
            "count" : 18,
            "type" : "VEC3"
        },
        {
            "bufferView" : 26,
            "componentType" : 5126,
            "count" : 18,
            "type" : "VEC2"
        },
        {
            "bufferView" : 27,
            "componentType" : 5123,
            "count" : 18,
            "type" : "SCALAR"
        }
    ],
    "bufferViews" : [
        {
            "buffer" : 0,
            "byteLength" : 72,
            "byteOffset" : 0
        },
        {
            "buffer" : 0,
            "byteLength" : 72,
            "byteOffset" : 72
        },
        {
            "buffer" : 0,
            "byteLength" : 48,
            "byteOffset" : 144
        },
        {
            "buffer" : 0,
            "byteLength" : 12,
            "byteOffset" : 192
        },
        {
            "buffer" : 0,
            "byteLength" : 228,
            "byteOffset" : 204
        },
        {
            "buffer" : 0,
            "byteLength" : 228,
            "byteOffset" : 432
        },
        {
            "buffer" : 0,
            "byteLength" : 152,
            "byteOffset" : 660
        },
        {
            "buffer" : 0,
            "byteLength" : 42,
            "byteOffset" : 812
        },
        {
            "buffer" : 0,
            "byteLength" : 576,
            "byteOffset" : 856
        },
        {
            "buffer" : 0,
            "byteLength" : 576,
            "byteOffset" : 1432
        },
        {
            "buffer" : 0,
            "byteLength" : 384,
            "byteOffset" : 2008
        },
        {
            "buffer" : 0,
            "byteLength" : 96,
            "byteOffset" : 2392
        },
        {
            "buffer" : 0,
            "byteLength" : 756,
            "byteOffset" : 2488
        },
        {
            "buffer" : 0,
            "byteLength" : 756,
            "byteOffset" : 3244
        },
        {
            "buffer" : 0,
            "byteLength" : 504,
            "byteOffset" : 4000
        },
        {
            "buffer" : 0,
            "byteLength" : 126,
            "byteOffset" : 4504
        },
        {
            "buffer" : 0,
            "byteLength" : 828,
            "byteOffset" : 4632
        },
        {
            "buffer" : 0,
            "byteLength" : 828,
            "byteOffset" : 5460
        },
        {
            "buffer" : 0,
            "byteLength" : 552,
            "byteOffset" : 6288
        },
        {
            "buffer" : 0,
            "byteLength" : 138,
            "byteOffset" : 6840
        },
        {
            "buffer" : 0,
            "byteLength" : 540,
            "byteOffset" : 6980
        },
        {
            "buffer" : 0,
            "byteLength" : 540,
            "byteOffset" : 7520
        },
        {
            "buffer" : 0,
            "byteLength" : 360,
            "byteOffset" : 8060
        },
        {
            "buffer" : 0,
            "byteLength" : 90,
            "byteOffset" : 8420
        },
        {
            "buffer" : 0,
            "byteLength" : 216,
            "byteOffset" : 8512
        },
        {
            "buffer" : 0,
            "byteLength" : 216,
            "byteOffset" : 8728
        },
        {
            "buffer" : 0,
            "byteLength" : 144,
            "byteOffset" : 8944
        },
        {
            "buffer" : 0,
            "byteLength" : 36,
            "byteOffset" : 9088
        }
    ],
    "buffers" : [
        {
            "byteLength" : 9124,
            "uri" : "data:application/octet-stream;base64,"
        }
    ]
}
