{
    "asset" : {
        "generator" : "Khronos glTF Blender I/O v1.7.33",
        "version" : "2.0"
    },
    "extensionsUsed" : [
        "KHR_materials_transmission"
    ],
    "scene" : 0,
    "scenes" : [
        {
            "name" : "Scene",
            "nodes" : [
                0
            ]
        }
    ],
    "nodes" : [
        {
            "mesh" : 0,
            "name" : "Retopo_Cylinder.006",
            "rotation" : [
                -0.18858379125595093,
                0,
                -0.9820572137832642,
                3.55134126550638e-08
            ],
            "scale" : [
                1.2481868267059326,
                1.2481868267059326,
                1.2481868267059326
            ],
            "translation" : [
                6.4306254386901855,
                0.0052065057680010796,
                25.622695922851562
            ]
        }
    ],
    "materials" : [
        {
            "doubleSided" : true,
            "name" : "Material.002",
            "pbrMetallicRoughness" : {
                "metallicFactor" : 0.9267174601554871
            }
        },
        {
            "doubleSided" : true,
            "emissiveFactor" : [
                1,
                1,
                1
            ],
            "name" : "Material.005",
            "pbrMetallicRoughness" : {
                "baseColorFactor" : [
                    0.6104958057403564,
                    1.0000001192092896,
                    0.7835378646850586,
                    1
                ],
                "metallicFactor" : 0,
                "roughnessFactor" : 0.5
            }
        },
        {
            "doubleSided" : true,
            "name" : "gold",
            "pbrMetallicRoughness" : {
                "metallicFactor" : 0.9909090995788574,
                "roughnessFactor" : 0.44999998807907104
            }
        },
        {
            "doubleSided" : true,
            "name" : "Material.027",
            "pbrMetallicRoughness" : {
                "metallicFactor" : 0.9267174601554871
            }
        },
        {
            "doubleSided" : true,
            "emissiveFactor" : [
                0.809536722846623,
                1,
                1
            ],
            "name" : "Material.004",
            "pbrMetallicRoughness" : {
                "baseColorFactor" : [
                    0.07428835332393646,
                    0.8000000715255737,
                    0.8000000715255737,
                    1
                ],
                "metallicFactor" : 0,
                "roughnessFactor" : 0.5
            }
        },
        {
            "doubleSided" : true,
            "emissiveFactor" : [
                1,
                1,
                1
            ],
            "name" : "Material.016",
            "pbrMetallicRoughness" : {
                "baseColorFactor" : [
                    0.043882038444280624,
                    0.8900054693222046,
                    0,
                    1
                ],
                "metallicFactor" : 0,
                "roughnessFactor" : 0.5
            }
        },
        {
            "alphaMode" : "BLEND",
            "doubleSided" : true,
            "extensions" : {
                "KHR_materials_transmission" : {
                    "transmissionFactor" : 0.9318182468414307
                }
            },
            "name" : "dimond",
            "pbrMetallicRoughness" : {
                "baseColorFactor" : [
                    0.800000011920929,
                    0.800000011920929,
                    0.800000011920929,
                    1
                ],
                "metallicFactor" : 0,
                "roughnessFactor" : 0.04090910032391548
            }
        },
        {
            "doubleSided" : true,
            "emissiveFactor" : [
                1,
                1,
                1
            ],
            "name" : "Material.008",
            "pbrMetallicRoughness" : {
                "baseColorFactor" : [
                    0.800000011920929,
                    0.800000011920929,
                    0.800000011920929,
                    1
                ],
                "metallicFactor" : 0,
                "roughnessFactor" : 0.11363637447357178
            }
        },
        {
            "doubleSided" : true,
            "name" : "Matelick",
            "pbrMetallicRoughness" : {
                "baseColorFactor" : [
                    0.9361105561256409,
                    0.9361105561256409,
                    0.9361105561256409,
                    1
                ],
                "roughnessFactor" : 0.466642826795578
            }
        },
        {
            "doubleSided" : true,
            "emissiveFactor" : [
                1,
                1,
                1
            ],
            "name" : "Material.009",
            "pbrMetallicRoughness" : {
                "baseColorFactor" : [
                    0.800000011920929,
                    0.800000011920929,
                    0.800000011920929,
                    1
                ],
                "metallicFactor" : 0,
                "roughnessFactor" : 0.11363637447357178
            }
        }
    ],
    "meshes" : [
        {
            "name" : "mesh.011",
            "primitives" : [
                {
                    "attributes" : {
                        "POSITION" : 0,
                        "NORMAL" : 1,
                        "TEXCOORD_0" : 2
                    },
                    "indices" : 3,
                    "material" : 0
                },
                {
                    "attributes" : {
                        "POSITION" : 4,
                        "NORMAL" : 5,
                        "TEXCOORD_0" : 6
                    },
                    "indices" : 7,
                    "material" : 1
                },
                {
                    "attributes" : {
                        "POSITION" : 8,
                        "NORMAL" : 9,
                        "TEXCOORD_0" : 10
                    },
                    "indices" : 11,
                    "material" : 2
                },
                {
                    "attributes" : {
                        "POSITION" : 12,
                        "NORMAL" : 13,
                        "TEXCOORD_0" : 14
                    },
                    "indices" : 15,
                    "material" : 3
                },
                {
                    "attributes" : {
                        "POSITION" : 16,
                        "NORMAL" : 17,
                        "TEXCOORD_0" : 18
                    },
                    "indices" : 19,
                    "material" : 4
                },
                {
                    "attributes" : {
                        "POSITION" : 20,
                        "NORMAL" : 21,
                        "TEXCOORD_0" : 22
                    },
                    "indices" : 23,
                    "material" : 5
                },
                {
                    "attributes" : {
                        "POSITION" : 24,
                        "NORMAL" : 25,
                        "TEXCOORD_0" : 26
                    },
                    "indices" : 27,
                    "material" : 6
                },
                {
                    "attributes" : {
                        "POSITION" : 28,
                        "NORMAL" : 29,
                        "TEXCOORD_0" : 30
                    },
                    "indices" : 31,
                    "material" : 7
                },
                {
                    "attributes" : {
                        "POSITION" : 32,
                        "NORMAL" : 33,
                        "TEXCOORD_0" : 34
                    },
                    "indices" : 35,
                    "material" : 8
                },
                {
                    "attributes" : {
                        "POSITION" : 36,
                        "NORMAL" : 37,
                        "TEXCOORD_0" : 38
                    },
                    "indices" : 39,
                    "material" : 9
                }
            ]
        }
    ],
    "accessors" : [
        {
            "bufferView" : 0,
            "componentType" : 5126,
            "count" : 10891,
            "max" : [
                0.5555700659751892,
                0.0709465742111206,
                1.0231196880340576
            ],
            "min" : [
                -1.050646185874939,
                -0.39391544461250305,
                -0.8514249324798584
            ],
            "type" : "VEC3"
        },
        {
            "bufferView" : 1,
            "componentType" : 5126,
            "count" : 10891,
            "type" : "VEC3"
        },
        {
            "bufferView" : 2,
            "componentType" : 5126,
            "count" : 10891,
            "type" : "VEC2"
        },
        {
            "bufferView" : 3,
            "componentType" : 5123,
            "count" : 34275,
            "type" : "SCALAR"
        },
        {
            "bufferView" : 4,
            "componentType" : 5126,
            "count" : 13306,
            "max" : [
                0.4803158640861511,
                0.0709465742111206,
                1.0222245454788208
            ],
            "min" : [
                -1.0504227876663208,
                -0.39391544461250305,
                -0.8513292670249939
            ],
            "type" : "VEC3"
        },
        {
            "bufferView" : 5,
            "componentType" : 5126,
            "count" : 13306,
            "type" : "VEC3"
        },
        {
            "bufferView" : 6,
            "componentType" : 5126,
            "count" : 13306,
            "type" : "VEC2"
        },
        {
            "bufferView" : 7,
            "componentType" : 5123,
            "count" : 23502,
            "type" : "SCALAR"
        },
        {
            "bufferView" : 8,
            "componentType" : 5126,
            "count" : 12672,
            "max" : [
                0.6609174013137817,
                -0.2769125998020172,
                1.097156047821045
            ],
            "min" : [
                -0.5834009647369385,
                -4.637775421142578,
                -1.0160454511642456
            ],
            "type" : "VEC3"
        },
        {
            "bufferView" : 9,
            "componentType" : 5126,
            "count" : 12672,
            "type" : "VEC3"
        },
        {
            "bufferView" : 10,
            "componentType" : 5126,
            "count" : 12672,
            "type" : "VEC2"
        },
        {
            "bufferView" : 11,
            "componentType" : 5123,
            "count" : 18996,
            "type" : "SCALAR"
        },
        {
            "bufferView" : 12,
            "componentType" : 5126,
            "count" : 11075,
            "max" : [
                0.9813684225082397,
                0.06742936372756958,
                0.6786205768585205
            ],
            "min" : [
                -2.196678638458252,
                -2.5835492610931396,
                -1.1896250247955322
            ],
            "type" : "VEC3"
        },
        {
            "bufferView" : 13,
            "componentType" : 5126,
            "count" : 11075,
            "type" : "VEC3"
        },
        {
            "bufferView" : 14,
            "componentType" : 5126,
            "count" : 11075,
            "type" : "VEC2"
        },
        {
            "bufferView" : 15,
            "componentType" : 5123,
            "count" : 34497,
            "type" : "SCALAR"
        },
        {
            "bufferView" : 16,
            "componentType" : 5126,
            "count" : 1090,
            "max" : [
                0.9256367087364197,
                0.03410864621400833,
                0.660024106502533
            ],
            "min" : [
                -0.5380520820617676,
                -0.2894960939884186,
                -1.1547532081604004
            ],
            "type" : "VEC3"
        },
        {
            "bufferView" : 17,
            "componentType" : 5126,
            "count" : 1090,
            "type" : "VEC3"
        },
        {
            "bufferView" : 18,
            "componentType" : 5126,
            "count" : 1090,
            "type" : "VEC2"
        },
        {
            "bufferView" : 19,
            "componentType" : 5123,
            "count" : 5193,
            "type" : "SCALAR"
        },
        {
            "bufferView" : 20,
            "componentType" : 5126,
            "count" : 12215,
            "max" : [
                0.9810570478439331,
                0.06742936372756958,
                0.6785248517990112
            ],
            "min" : [
                -0.5575548410415649,
                -0.3974330425262451,
                -1.1888275146484375
            ],
            "type" : "VEC3"
        },
        {
            "bufferView" : 21,
            "componentType" : 5126,
            "count" : 12215,
            "type" : "VEC3"
        },
        {
            "bufferView" : 22,
            "componentType" : 5126,
            "count" : 12215,
            "type" : "VEC2"
        },
        {
            "bufferView" : 23,
            "componentType" : 5123,
            "count" : 18321,
            "type" : "SCALAR"
        },
        {
            "bufferView" : 24,
            "componentType" : 5126,
            "count" : 331,
            "max" : [
                -0.08122298121452332,
                -3.1913797855377197,
                -0.44285839796066284
            ],
            "min" : [
                -0.7832071781158447,
                -3.830562114715576,
                -0.9878625273704529
            ],
            "type" : "VEC3"
        },
        {
            "bufferView" : 25,
            "componentType" : 5126,
            "count" : 331,
            "type" : "VEC3"
        },
        {
            "bufferView" : 26,
            "componentType" : 5126,
            "count" : 331,
            "type" : "VEC2"
        },
        {
            "bufferView" : 27,
            "componentType" : 5123,
            "count" : 423,
            "type" : "SCALAR"
        },
        {
            "bufferView" : 28,
            "componentType" : 5126,
            "count" : 31,
            "max" : [
                -0.25643235445022583,
                -3.306187629699707,
                -0.7267131209373474
            ],
            "min" : [
                -0.4876527190208435,
                -3.449812412261963,
                -0.8801388740539551
            ],
            "type" : "VEC3"
        },
        {
            "bufferView" : 29,
            "componentType" : 5126,
            "count" : 31,
            "type" : "VEC3"
        },
        {
            "bufferView" : 30,
            "componentType" : 5126,
            "count" : 31,
            "type" : "VEC2"
        },
        {
            "bufferView" : 31,
            "componentType" : 5123,
            "count" : 33,
            "type" : "SCALAR"
        },
        {
            "bufferView" : 32,
            "componentType" : 5126,
            "count" : 576,
            "max" : [
                2.1748504638671875,
                -2.6750166416168213,
                2.4149913787841797
            ],
            "min" : [
                -0.9053321480751038,
                -4.551509380340576,
                -2.1228175163269043
            ],
            "type" : "VEC3"
        },
        {
            "bufferView" : 33,
            "componentType" : 5126,
            "count" : 576,
            "type" : "VEC3"
        },
        {
            "bufferView" : 34,
            "componentType" : 5126,
            "count" : 576,
            "type" : "VEC2"
        },
        {
            "bufferView" : 35,
            "componentType" : 5123,
            "count" : 738,
            "type" : "SCALAR"
        },
        {
            "bufferView" : 36,
            "componentType" : 5126,
            "count" : 544,
            "max" : [
                0.3037884831428528,
                -1.6211941242218018,
                0.25425106287002563
            ],
            "min" : [
                -0.24840718507766724,
                -1.9580631256103516,
                -0.2979446053504944
            ],
            "type" : "VEC3"
        },
        {
            "bufferView" : 37,
            "componentType" : 5126,
            "count" : 544,
            "type" : "VEC3"
        },
        {
            "bufferView" : 38,
            "componentType" : 5126,
            "count" : 544,
            "type" : "VEC2"
        },
        {
            "bufferView" : 39,
            "componentType" : 5123,
            "count" : 906,
            "type" : "SCALAR"
        }
    ],
    "bufferViews" : [
        {
            "buffer" : 0,
            "byteLength" : 130692,
            "byteOffset" : 0
        },
        {
            "buffer" : 0,
            "byteLength" : 130692,
            "byteOffset" : 130692
        },
        {
            "buffer" : 0,
            "byteLength" : 87128,
            "byteOffset" : 261384
        },
        {
            "buffer" : 0,
            "byteLength" : 68550,
            "byteOffset" : 348512
        },
        {
            "buffer" : 0,
            "byteLength" : 159672,
            "byteOffset" : 417064
        },
        {
            "buffer" : 0,
            "byteLength" : 159672,
            "byteOffset" : 576736
        },
        {
            "buffer" : 0,
            "byteLength" : 106448,
            "byteOffset" : 736408
        },
        {
            "buffer" : 0,
            "byteLength" : 47004,
            "byteOffset" : 842856
        },
        {
            "buffer" : 0,
            "byteLength" : 152064,
            "byteOffset" : 889860
        },
        {
            "buffer" : 0,
            "byteLength" : 152064,
            "byteOffset" : 1041924
        },
        {
            "buffer" : 0,
            "byteLength" : 101376,
            "byteOffset" : 1193988
        },
        {
            "buffer" : 0,
            "byteLength" : 37992,
            "byteOffset" : 1295364
        },
        {
            "buffer" : 0,
            "byteLength" : 132900,
            "byteOffset" : 1333356
        },
        {
            "buffer" : 0,
            "byteLength" : 132900,
            "byteOffset" : 1466256
        },
        {
            "buffer" : 0,
            "byteLength" : 88600,
            "byteOffset" : 1599156
        },
        {
            "buffer" : 0,
            "byteLength" : 68994,
            "byteOffset" : 1687756
        },
        {
            "buffer" : 0,
            "byteLength" : 13080,
            "byteOffset" : 1756752
        },
        {
            "buffer" : 0,
            "byteLength" : 13080,
            "byteOffset" : 1769832
        },
        {
            "buffer" : 0,
            "byteLength" : 8720,
            "byteOffset" : 1782912
        },
        {
            "buffer" : 0,
            "byteLength" : 10386,
            "byteOffset" : 1791632
        },
        {
            "buffer" : 0,
            "byteLength" : 146580,
            "byteOffset" : 1802020
        },
        {
            "buffer" : 0,
            "byteLength" : 146580,
            "byteOffset" : 1948600
        },
        {
            "buffer" : 0,
            "byteLength" : 97720,
            "byteOffset" : 2095180
        },
        {
            "buffer" : 0,
            "byteLength" : 36642,
            "byteOffset" : 2192900
        },
        {
            "buffer" : 0,
            "byteLength" : 3972,
            "byteOffset" : 2229544
        },
        {
            "buffer" : 0,
            "byteLength" : 3972,
            "byteOffset" : 2233516
        },
        {
            "buffer" : 0,
            "byteLength" : 2648,
            "byteOffset" : 2237488
        },
        {
            "buffer" : 0,
            "byteLength" : 846,
            "byteOffset" : 2240136
        },
        {
            "buffer" : 0,
            "byteLength" : 372,
            "byteOffset" : 2240984
        },
        {
            "buffer" : 0,
            "byteLength" : 372,
            "byteOffset" : 2241356
        },
        {
            "buffer" : 0,
            "byteLength" : 248,
            "byteOffset" : 2241728
        },
        {
            "buffer" : 0,
            "byteLength" : 66,
            "byteOffset" : 2241976
        },
        {
            "buffer" : 0,
            "byteLength" : 6912,
            "byteOffset" : 2242044
        },
        {
            "buffer" : 0,
            "byteLength" : 6912,
            "byteOffset" : 2248956
        },
        {
            "buffer" : 0,
            "byteLength" : 4608,
            "byteOffset" : 2255868
        },
        {
            "buffer" : 0,
            "byteLength" : 1476,
            "byteOffset" : 2260476
        },
        {
            "buffer" : 0,
            "byteLength" : 6528,
            "byteOffset" : 2261952
        },
        {
            "buffer" : 0,
            "byteLength" : 6528,
            "byteOffset" : 2268480
        },
        {
            "buffer" : 0,
            "byteLength" : 4352,
            "byteOffset" : 2275008
        },
        {
            "buffer" : 0,
            "byteLength" : 1812,
            "byteOffset" : 2279360
        }
    ],
    "buffers" : [
        {
            "byteLength" : 2281172,
            "uri" : "data:application/octet-stream;base64,"
        }
    ]
}
