<svg width="1440" height="257" viewBox="0 0 1440 257" fill="none" xmlns="http://www.w3.org/2000/svg">
<g opacity="0.7">
<path opacity="0.7" d="M1440 257H0V135.864C63.8334 145.73 221.4 155.151 341 113.903C386.965 98.0509 435.86 92.8038 486 92.8755C598.94 93.0372 718.195 120.185 824.5 113.903C951.901 106.375 1047.87 28.7799 1160 6.48786C1182.97 1.92108 1209.02 -0.936276 1233.5 0.28131C1257.25 1.46232 1288.1 4.45109 1308 7.99059C1384.64 21.6204 1423.46 48.8692 1440 63.7759V257Z" fill="#076E64"/>
<path d="M0 257H1440V168.864C1376.17 178.73 1218.6 188.151 1099 146.903C1053.04 131.051 1004.14 125.804 954 125.876C841.06 126.037 721.805 153.185 615.5 146.903C488.099 139.375 392.131 61.7799 280 39.4879C257.029 34.9211 230.984 32.0637 206.5 33.2813C182.751 34.4623 151.904 37.4511 132 40.9906C55.3556 54.6204 16.5385 81.8692 0 96.7759V257Z" fill="#089E8B"/>
</g>
</svg>
