<svg width="1440" height="690" viewBox="0 0 1440 690" fill="none" xmlns="http://www.w3.org/2000/svg">
<g clip-path="url(#clip0)">
<g filter="url(#filter0_d)">
<path d="M467 722.5L365 628.5L441 638L467 722.5Z" fill="#222222"/>
<path d="M879 659.5L872 686L882.5 719.5H1001.5L879 659.5Z" fill="#222222"/>
<path d="M882.5 719.5L789.5 627.5L879 659.5L872 686L882.5 719.5Z" fill="#222222"/>
<path d="M579.5 605L505 584.5L606.487 644.493L606.5 644.5L579.5 605Z" fill="#222222"/>
<path d="M628.5 609.5L579.5 605L606.491 644.487L615.499 630.5L628.5 609.5Z" fill="#222222"/>
<path d="M815 719L615.499 630.5L666 635.648L815 719Z" fill="#222222"/>
<path d="M628.5 609.5L718.5 641L769.5 602L628.5 609.5Z" fill="#222222"/>
<path d="M882.5 719.5L666 635.5L718.5 641L882.5 719.5Z" fill="#222222"/>
<path d="M882.5 719.5L789.5 627.5L718.5 641L882.5 719.5Z" fill="#222222"/>
<path d="M789.5 627.5L769.5 602L912.5 588L789.5 627.5Z" fill="#222222"/>
<path d="M789.5 627.5L879 659.5L918 620.5L789.5 627.5Z" fill="#222222"/>
<path d="M1001.5 719.5L1063 721L879 659.5L1001.5 719.5Z" fill="#222222"/>
<path d="M918 620.5L912.5 588L980 589.919L918 620.5Z" fill="#222222"/>
<path d="M1063 721L918 620.5L1140.5 720.5L1063 721Z" fill="#222222"/>
<path d="M1018 591L980 589.919L983.5 660L1018 591Z" fill="#222222"/>
<path d="M983.5 660L918 620.5L980 590L983.5 660Z" fill="#222222"/>
<path d="M1081 602.5L1018 591L983.5 660L1081 602.5Z" fill="#222222"/>
<path d="M1061.49 637.5L1140.5 720.5L1210 725L1061.49 637.5Z" fill="#222222"/>
<path d="M1165 626.5L1137.5 622L1100.5 677.267L1165 626.5Z" fill="#222222"/>
<path d="M1137.5 622L1081 602.5L1061.49 637.5L1137.5 622Z" fill="#222222"/>
<path d="M1165 626.306L1100.5 677.267L1311 723L1165 626.306Z" fill="#222222"/>
<path d="M1236.5 637.5L1311 723L1425.5 720.5L1236.5 637.5Z" fill="#222222"/>
<path d="M1311 723L1236.5 637.5L1165 626.5L1311 723Z" fill="#222222"/>
<path d="M1305 639.972L1236.5 637.5L1281 674L1305 639.972Z" fill="#222222"/>
<path d="M1425.5 720.5L1281 674L1305 640L1425.5 720.5Z" fill="#222222"/>
<path d="M1395 637.5L1305 640L1348.5 669L1395 637.5Z" fill="#222222"/>
<path d="M1305 639.972L1425.5 720.5L1489 696.5L1305 639.972Z" fill="#222222"/>
<path d="M1440 632L1395 637.5L1489 696.5L1496 621.5L1440 632Z" fill="#222222"/>
<path d="M1137.5 622L1061.5 637.5L1100.5 677.5L1137.5 622Z" fill="#222222"/>
<path d="M1140.5 720.5L983.5 660L1081 602.5L1140.5 720.5Z" fill="#222222"/>
<path d="M918 620.5L879 659.5L1063 721L918 620.5Z" fill="#222222"/>
<path d="M1348.5 669L1489 696.5L1395 637.5L1348.5 669Z" fill="#222222"/>
<path d="M336.5 560L359 521.5L371 586.5L336.5 560Z" fill="#222222"/>
<path d="M420 548.5L371 586.5L359 521.5L420 548.5Z" fill="#222222"/>
<path d="M333 719.5L309.5 677.5L336 601L335.986 601.539L333 719.5Z" fill="#222222"/>
<path d="M338 625L336 601.5L371 586.5L338 625Z" fill="#222222"/>
<path d="M467 722.5L333 719.5L365 628.5L467 722.5Z" fill="#222222"/>
<path d="M365 628.5L338 625L340.5 659L365 628.5Z" fill="#222222"/>
<path d="M919.5 591L869 559.5H915L919.5 591Z" fill="#222222"/>
<path d="M915 559.5L902 531.5L999 548L915 559.5Z" fill="#222222"/>
<path d="M977 516.5L941 538L999 548L977 516.5Z" fill="#222222"/>
<path d="M169 544.5L226 541L159 562.5L168.87 544.734L169 544.5Z" fill="#222222"/>
<path d="M271 506.5L271.078 506.564L328.5 553.5L255.5 509L262.776 507.827L271 506.5Z" fill="#222222"/>
<path d="M336 601.5L335.986 601.539L309.5 677.5L226.581 648.061L225 647.5L336 601.5Z" fill="#222222"/>
<path d="M255.5 508.5L186 519.5L226 541L255.5 508.5Z" fill="#222222"/>
<path d="M359 521.5L299 529.5L336.5 560L359 521.5Z" fill="#222222"/>
<path d="M186 519.5L149.5 546L168.87 544.734L226 541L186 519.5Z" fill="#222222"/>
<path d="M136.5 486.5L176 455H242L186 519.5L149.5 546L136.5 486.5Z" fill="#222222"/>
<path d="M255.5 509L297.5 534.5L266 587.5L255.5 509Z" fill="#222222"/>
<path d="M266 587.5L328.5 553.5L302 616L266 587.5Z" fill="#222222"/>
<path d="M297.5 534.5L328.5 553.5L266 587.5L297.5 534.5Z" fill="#222222"/>
<path d="M193.5 716L225 647L226.581 648.061L333 719.5L193.5 716Z" fill="#222222"/>
<path d="M299 529.5L280 496.5L359 521.5L299 529.5Z" fill="#222222"/>
<path d="M255.5 508.5L255.556 508.924L270 617.5L186 621L255.5 508.5Z" fill="#222222"/>
<path d="M124.5 506L128.934 498.795L136.5 486.5L149.5 546L124.5 506Z" fill="#222222"/>
<path d="M226 541L238 537L255.5 508.5L226 541Z" fill="#222222"/>
<path d="M159 664.5L128.5 617.5L159 562.5V664.5Z" fill="#222222"/>
<path d="M302 616L270 617.5L266 587.5L302 616Z" fill="#222222"/>
<path d="M159 562.5V664.5L238 537L159 562.5Z" fill="#222222"/>
<path d="M251.5 478.5L259.5 497L274 487L251.5 478.5Z" fill="#222222"/>
<path d="M274 487L259.5 497L271.117 506.558L299 529.5L274 487Z" fill="#222222"/>
<path d="M159 664.5L174.5 668L186 621L159 664.5Z" fill="#222222"/>
<path d="M302 616L371 586.5L328.5 553.5L302 616Z" fill="#222222"/>
<path d="M137 718.5L193.5 716L225 647L224.002 647.811L137 718.5Z" fill="#222222"/>
<path d="M186 621L302 616L224.002 647.811L174.5 668L186 621Z" fill="#222222"/>
<path d="M815 719L694.5 720L615.499 630.5L815 719Z" fill="#222222"/>
<path d="M333 719.5L340.5 659L365 628.5L333 719.5Z" fill="#222222"/>
<path d="M628.5 609.5L615.499 630.5L718.5 641L628.5 609.5Z" fill="#222222"/>
<path d="M815 719L666 635.5L882.5 719.5L815 719Z" fill="#222222"/>
<path d="M718.5 641L769.5 602L789.5 627.5L718.5 641Z" fill="#222222"/>
<path d="M912.5 588L918 620.5L789.5 627.5L912.5 588Z" fill="#222222"/>
<path d="M1210 725L1100.5 677.5L1311 723L1210 725Z" fill="#222222"/>
<path d="M979 548.5L1036.5 547L991.5 590.5L979 548.5Z" fill="#222222"/>
<path d="M979 548.5L991.5 590.5L946 554L979 548.5Z" fill="#222222"/>
<path d="M1012 590.5H991.5L1020 563L1012 590.5Z" fill="#222222"/>
<path d="M1020 563L1054 577.5L1012 590.5L1020 563Z" fill="#222222"/>
<path d="M946 554L919.5 591L915 559.5L946 554Z" fill="#222222"/>
<path d="M919.5 591L946 554L991.5 590.5L919.5 591Z" fill="#222222"/>
<path d="M271 506.5L271.078 506.564L271.117 506.558L259.5 497L251.5 478.5L242 455L186 519.5L255.5 508.5L255.556 508.924L262.776 507.827L271 506.5Z" fill="#222222"/>
<path d="M174.5 668L137 718.5L224.002 647.811L174.5 668Z" fill="#222222"/>
<path d="M333 719.5L309.5 677.5L226.581 648.061L333 719.5Z" fill="#222222"/>
<path d="M335.986 601.539L333 719.5L340.5 659L338 625L336 601.5L335.986 601.539Z" fill="#222222"/>
<path d="M606.486 644.502L694.5 720L615.499 630.5L606.491 644.487L606.5 644.5L606.486 644.502Z" fill="#222222"/>
<path d="M159 562.5L168.87 544.734L149.5 546L124.5 506L128.934 498.795L78 512L39 529L0 559.5L-41.5 624.5L-47 716L137 718.5L174.5 668L159 664.5L128.5 617.5L159 562.5Z" fill="#222222"/>
<path d="M441 638L467 722.5L556.5 724L694.5 720L606.486 644.502L606.483 644.5L606.487 644.493L505 584.5L420 548.5L371 586.5L441 638Z" fill="#222222"/>
<path d="M365 628.5L441 638L371 586.5L338 625L365 628.5Z" fill="#222222"/>
</g>
<path d="M175 341.5V406L210 386L175 341.5Z" fill="#222222"/>
<path d="M234.5 372V455L175 406L234.5 372Z" fill="#222222"/>
<path d="M234.5 310.5V372L210 386L234.5 310.5Z" fill="#222222"/>
<path d="M210 386L175 341.5L234.5 310.5L210 386Z" fill="#222222"/>
<path d="M193.5 294.307L175 287V229.5L193.5 294.307Z" fill="#222222"/>
<path d="M175 204.5V229.5L190 192.5L175 204.5Z" fill="#222222"/>
<path d="M234.5 272.5L175 229.5L190 192.5L234.5 272.5Z" fill="#222222"/>
<path d="M234.5 204.5V272.5L209.469 227.5L234.5 204.5Z" fill="#222222"/>
<path d="M234.5 204.5L209.5 227.5L190 192.5L234.5 204.5Z" fill="#222222"/>
<path d="M222.5 192.5L234.5 204.5L190 192.5H222.5Z" fill="#222222"/>
<path d="M284 310.5H234.5L295 288.5L284 310.5Z" fill="#222222"/>
<path d="M234.5 310.5L193.5 294.307L234.5 272.5V310.5Z" fill="#222222"/>
<path d="M257.5 281.5H234.5V310.5L257.5 281.5Z" fill="#222222"/>
<path d="M234.5 310.5L295 288.5L257.5 281.5L234.5 310.5Z" fill="#222222"/>
<path d="M259.5 255.5L257.5 281.5L295 288.5L259.5 255.5Z" fill="#222222"/>
<path d="M295 241V288.5L276 271L295 241Z" fill="#222222"/>
<path d="M284 231L295 241L276 271L284 231Z" fill="#222222"/>
<path d="M259.5 255.5V239L284 231L259.5 255.5Z" fill="#222222"/>
<path d="M276.174 271L259.5 255.5L284 231L276.174 271Z" fill="#222222"/>
<path d="M269 231L259.5 239L284 231H269Z" fill="#222222"/>
<path d="M175 287V341.5L234.5 310.5L175 287Z" fill="#222222"/>
<path d="M175 312.5V341.5L155.5 312.5H175Z" fill="#222222"/>
<path d="M125 341.5H175L155.5 312.5L125 341.5Z" fill="#222222"/>
<path d="M117 285.5V328L138.5 319.5L117 285.5Z" fill="#222222"/>
<path d="M155.5 312.5L125 341.5L117 328L155.5 312.5Z" fill="#222222"/>
<path d="M138.5 319.5L117 285.5L128 275.5L138.5 319.5Z" fill="#222222"/>
<path d="M142.5 275.5H128L151.5 285.5L142.5 275.5Z" fill="#222222"/>
<path d="M138.5 319.5L151.5 285.5L128 275.5L138.5 319.5Z" fill="#222222"/>
<path d="M155.5 312.5L151.5 285.5L138.5 319.5L155.5 312.5Z" fill="#222222"/>
<path d="M175 406V455L234.5 455L175 406Z" fill="#222222"/>
<path d="M234.5 272.5L193.5 294.5L175 229.5L234.5 272.5Z" fill="#222222"/>
<g opacity="0.9">
<path d="M372 690L365 629L441 638.5L372 690Z" fill="#0CC1AB" stroke="#00AE98" stroke-width="0.5"/>
<path d="M502.5 661L467 722.5L577.5 690L502.5 661Z" fill="#0DD1B9" stroke="#00AE98" stroke-width="0.5"/>
<path d="M467 722.5L556.5 724L577.5 690L467 722.5Z" fill="#0B9685" stroke="#00AE98" stroke-width="0.5"/>
<path d="M879 660L764 690H881.5L879 660Z" fill="#09AD99" stroke="#00AE98" stroke-width="0.5"/>
<path d="M764 690L789.5 628L879 660L764 690Z" fill="#089E8B" stroke="#00AE98" stroke-width="0.5"/>
<path d="M485.5 690L459 625L333 719.5L485.5 690Z" fill="#079180" stroke="#00AE98" stroke-width="0.5"/>
<path d="M467 722.5L485.5 690L333 719.5L467 722.5Z" fill="#0BAB97" stroke="#00AE98" stroke-width="0.5"/>
<path d="M333 719.5L343 690L193.5 716L333 719.5Z" fill="#0B9F8D" stroke="#00AE98" stroke-width="0.5"/>
<path d="M502.5 661L469.5 651L485.5 690L502.5 661Z" fill="#09BAA4" stroke="#00AE98" stroke-width="0.5"/>
<path d="M371 587L420 549L459 625L371 587Z" fill="#09BAA4" stroke="#00AE98" stroke-width="0.5"/>
<path d="M338 625.5L371 587L441 638.448L338 625.5Z" fill="#079180" stroke="#00AE98" stroke-width="0.5"/>
<path d="M505 585L420 549L459 625L505 585Z" fill="#089E8B" stroke="#00AE98" stroke-width="0.5"/>
<path d="M606.483 645L577.5 690L502.5 661L606.483 645Z" fill="#079180" stroke="#00AE98" stroke-width="0.5"/>
<path d="M469.5 651L502.5 661L505.001 585L469.5 651Z" fill="#0D7C6F" stroke="#00AE98" stroke-width="0.5"/>
<path d="M606.5 645L502.5 661L505 585L606.5 645Z" fill="#089E8B" stroke="#00AE98" stroke-width="0.5"/>
<path d="M459 625L469.5 651L505 585L459 625Z" fill="#19AB99" stroke="#00AE98" stroke-width="0.5"/>
<path d="M579.5 605.5L505 585L606.5 645L579.5 605.5Z" fill="#08A390" stroke="#00AE98" stroke-width="0.5"/>
<path d="M628.5 610L579.5 605.5L606.491 644.987L615.499 631L628.5 610Z" fill="#0EC0AB"/>
<path d="M606.482 645L615.499 631L628.5 610L579.5 605.5L606.5 645" stroke="#00AE98" stroke-width="0.5"/>
<path d="M668.5 690L615.5 631L666 636.148L668.5 690Z" fill="#089E8B" stroke="#00AE98" stroke-width="0.5"/>
<path d="M628.5 610L718.5 641.5L769.5 602.5L628.5 610Z" fill="#09BAA4" stroke="#00AE98" stroke-width="0.5"/>
<path d="M764 690L666 636L718.5 641.5L764 690Z" fill="#09BAA4" stroke="#00AE98" stroke-width="0.5"/>
<path d="M764 690L789.5 628L718.5 641.5L764 690Z" fill="#11B09D" stroke="#00AE98" stroke-width="0.5"/>
<path d="M789.5 628L769.5 602.5L912.5 588.5L789.5 628Z" fill="#09BAA4" stroke="#00AE98" stroke-width="0.5"/>
<path d="M789.5 628L879 660L918 621L789.5 628Z" fill="#09BAA4" stroke="#00AE98" stroke-width="0.5"/>
<path d="M882.5 719.5L977 690L879 660L882.5 719.5Z" fill="#079180" stroke="#00AE98" stroke-width="0.5"/>
<path d="M882.5 719.5H1001.5L976.502 690L882.5 719.5Z" fill="#13A291" stroke="#00AE98" stroke-width="0.5"/>
<path d="M814.5 719L881 689.5L764 690L814.5 719Z" fill="#079180" stroke="#00AE98" stroke-width="0.5"/>
<path d="M882.5 719.5L880.5 690L815 719L882.5 719.5Z" fill="#0FBFAA" stroke="#00AE98" stroke-width="0.5"/>
<path d="M918 621L912.5 588.5L980 590.419L918 621Z" fill="#19AB99" stroke="#00AE98" stroke-width="0.5"/>
<path d="M1001.5 719.5L918 621L1085 721.5L1001.5 719.5Z" fill="#007D6E" stroke="#00AE98" stroke-width="0.5"/>
<path d="M1018 591.5L980 590.419L983.5 660.5L1018 591.5Z" fill="#089E8B" stroke="#00AE98" stroke-width="0.5"/>
<path d="M983.5 660.5L918 621L980 590.5L983.5 660.5Z" fill="#11B09D" stroke="#00AE98" stroke-width="0.5"/>
<path d="M1081 603L1018 591.5L983.5 660.5L1081 603Z" fill="#09BAA4" stroke="#00AE98" stroke-width="0.5"/>
<path d="M1061.49 638L1032.5 690L1140.5 720.5L1061.49 638Z" fill="#09BAA4" stroke="#00AE98" stroke-width="0.5"/>
<path d="M1032.5 690L1084.5 721.5L1140.5 720.5L1032.5 690Z" fill="#0B9F8D" stroke="#00AE98" stroke-width="0.5"/>
<path d="M1165 627L1137.5 622.5L1100.5 677.767L1165 627Z" fill="#09AD99" stroke="#00AE98" stroke-width="0.5"/>
<path d="M1137.5 622.5L1081 603L1061.49 638L1137.5 622.5Z" fill="#0DD1B9" stroke="#00AE98" stroke-width="0.5"/>
<path d="M1165 626.806L1100.5 677.768L1220.5 690L1165 626.806Z" fill="#0DD1B9" stroke="#00AE98" stroke-width="0.5"/>
<path d="M1236.5 638L1210 725L1300 690L1236.5 638Z" fill="#09BAA4" stroke="#00AE98" stroke-width="0.5"/>
<path d="M1220.5 690L1236.5 638L1165 627L1220.5 690Z" fill="#089E8B" stroke="#00AE98" stroke-width="0.5"/>
<path d="M1305 640.472L1236.5 638L1281 674.5L1305 640.472Z" fill="#19AB99" stroke="#00AE98" stroke-width="0.5"/>
<path d="M1300 690L1281 674.5L1305 640.5L1300 690Z" fill="#0D7C6F" stroke="#00AE98" stroke-width="0.5"/>
<path d="M1395 638L1305 640.5L1348.5 669.5L1395 638Z" fill="#0DD1B9" stroke="#00AE98" stroke-width="0.5"/>
<path d="M1305 640.472L1300 690L1425.5 720.5L1305 640.472Z" fill="#09BAA4" stroke="#00AE98" stroke-width="0.5"/>
<path d="M1300 690L1210 725L1425.5 720.5L1300 690Z" fill="#179C8C" stroke="#00AE98" stroke-width="0.5"/>
<path d="M1489 696.5L1440 632L1380 690L1489 696.5Z" fill="#00AE98" stroke="#00AE98" stroke-width="0.5"/>
<path d="M1489.5 696.5L1496 621.5L1440 632L1489.5 696.5Z" fill="#179C8C" stroke="#00AE98" stroke-width="0.5"/>
<path d="M1425.5 720.5L1489 696.5L1380 690L1425.5 720.5Z" fill="#0E8A7B" stroke="#00AE98" stroke-width="0.5"/>
<path d="M1440 632L1395 638L1380 690L1440 632Z" fill="#0C9685" stroke="#00AE98" stroke-width="0.5"/>
<path d="M1137.5 622.5L1061.5 638L1100 678L1137.5 622.5Z" fill="#089E8B" stroke="#00AE98" stroke-width="0.5"/>
<path d="M1032.5 690L983.5 660.5L1081 603L1032.5 690Z" fill="#11B09D" stroke="#00AE98" stroke-width="0.5"/>
<path d="M918 621L879 660L977 690L918 621Z" fill="#0DD1B9" stroke="#00AE98" stroke-width="0.5"/>
<path d="M1348.5 669.5L1380 690L1395 638L1348.5 669.5Z" fill="#16AA98" stroke="#00AE98" stroke-width="0.5"/>
<path d="M336.5 560.5L359 522L371 587L336.5 560.5Z" fill="#09BAA4" stroke="#00AE98" stroke-width="0.5"/>
<path d="M420 549L371 587L359 522L420 549Z" fill="#09AD99" stroke="#00AE98" stroke-width="0.5"/>
<path d="M343 690L309.5 678L336 601.5L343 690Z" fill="#079180" stroke="#00AE98" stroke-width="0.5"/>
<path d="M338 625.5L336 602L371 587L338 625.5Z" fill="#09BAA4" stroke="#00AE98" stroke-width="0.5"/>
<path d="M372 690H343L365 629L372 690Z" fill="#11B09D" stroke="#00AE98" stroke-width="0.5"/>
<path d="M333 719.5L343 690H372L333 719.5Z" fill="#037466" stroke="#00AE98" stroke-width="0.5"/>
<path d="M365 629L338 625.5L340.5 659.5L365 629Z" fill="#007D6E" stroke="#00AE98" stroke-width="0.5"/>
<path d="M919.5 591.5L869 560H915L919.5 591.5Z" fill="#079180" stroke="#00AE98" stroke-width="0.5"/>
<path d="M915 560L902 532L999 548.5L915 560Z" fill="#19AB99" stroke="#00AE98" stroke-width="0.5"/>
<path d="M977 517L941 538.5L999 548.5L977 517Z" fill="#0A9685" stroke="#00AE98" stroke-width="0.5"/>
<path d="M175 341.5V406L210 386L175 341.5Z" fill="#118D7E" stroke="#00AE98" stroke-width="0.5"/>
<path d="M234.5 372V455L175 406L234.5 372Z" fill="#00AE98" stroke="#00AE98" stroke-width="0.5"/>
<path d="M234.5 310.5V372L210 386L234.5 310.5Z" fill="#118C7D" stroke="#00AE98" stroke-width="0.5"/>
<path d="M210 386L175 341.5L234.5 310.5L210 386Z" fill="#09BAA4" stroke="#00AE98" stroke-width="0.5"/>
<path d="M193.5 294.307L175 287V229.5L193.5 294.307Z" fill="#078A7A" stroke="#00AE98" stroke-width="0.5"/>
<path d="M175 204.5V229.5L190 192.5L175 204.5Z" fill="#089E8B" stroke="#00AE98" stroke-width="0.5"/>
<path d="M234.5 272.5L175 229.5L190 192.5L234.5 272.5Z" fill="#09BAA4" stroke="#00AE98" stroke-width="0.5"/>
<path d="M234.5 204.5V272.5L209.469 227.5L234.5 204.5Z" fill="#09AD99" stroke="#00AE98" stroke-width="0.5"/>
<path d="M234.5 204.5L209.5 227.5L190 192.5L234.5 204.5Z" fill="#078A7A" stroke="#00AE98" stroke-width="0.5"/>
<path d="M222.5 192.5L234.5 204.5L190 192.5H222.5Z" fill="#0CC1AB" stroke="#00AE98" stroke-width="0.5"/>
<path d="M284 310.5H234.5L295 288.5L284 310.5Z" fill="#078A7A" stroke="#00AE98" stroke-width="0.5"/>
<path d="M234.5 310.5L193.5 294.307L234.5 272.5V310.5Z" fill="#09BAA4" stroke="#00AE98" stroke-width="0.5"/>
<path d="M257.5 281.5H234.5V310.5L257.5 281.5Z" fill="#089E8B" stroke="#00AE98" stroke-width="0.5"/>
<path d="M234.5 310.5L295 288.5L257.5 281.5L234.5 310.5Z" fill="#0CC1AB" stroke="#00AE98" stroke-width="0.5"/>
<path d="M259.5 255.5L257.5 281.5L295 288.5L259.5 255.5Z" fill="#09AD99" stroke="#00AE98" stroke-width="0.5"/>
<path d="M295 241V288.5L276 271L295 241Z" fill="#09BAA4" stroke="#00AE98" stroke-width="0.5"/>
<path d="M284 231L295 241L276 271L284 231Z" fill="#078A7A" stroke="#00AE98" stroke-width="0.5"/>
<path d="M259.5 255.5V239L284 231L259.5 255.5Z" fill="#0CC1AB" stroke="#00AE98" stroke-width="0.5"/>
<path d="M276.174 271L259.5 255.5L284 231L276.174 271Z" fill="#089E8B" stroke="#00AE98" stroke-width="0.5"/>
<path d="M269 231L259.5 239L284 231H269Z" fill="#09BAA4" stroke="#00AE98" stroke-width="0.5"/>
<path d="M175 287V341.5L234.5 310.5L175 287Z" fill="#089E8B" stroke="#00AE98" stroke-width="0.5"/>
<path d="M175 312.5V341.5L155.5 312.5H175Z" fill="#09BAA4" stroke="#00AE98" stroke-width="0.5"/>
<path d="M125 341.5H175L155.5 312.5L125 341.5Z" fill="#089E8B" stroke="#00AE98" stroke-width="0.5"/>
<path d="M117 285.5V328L138.5 319.5L117 285.5Z" fill="#0CC1AB" stroke="#00AE98" stroke-width="0.5"/>
<path d="M155.5 312.5L125 341.5L117 328L155.5 312.5Z" fill="#078A7A" stroke="#00AE98" stroke-width="0.5"/>
<path d="M138.5 319.5L117 285.5L128 275.5L138.5 319.5Z" fill="#089E8B" stroke="#00AE98" stroke-width="0.5"/>
<path d="M142.5 275.5H128L151.5 285.5L142.5 275.5Z" fill="#078A7A" stroke="#00AE98" stroke-width="0.5"/>
<path d="M138.5 319.5L151.5 285.5L128 275.5L138.5 319.5Z" fill="#09BAA4" stroke="#00AE98" stroke-width="0.5"/>
<path d="M155.5 312.5L151.5 285.5L138.5 319.5L155.5 312.5Z" fill="#09AD99" stroke="#00AE98" stroke-width="0.5"/>
<path d="M175 406V455H234.5L175 406Z" fill="#078A7A" stroke="#00AE98" stroke-width="0.5"/>
<path d="M234.5 272.5L193.5 294.5L175 229.5L234.5 272.5Z" fill="#0CC1AB" stroke="#00AE98" stroke-width="0.5"/>
<path d="M-41.0074 624.196L0.0477562 560.388L56.9313 613.809L-41.0074 624.196Z" fill="#09AD99" stroke="#00AE98" stroke-width="0.5"/>
<path d="M-41.0746 624.704L56.9525 613.812L0.0175438 689.561L-41.0746 624.704Z" fill="#0A8677" stroke="#00AE98" stroke-width="0.5"/>
<path d="M159.526 562.569L169.152 545.241L224.023 541.872L159.526 562.569Z" fill="#09AD99" stroke="#00AE98" stroke-width="0.5"/>
<path d="M256.208 509.639L270.929 507.265L325.537 551.901L256.208 509.639Z" fill="#08A390" stroke="#00AE98" stroke-width="0.5"/>
<path d="M102.718 651.339L0.716415 689.465L88.8535 572.609L102.718 651.339Z" fill="#089E8B" stroke="#00AE98" stroke-width="0.5"/>
<path d="M225.696 647.982L335.58 602.445L309.347 677.68L225.696 647.982Z" fill="#089E8B" stroke="#00AE98" stroke-width="0.5"/>
<path d="M88.7342 572.437L57.9613 612.979L77.9881 513.822L88.7342 572.437Z" fill="#09AD99" stroke="#00AE98" stroke-width="0.5"/>
<path d="M57.0833 613.266L0.383652 560.017L38.8408 529.942L57.0833 613.266Z" fill="#079180" stroke="#00AE98" stroke-width="0.5"/>
<path d="M225.946 541.187L186.772 520.131L254.837 509.358L225.946 541.187Z" fill="#079180" stroke="#00AE98" stroke-width="0.5"/>
<path d="M336.431 560.122L299.607 530.171L358.526 522.315L336.431 560.122Z" fill="#079180" stroke="#00AE98" stroke-width="0.5"/>
<path d="M57.4901 612.786L39.2881 529.647L77.6599 512.921L57.4901 612.786Z" fill="#09BAA4" stroke="#00AE98" stroke-width="0.5"/>
<path d="M225.114 541.307L150.347 546.194L186.02 520.295L225.114 541.307Z" fill="#078A7A" stroke="#00AE98" stroke-width="0.5"/>
<path d="M103.217 651.295L85.4643 552.174L158.449 664.61L103.217 651.295Z" fill="#08A390" stroke="#00AE98" stroke-width="0.5"/>
<path d="M149.663 546.073L136.876 487.551L185.562 520.009L149.663 546.073Z" fill="#08A390" stroke="#00AE98" stroke-width="0.5"/>
<path d="M85.1546 550.453L78.2875 512.684L131.262 498.95L85.1546 550.453Z" fill="#089E8B" stroke="#00AE98" stroke-width="0.5"/>
<path d="M297.159 535.085L266.152 587.254L255.817 509.985L297.159 535.085Z" fill="#089E8B" stroke="#00AE98" stroke-width="0.5"/>
<path d="M128.483 617.515L85.4404 551.219L168.558 545.282L128.483 617.515Z" fill="#09BAA4" stroke="#00AE98" stroke-width="0.5"/>
<path d="M301.898 616.1L266.452 588.039L327.99 554.562L301.898 616.1Z" fill="#09BAA4" stroke="#00AE98" stroke-width="0.5"/>
<path d="M266.68 587.346L297.585 535.346L328.001 553.987L266.68 587.346Z" fill="#11B09D" stroke="#00AE98" stroke-width="0.5"/>
<path d="M225.132 647.813L342.033 689.917L193.925 716.171L225.132 647.813Z" fill="#09BAA4" stroke="#00AE98" stroke-width="0.5"/>
<path d="M357.856 521.9L299.133 529.73L280.537 497.432L357.856 521.9Z" fill="#09BAA4" stroke="#00AE98" stroke-width="0.5"/>
<path d="M186.46 621.231L255.345 509.727L269.716 617.762L186.46 621.231Z" fill="#09BAA4" stroke="#00AE98" stroke-width="0.5"/>
<path d="M241.833 455.25L258.896 496.689L207.706 455.25H241.833Z" fill="#09BAA4" stroke="#00AE98" stroke-width="0.5"/>
<path d="M149.067 546.28L85.5935 550.708L124.465 506.916L149.067 546.28Z" fill="#09AD99" stroke="#00AE98" stroke-width="0.5"/>
<path d="M148.948 545.145L124.794 506.499L136.388 487.659L148.948 545.145Z" fill="#079180" stroke="#00AE98" stroke-width="0.5"/>
<path d="M185.657 519.471L136.918 486.978L174.826 455.47L185.657 519.471Z" fill="#09AD99" stroke="#00AE98" stroke-width="0.5"/>
<path d="M186.076 518.951L175.296 455.25H206.657L186.076 518.951Z" fill="#079180" stroke="#00AE98" stroke-width="0.5"/>
<path d="M122.618 689.681L103.467 651.868L173.69 668.564L122.618 689.681Z" fill="#09AD99" stroke="#00AE98" stroke-width="0.5"/>
<path d="M237.835 537.292L226.827 540.961L253.887 511.149L237.835 537.292Z" fill="#007D6E" stroke="#00AE98" stroke-width="0.5"/>
<path d="M186.362 519.692L207.126 455.423L270.901 506.838L186.362 519.692Z" fill="#09AD99" stroke="#00AE98" stroke-width="0.5"/>
<path d="M128.791 617.99L158.75 563.966V664.155L128.791 617.99Z" fill="#09AD99" stroke="#00AE98" stroke-width="0.5"/>
<path d="M270.217 617.74L266.33 588.58L301.321 616.282L270.217 617.74Z" fill="#09AD99" stroke="#00AE98" stroke-width="0.5"/>
<path d="M237.429 537.947L159.25 664.122V563.182L237.429 537.947Z" fill="#089E8B" stroke="#00AE98" stroke-width="0.5"/>
<path d="M273.483 487.553L259.614 497.118L251.961 478.466L273.483 487.553Z" fill="#089E8B" stroke="#00AE98" stroke-width="0.5"/>
<path d="M298.069 528.91L259.915 497.518L273.921 487.858L298.069 528.91Z" fill="#00917F" stroke="#00AE98" stroke-width="0.5"/>
<path d="M185.384 622.967L174.316 668.202L159.398 664.833L185.384 622.967Z" fill="#007D6E" stroke="#00AE98" stroke-width="0.5"/>
<path d="M328.603 554.397L370.511 586.937L302.472 616.026L328.603 554.397Z" fill="#09A995" stroke="#00AE98" stroke-width="0.5"/>
<path d="M224.509 647.974L193.369 716.184L123.182 689.988L224.509 647.974Z" fill="#078A7A" stroke="#00AE98" stroke-width="0.5"/>
<path d="M137.152 718.743L123.004 689.959L192.281 716.304L137.152 718.743Z" fill="#0B9180" stroke="#00AE98" stroke-width="0.5"/>
<path d="M0.893445 689.933L102.879 651.812L137.039 718.647L0.893445 689.933Z" fill="#079180" stroke="#00AE98" stroke-width="0.5"/>
<path d="M-46.07 715.763L0.0405655 689.764L134.448 718.215L-46.07 715.763Z" fill="#0BAB97" stroke="#00AE98" stroke-width="0.5"/>
<path d="M174.859 668.083L186.198 621.742L300.574 616.812L174.859 668.083Z" fill="#079180" stroke="#00AE98" stroke-width="0.5"/>
<path d="M441 638.5L371 587L459 625L441 638.5Z" fill="#0DAC98" stroke="#00AE98" stroke-width="0.5"/>
<path d="M695 720L556.5 724L615.5 631L695 720Z" fill="#09BAA4" stroke="#00AE98" stroke-width="0.5"/>
<path d="M343 690L340.5 659.5L365 629L343 690Z" fill="#09BAA4" stroke="#00AE98" stroke-width="0.5"/>
<path d="M628.5 610L615.5 631L718.5 641.5L628.5 610Z" fill="#09AD99" stroke="#00AE98" stroke-width="0.5"/>
<path d="M668.5 690L666 636L815.5 719L668.5 690Z" fill="#09AD99" stroke="#00AE98" stroke-width="0.5"/>
<path d="M695 720L668.5 690L815 719L695 720Z" fill="#0B9180" stroke="#00AE98" stroke-width="0.5"/>
<path d="M718.5 641.5L769.5 602.5L789.5 628L718.5 641.5Z" fill="#007D6E" stroke="#00AE98" stroke-width="0.5"/>
<path d="M912.5 588.5L918 621L789.5 628L912.5 588.5Z" fill="#089E8B" stroke="#00AE98" stroke-width="0.5"/>
<path d="M1140.5 720.5L1100 678L1220.5 690L1140.5 720.5Z" fill="#0D7C6F" stroke="#00AE98" stroke-width="0.5"/>
<path d="M1210 725L1140.5 720.5L1220.5 690L1210 725Z" fill="#1A9D8D" stroke="#00AE98" stroke-width="0.5"/>
<path d="M979 549L1036.5 547.5L991.5 591L979 549Z" fill="#007D6E" stroke="#00AE98" stroke-width="0.5"/>
<path d="M979 549L991.5 591L946 554.5L979 549Z" fill="#0E9A89" stroke="#00AE98" stroke-width="0.5"/>
<path d="M1012 591H991.5L1020 563.5L1012 591Z" fill="#09BAA4" stroke="#00AE98" stroke-width="0.5"/>
<path d="M1020 563.5L1054 578L1012 591L1020 563.5Z" fill="#0D7C6F" stroke="#00AE98" stroke-width="0.5"/>
<path d="M946 554.5L919.5 591.5L915 560L946 554.5Z" fill="#007D6E" stroke="#00AE98" stroke-width="0.5"/>
<path d="M919.5 591.5L946 554.5L991.5 591L919.5 591.5Z" fill="#079180" stroke="#00AE98" stroke-width="0.5"/>
</g>
</g>
<defs>
<filter id="filter0_d" x="-58" y="427" width="1565" height="298" filterUnits="userSpaceOnUse" color-interpolation-filters="sRGB">
<feFlood flood-opacity="0" result="BackgroundImageFix"/>
<feColorMatrix in="SourceAlpha" type="matrix" values="0 0 0 0 0 0 0 0 0 0 0 0 0 0 0 0 0 0 127 0"/>
<feOffset dy="-17"/>
<feGaussianBlur stdDeviation="5.5"/>
<feColorMatrix type="matrix" values="0 0 0 0 0 0 0 0 0 0 0 0 0 0 0 0 0 0 0.4 0"/>
<feBlend mode="normal" in2="BackgroundImageFix" result="effect1_dropShadow"/>
<feBlend mode="normal" in="SourceGraphic" in2="effect1_dropShadow" result="shape"/>
</filter>
<clipPath id="clip0">
<rect width="1440" height="690" fill="white"/>
</clipPath>
</defs>
</svg>
