<svg width="50" height="50" viewBox="0 0 50 50" fill="none" xmlns="http://www.w3.org/2000/svg">
<path d="M50 0H0V50H50V0Z" fill="white" fill-opacity="0.01"/>
<path d="M24.9994 45.8334C30.7523 45.8334 35.9606 43.5015 39.7307 39.7314C43.5008 35.9613 45.8327 30.753 45.8327 25.0001C45.8327 19.2472 43.5008 14.0388 39.7307 10.2687C35.9606 6.4986 30.7523 4.16675 24.9994 4.16675C19.2464 4.16675 14.0381 6.4986 10.268 10.2687C6.49787 14.0388 4.16602 19.2472 4.16602 25.0001C4.16602 30.753 6.49787 35.9613 10.268 39.7314C14.0381 43.5015 19.2464 45.8334 24.9994 45.8334Z" fill="#00AE98" stroke="#E5E5E5" stroke-width="2" stroke-linejoin="round"/>
<path d="M25 29.8175V25.6509C28.4518 25.6509 31.25 22.8527 31.25 19.4009C31.25 15.9491 28.4518 13.1509 25 13.1509C21.5482 13.1509 18.75 15.9491 18.75 19.4009" stroke="#E5E5E5" stroke-width="2" stroke-linecap="round" stroke-linejoin="round"/>
<path fill-rule="evenodd" clip-rule="evenodd" d="M25.0007 39.1927C26.4389 39.1927 27.6048 38.0268 27.6048 36.5885C27.6048 35.1503 26.4389 33.9844 25.0007 33.9844C23.5624 33.9844 22.3965 35.1503 22.3965 36.5885C22.3965 38.0268 23.5624 39.1927 25.0007 39.1927Z" fill="#E5E5E5"/>
</svg>
