<svg width="50" height="50" viewBox="0 0 50 50" fill="none" xmlns="http://www.w3.org/2000/svg">
<path d="M14.5833 35.4167C17.4598 35.4167 19.7917 33.0848 19.7917 30.2083C19.7917 27.3318 17.4598 25 14.5833 25C11.7069 25 9.375 27.3318 9.375 30.2083C9.375 33.0848 11.7069 35.4167 14.5833 35.4167Z" fill="#00AE98" stroke="#E5E5E5" stroke-width="2" stroke-linecap="round" stroke-linejoin="round"/>
<path d="M35.4173 35.4167C38.2938 35.4167 40.6257 33.0848 40.6257 30.2083C40.6257 27.3318 38.2938 25 35.4173 25C32.5408 25 30.209 27.3318 30.209 30.2083C30.209 33.0848 32.5408 35.4167 35.4173 35.4167Z" fill="#00AE98" stroke="#E5E5E5" stroke-width="2" stroke-linecap="round" stroke-linejoin="round"/>
<path d="M24.9994 14.5834C27.8758 14.5834 30.2077 12.2516 30.2077 9.37508C30.2077 6.4986 27.8758 4.16675 24.9994 4.16675C22.1229 4.16675 19.791 6.4986 19.791 9.37508C19.791 12.2516 22.1229 14.5834 24.9994 14.5834Z" fill="#00AE98" stroke="#E5E5E5" stroke-width="2" stroke-linecap="round" stroke-linejoin="round"/>
<path d="M24.9993 45.8334C24.9993 40.0805 20.3356 35.4167 14.5827 35.4167C8.82971 35.4167 4.16602 40.0805 4.16602 45.8334" stroke="#E5E5E5" stroke-width="2" stroke-linecap="round" stroke-linejoin="round"/>
<path d="M45.8333 45.8334C45.8333 40.0805 41.1696 35.4167 35.4167 35.4167C29.6638 35.4167 25 40.0805 25 45.8334" stroke="#E5E5E5" stroke-width="2" stroke-linecap="round" stroke-linejoin="round"/>
<path d="M35.4173 24.9999C35.4173 19.247 30.7536 14.5833 25.0007 14.5833C19.2477 14.5833 14.584 19.247 14.584 24.9999" stroke="#E5E5E5" stroke-width="2" stroke-linecap="round" stroke-linejoin="round"/>
</svg>
