<svg width="304" height="374" viewBox="0 0 304 374" fill="none" xmlns="http://www.w3.org/2000/svg">
<path d="M2 2C8.95364 2 13.9205 8.41333 13.9205 16.8V164.8C13.9205 173.433 19.0861 179.6 25.8411 179.6H50.6755" stroke="#222222" stroke-width="3" stroke-linecap="round" stroke-linejoin="round"/>
<path d="M2 372C8.95364 372 13.9205 365.587 13.9205 357.2V209.2C13.9205 200.567 19.0861 194.4 25.8411 194.4H50.6755" stroke="#222222" stroke-width="3" stroke-linecap="round" stroke-linejoin="round"/>
<path d="M302 2C295.046 2 290.079 8.41333 290.079 16.8V164.8C290.079 173.433 284.914 179.6 278.159 179.6H253.325" stroke="#222222" stroke-width="3" stroke-linecap="round" stroke-linejoin="round"/>
<path d="M302 372C295.046 372 290.079 365.587 290.079 357.2V209.2C290.079 200.567 284.914 194.4 278.159 194.4H253.325" stroke="#222222" stroke-width="3" stroke-linecap="round" stroke-linejoin="round"/>
</svg>
