<svg width="294" height="314" viewBox="0 0 294 314" fill="none" xmlns="http://www.w3.org/2000/svg">
<path d="M2 2C8.72185 2 13.5232 7.37333 13.5232 14.4V138.4C13.5232 145.633 18.5166 150.8 25.0464 150.8H49.053" stroke="#222222" stroke-width="3" stroke-linecap="round" stroke-linejoin="round"/>
<path d="M2 312C8.72185 312 13.5232 306.627 13.5232 299.6V175.6C13.5232 168.367 18.5166 163.2 25.0464 163.2H49.053" stroke="#222222" stroke-width="3" stroke-linecap="round" stroke-linejoin="round"/>
<path d="M292 2C285.278 2 280.477 7.37333 280.477 14.4V138.4C280.477 145.633 275.483 150.8 268.954 150.8H244.947" stroke="#222222" stroke-width="3" stroke-linecap="round" stroke-linejoin="round"/>
<path d="M292 312C285.278 312 280.477 306.627 280.477 299.6V175.6C280.477 168.367 275.483 163.2 268.954 163.2H244.947" stroke="#222222" stroke-width="3" stroke-linecap="round" stroke-linejoin="round"/>
<path d="M2 2C8.72185 2 13.5232 7.37333 13.5232 14.4V138.4C13.5232 145.633 18.5166 150.8 25.0464 150.8H49.053" stroke="#222222" stroke-width="3" stroke-linecap="round" stroke-linejoin="round"/>
<path d="M2 312C8.72185 312 13.5232 306.627 13.5232 299.6V175.6C13.5232 168.367 18.5166 163.2 25.0464 163.2H49.053" stroke="#222222" stroke-width="3" stroke-linecap="round" stroke-linejoin="round"/>
<path d="M292 2C285.278 2 280.477 7.37333 280.477 14.4V138.4C280.477 145.633 275.483 150.8 268.954 150.8H244.947" stroke="#222222" stroke-width="3" stroke-linecap="round" stroke-linejoin="round"/>
<path d="M292 312C285.278 312 280.477 306.627 280.477 299.6V175.6C280.477 168.367 275.483 163.2 268.954 163.2H244.947" stroke="#222222" stroke-width="3" stroke-linecap="round" stroke-linejoin="round"/>
</svg>
