<svg width="1099" height="853" viewBox="0 0 1099 853" fill="none" xmlns="http://www.w3.org/2000/svg">
<g clip-path="url(#clip0)">
<path d="M1089.9 17L964.099 838.4H732.399L547.699 235.1L372.099 838.4H134.299L8.69922 17H242.199L308.299 448.9L436.799 7.5H655.999L790.499 446.6L856.199 17H1089.9Z" fill="#00AE98" stroke="#003034" stroke-width="15" stroke-miterlimit="10"/>
<path d="M985.7 59.7H891.2C886.9 59.7 883.4 56.3 883.4 52C883.4 47.7 886.8 44.2 891.1 44.2H985.6C989.9 44.2 993.4 47.7 993.4 52C993.4 56.2 990 59.7 985.7 59.7Z" fill="#006258"/>
<path d="M171.5 813.5C167.7 813.5 164.4 810.6 163.9 806.8L44.5997 53.0999C43.7997 48.7999 46.6997 44.6999 50.8997 43.9999C51.2997 43.8999 51.6997 43.8999 52.0997 43.8999H216.5C220.9 43.8999 224.5 47.4999 224.5 51.8999C224.5 56.2999 220.9 59.8999 216.5 59.8999H61.3997L179 804.4C179.7 808.7 176.9 812.7 172.6 813.4L171.5 813.5Z" fill="#006258"/>
<path d="M219.2 807.6C219 806.9 218.8 806.1 218.6 805.4C218 801.3 219.9 797.9 223.1 797.9L350.4 798.1C353.6 798.1 356.9 801.6 357.5 805.7C358.1 809.8 356.2 813.2 353 813.2L225.7 813C222.7 812.5 220.3 810.4 219.2 807.6Z" fill="#006258"/>
<path d="M362.399 356.8C358.399 357 354.899 353.9 354.699 349.8C354.699 349 354.799 348.1 354.999 347.3L447.799 33.2001C448.699 29.2001 452.699 26.6001 456.799 27.5001C460.799 28.4001 463.399 32.4001 462.499 36.5001C462.399 36.8001 462.399 37.0001 462.299 37.3001L369.599 351.4C368.699 354.6 365.699 356.8 362.399 356.8Z" fill="#006258"/>
<path d="M254.101 281.9C250.401 282 247.301 279.3 246.801 275.6L216.801 94.3999C216.101 90.2999 218.901 86.3999 223.001 85.7999C227.101 85.0999 231.001 87.8999 231.601 91.9999L261.401 273C262.001 277.1 259.201 281 255.101 281.6C254.801 281.8 254.401 281.9 254.101 281.9Z" fill="#006258"/>
<path d="M934.4 813.2H754.5C750.3 813 747.1 809.5 747.2 805.4C747.3 801.4 750.5 798.3 754.5 798.1H928L1042.6 50.4999C1043.2 46.3999 1047 43.4999 1051.1 44.0999C1055.2 44.6999 1058.1 48.4999 1057.5 52.5999C1057.5 52.6999 1057.5 52.7999 1057.5 52.8999L942 806.7C941.4 810.4 938.2 813.2 934.4 813.2Z" fill="#006258"/>
<path d="M357 379.3H296.4C286.5 379.3 273.1 385.8 273.1 403V539C275 554.3 277.9 558 288.4 565.5C298.5 572.6 306.9 573 317.7 573C326.8 573 390.4 573 409.6 572.6C398.6 572.8 427.3 571.3 436.6 578.2C452.6 590.1 450.8 616 450.8 648.3C450.8 714.5 450.6 798.5 450.8 844.2C509.7 844.2 646.3 844.6 646.3 844.6V527.5C646.3 527.5 646.3 483.7 683.2 483.3C721 483.1 785.3 482.7 785.3 482.7C785.3 482.7 825 484.6 825 443.2C825 401.8 824.1 266.7 824.1 266.7C824.1 266.7 825.2 242.3 795 242.3H754.1C754.1 242.3 723.2 240.3 723.2 265.2V365.8C723.2 365.8 721.7 387.2 701 387.2H664.5C664.5 387.2 645.7 387 645.7 366.3C645.7 345.6 645.5 147.5 645.5 147.5C645.5 147.5 646.6 119.2 617.5 119.2H484.5C484.5 119.2 451.3 116.8 451.3 147.5C450.9 176.2 451.5 458.2 451.3 457.3C451.3 457.3 451.3 482.5 434.3 482.5H399.5C399.5 482.5 378.1 484.4 377.5 453.4V402.3C377.2 385.8 366.5 379.7 357 379.3Z" fill="#007896"/>
<path d="M654.499 852.9H646.499C646.499 852.9 509.899 852.5 450.999 852.5H442.999V844.5C442.799 807.2 442.799 744.6 442.999 687V639.7C443.199 613.6 443.199 592.9 431.999 584.5C428.499 581.9 416.499 580.6 409.999 580.6C392.499 580.8 339.899 581 318.099 581C305.999 581 295.899 580.4 283.999 571.9C272.099 563.4 267.599 557.7 265.199 540V403C265.199 382.3 280.999 371.5 296.499 371.3H357.599C370.499 371.9 385.599 380.4 385.599 402.8V453.7C385.799 462.3 387.699 468.6 391.399 472C393.399 473.9 396.099 475 398.899 475H434.299C435.799 475 439.299 475 441.599 467.9C442.699 464.6 443.299 461.2 443.299 457.8V450.7V345.9C443.299 265 443.099 164.5 443.299 148C443.299 137.2 446.799 128.4 453.699 121.9C465.099 111.3 481.999 111.8 484.799 111.8H617.699C628.699 111.8 637.499 115.2 643.999 121.7C650.599 128.9 654.099 138.5 653.699 148.2C653.699 148.2 653.899 346.3 653.899 366.8C653.899 378 661.399 379.5 664.899 379.7H701.399C713.699 379.7 715.399 368.1 715.599 365.7V265.8C715.299 257.7 718.599 250 724.399 244.4C735.599 233.8 753.099 234.7 754.999 234.9H795.099C807.399 234.9 816.899 238.4 823.599 245.3C829.299 251.4 832.399 259.4 832.199 267.7C832.199 268.6 833.099 403 833.099 444C833.099 458.7 828.599 470.5 819.699 479C805.699 492.3 785.799 491.5 784.999 491.5L683.399 492.1C655.599 492.3 654.499 524.7 654.499 528.4V852.9ZM458.999 836.5C511.899 836.5 609.799 836.7 638.499 836.9V527.7C638.499 509.8 647.799 475.9 683.399 475.5L785.399 474.9C785.799 474.9 799.899 475.3 808.899 466.7C814.299 461.5 817.099 453.5 817.099 443.4C817.099 402.6 816.199 268.2 816.199 266.9C816.199 262.8 814.599 258.8 811.899 255.7C808.399 252.3 802.799 250.3 795.099 250.3H754.099C750.199 250.1 740.099 250.7 734.899 255.7C732.399 258.3 730.999 261.8 731.199 265.4V365.9C730.499 376.5 723.199 395.3 700.999 395.3H664.299C653.499 395.1 637.499 387.3 637.499 366.4C637.499 345.9 637.299 147.6 637.299 147.6C637.299 147.2 637.499 138.1 631.899 132.5C628.699 129 623.699 127.5 617.199 127.5H480.799C476.699 127.7 469.199 128.8 464.199 133.3C460.699 136.5 458.999 141.3 458.999 147.7C458.799 164.1 458.999 264.6 458.999 345.6V424.4C458.999 442.1 458.999 452 458.399 457.6H458.799C458.699 462.7 457.899 467.8 456.199 472.7C452.399 484.4 444.399 490.9 433.799 490.9H398.999C392.099 491 385.399 488.6 380.199 484C372.899 477.5 369.199 467.4 368.999 454V402.9C368.999 390.6 362.299 387.6 356.499 387.4H296.099C287.999 387.1 281.199 393.5 280.999 401.5C280.999 402 280.999 402.6 280.999 403.1V538.6C282.699 551.5 284.499 553.1 293.099 559.3C301.299 565.1 307.799 565.3 317.899 565.3C334.299 565.3 387.999 565.3 407.699 565.1H409.599C419.299 564.9 435.299 567.5 441.499 572.2C459.199 585.4 459.199 610.8 458.999 640.2V687.2C458.799 740.7 458.799 798.7 458.999 836.5Z" fill="#003034"/>
<path d="M478.199 435.2V169.2C478.199 169.2 478.199 148.5 496.499 148.5H620.799" fill="#007896"/>
<path d="M478.199 443.2C473.799 443.2 470.199 439.7 470.199 435.3V169.1C470.199 157.7 477.299 140.4 496.699 140.4H620.999C625.399 140.4 628.999 143.9 628.999 148.3C628.899 152.7 625.399 156.2 620.999 156.3H496.799C487.299 156.3 486.399 166 486.399 169.1V435.1C486.399 439.5 482.799 443.1 478.399 443.1L478.199 443.2Z" fill="#00505D"/>
<path d="M620.801 356.4C616.401 356.4 612.801 352.9 612.801 348.5V214.2C612.801 209.8 616.401 206.2 620.801 206.2C625.201 206.2 628.801 209.8 628.801 214.2V348.4C628.901 352.7 625.501 356.3 621.201 356.4H620.801Z" fill="#00505D"/>
<path d="M801.601 456.8C797.201 456.8 793.601 453.3 793.601 448.9V285C793.601 281.3 793.801 274.9 792.501 273.6C791.501 273 790.401 272.8 789.301 273H756.301C751.901 273 748.301 269.5 748.301 265.1C748.401 260.7 751.901 257.2 756.301 257.1H789.301C795.601 257.1 800.501 258.8 804.001 262.5C810.001 268.5 809.801 277.4 809.801 285.4V448.9C809.701 453.2 806.101 456.8 801.601 456.8Z" fill="#00505D"/>
<path d="M478.2 826.3C473.8 826.3 470.2 822.8 470.2 818.4C470.2 816.7 469.599 641.3 469.799 600.5C469.999 584.7 466.299 572.9 458.999 565.8C454.599 561.3 448.8 558.6 442.6 558H323.499C311.199 558 301.7 554.5 295.2 547.6C289.9 541.5 287.2 533.6 287.7 525.6V425.7C287.7 421.3 291.3 417.7 295.7 417.7C300.1 417.7 303.7 421.3 303.7 425.7V526.5C303.4 530.4 304.7 534.3 307.2 537.3C310.4 540.8 315.799 542.5 323.399 542.5H442.399C452.899 543.1 462.899 547.5 470.299 555C480.699 565.3 485.8 580.9 485.6 601.2C485.4 641.8 485.999 817.2 485.999 818.9C486.099 823 482.8 826.4 478.7 826.5L478.2 826.3Z" fill="#00505D"/>
<path d="M621.199 826.3H514.699C510.299 826.3 506.699 822.8 506.699 818.4C506.799 814 510.299 810.5 514.699 810.4H621.199C625.599 810.4 629.199 813.9 629.199 818.3C629.199 822.7 625.599 826.3 621.199 826.3Z" fill="#00505D"/>
</g>
<defs>
<clipPath id="clip0">
<rect width="1098.6" height="852.9" fill="white"/>
</clipPath>
</defs>
</svg>
