<svg width="668" height="753" viewBox="0 0 668 753" fill="none" xmlns="http://www.w3.org/2000/svg">
<g clip-path="url(#clip0_3965_6382)">
<rect x="584.563" y="82.9695" width="41.7574" height="41.8333" fill="#00BDA5"/>
<rect x="626.322" y="124.803" width="41.7574" height="41.8333" fill="#00BDA5"/>
<rect x="584.563" y="166.636" width="41.7574" height="41.8333" fill="#00BDA5"/>
<rect x="542.807" y="166.636" width="41.7575" height="41.8333" fill="#00BDA5"/>
<rect x="501.049" y="208.469" width="41.7574" height="41.8333" fill="#00AE98"/>
<rect x="501.049" y="166.636" width="41.7574" height="41.8333" fill="#00AE98"/>
<rect x="501.049" y="124.803" width="41.7574" height="41.8333" fill="#00AE98"/>
<rect x="501.049" y="82.9695" width="41.7574" height="41.8333" fill="#00AE98"/>
<rect x="501.049" y="41.136" width="41.7574" height="41.8333" fill="#00BDA5"/>
<rect x="542.807" y="41.136" width="41.7575" height="41.8333" fill="#00BDA5"/>
<rect x="542.807" y="82.9695" width="41.7575" height="41.8333" fill="#00BDA5"/>
<rect x="542.807" y="124.803" width="41.7575" height="41.8333" fill="#00AE98"/>
<rect x="584.563" y="124.803" width="41.7574" height="41.8333" fill="#00BDA5"/>
<rect x="459.292" y="208.469" width="41.7575" height="41.8333" fill="#00AE98"/>
<rect x="459.292" y="166.636" width="41.7575" height="41.8333" fill="#00AE98"/>
<rect x="459.292" y="124.803" width="41.7575" height="41.8333" fill="#00AE98"/>
<rect x="459.292" y="82.9695" width="41.7575" height="41.8333" fill="#00AE98"/>
<rect x="459.292" y="41.136" width="41.7575" height="41.8333" fill="#00AE98"/>
<rect x="459.292" y="-0.697266" width="41.7575" height="41.8333" fill="#00AE98"/>
<rect x="417.534" y="208.469" width="41.7574" height="41.8333" fill="#00AE98"/>
<rect x="417.534" y="166.636" width="41.7574" height="41.8333" fill="#00AE98"/>
<rect x="417.534" y="124.803" width="41.7574" height="41.8333" fill="#00AE98"/>
<rect x="417.534" y="82.9695" width="41.7574" height="41.8333" fill="#00AE98"/>
<rect x="417.534" y="41.136" width="41.7574" height="41.8333" fill="#00AE98"/>
<rect x="417.534" y="-0.697266" width="41.7574" height="41.8333" fill="#00AE98"/>
<rect x="375.777" y="208.469" width="41.7575" height="41.8333" fill="#00AE98"/>
<rect x="375.777" y="250.303" width="41.7575" height="41.8333" fill="#00AE98"/>
<rect x="375.777" y="292.136" width="41.7575" height="41.8334" fill="#00AE98"/>
<rect x="375.777" y="166.636" width="41.7575" height="41.8333" fill="#00AE98"/>
<rect x="334.019" y="166.636" width="41.7575" height="41.8333" fill="#00AE98"/>
<rect x="334.019" y="124.803" width="41.7575" height="41.8333" fill="#00AE98"/>
<rect x="334.019" y="82.9695" width="41.7575" height="41.8333" fill="#00AE98"/>
<rect x="334.019" y="41.136" width="41.7575" height="41.8333" fill="#00AE98"/>
<rect x="292.262" y="166.636" width="41.7575" height="41.8333" fill="#00AE98"/>
<rect x="292.262" y="124.803" width="41.7575" height="41.8333" fill="#00AE98"/>
<rect x="292.262" y="82.9695" width="41.7575" height="41.8333" fill="#00AE98"/>
<rect x="292.262" y="41.136" width="41.7575" height="41.8333" fill="#00AE98"/>
<rect x="375.777" y="124.803" width="41.7575" height="41.8333" fill="#00AE98"/>
<rect x="375.777" y="82.9695" width="41.7575" height="41.8333" fill="#00AE98"/>
<rect x="375.777" y="41.136" width="41.7575" height="41.8333" fill="#00AE98"/>
<rect x="375.777" y="-0.697266" width="41.7575" height="41.8333" fill="#00AE98"/>
<rect x="334.019" y="-0.697266" width="41.7575" height="41.8333" fill="#00AE98"/>
<rect x="292.262" y="-0.697266" width="41.7575" height="41.8333" fill="#00AE98"/>
<rect x="250.504" y="41.136" width="41.7575" height="41.8333" fill="#00AE98"/>
<rect x="250.504" y="82.9695" width="41.7575" height="41.8333" fill="#00AE98"/>
<rect x="250.504" y="124.803" width="41.7575" height="41.8333" fill="#00AE98"/>
<rect x="250.504" y="166.636" width="41.7575" height="41.8333" fill="#00AE98"/>
<rect x="250.504" y="208.469" width="41.7575" height="41.8333" fill="#00AE98"/>
<rect x="250.504" y="250.303" width="41.7575" height="41.8333" fill="#00AE98"/>
<rect x="250.504" y="292.136" width="41.7575" height="41.8334" fill="#00AE98"/>
<rect x="250.504" y="333.969" width="41.7575" height="41.8333" fill="#00AE98"/>
<rect x="208.747" y="41.136" width="41.7575" height="41.8333" fill="#00AE98"/>
<rect x="208.747" y="82.9695" width="41.7575" height="41.8333" fill="#00AE98"/>
<rect x="208.747" y="124.803" width="41.7575" height="41.8333" fill="#00AE98"/>
<rect x="208.747" y="166.636" width="41.7575" height="41.8333" fill="#00AE98"/>
<rect x="208.747" y="208.469" width="41.7575" height="41.8333" fill="#00AE98"/>
<rect x="208.747" y="250.303" width="41.7575" height="41.8333" fill="#00AE98"/>
<rect x="208.747" y="292.136" width="41.7575" height="41.8334" fill="#00AE98"/>
<rect x="166.99" y="82.9695" width="41.7575" height="41.8333" fill="#00AE98"/>
<rect x="125.232" y="124.803" width="41.7575" height="41.8333" fill="#00AE98"/>
<rect x="125.232" y="166.636" width="41.7575" height="41.8333" fill="#00AE98"/>
<rect x="83.4746" y="208.469" width="41.7575" height="41.8333" fill="#00AE98"/>
<rect x="83.4746" y="250.303" width="41.7575" height="41.8333" fill="#009E8A"/>
<rect x="83.4746" y="292.136" width="41.7575" height="41.8334" fill="#009E8A"/>
<rect x="83.4746" y="333.969" width="41.7575" height="41.8333" fill="#009E8A"/>
<rect x="83.4746" y="375.803" width="41.7575" height="41.8333" fill="#009E8A"/>
<rect x="83.4746" y="417.636" width="41.7575" height="41.8334" fill="#009E8A"/>
<rect x="166.99" y="417.636" width="41.7575" height="41.8334" fill="#00AE98"/>
<rect x="208.747" y="417.636" width="41.7575" height="41.8334" fill="#00AE98"/>
<rect x="166.99" y="375.803" width="41.7575" height="41.8333" fill="#00AE98"/>
<rect x="166.99" y="250.303" width="41.7575" height="41.8333" fill="#00AE98"/>
<rect x="166.99" y="333.969" width="41.7575" height="41.8333" fill="#00AE98"/>
<rect x="166.99" y="208.469" width="41.7575" height="41.8333" fill="#00AE98"/>
<rect x="166.99" y="292.136" width="41.7575" height="41.8334" fill="#00AE98"/>
<rect x="166.99" y="166.636" width="41.7575" height="41.8333" fill="#00AE98"/>
<rect x="166.99" y="124.803" width="41.7575" height="41.8333" fill="#00AE98"/>
<rect x="125.232" y="375.803" width="41.7575" height="41.8333" fill="#009E8A"/>
<rect x="125.232" y="250.303" width="41.7575" height="41.8333" fill="#00AE98"/>
<rect x="125.232" y="417.636" width="41.7575" height="41.8334" fill="#009E8A"/>
<rect x="125.232" y="459.469" width="41.7575" height="41.8333" fill="#009E8A"/>
<rect x="125.232" y="333.969" width="41.7575" height="41.8333" fill="#009E8A"/>
<rect x="125.232" y="292.136" width="41.7575" height="41.8334" fill="#00AE98"/>
<rect x="125.232" y="208.469" width="41.7575" height="41.8333" fill="#00AE98"/>
<rect x="626.322" y="459.469" width="41.7575" height="41.8334" transform="rotate(-180 626.322 459.469)" fill="#008FB0"/>
<rect x="626.322" y="417.636" width="41.7575" height="41.8333" transform="rotate(-180 626.322 417.636)" fill="#008FB0"/>
<rect x="83.4756" y="668.636" width="41.7575" height="41.8333" transform="rotate(-180 83.4756 668.636)" fill="#00748E"/>
<rect x="41.7183" y="626.803" width="41.7574" height="41.8333" transform="rotate(-180 41.7183 626.803)" fill="#00748E"/>
<rect x="83.4756" y="584.969" width="41.7575" height="41.8333" transform="rotate(-180 83.4756 584.969)" fill="#0082A0"/>
<rect x="125.233" y="584.969" width="41.7575" height="41.8333" transform="rotate(-180 125.233 584.969)" fill="#0082A0"/>
<rect x="166.991" y="543.136" width="41.7574" height="41.8333" transform="rotate(-180 166.991 543.136)" fill="#0082A0"/>
<rect x="166.991" y="584.969" width="41.7574" height="41.8333" transform="rotate(-180 166.991 584.969)" fill="#0082A0"/>
<rect x="166.991" y="626.803" width="41.7574" height="41.8333" transform="rotate(-180 166.991 626.803)" fill="#0082A0"/>
<rect x="166.991" y="668.636" width="41.7574" height="41.8333" transform="rotate(-180 166.991 668.636)" fill="#00748E"/>
<rect x="166.991" y="710.469" width="41.7574" height="41.8333" transform="rotate(-180 166.991 710.469)" fill="#00748E"/>
<rect x="125.233" y="710.469" width="41.7575" height="41.8333" transform="rotate(-180 125.233 710.469)" fill="#00748E"/>
<rect x="125.233" y="668.636" width="41.7575" height="41.8333" transform="rotate(-180 125.233 668.636)" fill="#00748E"/>
<rect x="125.233" y="626.803" width="41.7575" height="41.8333" transform="rotate(-180 125.233 626.803)" fill="#00748E"/>
<rect x="83.4756" y="626.803" width="41.7575" height="41.8333" transform="rotate(-180 83.4756 626.803)" fill="#00748E"/>
<rect x="208.749" y="543.136" width="41.7575" height="41.8333" transform="rotate(-180 208.749 543.136)" fill="#0082A0"/>
<rect x="208.749" y="584.969" width="41.7575" height="41.8333" transform="rotate(-180 208.749 584.969)" fill="#0082A0"/>
<rect x="208.749" y="626.803" width="41.7575" height="41.8333" transform="rotate(-180 208.749 626.803)" fill="#0082A0"/>
<rect x="208.749" y="668.636" width="41.7575" height="41.8333" transform="rotate(-180 208.749 668.636)" fill="#0082A0"/>
<rect x="208.749" y="710.469" width="41.7575" height="41.8333" transform="rotate(-180 208.749 710.469)" fill="#00748E"/>
<rect x="208.749" y="752.303" width="41.7575" height="41.8333" transform="rotate(-180 208.749 752.303)" fill="#00748E"/>
<rect x="250.506" y="543.136" width="41.7575" height="41.8333" transform="rotate(-180 250.506 543.136)" fill="#0082A0"/>
<rect x="250.506" y="501.303" width="41.7575" height="41.8333" transform="rotate(-180 250.506 501.303)" fill="#0082A0"/>
<rect x="208.749" y="501.303" width="41.7575" height="41.8333" transform="rotate(-180 208.749 501.303)" fill="#0082A0"/>
<rect x="250.506" y="584.969" width="41.7575" height="41.8333" transform="rotate(-180 250.506 584.969)" fill="#0082A0"/>
<rect x="250.506" y="626.803" width="41.7575" height="41.8333" transform="rotate(-180 250.506 626.803)" fill="#0082A0"/>
<rect x="250.506" y="668.636" width="41.7575" height="41.8333" transform="rotate(-180 250.506 668.636)" fill="#0082A0"/>
<rect x="250.506" y="710.469" width="41.7575" height="41.8333" transform="rotate(-180 250.506 710.469)" fill="#0082A0"/>
<rect x="250.506" y="752.303" width="41.7575" height="41.8333" transform="rotate(-180 250.506 752.303)" fill="#00748E"/>
<rect x="292.264" y="543.136" width="41.7575" height="41.8333" transform="rotate(-180 292.264 543.136)" fill="#0082A0"/>
<rect x="292.264" y="501.303" width="41.7575" height="41.8333" transform="rotate(-180 292.264 501.303)" fill="#0082A0"/>
<rect x="292.264" y="459.469" width="41.7575" height="41.8334" transform="rotate(-180 292.264 459.469)" fill="#0082A0"/>
<rect x="292.264" y="584.969" width="41.7575" height="41.8333" transform="rotate(-180 292.264 584.969)" fill="#0082A0"/>
<rect x="334.021" y="584.969" width="41.7575" height="41.8333" transform="rotate(-180 334.021 584.969)" fill="#0082A0"/>
<rect x="334.021" y="626.803" width="41.7575" height="41.8333" transform="rotate(-180 334.021 626.803)" fill="#0082A0"/>
<rect x="334.021" y="668.636" width="41.7575" height="41.8333" transform="rotate(-180 334.021 668.636)" fill="#0082A0"/>
<rect x="334.021" y="710.469" width="41.7575" height="41.8333" transform="rotate(-180 334.021 710.469)" fill="#0082A0"/>
<rect x="375.778" y="584.969" width="41.7575" height="41.8333" transform="rotate(-180 375.778 584.969)" fill="#0082A0"/>
<rect x="375.778" y="626.803" width="41.7575" height="41.8333" transform="rotate(-180 375.778 626.803)" fill="#0082A0"/>
<rect x="375.778" y="668.636" width="41.7575" height="41.8333" transform="rotate(-180 375.778 668.636)" fill="#0082A0"/>
<rect x="375.778" y="710.469" width="41.7575" height="41.8333" transform="rotate(-180 375.778 710.469)" fill="#0082A0"/>
<rect x="292.264" y="626.803" width="41.7575" height="41.8333" transform="rotate(-180 292.264 626.803)" fill="#0082A0"/>
<rect x="292.264" y="668.636" width="41.7575" height="41.8333" transform="rotate(-180 292.264 668.636)" fill="#0082A0"/>
<rect x="292.264" y="710.469" width="41.7575" height="41.8333" transform="rotate(-180 292.264 710.469)" fill="#0082A0"/>
<rect x="292.264" y="752.303" width="41.7575" height="41.8333" transform="rotate(-180 292.264 752.303)" fill="#00748E"/>
<rect x="334.021" y="752.303" width="41.7575" height="41.8333" transform="rotate(-180 334.021 752.303)" fill="#0082A0"/>
<rect x="375.778" y="752.303" width="41.7575" height="41.8333" transform="rotate(-180 375.778 752.303)" fill="#0082A0"/>
<rect x="417.535" y="710.469" width="41.7575" height="41.8333" transform="rotate(-180 417.535 710.469)" fill="#0082A0"/>
<rect x="417.535" y="668.636" width="41.7575" height="41.8333" transform="rotate(-180 417.535 668.636)" fill="#0082A0"/>
<rect x="417.535" y="626.803" width="41.7575" height="41.8333" transform="rotate(-180 417.535 626.803)" fill="#0082A0"/>
<rect x="417.535" y="584.969" width="41.7575" height="41.8333" transform="rotate(-180 417.535 584.969)" fill="#0082A0"/>
<rect x="417.535" y="543.136" width="41.7575" height="41.8333" transform="rotate(-180 417.535 543.136)" fill="#0082A0"/>
<rect x="417.535" y="501.303" width="41.7575" height="41.8333" transform="rotate(-180 417.535 501.303)" fill="#0082A0"/>
<rect x="417.535" y="459.469" width="41.7575" height="41.8334" transform="rotate(-180 417.535 459.469)" fill="#0082A0"/>
<rect x="417.535" y="417.636" width="41.7575" height="41.8333" transform="rotate(-180 417.535 417.636)" fill="#0082A0"/>
<rect x="459.294" y="710.469" width="41.7575" height="41.8333" transform="rotate(-180 459.294 710.469)" fill="#0082A0"/>
<rect x="459.294" y="668.636" width="41.7575" height="41.8333" transform="rotate(-180 459.294 668.636)" fill="#0082A0"/>
<rect x="459.294" y="626.803" width="41.7575" height="41.8333" transform="rotate(-180 459.294 626.803)" fill="#0082A0"/>
<rect x="459.294" y="584.969" width="41.7575" height="41.8333" transform="rotate(-180 459.294 584.969)" fill="#0082A0"/>
<rect x="459.294" y="543.136" width="41.7575" height="41.8333" transform="rotate(-180 459.294 543.136)" fill="#0082A0"/>
<rect x="459.294" y="501.303" width="41.7575" height="41.8333" transform="rotate(-180 459.294 501.303)" fill="#0082A0"/>
<rect x="459.294" y="459.469" width="41.7575" height="41.8334" transform="rotate(-180 459.294 459.469)" fill="#0082A0"/>
<rect x="459.294" y="417.636" width="41.7575" height="41.8333" transform="rotate(-180 459.294 417.636)" fill="#0082A0"/>
<rect x="501.051" y="668.636" width="41.7575" height="41.8333" transform="rotate(-180 501.051 668.636)" fill="#0082A0"/>
<rect x="542.809" y="626.803" width="41.7575" height="41.8333" transform="rotate(-180 542.809 626.803)" fill="#0082A0"/>
<rect x="542.809" y="584.969" width="41.7575" height="41.8333" transform="rotate(-180 542.809 584.969)" fill="#008FB0"/>
<rect x="584.565" y="543.136" width="41.7575" height="41.8333" transform="rotate(-180 584.565 543.136)" fill="#008FB0"/>
<rect x="584.565" y="501.303" width="41.7575" height="41.8333" transform="rotate(-180 584.565 501.303)" fill="#008FB0"/>
<rect x="584.565" y="459.469" width="41.7575" height="41.8334" transform="rotate(-180 584.565 459.469)" fill="#008FB0"/>
<rect x="584.565" y="417.636" width="41.7575" height="41.8333" transform="rotate(-180 584.565 417.636)" fill="#008FB0"/>
<rect x="584.565" y="375.803" width="41.7575" height="41.8333" transform="rotate(-180 584.565 375.803)" fill="#008FB0"/>
<rect x="584.565" y="333.969" width="41.7575" height="41.8334" transform="rotate(-180 584.565 333.969)" fill="#008FB0"/>
<rect x="542.809" y="292.136" width="41.7575" height="41.8333" transform="rotate(-180 542.809 292.136)" fill="#0082A0"/>
<rect x="501.051" y="333.969" width="41.7575" height="41.8334" transform="rotate(-180 501.051 333.969)" fill="#0082A0"/>
<rect x="501.051" y="375.803" width="41.7575" height="41.8333" transform="rotate(-180 501.051 375.803)" fill="#0082A0"/>
<rect x="501.051" y="501.303" width="41.7575" height="41.8333" transform="rotate(-180 501.051 501.303)" fill="#0082A0"/>
<rect x="501.051" y="417.636" width="41.7575" height="41.8333" transform="rotate(-180 501.051 417.636)" fill="#0082A0"/>
<rect x="501.051" y="543.136" width="41.7575" height="41.8333" transform="rotate(-180 501.051 543.136)" fill="#0082A0"/>
<rect x="501.051" y="459.469" width="41.7575" height="41.8334" transform="rotate(-180 501.051 459.469)" fill="#0082A0"/>
<rect x="501.051" y="584.969" width="41.7575" height="41.8333" transform="rotate(-180 501.051 584.969)" fill="#0082A0"/>
<rect x="501.051" y="626.803" width="41.7575" height="41.8333" transform="rotate(-180 501.051 626.803)" fill="#0082A0"/>
<rect x="542.809" y="375.803" width="41.7575" height="41.8333" transform="rotate(-180 542.809 375.803)" fill="#0082A0"/>
<rect x="542.809" y="501.303" width="41.7575" height="41.8333" transform="rotate(-180 542.809 501.303)" fill="#008FB0"/>
<rect x="542.809" y="333.969" width="41.7575" height="41.8334" transform="rotate(-180 542.809 333.969)" fill="#0082A0"/>
<rect x="542.809" y="417.636" width="41.7575" height="41.8333" transform="rotate(-180 542.809 417.636)" fill="#0082A0"/>
<rect x="542.809" y="459.469" width="41.7575" height="41.8334" transform="rotate(-180 542.809 459.469)" fill="#0082A0"/>
<rect x="542.809" y="543.136" width="41.7575" height="41.8333" transform="rotate(-180 542.809 543.136)" fill="#008FB0"/>
<rect x="459.294" y="250.303" width="41.7575" height="41.8333" fill="#00AE98"/>
</g>
<defs>
<clipPath id="clip0_3965_6382">
<rect width="668" height="753" fill="white"/>
</clipPath>
</defs>
</svg>
