<svg width="1440" height="690" viewBox="0 0 1440 690" fill="none" xmlns="http://www.w3.org/2000/svg">
<g clip-path="url(#clip0)">
<path d="M0 572.5L76 528L146.5 514H272L363 535L458 572.5L539 599.5L632.5 612L907.5 590H1034.5L1165 626.5H1321.5L1421 612L1480.5 537.5V690H0V572.5Z" fill="#076F64"/>
<g filter="url(#filter0_d)">
<path d="M39 529.5L78 512.5L72.5 478.5L39 529.5Z" fill="#222222"/>
<path d="M72.5 478.5L75.5 496L99 478.5H72.5Z" fill="#222222"/>
<path d="M128.5 499.5L78 512.5L99 478.5L128.5 499.5Z" fill="#222222"/>
<path d="M243.5 471.5L280 497L295 459L243.5 471.5Z" fill="#222222"/>
<path d="M305 483L347 467.5L295 459L305 483Z" fill="#222222"/>
<path d="M305 483L315.5 508L347 467.5L305 483Z" fill="#222222"/>
<path d="M400.5 488.5L359 522L347 467.5L400.5 488.5Z" fill="#222222"/>
<path d="M476 573L474 520.5L420 549L476 573Z" fill="#222222"/>
<path d="M656.5 538L712 605.5L608 563L656.5 538Z" fill="#222222"/>
<path d="M674 559.5L705 513L769 602.5L674 559.5Z" fill="#222222"/>
<path d="M944.5 445L879 459.5L917 421L944.5 445Z" fill="#222222"/>
<path d="M1385.5 561.5L1440 632V518L1385.5 561.5Z" fill="#222222"/>
<path d="M0 560L39 529.5L0 517.5V560Z" fill="#222222"/>
<path d="M1045.5 454L1061.5 522.762L1105 464L1045.5 454Z" fill="#222222"/>
<path d="M1120 452L1169.5 461L1127 517L1120 452Z" fill="#222222"/>
<path d="M1061.5 522.762L1102 546L1105 464L1061.5 522.762Z" fill="#222222"/>
<path d="M1127 517L1120 452L1104.01 491L1127 517Z" fill="#222222"/>
<path d="M1120 452L1106 447.5L1104 491L1120 452Z" fill="#222222"/>
<path d="M998 417L1045.5 454L972 468.5L998 417Z" fill="#222222"/>
<path d="M1106 447.5L1105 464L1052.5 431.5L1106 447.5Z" fill="#222222"/>
<path d="M1105 464L1045.5 454L1052.5 431.5L1105 464Z" fill="#222222"/>
<path d="M1052.5 431.5L998 417L1045.5 454L1052.5 431.5Z" fill="#222222"/>
<path d="M869 560L912.5 588.5L836.5 595.941L869 560Z" fill="#222222"/>
<path d="M769.5 602.5L836.5 595.941L803 541.5L769.5 602.5Z" fill="#222222"/>
<path d="M608 563L628.5 610L712 605.559L608 563Z" fill="#222222"/>
<path d="M628.5 610L579.5 605.5L599 541L628.5 610Z" fill="#222222"/>
<path d="M476 572.718L505 585L526.25 562L476 572.718Z" fill="#222222"/>
<path d="M476 572.718L474 520.5L526.25 562L476 572.718Z" fill="#222222"/>
<path d="M526.25 562L547.5 539L474 520.5L526.25 562Z" fill="#222222"/>
<path d="M579.5 605.5L505 585L547.5 539L579.5 605.5Z" fill="#222222"/>
<path d="M579.5 605.5L599 541L568.191 582L579.5 605.5Z" fill="#222222"/>
<path d="M547.5 539L599 541L568 582L547.5 539Z" fill="#222222"/>
<path d="M39 529.5L29.0036 526.424L30.5 494.5L39 529.5Z" fill="#222222"/>
<path d="M30.5 494.5L0 517.5L29 526.423L30.5 494.5Z" fill="#222222"/>
<path d="M72.5 478.5L30.5 494.5L39 529.5L72.5 478.5Z" fill="#222222"/>
<path d="M141 483.5L99 478.5L128.5 499.5L141 483.5Z" fill="#222222"/>
<path d="M75.25 495.5L78 512.5L99 478.5L75.25 495.5Z" fill="#222222"/>
<path d="M315.5 508.234L359 522L347 467.5L315.5 508.234Z" fill="#222222"/>
<path d="M280 497L295 459L315.5 508.234L280 497Z" fill="#222222"/>
<path d="M359 522L420 549L447 534.75L359 522Z" fill="#222222"/>
<path d="M474 520.5L447 534.75L400.5 488.5L474 520.5Z" fill="#222222"/>
<path d="M447 534.75L359 522L400.5 488.5L447 534.75Z" fill="#222222"/>
<path d="M705 513L599 541L608 563L656.5 538L705 513Z" fill="#222222"/>
<path d="M712 605.559L769.5 602.5L674 559.302L712 605.559Z" fill="#222222"/>
<path d="M656.5 538L705 513L674 559.302L656.5 538Z" fill="#222222"/>
<path d="M787 468.5L705 513L803 541.5L787 468.5Z" fill="#222222"/>
<path d="M803 541.5L769.5 602.5L705 513L803 541.5Z" fill="#222222"/>
<path d="M803 541.5L869 560L879 459.5L803 541.5Z" fill="#222222"/>
<path d="M836.5 595.941L803 541.5L869 560L836.5 595.941Z" fill="#222222"/>
<path d="M803 541.5L787 468.5L917 421L879 459.5L803 541.5Z" fill="#222222"/>
<path d="M998 417L917 421L944.5 444.75L972 468.5L998 417Z" fill="#222222"/>
<path d="M1395 638L1440 632L1385.5 561.5L1395 638Z" fill="#222222"/>
<path d="M1305 640.5L1395 638L1387 574L1305 640.5Z" fill="#222222"/>
<path d="M1373 489.5L1440 518L1410 542L1373 489.5Z" fill="#222222"/>
<path d="M1373 489.5L1410 542L1385.5 561.5L1373 489.5Z" fill="#222222"/>
<path d="M1377 513L1387 574L1312 571L1377 513Z" fill="#222222"/>
<path d="M1305 640.5L1236.5 638L1270 569L1305 640.5Z" fill="#222222"/>
<path d="M1162 556.5L1165 627L1236.5 638L1162 556.5Z" fill="#222222"/>
<path d="M1165 627L1137.5 622.5L1163 581L1165 627Z" fill="#222222"/>
<path d="M1137.5 622.5L1081 603L1163 581L1137.5 622.5Z" fill="#222222"/>
<path d="M1310 476L1373 489.5L1285.5 539L1310 476Z" fill="#222222"/>
<path d="M1377 513L1373 489.5L1326 516L1377 513Z" fill="#222222"/>
<path d="M1387 574L1305 640.5L1270 569L1387 574Z" fill="#222222"/>
<path d="M1326 516L1377 513L1312 571L1326 516Z" fill="#222222"/>
<path d="M1312 571L1326 516L1234.81 567.443L1312 571Z" fill="#222222"/>
<path d="M1270 569L1236.5 638L1208.5 565.5L1270 569Z" fill="#222222"/>
<path d="M1186 506L1236.5 638L1127 517L1186 506Z" fill="#222222"/>
<path d="M1224 481.5L1208.5 565.5L1235.5 567L1224 481.5Z" fill="#222222"/>
<path d="M1285.5 539L1235.5 567L1224 481.5L1285.5 539Z" fill="#222222"/>
<path d="M1224 481L1285.5 539L1310 476L1224 481Z" fill="#222222"/>
<path d="M1169.5 461L1208.5 565.5L1224 482L1169.5 461Z" fill="#222222"/>
<path d="M1081 603L1163 581L1062 523L1081 603Z" fill="#222222"/>
<path d="M1162 556.5L1163 581L1102 546L1162 556.5Z" fill="#222222"/>
<path d="M1104 491L1162 556.5L1102 546L1104 491Z" fill="#222222"/>
<path d="M1169.5 461L1127 517L1186.5 506L1169.5 461Z" fill="#222222"/>
<path d="M1120 452L1072 471.5V421L1120 452Z" fill="#222222"/>
<path d="M1120 409.5V452L1085.5 429.719L1120 409.5Z" fill="#222222"/>
<path d="M1120 409.5L1072 421L1085 430L1120 409.5Z" fill="#222222"/>
<path d="M1072 385V421L1120 409.5L1072 385Z" fill="#222222"/>
<path d="M1072 351V385L1104.5 351H1072Z" fill="#222222"/>
<path d="M1120 409.5L1072 385L1104.5 351L1120 409.5Z" fill="#222222"/>
<path d="M1120 333.5L1104.5 351L1072 318L1120 333.5Z" fill="#222222"/>
<path d="M1120 333.5V296L1072 318L1120 333.5Z" fill="#222222"/>
<path d="M1120 296L1072 318V290.5L1120 296Z" fill="#222222"/>
<path d="M1120 296V272.5L1072 290.5L1120 296Z" fill="#222222"/>
<path d="M1112 256L1120 272.5L1096 281.5L1112 256Z" fill="#222222"/>
<path d="M1085 256H1112L1096 281.5L1085 256Z" fill="#222222"/>
<path d="M1096 281.5L1085 256L1072 269.5L1096 281.5Z" fill="#222222"/>
<path d="M1096 281.5L1072 290.5V269.5L1096 281.5Z" fill="#222222"/>
<path d="M1120 333.5L1104.5 351L1120 409.5V333.5Z" fill="#222222"/>
<path d="M1152.5 375H1120L1136.5 362.5L1152.5 375Z" fill="#222222"/>
<path d="M1136.39 362.5L1152.5 375L1166.5 364L1136.39 362.5Z" fill="#222222"/>
<path d="M1166.5 364L1149.5 352.5L1166.5 336V364Z" fill="#222222"/>
<path d="M1120 375V352.5H1149.5L1120 375Z" fill="#222222"/>
<path d="M1166.5 364L1136.5 362.5L1149.5 352.5L1166.5 364Z" fill="#222222"/>
<path d="M1141.5 332V352.5H1149.5L1141.5 332Z" fill="#222222"/>
<path d="M1148 323L1141.5 332L1149.5 352.5L1148 323Z" fill="#222222"/>
<path d="M1159.5 323L1166.5 336L1149.5 352.5L1159.5 323Z" fill="#222222"/>
<path d="M1149.5 352.5L1148 323H1159.5L1149.5 352.5Z" fill="#222222"/>
<path d="M1072 318V351H1104.5L1072 318Z" fill="#222222"/>
<path d="M1072 327V351L1052 327H1072Z" fill="#222222"/>
<path d="M1032 351H1072L1052 327L1032 351Z" fill="#222222"/>
<path d="M1052 327L1032 351L1024 335.5L1052 327Z" fill="#222222"/>
<path d="M1024 307.5V335.5L1052 327L1024 307.5Z" fill="#222222"/>
<path d="M1050 300.5L1052 327L1036.5 316.206L1050 300.5Z" fill="#222222"/>
<path d="M1045 288L1050 300.5L1036.5 316.206L1045 288Z" fill="#222222"/>
<path d="M1024 297.5V307.5L1036.5 316L1024 297.5Z" fill="#222222"/>
<path d="M1045 288L1032 287L1036.5 316L1045 288Z" fill="#222222"/>
<path d="M1036.5 316.206L1024 297.5L1032 287L1036.5 316.206Z" fill="#222222"/>
</g>
<g opacity="0.9">
<path d="M1120 452L1072 471.5V421L1120 452Z" fill="#098277" stroke="#076E64" stroke-width="0.5"/>
<path d="M1120 409.5V452L1085.5 429.719L1120 409.5Z" fill="#077368" stroke="#076E64" stroke-width="0.5"/>
<path d="M1120 409.5L1072 421L1085 430L1120 409.5Z" fill="#07665D" stroke="#076E64" stroke-width="0.5"/>
<path d="M1072 385V421L1120 409.5L1072 385Z" fill="#085A53" stroke="#076E64" stroke-width="0.5"/>
<path d="M1072 351V385L1104.5 351H1072Z" fill="#00887B" stroke="#076E64" stroke-width="0.5"/>
<path d="M1120 409.5L1072 385L1104.5 351L1120 409.5Z" fill="#099083" stroke="#076E64" stroke-width="0.5"/>
<path d="M1120 333.5L1104.5 351L1072 318L1120 333.5Z" fill="#07665D" stroke="#076E64" stroke-width="0.5"/>
<path d="M1120 333.5V296L1072 318L1120 333.5Z" fill="#099083" stroke="#076E64" stroke-width="0.5"/>
<path d="M1120 296L1072 318V290.5L1120 296Z" fill="#085A53" stroke="#076E64" stroke-width="0.5"/>
<path d="M1120 296V272.5L1072 290.5L1120 296Z" fill="#00887B" stroke="#076E64" stroke-width="0.5"/>
<path d="M1112 256L1120 272.5L1096 281.5L1112 256Z" fill="#07665D" stroke="#076E64" stroke-width="0.5"/>
<path d="M1085 256H1112L1096 281.5L1085 256Z" fill="#099083" stroke="#076E64" stroke-width="0.5"/>
<path d="M1096 281.5L1085 256L1072 269.5L1096 281.5Z" fill="#077368" stroke="#076E64" stroke-width="0.5"/>
<path d="M1096 281.5L1072 290.5V269.5L1096 281.5Z" fill="#098277" stroke="#076E64" stroke-width="0.5"/>
<path d="M1120 333.5L1104.5 351L1120 409.5V333.5Z" fill="#098277" stroke="#076E64" stroke-width="0.5"/>
<path d="M1152.5 375H1120L1136.5 362.5L1152.5 375Z" fill="#077368" stroke="#076E64" stroke-width="0.5"/>
<path d="M1136.39 362.5L1152.5 375L1166.5 364L1136.39 362.5Z" fill="#07665D" stroke="#076E64" stroke-width="0.5"/>
<path d="M1166.5 364L1149.5 352.5L1166.5 336V364Z" fill="#099083" stroke="#076E64" stroke-width="0.5"/>
<path d="M1120 375V352.5H1149.5L1120 375Z" fill="#099083" stroke="#076E64" stroke-width="0.5"/>
<path d="M1166.5 364L1136.5 362.5L1149.5 352.5L1166.5 364Z" fill="#085A53" stroke="#076E64" stroke-width="0.5"/>
<path d="M1141.5 332V352.5H1149.5L1141.5 332Z" fill="#098277" stroke="#076E64" stroke-width="0.5"/>
<path d="M1148 323L1141.5 332L1149.5 352.5L1148 323Z" fill="#07665D" stroke="#076E64" stroke-width="0.5"/>
<path d="M1159.5 323L1166.5 336L1149.5 352.5L1159.5 323Z" fill="#085A53" stroke="#076E64" stroke-width="0.5"/>
<path d="M1149.5 352.5L1148 323H1159.5L1149.5 352.5Z" fill="#099083" stroke="#076E64" stroke-width="0.5"/>
<path d="M1072 318V351H1104.5L1072 318Z" fill="#077368" stroke="#076E64" stroke-width="0.5"/>
<path d="M1072 327V351L1052 327H1072Z" fill="#098277" stroke="#076E64" stroke-width="0.5"/>
<path d="M1032 351H1072L1052 327L1032 351Z" fill="#077368" stroke="#076E64" stroke-width="0.5"/>
<path d="M1052 327L1032 351L1024 335.5L1052 327Z" fill="#085A53" stroke="#076E64" stroke-width="0.5"/>
<path d="M1024 307.5V335.5L1052 327L1024 307.5Z" fill="#07665D" stroke="#076E64" stroke-width="0.5"/>
<path d="M1050 300.5L1052 327L1036.5 316.206L1050 300.5Z" fill="#099083" stroke="#076E64" stroke-width="0.5"/>
<path d="M1045 288L1050 300.5L1036.5 316.205L1045 288Z" fill="#098277" stroke="#076E64" stroke-width="0.5"/>
<path d="M1024 297.5V307.5L1036.5 316L1024 297.5Z" fill="#00887B" stroke="#076E64" stroke-width="0.5"/>
<path d="M1045 288L1032 287L1036.5 316L1045 288Z" fill="#077368" stroke="#076E64" stroke-width="0.5"/>
<path d="M1036.5 316.205L1024 297.5L1032 287L1036.5 316.205Z" fill="#099083" stroke="#076E64" stroke-width="0.5"/>
<path d="M39 529.5L72.5 478.5L81.5 537L73 538L39 529.5Z" fill="#099083" stroke="#076E64" stroke-width="0.5"/>
<path d="M72.5 478.5L75.5 496L99 478.5H72.5Z" fill="#085A53" stroke="#076E64" stroke-width="0.5"/>
<path d="M99 478.5L156.5 519.5L81.5 537L78 512.5L99 478.5Z" fill="#077368" stroke="#076E64" stroke-width="0.5"/>
<path d="M243.5 471.5L280 497L295 459L243.5 471.5Z" fill="#098277" stroke="#076E64" stroke-width="0.5"/>
<path d="M305 483L347 467.5L295 459L305 483Z" fill="#099083" stroke="#076E64" stroke-width="0.5"/>
<path d="M305 483L315.5 508L347 467.5L305 483Z" fill="#085A53" stroke="#076E64" stroke-width="0.5"/>
<path d="M400.5 488.5L359 522L347 467.5L400.5 488.5Z" fill="#077368" stroke="#076E64" stroke-width="0.5"/>
<path d="M476 589L474 520.5L403 558L476 589Z" fill="#085A53" stroke="#076E64" stroke-width="0.5"/>
<path d="M656.5 538L712 605.5L608 563L656.5 538Z" fill="#099083" stroke="#076E64" stroke-width="0.5"/>
<path d="M674 559.5L705 513L769 602.5L674 559.5Z" fill="#00887B" stroke="#076E64" stroke-width="0.5"/>
<path d="M972 468.5L879 459.5L917 421L972 468.5Z" fill="#077368" stroke="#076E64" stroke-width="0.5"/>
<path d="M1385.5 561.5L1440 632V518L1385.5 561.5Z" fill="#07665D" stroke="#076E64" stroke-width="0.5"/>
<path d="M1439 518.5V651.5L1496.5 542.5L1439 518.5Z" fill="#0B6D64" stroke="#076E64" stroke-width="0.5"/>
<path d="M1496.5 543.5L1439.5 651.5H1507.5L1496.5 543.5Z" fill="#0B786E" stroke="#076E64" stroke-width="0.5"/>
<path d="M-42 503.5L-1.5 582L72.5 538L39 529.5L-42 503.5Z" fill="#077368" stroke="#076E64" stroke-width="0.5"/>
<path d="M1045.5 454L1061.5 522.762L1105 464L1045.5 454Z" fill="#097B70" stroke="#076E64" stroke-width="0.5"/>
<path d="M1120 452L1169.5 461L1127 517L1120 452Z" fill="#076B62" stroke="#076E64" stroke-width="0.5"/>
<path d="M1061.5 522.762L1102 546L1105 464L1061.5 522.762Z" fill="#08756B" stroke="#076E64" stroke-width="0.5"/>
<path d="M1127 517L1120 452L1104.01 491L1127 517Z" fill="#08756B" stroke="#076E64" stroke-width="0.5"/>
<path d="M1120 452L1106 447.5L1104 491L1120 452Z" fill="#085A53" stroke="#076E64" stroke-width="0.5"/>
<path d="M998 417L1045.5 454L972 468.5L998 417Z" fill="#085A53" stroke="#076E64" stroke-width="0.5"/>
<path d="M972 468.5L912 588.5L990 554L972 468.5Z" fill="#077368" stroke="#076E64" stroke-width="0.5"/>
<path d="M1106 447.5L1105 464L1052.5 431.5L1106 447.5Z" fill="#098277" stroke="#076E64" stroke-width="0.5"/>
<path d="M1105 464L1045.5 454L1052.5 431.5L1105 464Z" fill="#077368" stroke="#076E64" stroke-width="0.5"/>
<path d="M1052.5 431.5L998 417L1045.5 454L1052.5 431.5Z" fill="#07665D" stroke="#076E64" stroke-width="0.5"/>
<path d="M869 560L963.5 622.5H852.5L836.5 595.941L869 560Z" fill="#098277" stroke="#076E64" stroke-width="0.5"/>
<path d="M803 541.5L851 620.5H809L769.5 602.5L803 541.5Z" fill="#07665D" stroke="#076E64" stroke-width="0.5"/>
<path d="M608 563L633 620.5H749.5L608 563Z" fill="#085A53" stroke="#076E64" stroke-width="0.5"/>
<path d="M599 541L632 618.5L584.5 615.5L579.5 605.5L599 541Z" fill="#00887B" stroke="#076E64" stroke-width="0.5"/>
<path d="M493 598L526.25 562L476 572.718V590L493 598Z" fill="#098277" stroke="#076E64" stroke-width="0.5"/>
<path d="M476 572.718L474 520.5L526.25 562L476 572.718Z" fill="#07665D" stroke="#076E64" stroke-width="0.5"/>
<path d="M526.25 562L547.5 539L474 520.5L526.25 562Z" fill="#077368" stroke="#076E64" stroke-width="0.5"/>
<path d="M583.5 614.5L493 598L547.5 539L583.5 614.5Z" fill="#077368" stroke="#076E64" stroke-width="0.5"/>
<path d="M579.5 605.5L599 541L568.191 582L579.5 605.5Z" fill="#098277" stroke="#076E64" stroke-width="0.5"/>
<path d="M547.5 539L599 541L568 582L547.5 539Z" fill="#07665D" stroke="#076E64" stroke-width="0.5"/>
<path d="M39 529.5L29.0036 526.424L30.5 494.5L39 529.5Z" fill="#085A53"/>
<path d="M29 526.423L39 529.5L30.5 494.5L29 526.5" stroke="#076E64" stroke-width="0.5"/>
<path d="M30.5 494.5L0 517.5L29 526.423L30.5 494.5Z" fill="#098277" stroke="#076E64" stroke-width="0.5"/>
<path d="M30.5 494.5L-42.5 503.5L0.5 517.5L30.5 494.5Z" fill="#0A6B61" stroke="#076E64" stroke-width="0.5"/>
<path d="M72.5 478.5L30.5 494.5L39 529.5L72.5 478.5Z" fill="#00887B" stroke="#076E64" stroke-width="0.5"/>
<path d="M141 483.5L99 478.5L128.5 499.5L141 483.5Z" fill="#098277" stroke="#076E64" stroke-width="0.5"/>
<path d="M141 483.5L128.5 499.5L157 519.5L274 522L280 497L243.5 471.5L141 483.5Z" fill="#07665D" stroke="#076E64" stroke-width="0.5"/>
<path d="M75.25 495.5L78 512.5L99 478.5L75.25 495.5Z" fill="#07665D" stroke="#076E64" stroke-width="0.5"/>
<path d="M347 467.5L315.5 508.234L326 533.5L363.5 543L347 467.5Z" fill="#07665D" stroke="#076E64" stroke-width="0.5"/>
<path d="M280 497L295 459L326 533.5L274 522L280 497Z" fill="#00887B" stroke="#076E64" stroke-width="0.5"/>
<path d="M447 534.75L403.5 557.5L363.5 543L359 522L447 534.75Z" fill="#098277" stroke="#076E64" stroke-width="0.5"/>
<path d="M474 520.5L447 534.75L400.5 488.5L474 520.5Z" fill="#099083" stroke="#076E64" stroke-width="0.5"/>
<path d="M447 534.75L359 522L400.5 488.5L447 534.75Z" fill="#00887B" stroke="#076E64" stroke-width="0.5"/>
<path d="M705 513L599 541L608 563L656.5 538L705 513Z" fill="#07665D" stroke="#076E64" stroke-width="0.5"/>
<path d="M674 559.302L712 605.559L749 620.5H809.5L674 559.302Z" fill="#098277" stroke="#076E64" stroke-width="0.5"/>
<path d="M656.5 538L705 513L674 559.302L656.5 538Z" fill="#077368" stroke="#076E64" stroke-width="0.5"/>
<path d="M787 468.5L705 513L803 541.5L787 468.5Z" fill="#085A53" stroke="#076E64" stroke-width="0.5"/>
<path d="M803 541.5L769.5 602.5L705 513L803 541.5Z" fill="#099083" stroke="#076E64" stroke-width="0.5"/>
<path d="M803 541.5L869 560L879 459.5L803 541.5Z" fill="#099083" stroke="#076E64" stroke-width="0.5"/>
<path d="M1061.5 523L911.5 588.5L963.5 622.5L1088 634L1061.5 523Z" fill="#098277" stroke="#076E64" stroke-width="0.5"/>
<path d="M972 468.5L1061.5 523L1045.5 454L972 468.5Z" fill="#099083" stroke="#076E64" stroke-width="0.5"/>
<path d="M972 468.633L990.001 554L1061.5 523L972 468.633Z" fill="#085A53" stroke="#076E64" stroke-width="0.5"/>
<path d="M869 560L912 588.5L972 468.5L869 560Z" fill="#098277" stroke="#076E64" stroke-width="0.5"/>
<path d="M879 459.5L869 560L972 468.5L879 459.5Z" fill="#00887B" stroke="#076E64" stroke-width="0.5"/>
<path d="M836.5 595.941L803 541.5L869 560L836.5 595.941Z" fill="#077368" stroke="#076E64" stroke-width="0.5"/>
<path d="M803 541.5L787 468.5L917 421L879 459.5L803 541.5Z" fill="#07665D" stroke="#076E64" stroke-width="0.5"/>
<path d="M998 417L917 421L944.5 444.75L972 468.5L998 417Z" fill="#098277" stroke="#076E64" stroke-width="0.5"/>
<path d="M1385.5 561.5L1396 651.5H1440V632L1385.5 561.5Z" fill="#076E64" stroke="#076E64" stroke-width="0.5"/>
<path d="M1387 574L1305 640.5L1311 651.5H1396L1387 574Z" fill="#08756B" stroke="#076E64" stroke-width="0.5"/>
<path d="M1373 489.5L1440 518L1410 542L1373 489.5Z" fill="#077369" stroke="#076E64" stroke-width="0.5"/>
<path d="M1373 489.5L1410 542L1385.5 561.5L1373 489.5Z" fill="#076B62" stroke="#076E64" stroke-width="0.5"/>
<path d="M1377 513L1387 574L1312 571L1377 513Z" fill="#07665D" stroke="#076E64" stroke-width="0.5"/>
<path d="M1270 569L1309 648H1244.5L1236.5 638L1270 569Z" fill="#07665D" stroke="#076E64" stroke-width="0.5"/>
<path d="M1162 556.5L1165.5 646H1244L1162 556.5Z" fill="#077368" stroke="#076E64" stroke-width="0.5"/>
<path d="M1165.5 645.5L1126.5 639.5L1163 581L1165.5 645.5Z" fill="#07665D" stroke="#076E64" stroke-width="0.5"/>
<path d="M1163 581L1126.5 639L1088 634L1081 603L1163 581Z" fill="#08756B" stroke="#076E64" stroke-width="0.5"/>
<path d="M1310 476L1373 489.5L1285.5 539L1310 476Z" fill="#0A786E" stroke="#076E64" stroke-width="0.5"/>
<path d="M1377 513L1373 489.5L1326 516L1377 513Z" fill="#07665D" stroke="#076E64" stroke-width="0.5"/>
<path d="M1387 574L1305 640.5L1270 569L1387 574Z" fill="#076E64" stroke="#076E64" stroke-width="0.5"/>
<path d="M1326 516L1377 513L1312 571L1326 516Z" fill="#098277" stroke="#076E64" stroke-width="0.5"/>
<path d="M1312 571L1326 516L1234.8 567.443L1312 571Z" fill="#077368" stroke="#076E64" stroke-width="0.5"/>
<path d="M1270 569L1236.5 638L1208.5 565.5L1270 569Z" fill="#08756B" stroke="#076E64" stroke-width="0.5"/>
<path d="M1186 506L1236.5 638L1127 517L1186 506Z" fill="#076B62" stroke="#076E64" stroke-width="0.5"/>
<path d="M1224 481.5L1208.5 565.5L1235.5 567L1224 481.5Z" fill="#085A53" stroke="#076E64" stroke-width="0.5"/>
<path d="M1285.5 539L1235.5 567L1224 481.5L1285.5 539Z" fill="#07665D" stroke="#076E64" stroke-width="0.5"/>
<path d="M1224 482L1285.5 539L1310 476L1224 482Z" fill="#076B62" stroke="#076E64" stroke-width="0.5"/>
<path d="M1169.5 461L1208.5 565.5L1224 482L1169.5 461Z" fill="#097B70" stroke="#076E64" stroke-width="0.5"/>
<path d="M1081 603L1163 581L1062 523L1081 603Z" fill="#097B70" stroke="#076E64" stroke-width="0.5"/>
<path d="M1162 556.5L1163 581L1102 546L1162 556.5Z" fill="#077368" stroke="#076E64" stroke-width="0.5"/>
<path d="M1104 491L1162 556.5L1102 546L1104 491Z" fill="#07665D" stroke="#076E64" stroke-width="0.5"/>
<path d="M1169.5 461L1127 517L1186.5 506L1169.5 461Z" fill="#098277" stroke="#076E64" stroke-width="0.5"/>
</g>
</g>
<defs>
<filter id="filter0_d" x="-11" y="228" width="1462" height="412.5" filterUnits="userSpaceOnUse" color-interpolation-filters="sRGB">
<feFlood flood-opacity="0" result="BackgroundImageFix"/>
<feColorMatrix in="SourceAlpha" type="matrix" values="0 0 0 0 0 0 0 0 0 0 0 0 0 0 0 0 0 0 127 0"/>
<feOffset dy="-17"/>
<feGaussianBlur stdDeviation="5.5"/>
<feColorMatrix type="matrix" values="0 0 0 0 0 0 0 0 0 0 0 0 0 0 0 0 0 0 0.4 0"/>
<feBlend mode="normal" in2="BackgroundImageFix" result="effect1_dropShadow"/>
<feBlend mode="normal" in="SourceGraphic" in2="effect1_dropShadow" result="shape"/>
</filter>
<clipPath id="clip0">
<rect width="1440" height="690" fill="white"/>
</clipPath>
</defs>
</svg>
