<svg width="725" height="486" viewBox="0 0 725 486" fill="none" xmlns="http://www.w3.org/2000/svg">
<rect width="725" height="486" fill="#222222"/>
<g clip-path="url(#clip0)">
<rect width="725" height="486" fill="#222222"/>
<rect x="115.795" y="132.091" width="728.358" height="349.005" fill="#222222"/>
<circle cx="486.551" cy="342" r="305" fill="#242424"/>
<circle cx="486.548" cy="342" r="220.025" fill="#272727"/>
<circle cx="486.55" cy="342" r="115.829" fill="#292929"/>
<g opacity="0.7">
<path d="M758.592 90.9473L701.008 135.516L822.88 190.733L758.592 90.9473Z" fill="#017C70" stroke="#00544C" stroke-width="0.5"/>
<path d="M680.104 233.723L701.007 135.515L822.88 190.733L680.104 233.723Z" fill="#003833" stroke="#00544C" stroke-width="0.5"/>
<path d="M822.88 190.733L680.104 233.724L846.544 380.05L822.88 190.733Z" fill="#003833" stroke="#00544C" stroke-width="0.5"/>
<path d="M628.435 200.592L588.205 385.571L722.304 282.235L628.435 200.592Z" fill="#024741" stroke="#00544C" stroke-width="0.5"/>
<path d="M704.557 158.391L628.436 200.592L722.305 282.235L704.557 158.391Z" fill="#004B44" stroke="#00544C" stroke-width="0.5"/>
<path d="M722.305 282.235L704.557 158.391L781.467 172.984L722.305 282.235Z" fill="#017C70" stroke="#00544C" stroke-width="0.5"/>
<path d="M834.713 271.192L781.468 172.984L722.307 282.235L834.713 271.192Z" fill="#004B44" stroke="#00544C" stroke-width="0.5"/>
<path d="M722.307 282.236L834.713 271.192L845.757 380.838L722.307 282.236Z" fill="#013D37" stroke="#00544C" stroke-width="0.5"/>
<path d="M845.755 380.838L722.304 282.235L588.205 385.571L845.755 380.838Z" fill="#01685E" stroke="#00544C" stroke-width="0.5"/>
<path d="M120.044 357.174V381.628L91.6465 374.134L120.044 357.174Z" fill="#01685E" stroke="#00544C" stroke-width="0.5"/>
<path d="M255.72 391.487L214.701 384.783L241.127 366.64L255.72 391.487Z" fill="#02897C" stroke="#00544C" stroke-width="0.5"/>
<path d="M297.925 408.053L255.723 391.488L275.838 389.121L297.925 408.053Z" fill="#004B44" stroke="#00544C" stroke-width="0.5"/>
<path d="M355.902 433.295L297.924 408.052L337.365 398.981L355.902 433.295Z" fill="#02897C" stroke="#00544C" stroke-width="0.5"/>
<path d="M413.879 447.888L355.9 433.294L365.366 401.347L413.879 447.888Z" fill="#017C70" stroke="#00544C" stroke-width="0.5"/>
<path d="M6.059 412.785L-18 430.928V369.794L6.059 412.785Z" fill="#01685E" stroke="#00544C" stroke-width="0.5"/>
<path d="M-18 344.553V369.795L38.795 349.286L-18 344.553Z" fill="#01685E" stroke="#00544C" stroke-width="0.5"/>
<path d="M39.191 400.164L6.06055 412.785L23.0202 374.133L39.191 400.164Z" fill="#02897C" stroke="#00544C" stroke-width="0.5"/>
<path d="M23.0186 374.133L-18 369.794L6.059 412.785L23.0186 374.133Z" fill="#024741" stroke="#00544C" stroke-width="0.5"/>
<path d="M-18 369.795L38.795 349.286L23.0186 374.134L-18 369.795Z" fill="#017C70" stroke="#00544C" stroke-width="0.5"/>
<path d="M54.5723 382.81L39.1903 400.164L23.0195 374.133L54.5723 382.81Z" fill="#004B44" stroke="#00544C" stroke-width="0.5"/>
<path d="M60.0932 400.165H39.1895L54.5714 382.811L60.0932 400.165Z" fill="#013D37" stroke="#00544C" stroke-width="0.5"/>
<path d="M38.7959 349.286L23.0195 374.134L54.5723 382.811L38.7959 349.286Z" fill="#024741" stroke="#00544C" stroke-width="0.5"/>
<path d="M38.7949 349.286L62.4595 351.653L54.5713 382.811L38.7949 349.286Z" fill="#01685E" stroke="#00544C" stroke-width="0.5"/>
<path d="M93.2244 404.109L60.094 400.165L54.5723 382.811L93.2244 404.109Z" fill="#017C70" stroke="#00544C" stroke-width="0.5"/>
<path d="M62.4605 351.652L54.5723 382.811L91.6468 374.134L62.4605 351.652Z" fill="#02897C" stroke="#00544C" stroke-width="0.5"/>
<path d="M120.044 381.627L93.2241 404.108L91.6465 374.133L120.044 381.627Z" fill="#013D37" stroke="#00544C" stroke-width="0.5"/>
<path d="M120.045 357.174L91.6473 374.134L62.4609 351.652L120.045 357.174Z" fill="#024741" stroke="#00544C" stroke-width="0.5"/>
<path d="M166.977 379.655V361.118L172.893 381.627L166.977 379.655Z" fill="#013D37" stroke="#00544C" stroke-width="0.5"/>
<path d="M178.024 393.854L172.896 381.627L214.704 384.783L178.024 393.854Z" fill="#024741" stroke="#00544C" stroke-width="0.5"/>
<path d="M206.812 363.879L172.893 381.627L166.977 361.118L206.812 363.879Z" fill="#004B44" stroke="#00544C" stroke-width="0.5"/>
<path d="M206.814 363.879L214.703 384.783L241.128 366.64L206.814 363.879Z" fill="#017C70" stroke="#00544C" stroke-width="0.5"/>
<path d="M255.72 391.487L241.127 366.64L275.835 389.121L255.72 391.487Z" fill="#01685E" stroke="#00544C" stroke-width="0.5"/>
<path d="M263.214 368.612L275.835 389.121L241.127 366.64L263.214 368.612Z" fill="#004B44" stroke="#00544C" stroke-width="0.5"/>
<path d="M303.839 371.767L263.215 368.612L275.836 389.121L303.839 371.767Z" fill="#024741" stroke="#00544C" stroke-width="0.5"/>
<path d="M275.836 389.121L303.839 371.767L297.923 408.053L275.836 389.121Z" fill="#01685E" stroke="#00544C" stroke-width="0.5"/>
<path d="M332.237 373.739L303.84 371.767L297.924 408.053L332.237 373.739Z" fill="#013D37" stroke="#00544C" stroke-width="0.5"/>
<path d="M297.924 408.053L332.237 373.739L337.365 398.981L297.924 408.053Z" fill="#017C70" stroke="#00544C" stroke-width="0.5"/>
<path d="M332.236 373.739L354.718 375.317L337.364 398.981L332.236 373.739Z" fill="#004B44" stroke="#00544C" stroke-width="0.5"/>
<path d="M354.717 375.316L337.363 398.981L381.932 377.288L354.717 375.316Z" fill="#024741" stroke="#00544C" stroke-width="0.5"/>
<path d="M355.901 433.295L337.363 398.981L365.366 401.347L355.901 433.295Z" fill="#013D37" stroke="#00544C" stroke-width="0.5"/>
<path d="M381.932 377.289L365.367 401.348L413.88 447.888L381.932 377.289Z" fill="#004B44" stroke="#00544C" stroke-width="0.5"/>
<path d="M454.503 449.465L413.879 447.888L433.205 403.714L454.503 449.465Z" fill="#013D37" stroke="#00544C" stroke-width="0.5"/>
<path d="M433.207 403.714L381.934 377.289L460.027 381.627L433.207 403.714Z" fill="#01685E" stroke="#00544C" stroke-width="0.5"/>
<path d="M538.119 427.378L454.504 449.465L488.818 403.714L538.119 427.378Z" fill="#004B44" stroke="#00544C" stroke-width="0.5"/>
<path d="M538.12 427.379L511.3 383.599L488.818 403.714L538.12 427.379Z" fill="#01685E" stroke="#00544C" stroke-width="0.5"/>
<path d="M545.614 384.782L538.121 427.379L511.301 383.599L545.614 384.782Z" fill="#013D37" stroke="#00544C" stroke-width="0.5"/>
<path d="M488.819 403.714H433.207L460.027 381.627L488.819 403.714Z" fill="#02897C" stroke="#00544C" stroke-width="0.5"/>
<path d="M488.817 403.714L511.299 383.599L460.025 381.627L488.817 403.714Z" fill="#024741" stroke="#00544C" stroke-width="0.5"/>
<path d="M605.169 395.037L538.119 427.378L545.613 384.782L605.169 395.037Z" fill="#017C70" stroke="#00544C" stroke-width="0.5"/>
<path d="M545.611 384.782L605.167 395.037L626.465 386.36L545.611 384.782Z" fill="#013D37" stroke="#00544C" stroke-width="0.5"/>
<path d="M381.537 377.289H354.717L381.537 350.469V377.289Z" fill="#004B44" stroke="#00544C" stroke-width="0.5"/>
<path d="M354.717 333.904V377.289L381.537 350.469L354.717 333.904Z" fill="#01685E" stroke="#00544C" stroke-width="0.5"/>
<path d="M381.535 320.494V286.575L368.125 327.199L381.535 320.494Z" fill="#024741" stroke="#00544C" stroke-width="0.5"/>
<path d="M381.535 274.348V286.575L368.125 294.857L381.535 274.348Z" fill="#013D37" stroke="#00544C" stroke-width="0.5"/>
<path d="M368.127 327.199L354.717 302.746L381.537 286.575L368.127 327.199Z" fill="#01685E" stroke="#00544C" stroke-width="0.5"/>
<path d="M375.226 266.46L381.537 274.348L360.633 266.46H375.226Z" fill="#004B44" stroke="#00544C" stroke-width="0.5"/>
<path d="M354.717 275.137L360.633 266.46L368.127 294.857L354.717 275.137Z" fill="#01685E" stroke="#00544C" stroke-width="0.5"/>
<path d="M368.127 294.857L381.537 274.348L360.633 266.46L368.127 294.857Z" fill="#017C70" stroke="#00544C" stroke-width="0.5"/>
<path d="M368.127 294.857L354.717 275.137V302.745L368.127 294.857Z" fill="#013D37" stroke="#00544C" stroke-width="0.5"/>
<path d="M381.537 350.469L354.717 333.904L381.537 320.494V350.469Z" fill="#013D37" stroke="#00544C" stroke-width="0.5"/>
<path d="M401.65 333.904H381.535L407.961 324.833L401.65 333.904Z" fill="#013D37" stroke="#00544C" stroke-width="0.5"/>
<path d="M394.156 320.494H381.535V333.904L394.156 320.494Z" fill="#004B44" stroke="#00544C" stroke-width="0.5"/>
<path d="M394.156 309.057V320.495L400.072 304.324L394.156 309.057Z" fill="#01685E" stroke="#00544C" stroke-width="0.5"/>
<path d="M394.156 320.495L400.072 304.324L407.961 324.833L394.156 320.495Z" fill="#02897C" stroke="#00544C" stroke-width="0.5"/>
<path d="M407.568 308.268L400.074 304.324L407.962 324.833L407.568 308.268Z" fill="#024741" stroke="#00544C" stroke-width="0.5"/>
<path d="M381.535 333.904L407.961 324.833L394.156 320.494L381.535 333.904Z" fill="#01685E" stroke="#00544C" stroke-width="0.5"/>
<path d="M354.717 302.746V320.297V333.904L368.127 327.2L354.717 302.746Z" fill="#02897C" stroke="#00544C" stroke-width="0.5"/>
<path d="M343.277 306.689H354.715V320.297L343.277 306.689Z" fill="#004B44" stroke="#00544C" stroke-width="0.5"/>
<path d="M334.209 320.888L354.718 320.297L343.28 306.689L334.209 320.888Z" fill="#01685E" stroke="#00544C" stroke-width="0.5"/>
<path d="M327.502 313L334.207 320.888L327.502 290.125V313Z" fill="#013D37" stroke="#00544C" stroke-width="0.5"/>
<path d="M342.49 290.519L343.279 306.69L335.785 284.208L342.49 290.519Z" fill="#02897C" stroke="#00544C" stroke-width="0.5"/>
<path d="M327.502 290.125L335.785 284.208L343.278 306.69L327.502 290.125Z" fill="#024741" stroke="#00544C" stroke-width="0.5"/>
<path d="M343.278 306.69L334.207 320.888L327.502 290.125L343.278 306.69Z" fill="#01685E" stroke="#00544C" stroke-width="0.5"/>
<path d="M91.6468 374.133L93.2244 404.108L54.5723 382.81L91.6468 374.133Z" fill="#004B44" stroke="#00544C" stroke-width="0.5"/>
<path d="M214.704 384.783L172.896 381.627L206.816 363.879L214.704 384.783Z" fill="#01685E" stroke="#00544C" stroke-width="0.5"/>
<path d="M365.368 401.348L337.365 398.981L381.934 377.289L365.368 401.348Z" fill="#01685E" stroke="#00544C" stroke-width="0.5"/>
<path d="M433.207 403.714L413.881 447.888L381.934 377.289L433.207 403.714Z" fill="#024741" stroke="#00544C" stroke-width="0.5"/>
<path d="M454.505 449.466L488.819 403.714H433.207L454.505 449.466Z" fill="#017C70" stroke="#00544C" stroke-width="0.5"/>
<g filter="url(#filter0_d)">
<path d="M12.764 440.394L43.5279 426.984L39.1894 400.164L12.764 440.394Z" fill="#222222"/>
<path d="M39.1894 400.164L41.5559 413.969L60.0932 400.164H39.1894Z" fill="#222222"/>
<path d="M83.3633 416.729L43.5279 426.984L60.0932 400.164L83.3633 416.729Z" fill="#222222"/>
<path d="M174.078 394.643L202.87 414.757L214.702 384.782L174.078 394.643Z" fill="#222222"/>
<path d="M222.59 403.714L255.72 391.487L214.702 384.782L222.59 403.714Z" fill="#222222"/>
<path d="M222.59 403.714L230.873 423.434L255.72 391.487L222.59 403.714Z" fill="#222222"/>
<path d="M297.922 408.052L265.186 434.478L255.72 391.487L297.922 408.052Z" fill="#222222"/>
<path d="M357.478 474.708L355.901 433.295L313.304 455.776L357.478 474.708Z" fill="#222222"/>
<path d="M499.86 447.099L543.64 500.344L461.602 466.82L499.86 447.099Z" fill="#222222"/>
<path d="M513.664 464.059L538.118 427.379L588.602 497.978L513.664 464.059Z" fill="#222222"/>
<path d="M727.04 373.739L675.373 385.177L705.348 354.807L727.04 373.739Z" fill="#222222"/>
<path d="M1074.91 465.636L1117.9 521.248V431.323L1074.91 465.636Z" fill="#222222"/>
<path d="M-18 464.453L12.764 440.394L-18 430.928V464.453Z" fill="#222222"/>
<path d="M806.711 380.838L819.332 435.079L853.646 388.726L806.711 380.838Z" fill="#222222"/>
<path d="M865.478 379.261L904.525 386.36L871 430.534L865.478 379.261Z" fill="#222222"/>
<path d="M819.332 435.079L851.279 453.41L853.646 388.726L819.332 435.079Z" fill="#222222"/>
<path d="M871 430.534L865.478 379.261L852.866 410.025L871 430.534Z" fill="#222222"/>
<path d="M865.478 379.261L854.435 375.711L852.857 410.025L865.478 379.261Z" fill="#222222"/>
<path d="M769.242 351.652L806.711 380.838L748.733 392.276L769.242 351.652Z" fill="#222222"/>
<path d="M854.435 375.711L853.646 388.726L812.233 363.09L854.435 375.711Z" fill="#222222"/>
<path d="M853.646 388.726L806.711 380.838L812.233 363.09L853.646 388.726Z" fill="#222222"/>
<path d="M812.233 363.09L769.242 351.652L806.711 380.838L812.233 363.09Z" fill="#222222"/>
<path d="M667.484 464.453L701.798 486.934L641.848 492.804L667.484 464.453Z" fill="#222222"/>
<path d="M588.997 497.978L641.848 492.804L615.422 449.86L588.997 497.978Z" fill="#222222"/>
<path d="M461.602 466.82L477.773 503.894L543.64 500.391L461.602 466.82Z" fill="#222222"/>
<path d="M477.773 503.894L439.121 500.344L454.503 449.465L477.773 503.894Z" fill="#222222"/>
<path d="M357.478 474.485L380.354 484.174L397.116 466.031L357.478 474.485Z" fill="#222222"/>
<path d="M357.478 474.485L355.901 433.295L397.116 466.031L357.478 474.485Z" fill="#222222"/>
<path d="M397.116 466.031L413.879 447.888L355.901 433.295L397.116 466.031Z" fill="#222222"/>
<path d="M439.121 500.344L380.354 484.174L413.879 447.888L439.121 500.344Z" fill="#222222"/>
<path d="M439.121 500.344L454.503 449.465L430.201 481.807L439.121 500.344Z" fill="#222222"/>
<path d="M413.879 447.888L454.503 449.465L430.05 481.807L413.879 447.888Z" fill="#222222"/>
<path d="M12.764 440.394L4.87858 437.968L6.059 412.785L12.764 440.394Z" fill="#222222"/>
<path d="M6.059 412.785L-18 430.928L4.87577 437.967L6.059 412.785Z" fill="#222222"/>
<path d="M39.1894 400.164L6.059 412.785L12.764 440.394L39.1894 400.164Z" fill="#222222"/>
<path d="M93.2236 404.108L60.0932 400.164L83.3633 416.729L93.2236 404.108Z" fill="#222222"/>
<path d="M41.3587 413.574L43.5279 426.984L60.0932 400.164L41.3587 413.574Z" fill="#222222"/>
<path d="M230.873 423.619L265.186 434.478L255.72 391.487L230.873 423.619Z" fill="#222222"/>
<path d="M202.87 414.757L214.702 384.782L230.873 423.619L202.87 414.757Z" fill="#222222"/>
<path d="M265.186 434.478L313.304 455.776L334.602 444.535L265.186 434.478Z" fill="#222222"/>
<path d="M355.901 433.295L334.602 444.535L297.922 408.052L355.901 433.295Z" fill="#222222"/>
<path d="M334.602 444.535L265.186 434.478L297.922 408.052L334.602 444.535Z" fill="#222222"/>
<path d="M538.118 427.379L454.503 449.465L461.602 466.82L499.86 447.099L538.118 427.379Z" fill="#222222"/>
<path d="M543.64 500.391L588.997 497.978L513.664 463.903L543.64 500.391Z" fill="#222222"/>
<path d="M499.86 447.099L538.118 427.379L513.664 463.903L499.86 447.099Z" fill="#222222"/>
<path d="M602.801 392.276L538.118 427.379L615.422 449.86L602.801 392.276Z" fill="#222222"/>
<path d="M615.422 449.86L588.997 497.978L538.118 427.379L615.422 449.86Z" fill="#222222"/>
<path d="M615.422 449.86L667.484 464.453L675.373 385.177L615.422 449.86Z" fill="#222222"/>
<path d="M641.848 492.804L615.422 449.86L667.484 464.453L641.848 492.804Z" fill="#222222"/>
<path d="M615.422 449.86L602.801 392.276L705.348 354.807L675.373 385.177L615.422 449.86Z" fill="#222222"/>
<path d="M769.242 351.652L705.348 354.807L727.04 373.542L748.733 392.276L769.242 351.652Z" fill="#222222"/>
<path d="M1082.4 525.981L1117.9 521.248L1074.91 465.636L1082.4 525.981Z" fill="#222222"/>
<path d="M1011.41 527.953L1082.4 525.981L1076.09 475.497L1011.41 527.953Z" fill="#222222"/>
<path d="M1065.05 408.841L1117.9 431.323L1094.24 450.254L1065.05 408.841Z" fill="#222222"/>
<path d="M1065.05 408.841L1094.24 450.254L1074.91 465.636L1065.05 408.841Z" fill="#222222"/>
<path d="M1068.2 427.379L1076.09 475.497L1016.93 473.13L1068.2 427.379Z" fill="#222222"/>
<path d="M1011.41 527.953L957.376 525.981L983.801 471.552L1011.41 527.953Z" fill="#222222"/>
<path d="M898.609 461.692L900.975 517.304L957.376 525.981L898.609 461.692Z" fill="#222222"/>
<path d="M900.975 517.304L879.282 513.754L899.397 481.018L900.975 517.304Z" fill="#222222"/>
<path d="M879.282 513.754L834.714 498.372L899.397 481.018L879.282 513.754Z" fill="#222222"/>
<path d="M1015.35 398.192L1065.05 408.841L996.028 447.888L1015.35 398.192Z" fill="#222222"/>
<path d="M1068.2 427.379L1065.05 408.841L1027.97 429.745L1068.2 427.379Z" fill="#222222"/>
<path d="M1076.09 475.497L1011.41 527.953L983.801 471.552L1076.09 475.497Z" fill="#222222"/>
<path d="M1027.97 429.745L1068.2 427.379L1016.93 473.13L1027.97 429.745Z" fill="#222222"/>
<path d="M1016.93 473.13L1027.97 429.745L956.04 470.324L1016.93 473.13Z" fill="#222222"/>
<path d="M983.801 471.552L957.376 525.981L935.289 468.792L983.801 471.552Z" fill="#222222"/>
<path d="M917.54 421.857L957.376 525.981L871 430.534L917.54 421.857Z" fill="#222222"/>
<path d="M947.515 402.531L935.289 468.792L956.587 469.975L947.515 402.531Z" fill="#222222"/>
<path d="M996.028 447.888L956.587 469.975L947.515 402.531L996.028 447.888Z" fill="#222222"/>
<path d="M947.515 402.136L996.028 447.888L1015.35 398.192L947.515 402.136Z" fill="#222222"/>
<path d="M904.525 386.36L935.289 468.792L947.515 402.925L904.525 386.36Z" fill="#222222"/>
<path d="M834.714 498.372L899.397 481.018L819.727 435.267L834.714 498.372Z" fill="#222222"/>
<path d="M898.609 461.692L899.397 481.018L851.279 453.41L898.609 461.692Z" fill="#222222"/>
<path d="M852.857 410.025L898.609 461.692L851.279 453.41L852.857 410.025Z" fill="#222222"/>
<path d="M904.525 386.36L871 430.534L917.935 421.857L904.525 386.36Z" fill="#222222"/>
<path d="M827.615 394.643L865.478 379.261M865.478 379.261L904.525 386.36M865.478 379.261L871 430.534M865.478 379.261L852.866 410.025L871 430.534M865.478 379.261L854.435 375.711M865.478 379.261L852.857 410.025M43.5279 426.984L12.764 440.394M43.5279 426.984L39.1894 400.164M43.5279 426.984L83.3633 416.729M43.5279 426.984L60.0932 400.164M43.5279 426.984L41.3587 413.574L60.0932 400.164M12.764 440.394L39.1894 400.164M12.764 440.394L-18 464.453V430.928M12.764 440.394L-18 430.928M12.764 440.394L4.87858 437.968M12.764 440.394L6.059 412.785M-18 430.928L4.87577 438.028L4.87858 437.968M-18 430.928L6.059 412.785M-18 430.928L4.87577 437.967M39.1894 400.164L41.5559 413.969L60.0932 400.164M39.1894 400.164H60.0932M39.1894 400.164L6.059 412.785M60.0932 400.164L83.3633 416.729M60.0932 400.164L93.2236 404.108L83.3633 416.729M202.87 414.757L174.078 394.643L214.702 384.782M202.87 414.757L214.702 384.782M202.87 414.757L230.873 423.619M214.702 384.782L222.59 403.714M214.702 384.782L255.72 391.487M214.702 384.782L230.873 423.619M255.72 391.487L222.59 403.714M255.72 391.487L230.873 423.434L222.59 403.714M255.72 391.487L297.922 408.052M255.72 391.487L265.186 434.478M255.72 391.487L230.873 423.619M265.186 434.478L297.922 408.052M265.186 434.478L230.873 423.619M265.186 434.478L313.304 455.776M265.186 434.478L334.602 444.535M297.922 408.052L355.901 433.295M297.922 408.052L334.602 444.535M355.901 433.295L357.478 474.708L313.304 455.776M355.901 433.295L313.304 455.776M355.901 433.295L357.478 474.485M355.901 433.295L397.116 466.031M355.901 433.295L413.879 447.888M355.901 433.295L334.602 444.535M313.304 455.776L334.602 444.535M499.86 447.099L543.64 500.344L461.602 466.82M499.86 447.099L461.602 466.82M499.86 447.099L538.118 427.379M499.86 447.099L513.664 463.903M461.602 466.82L477.773 503.894M461.602 466.82L543.64 500.391M461.602 466.82L454.503 449.466M538.118 427.379L513.664 464.059L588.602 497.978L538.118 427.379ZM538.118 427.379L454.503 449.466M538.118 427.379L513.664 463.903M538.118 427.379L602.801 392.276M538.118 427.379L615.422 449.86M538.118 427.379L588.997 497.978M806.711 380.838L764.509 389.121L748.733 392.276M806.711 380.838L819.332 435.079M806.711 380.838L853.646 388.726M806.711 380.838L769.242 351.652M806.711 380.838L748.733 392.276M806.711 380.838L811.05 399.375L819.332 435.267L829.192 473.919L834.714 498.372M806.711 380.838L812.233 363.09M748.733 392.276L769.242 351.652M748.733 392.276L727.04 373.542M675.373 385.177L727.04 373.739L705.348 354.807M675.373 385.177L705.348 354.807M675.373 385.177L667.484 464.453M675.373 385.177L615.422 449.86M675.373 385.177L727.04 373.542M705.348 354.807L602.801 392.276M705.348 354.807L769.242 351.652M705.348 354.807L727.04 373.542M834.714 498.372L879.282 513.754M834.714 498.372L899.397 481.018M834.714 498.372L819.727 435.267L899.397 481.018M1117.9 521.248L1074.91 465.636M1117.9 521.248V431.323M1117.9 521.248L1082.4 525.981M1074.91 465.636L1117.9 431.323M1074.91 465.636L1082.4 525.981M1074.91 465.636L1065.05 408.841M1074.91 465.636L1094.24 450.254M1117.9 431.323L1065.05 408.841M1117.9 431.323L1094.24 450.254M819.332 435.079L853.646 388.726M819.332 435.079L851.279 453.41M853.646 388.726L851.279 453.41M853.646 388.726L854.435 375.711M853.646 388.726L812.233 363.09M904.525 386.36L871 430.534M904.525 386.36L935.289 468.792M904.525 386.36L947.515 402.925L935.289 468.792M904.525 386.36L917.935 421.857L871 430.534M871 430.534L957.376 525.981M871 430.534L917.54 421.857L957.376 525.981M851.279 453.41L898.609 461.692M851.279 453.41L899.397 481.018M851.279 453.41L852.857 410.025M854.435 375.711L852.857 410.025M854.435 375.711L812.233 363.09M852.857 410.025L898.609 461.692M769.242 351.652L812.233 363.09M667.484 464.453L701.798 486.934L641.848 492.804M667.484 464.453L641.848 492.804M667.484 464.453L615.422 449.86M641.848 492.804L588.997 497.978M641.848 492.804L615.422 449.86M588.997 497.978L615.422 449.86M588.997 497.978L543.64 500.391M588.997 497.978L513.664 463.903M615.422 449.86L602.801 392.276M477.773 503.894L543.64 500.391M477.773 503.894L439.121 500.344M477.773 503.894L454.503 449.466M543.64 500.391L513.664 463.903M439.121 500.344L454.503 449.466M439.121 500.344L380.354 484.174M439.121 500.344L413.879 447.888M439.121 500.344L430.201 481.807L454.503 449.466M454.503 449.466L413.879 447.888M454.503 449.466L430.05 481.807L413.879 447.888M380.354 484.174L357.478 474.485M380.354 484.174L397.116 466.031M380.354 484.174L413.879 447.888M357.478 474.485L397.116 466.031M397.116 466.031L413.879 447.888M4.87577 437.967L4.87858 437.968M4.87577 437.967L6.059 412.785M4.87858 437.968L6.059 412.785M1082.4 525.981L1011.41 527.953M1082.4 525.981L1076.09 475.497M1011.41 527.953L1076.09 475.497M1011.41 527.953L957.376 525.981M1011.41 527.953L983.801 471.552M1076.09 475.497L1068.2 427.379M1076.09 475.497L1016.93 473.13M1076.09 475.497L983.801 471.552M1065.05 408.841L1094.24 450.254M1065.05 408.841L1015.35 398.192M1065.05 408.841L996.028 447.888M1065.05 408.841L1068.2 427.379M1065.05 408.841L1027.97 429.745M1068.2 427.379L1016.93 473.13M1068.2 427.379L1027.97 429.745M1016.93 473.13L1027.97 429.745M1016.93 473.13L956.04 470.324L1027.97 429.745M957.376 525.981L983.801 471.552M957.376 525.981L898.609 461.692M957.376 525.981L900.975 517.304M957.376 525.981L935.289 468.792M983.801 471.552L935.289 468.792M900.975 517.304L898.609 461.692M900.975 517.304L879.282 513.754M900.975 517.304L899.397 481.018M898.609 461.692L899.397 481.018M879.282 513.754L899.397 481.018M1015.35 398.192L996.028 447.888M1015.35 398.192L947.515 402.136L996.028 447.888M996.028 447.888L956.587 469.975M996.028 447.888L947.515 402.531M935.289 468.792L947.515 402.531M935.289 468.792L956.587 469.975M947.515 402.531L956.587 469.975" stroke="#076E64" stroke-width="0.5"/>
</g>
<path d="M12.764 440.394L43.5279 426.984L39.1894 400.164L12.764 440.394Z" fill="#099083"/>
<path d="M4.87577 438.027L-18 430.928M43.5279 426.984L12.764 440.394L39.1894 400.164L43.5279 426.984Z" stroke="#076E64" stroke-width="0.5"/>
<path d="M39.1895 400.164L41.5559 413.968L60.0932 400.164H39.1895Z" fill="#085A53" stroke="#076E64" stroke-width="0.5"/>
<path d="M83.3627 416.729L43.5273 426.984L60.0926 400.164L83.3627 416.729Z" fill="#077368" stroke="#076E64" stroke-width="0.5"/>
<path d="M174.078 394.642L202.87 414.757L214.702 384.782L174.078 394.642Z" fill="#098277" stroke="#076E64" stroke-width="0.5"/>
<path d="M222.589 403.713L255.72 391.487L214.701 384.782L222.589 403.713Z" fill="#099083" stroke="#076E64" stroke-width="0.5"/>
<path d="M222.59 403.714L230.872 423.435L255.72 391.488L222.59 403.714Z" fill="#085A53" stroke="#076E64" stroke-width="0.5"/>
<path d="M297.925 408.053L265.188 434.478L255.723 391.488L297.925 408.053Z" fill="#077368" stroke="#076E64" stroke-width="0.5"/>
<path d="M357.477 474.708L355.899 433.295L313.303 455.776L357.477 474.708Z" fill="#085A53" stroke="#076E64" stroke-width="0.5"/>
<path d="M499.859 447.099L543.639 500.344L461.602 466.819L499.859 447.099Z" fill="#099083" stroke="#076E64" stroke-width="0.5"/>
<path d="M513.664 464.059L538.117 427.378L588.602 497.978L513.664 464.059Z" fill="#00887B" stroke="#076E64" stroke-width="0.5"/>
<path d="M748.731 392.276L675.371 385.177L705.346 354.807L748.731 392.276Z" fill="#077368" stroke="#076E64" stroke-width="0.5"/>
<path d="M-18 464.453L12.764 440.394L-18 430.928V464.453Z" fill="#077368" stroke="#076E64" stroke-width="0.5"/>
<path d="M667.484 464.453L701.798 486.934L641.848 492.804L667.484 464.453Z" fill="#098277" stroke="#076E64" stroke-width="0.5"/>
<path d="M588.996 497.978L641.847 492.804L615.422 449.86L588.996 497.978Z" fill="#07665D" stroke="#076E64" stroke-width="0.5"/>
<path d="M461.602 466.819L477.772 503.894L543.639 500.39L461.602 466.819Z" fill="#085A53" stroke="#076E64" stroke-width="0.5"/>
<path d="M477.773 503.894L439.121 500.344L454.503 449.465L477.773 503.894Z" fill="#00887B" stroke="#076E64" stroke-width="0.5"/>
<path d="M357.477 474.485L380.352 484.173L397.115 466.03L357.477 474.485Z" fill="#098277" stroke="#076E64" stroke-width="0.5"/>
<path d="M357.476 474.485L355.898 433.294L397.114 466.03L357.476 474.485Z" fill="#07665D" stroke="#076E64" stroke-width="0.5"/>
<path d="M397.114 466.03L413.877 447.888L355.898 433.294L397.114 466.03Z" fill="#077368" stroke="#076E64" stroke-width="0.5"/>
<path d="M439.123 500.344L380.355 484.173L413.88 447.888L439.123 500.344Z" fill="#077368" stroke="#076E64" stroke-width="0.5"/>
<path d="M439.122 500.344L454.504 449.465L430.201 481.807L439.122 500.344Z" fill="#098277" stroke="#076E64" stroke-width="0.5"/>
<path d="M413.879 447.888L454.503 449.465L430.05 481.807L413.879 447.888Z" fill="#07665D" stroke="#076E64" stroke-width="0.5"/>
<path d="M12.7652 440.393L4.87977 437.967L6.06018 412.785L12.7652 440.393Z" fill="#085A53"/>
<path d="M4.87695 437.966L12.7651 440.393L6.06018 412.785L4.87695 438.027" stroke="#076E64" stroke-width="0.5"/>
<path d="M6.059 412.785L-18 430.928L4.87577 437.966L6.059 412.785Z" fill="#098277" stroke="#076E64" stroke-width="0.5"/>
<path d="M39.189 400.164L6.05859 412.785L12.7636 440.393L39.189 400.164Z" fill="#00887B" stroke="#076E64" stroke-width="0.5"/>
<path d="M93.2242 404.108L60.0938 400.164L83.3639 416.729L93.2242 404.108Z" fill="#098277" stroke="#076E64" stroke-width="0.5"/>
<path d="M41.3594 413.574L43.5286 426.983L60.0938 400.164L41.3594 413.574Z" fill="#07665D" stroke="#076E64" stroke-width="0.5"/>
<path d="M230.873 423.619L265.187 434.478L255.721 391.487L230.873 423.619Z" fill="#07665D" stroke="#076E64" stroke-width="0.5"/>
<path d="M202.869 414.757L214.701 384.782L230.872 423.619L202.869 414.757Z" fill="#00887B" stroke="#076E64" stroke-width="0.5"/>
<path d="M265.188 434.477L313.306 455.775L334.604 444.535L265.188 434.477Z" fill="#098277" stroke="#076E64" stroke-width="0.5"/>
<path d="M355.9 433.294L334.602 444.535L297.922 408.052L355.9 433.294Z" fill="#099083" stroke="#076E64" stroke-width="0.5"/>
<path d="M334.604 444.535L265.188 434.477L297.924 408.052L334.604 444.535Z" fill="#00887B" stroke="#076E64" stroke-width="0.5"/>
<path d="M538.119 427.378L454.504 449.465L461.603 466.819L499.861 447.098L538.119 427.378Z" fill="#07665D" stroke="#076E64" stroke-width="0.5"/>
<path d="M543.639 500.39L588.996 497.978L513.664 463.902L543.639 500.39Z" fill="#098277" stroke="#076E64" stroke-width="0.5"/>
<path d="M499.861 447.098L538.119 427.378L513.666 463.902L499.861 447.098Z" fill="#077368" stroke="#076E64" stroke-width="0.5"/>
<path d="M602.802 392.275L538.119 427.378L615.423 449.859L602.802 392.275Z" fill="#085A53" stroke="#076E64" stroke-width="0.5"/>
<path d="M615.423 449.859L588.998 497.977L538.119 427.378L615.423 449.859Z" fill="#099083" stroke="#076E64" stroke-width="0.5"/>
<path d="M615.422 449.86L667.484 464.453L675.372 385.177L615.422 449.86Z" fill="#099083" stroke="#076E64" stroke-width="0.5"/>
<path d="M701.01 486.934L834.715 498.372L819.333 435.267L701.01 486.934Z" fill="#098277" stroke="#076E64" stroke-width="0.5"/>
<path d="M748.733 392.275L701.404 486.934L762.932 459.719L748.733 392.275Z" fill="#077368" stroke="#076E64" stroke-width="0.5"/>
<path d="M667.484 464.452L701.404 486.934L748.733 392.275L667.484 464.452Z" fill="#098277" stroke="#076E64" stroke-width="0.5"/>
<path d="M675.373 385.177L667.484 464.453L748.733 392.276L675.373 385.177Z" fill="#00887B" stroke="#076E64" stroke-width="0.5"/>
<path d="M641.847 492.804L615.422 449.86L667.484 464.453L641.847 492.804Z" fill="#077368" stroke="#076E64" stroke-width="0.5"/>
<path d="M615.422 449.859L602.801 392.276L705.347 354.807L675.372 385.176L615.422 449.859Z" fill="#07665D" stroke="#076E64" stroke-width="0.5"/>
<path d="M769.242 351.651L705.348 354.807L727.04 373.541L748.733 392.276L769.242 351.651Z" fill="#098277" stroke="#076E64" stroke-width="0.5"/>
<g filter="url(#filter1_d)">
<path d="M275.441 566.605L269.919 518.487L329.87 525.981L275.441 566.605Z" fill="#222222"/>
<path d="M378.382 543.73L364.972 566.605H437.543L378.382 543.73Z" fill="#222222"/>
<path d="M675.373 542.941L584.658 566.605H677.345L675.373 542.941Z" fill="#222222"/>
<path d="M584.658 566.605L604.773 517.699L675.373 542.941L584.658 566.605Z" fill="#222222"/>
<path d="M364.972 566.605L344.068 515.332L275.441 566.605H364.972Z" fill="#222222"/>
<path d="M378.382 543.73L352.351 535.841L364.972 566.605L378.382 543.73Z" fill="#222222"/>
<path d="M274.652 485.357L313.304 455.382L344.068 515.332L274.652 485.357Z" fill="#222222"/>
<path d="M248.621 515.726L274.652 485.357L329.87 525.94L248.621 515.726Z" fill="#222222"/>
<path d="M380.354 483.779L313.304 455.382L344.068 515.332L380.354 483.779Z" fill="#222222"/>
<path d="M460.406 531.108L437.543 566.605L378.382 543.73L460.406 531.108Z" fill="#222222"/>
<path d="M352.351 535.841L378.382 543.73L380.354 483.779L352.351 535.841Z" fill="#222222"/>
<path d="M460.419 531.108L378.382 543.73L380.354 483.779L460.419 531.108Z" fill="#222222"/>
<path d="M344.068 515.332L352.351 535.841L380.354 483.779L344.068 515.332Z" fill="#222222"/>
<path d="M439.121 499.95L380.354 483.779L460.419 531.108L439.121 499.95Z" fill="#222222"/>
<path d="M477.773 503.5L439.121 499.95L460.412 531.098L467.518 520.065L477.773 503.5Z" fill="#222222"/>
<path d="M509.326 566.605L467.518 520.065L507.354 524.126L509.326 566.605Z" fill="#222222"/>
<path d="M477.773 503.5L548.767 528.348L588.997 497.584L477.773 503.5Z" fill="#222222"/>
<path d="M584.658 566.605L507.354 524.009L548.767 528.348L584.658 566.605Z" fill="#222222"/>
<path d="M584.658 566.605L604.773 517.699L548.767 528.348L584.658 566.605Z" fill="#222222"/>
<path d="M604.773 517.699L588.997 497.584L701.798 486.54L604.773 517.699Z" fill="#222222"/>
<path d="M604.773 517.699L675.373 542.941L706.137 512.177L604.773 517.699Z" fill="#222222"/>
<path d="M677.345 566.605H752.677L675.373 542.941L677.345 566.605Z" fill="#222222"/>
<path d="M706.137 512.177L701.798 486.54L755.043 488.054L706.137 512.177Z" fill="#222222"/>
<path d="M752.677 566.605L706.137 512.177L796.456 566.605H752.677Z" fill="#222222"/>
<path d="M785.018 488.907L755.043 488.054L757.804 543.335L785.018 488.907Z" fill="#222222"/>
<path d="M757.804 543.335L706.137 512.177L755.043 488.118L757.804 543.335Z" fill="#222222"/>
<path d="M834.714 497.978L785.018 488.907L757.804 543.335L834.714 497.978Z" fill="#222222"/>
<path d="M819.323 525.587L796.456 566.605H859.562L819.323 525.587Z" fill="#222222"/>
<path d="M900.975 516.91L879.282 513.36L850.096 556.956L900.975 516.91Z" fill="#222222"/>
<path d="M879.282 513.36L834.714 497.978L819.323 525.587L879.282 513.36Z" fill="#222222"/>
<path d="M900.975 516.756L850.096 556.956L944.754 566.605L900.975 516.756Z" fill="#222222"/>
<path d="M957.376 525.587L944.754 566.605L1007.47 566.605L957.376 525.587Z" fill="#222222"/>
<path d="M944.754 566.605L957.376 525.587L900.975 516.91L944.754 566.605Z" fill="#222222"/>
<path d="M1011.41 527.536L957.376 525.587L992.478 554.379L1011.41 527.536Z" fill="#222222"/>
<path d="M1007.47 566.605L992.478 554.379L1011.41 527.559L1007.47 566.605Z" fill="#222222"/>
<path d="M1082.4 525.587L1011.41 527.559L1045.72 550.435L1082.4 525.587Z" fill="#222222"/>
<path d="M1011.41 527.536L1007.47 566.605H1070.57L1011.41 527.536Z" fill="#222222"/>
<path d="M1117.9 566.605V520.854L1070.57 566.605H1117.9Z" fill="#222222"/>
<path d="M1117.9 520.854L1082.4 525.587L1070.57 566.605L1117.9 520.854Z" fill="#222222"/>
<path d="M879.282 513.36L819.332 525.587L850.096 557.139L879.282 513.36Z" fill="#222222"/>
<path d="M796.456 566.605L757.804 543.335L834.714 497.978L796.456 566.605Z" fill="#222222"/>
<path d="M706.137 512.177L675.373 542.941L752.677 566.605L706.137 512.177Z" fill="#222222"/>
<path d="M1045.72 550.435L1070.57 566.605L1082.4 525.587L1045.72 550.435Z" fill="#222222"/>
<path d="M247.438 464.453L265.186 434.084L274.652 485.357L247.438 464.453Z" fill="#222222"/>
<path d="M313.304 455.382L274.652 485.357L265.186 434.084L313.304 455.382Z" fill="#222222"/>
<path d="M252.565 566.605L226.14 557.139L247.043 496.795L252.565 566.605Z" fill="#222222"/>
<path d="M248.621 515.726L247.043 497.189L274.652 485.357L248.621 515.726Z" fill="#222222"/>
<path d="M275.441 566.605H252.565L269.919 518.487L275.441 566.605Z" fill="#222222"/>
<path d="M269.919 518.487L248.621 515.726L250.593 542.546L269.919 518.487Z" fill="#222222"/>
<path d="M707.32 488.907L667.484 464.059H703.77L707.32 488.907Z" fill="#222222"/>
<path d="M703.77 464.059L693.515 441.972L770.031 454.987L703.77 464.059Z" fill="#222222"/>
<path d="M752.677 430.14L724.279 447.099L770.031 454.987L752.677 430.14Z" fill="#222222"/>
<path d="M160.668 403.051L156.329 380.036C156.329 380.036 168.95 378.458 171.711 380.036C174.472 381.614 178.811 396.615 180.783 399.15C182.755 401.685 196.559 405.292 198.137 406.869C199.714 408.447 202.87 414.363 202.87 414.363H173.289L171.711 407.732L160.668 403.051Z" fill="#222222"/>
<path d="M-18 464.059L27.3571 506.655L-18 566.605V464.059Z" fill="#222222"/>
<path d="M115.311 452.226L160.273 449.466L107.422 466.425L115.311 452.226Z" fill="#222222"/>
<path d="M195.77 422.251L241.127 459.326L183.543 424.223L195.77 422.251Z" fill="#222222"/>
<path d="M52.205 473.525L63.2484 536.236L-18 566.605L52.205 473.525Z" fill="#222222"/>
<path d="M247.043 497.189L226.14 557.139L159.484 533.475L247.043 497.189Z" fill="#222222"/>
<path d="M43.5279 426.59L52.205 473.919L27.3571 506.655L43.5279 426.59Z" fill="#222222"/>
<path d="M12.764 440L-18 464.059L27.3571 506.655L12.764 440Z" fill="#222222"/>
<path d="M183.543 423.829L128.72 432.506L160.273 449.466L183.543 423.829Z" fill="#222222"/>
<path d="M265.186 434.084L217.857 440.394L247.438 464.453L265.186 434.084Z" fill="#222222"/>
<path d="M43.5279 426.59L12.764 440L27.3571 506.655L43.5279 426.59Z" fill="#222222"/>
<path d="M128.72 432.506L99.9286 453.41L160.273 449.466L128.72 432.506Z" fill="#222222"/>
<path d="M49.0497 456.959L107.422 546.885L63.2484 536.236L49.0497 456.959Z" fill="#222222"/>
<path d="M89.6739 406.475L128.72 432.506L99.9286 453.41L89.6739 406.475Z" fill="#222222"/>
<path d="M43.5279 426.59L86.1242 415.546L49.0497 456.959L43.5279 426.59Z" fill="#222222"/>
<path d="M183.543 424.223L216.674 444.338L191.826 486.146L183.543 424.223Z" fill="#222222"/>
<path d="M49.0497 456.959L115.311 452.226L83.3633 509.81L49.0497 456.959Z" fill="#222222"/>
<path d="M191.826 486.146L241.127 459.326L220.224 508.627L191.826 486.146Z" fill="#222222"/>
<path d="M216.674 444.338L241.127 459.326L191.826 486.146L216.674 444.338Z" fill="#222222"/>
<path d="M143.708 566.605L159.484 533.08L252.565 566.605H143.708Z" fill="#222222"/>
<path d="M217.857 440.394L202.87 414.363L265.186 434.084L217.857 440.394Z" fill="#222222"/>
<path d="M183.543 423.829L194.981 509.81L128.72 512.571L183.543 423.829Z" fill="#222222"/>
<path d="M145.286 381.233H172.894L186.699 414.758L145.286 381.233Z" fill="#222222"/>
<path d="M49.0497 456.959L80.2081 421.857L99.9286 453.41L49.0497 456.959Z" fill="#222222"/>
<path d="M80.2081 421.857L89.6739 406.475L99.9286 453.41L80.2081 421.857Z" fill="#222222"/>
<path d="M89.6739 406.475L120.043 381.233L128.72 432.506L89.6739 406.475Z" fill="#222222"/>
<path d="M120.043 381.233H145.286L128.72 432.506L120.043 381.233Z" fill="#222222"/>
<path d="M63.2484 536.236L78.6304 566.605L119.649 549.646L63.2484 536.236Z" fill="#222222"/>
<path d="M160.273 449.466L169.739 446.31L183.543 423.829L160.273 449.466Z" fill="#222222"/>
<path d="M128.72 432.506L196.165 422.251L145.286 381.233L128.72 432.506Z" fill="#222222"/>
<path d="M107.422 546.885L83.3633 509.81L107.422 466.425V546.885Z" fill="#222222"/>
<path d="M220.224 508.627L194.981 509.81L191.826 486.146L220.224 508.627Z" fill="#222222"/>
<path d="M107.422 466.425V546.885L169.739 446.31L107.422 466.425Z" fill="#222222"/>
<path d="M180.388 399.376L186.699 414.758L198.137 406.869L180.388 399.376Z" fill="#222222"/>
<path d="M198.137 406.869L186.699 414.758L217.857 440.394L198.137 406.869Z" fill="#222222"/>
<path d="M107.422 546.885L119.649 549.646L128.72 512.571L107.422 546.885Z" fill="#222222"/>
<path d="M220.224 508.627L274.652 485.357L241.127 459.326L220.224 508.627Z" fill="#222222"/>
<path d="M78.6304 566.605H143.708L159.484 533.08L78.6304 566.605Z" fill="#222222"/>
<path d="M63.2484 536.236L78.6304 566.605L-18 566.605L63.2484 536.236Z" fill="#222222"/>
<path d="M128.72 512.571L220.224 508.627L119.649 549.646L128.72 512.571Z" fill="#222222"/>
<path d="M329.87 525.981L274.652 485.357L344.068 515.332L329.87 525.981Z" fill="#222222"/>
<path d="M509.326 566.605H437.543L467.518 520.065L509.326 566.605Z" fill="#222222"/>
<path d="M252.565 566.605L250.593 542.546L269.919 518.487L252.565 566.605Z" fill="#222222"/>
<path d="M477.773 503.5L467.518 520.065L548.767 528.348L477.773 503.5Z" fill="#222222"/>
<path d="M509.326 566.605L507.354 524.009L584.658 566.605H509.326Z" fill="#222222"/>
<path d="M548.767 528.348L588.997 497.584L604.773 517.699L548.767 528.348Z" fill="#222222"/>
<path d="M701.798 486.54L706.137 512.177L604.773 517.699L701.798 486.54Z" fill="#222222"/>
<path d="M859.562 566.605L850.096 557.139L944.754 566.605L859.562 566.605Z" fill="#222222"/>
<path d="M754.255 455.382L799.612 454.199L764.115 488.512L754.255 455.382Z" fill="#222222"/>
<path d="M754.255 455.382L764.115 488.512L728.223 459.72L754.255 455.382Z" fill="#222222"/>
<path d="M780.286 488.512H764.115L786.596 466.82L780.286 488.512Z" fill="#222222"/>
<path d="M786.596 466.82L813.416 478.258L780.286 488.512L786.596 466.82Z" fill="#222222"/>
<path d="M728.223 459.72L707.32 488.907L703.77 464.059L728.223 459.72Z" fill="#222222"/>
<path d="M707.32 488.907L728.223 459.72L764.115 488.512L707.32 488.907Z" fill="#222222"/>
<path d="M269.919 518.487L275.441 566.605M269.919 518.487L329.87 525.981M269.919 518.487L252.565 566.605M269.919 518.487L248.621 515.726M269.919 518.487L250.593 542.546M275.441 566.605L329.87 525.981M275.441 566.605L344.068 515.332M275.441 566.605H364.972M275.441 566.605H252.565M329.87 525.981L274.652 485.357M329.87 525.981L344.068 515.332M364.972 566.605L378.382 543.73M364.972 566.605H437.543M364.972 566.605L344.068 515.332M364.972 566.605L352.351 535.841M378.382 543.73L437.543 566.605M378.382 543.73L352.351 535.841M378.382 543.73L460.406 531.108M378.382 543.73L380.354 483.779M378.382 543.73L460.419 531.108M437.543 566.605L460.406 531.108M437.543 566.605H509.326M437.543 566.605L467.518 520.065M584.658 566.605L675.373 542.941M584.658 566.605H677.345M584.658 566.605L604.773 517.698M584.658 566.605L507.354 524.009M584.658 566.605L548.767 528.348M584.658 566.605H509.326M675.373 542.941L677.345 566.605M675.373 542.941L604.773 517.698M675.373 542.941L706.137 512.177M675.373 542.941L752.677 566.605M677.345 566.605H752.677M604.773 517.698L548.767 528.348M604.773 517.698L588.997 497.584M604.773 517.698L701.798 486.54M604.773 517.698L706.137 512.177M344.068 515.332L313.304 455.382M344.068 515.332L274.652 485.357M344.068 515.332L380.354 483.779M344.068 515.332L352.351 535.841M352.351 535.841L380.354 483.779M313.304 455.382L274.652 485.357M313.304 455.382L380.354 483.779M313.304 455.382L265.186 434.084M274.652 485.357L248.621 515.726M274.652 485.357L329.87 525.94L248.621 515.726M274.652 485.357L247.438 464.453M274.652 485.357L265.186 434.084M274.652 485.357L247.043 497.189M274.652 485.357L220.224 508.627M274.652 485.357L241.127 459.326M248.621 515.726L247.043 497.189M248.621 515.726L250.593 542.546M380.354 483.779L460.419 531.108M380.354 483.779L439.121 499.95M460.406 531.108L460.412 531.098M460.419 531.108L439.121 499.95M460.419 531.108L460.412 531.098M439.121 499.95L477.773 503.5M439.121 499.95L460.412 531.098M477.773 503.5L467.518 520.065M477.773 503.5L548.767 528.348M477.773 503.5L588.997 497.584M460.412 531.098L467.518 520.065M467.518 520.065L509.326 566.605M467.518 520.065L507.354 524.126L509.326 566.605M467.518 520.065L548.767 528.348M509.326 566.605L507.354 524.009M548.767 528.348L588.997 497.584M548.767 528.348L507.354 524.009M588.997 497.584L701.798 486.54M701.798 486.54L706.137 512.177M701.798 486.54L755.043 488.054M706.137 512.177L755.043 488.054M706.137 512.177L752.677 566.605M706.137 512.177L796.456 566.605M706.137 512.177L757.804 543.335M706.137 512.177L755.043 488.118L757.804 543.335M752.677 566.605H796.456M755.043 488.054L785.018 488.907M755.043 488.054L757.804 543.335M796.456 566.605L819.323 525.587M796.456 566.605H859.562M796.456 566.605L757.804 543.335M796.456 566.605L834.714 497.978M785.018 488.907L757.804 543.335M785.018 488.907L834.714 497.978M757.804 543.335L834.714 497.978M834.714 497.978L879.282 513.36M834.714 497.978L819.323 525.587M819.323 525.587L859.562 566.605M819.323 525.587L879.282 513.36M859.562 566.605L850.096 557.139M859.562 566.605L944.754 566.605M879.282 513.36L900.975 516.91M879.282 513.36L850.096 556.956M879.282 513.36L819.332 525.587L850.096 557.139M879.282 513.36L850.096 557.139M900.975 516.91L850.096 556.956M900.975 516.91L944.754 566.605M900.975 516.91L957.376 525.587M850.096 556.956L900.975 516.756L944.754 566.605M850.096 556.956L944.754 566.605M944.754 566.605L957.376 525.587M944.754 566.605L1007.47 566.605M944.754 566.605L850.096 557.139M957.376 525.587L1007.47 566.605M957.376 525.587L1011.41 527.536M957.376 525.587L992.478 554.379M1007.47 566.605L992.478 554.379M1007.47 566.605L1011.41 527.559M1007.47 566.605L1011.41 527.536M1007.47 566.605H1070.57M1011.41 527.536L992.478 554.379M1011.41 527.536L1070.57 566.605M992.478 554.379L1011.41 527.559M1011.41 527.559L1082.4 525.587M1011.41 527.559L1045.72 550.435M1082.4 525.587L1045.72 550.435M1082.4 525.587L1117.9 520.854M1082.4 525.587L1070.57 566.605M1045.72 550.435L1070.57 566.605M1070.57 566.605H1117.9V520.854M1070.57 566.605L1117.9 520.854M265.186 434.084L247.438 464.453M265.186 434.084L217.857 440.394M265.186 434.084L202.87 414.363M247.438 464.453L217.857 440.394M226.14 557.139L252.565 566.605M226.14 557.139L247.043 496.795L252.565 566.605M226.14 557.139L247.043 497.189M226.14 557.139L159.484 533.475L247.043 497.189M252.565 566.605L159.484 533.08M252.565 566.605H143.708M252.565 566.605L250.593 542.546M707.32 488.907L667.484 464.059H703.77M707.32 488.907L703.77 464.059M707.32 488.907L728.223 459.72M707.32 488.907L764.115 488.512M703.77 464.059L693.515 441.972L770.031 454.987M703.77 464.059L770.031 454.987M703.77 464.059L728.223 459.72M770.031 454.987L752.677 430.14L724.279 447.099L770.031 454.987ZM166.978 381.233H120.043M120.043 381.233L89.6739 406.475M120.043 381.233L128.72 432.506M120.043 381.233H145.286M202.87 414.363H173.289L171.711 407.732L160.668 403.051L156.329 380.036C156.329 380.036 168.95 378.458 171.711 380.036C174.472 381.614 178.811 396.615 180.783 399.15C182.755 401.685 196.559 405.292 198.137 406.869M202.87 414.363C202.87 414.363 199.714 408.447 198.137 406.869M202.87 414.363L217.857 440.394M198.137 406.869L186.699 414.758M198.137 406.869L180.388 399.376L186.699 414.758M198.137 406.869L217.857 440.394M-18 464.059L27.3571 506.655M-18 464.059V566.605M-18 464.059L12.764 440M27.3571 506.655L-18 566.605M27.3571 506.655L52.205 473.919L43.5279 426.59M27.3571 506.655L43.5279 426.59M27.3571 506.655L12.764 440M-18 566.605L63.2484 536.236M-18 566.605L52.205 473.525L63.2484 536.236M-18 566.605L78.6304 566.605M115.311 452.226L160.273 449.466M115.311 452.226L107.422 466.425M115.311 452.226L49.0497 456.959M115.311 452.226L83.3633 509.81M160.273 449.466L107.422 466.425M160.273 449.466L128.72 432.506M160.273 449.466L183.543 423.829M160.273 449.466L99.9285 453.41M160.273 449.466L169.739 446.31M107.422 466.425L83.3633 509.81M107.422 466.425V546.885M107.422 466.425L169.739 446.31M241.127 459.326L195.77 422.251L183.543 424.223M241.127 459.326L183.543 424.223M241.127 459.326L191.826 486.146M241.127 459.326L220.224 508.627M241.127 459.326L216.674 444.338M183.543 424.223L216.674 444.338M183.543 424.223L191.826 486.146M63.2484 536.236L107.422 546.885M63.2484 536.236L49.0497 456.959M63.2484 536.236L78.6304 566.605M63.2484 536.236L119.649 549.646M43.5279 426.59L12.764 440M43.5279 426.59L86.1242 415.546L49.0497 456.959M43.5279 426.59L49.0497 456.959M183.543 423.829L128.72 432.506M183.543 423.829L194.981 509.81M183.543 423.829L128.72 512.571M183.543 423.829L169.739 446.31M128.72 432.506L99.9285 453.41M128.72 432.506L89.6739 406.475M128.72 432.506L145.286 381.233M128.72 432.506L196.165 422.251L145.286 381.233M217.857 440.394L186.699 414.758M99.9285 453.41L89.6739 406.475M99.9285 453.41L80.2081 421.857M99.9285 453.41L49.0497 456.959M49.0497 456.959L107.422 546.885M49.0497 456.959L83.3633 509.81M49.0497 456.959L80.2081 421.857M107.422 546.885L83.3633 509.81M107.422 546.885L169.739 446.31M107.422 546.885L119.649 549.646M107.422 546.885L128.72 512.571M89.6739 406.475L80.2081 421.857M216.674 444.338L191.826 486.146M191.826 486.146L220.224 508.627M191.826 486.146L194.981 509.81M220.224 508.627L194.981 509.81M220.224 508.627L128.72 512.571M220.224 508.627L119.649 549.646M143.708 566.605L159.484 533.08M143.708 566.605H78.6304M159.484 533.08L78.6304 566.605M194.981 509.81L128.72 512.571M128.72 512.571L119.649 549.646M145.286 381.233H172.894L186.699 414.758M145.286 381.233L186.699 414.758M78.6304 566.605L119.649 549.646M754.255 455.382L799.612 454.199L764.115 488.512M754.255 455.382L764.115 488.512M754.255 455.382L728.223 459.72M764.115 488.512L728.223 459.72M764.115 488.512H780.286M764.115 488.512L786.596 466.82M780.286 488.512L786.596 466.82M780.286 488.512L813.416 478.258L786.596 466.82" stroke="#00AE98" stroke-width="0.5"/>
</g>
<path d="M274.65 485.751L313.303 455.776L344.067 515.726L274.65 485.751Z" fill="#09BAA4" stroke="#00AE98" stroke-width="0.5"/>
<path d="M248.619 516.12L274.65 485.75L329.868 526.334L248.619 516.12Z" fill="#079180" stroke="#00AE98" stroke-width="0.5"/>
<path d="M380.35 484.173L313.301 455.776L344.065 515.726L380.35 484.173Z" fill="#089E8B" stroke="#00AE98" stroke-width="0.5"/>
<path d="M352.35 536.235L378.381 544.124L380.353 484.173L352.35 536.235Z" fill="#0D7C6F" stroke="#00AE98" stroke-width="0.5"/>
<path d="M460.416 531.503L378.379 544.124L380.351 484.173L460.416 531.503Z" fill="#089E8B" stroke="#00AE98" stroke-width="0.5"/>
<path d="M344.066 515.726L352.349 536.235L380.352 484.173L344.066 515.726Z" fill="#19AB99" stroke="#00AE98" stroke-width="0.5"/>
<path d="M439.119 500.344L380.352 484.173L460.417 531.503L439.119 500.344Z" fill="#08A390" stroke="#00AE98" stroke-width="0.5"/>
<path d="M247.438 464.848L265.186 434.478L274.652 485.751L247.438 464.848Z" fill="#09BAA4" stroke="#00AE98" stroke-width="0.5"/>
<path d="M313.302 455.776L274.649 485.751L265.184 434.478L313.302 455.776Z" fill="#09AD99" stroke="#00AE98" stroke-width="0.5"/>
<path d="M248.621 516.121L247.043 497.584L274.652 485.751L248.621 516.121Z" fill="#09BAA4" stroke="#00AE98" stroke-width="0.5"/>
<path d="M707.316 489.301L667.48 464.454H703.766L707.316 489.301Z" fill="#079180" stroke="#00AE98" stroke-width="0.5"/>
<path d="M703.77 464.453L693.516 442.366L770.031 455.382L703.77 464.453Z" fill="#19AB99" stroke="#00AE98" stroke-width="0.5"/>
<path d="M752.677 430.534L724.279 447.493L770.031 455.382L752.677 430.534Z" fill="#0A9685" stroke="#00AE98" stroke-width="0.5"/>
<path d="M120.039 292.096V342.975L147.648 327.198L120.039 292.096Z" fill="#118D7E" stroke="#00AE98" stroke-width="0.5"/>
<path d="M166.974 316.154V381.627L120.039 342.974L166.974 316.154Z" fill="#00AE98" stroke="#00AE98" stroke-width="0.5"/>
<path d="M166.976 267.642V316.154L147.65 327.198L166.976 267.642Z" fill="#118C7D" stroke="#00AE98" stroke-width="0.5"/>
<path d="M147.648 327.198L120.039 292.095L166.974 267.642L147.648 327.198Z" fill="#09BAA4" stroke="#00AE98" stroke-width="0.5"/>
<path d="M134.632 254.868L120.039 249.105V203.748L134.632 254.868Z" fill="#078A7A" stroke="#00AE98" stroke-width="0.5"/>
<path d="M120.039 184.027V203.748L131.871 174.562L120.039 184.027Z" fill="#089E8B" stroke="#00AE98" stroke-width="0.5"/>
<path d="M166.974 237.667L120.039 203.748L131.871 174.562L166.974 237.667Z" fill="#09BAA4" stroke="#00AE98" stroke-width="0.5"/>
<path d="M166.976 184.027V237.667L147.23 202.17L166.976 184.027Z" fill="#09AD99" stroke="#00AE98" stroke-width="0.5"/>
<path d="M166.976 184.027L147.255 202.17L131.873 174.562L166.976 184.027Z" fill="#078A7A" stroke="#00AE98" stroke-width="0.5"/>
<path d="M157.51 174.562L166.976 184.027L131.873 174.562H157.51Z" fill="#0CC1AB" stroke="#00AE98" stroke-width="0.5"/>
<path d="M206.023 267.642H166.977L214.7 250.288L206.023 267.642Z" fill="#078A7A" stroke="#00AE98" stroke-width="0.5"/>
<path d="M166.976 267.642L134.635 254.869L166.976 237.667V267.642Z" fill="#09BAA4" stroke="#00AE98" stroke-width="0.5"/>
<path d="M185.119 244.767H166.977V267.642L185.119 244.767Z" fill="#089E8B" stroke="#00AE98" stroke-width="0.5"/>
<path d="M166.977 267.642L214.7 250.288L185.119 244.767L166.977 267.642Z" fill="#0CC1AB" stroke="#00AE98" stroke-width="0.5"/>
<path d="M186.695 224.257L185.117 244.767L214.698 250.288L186.695 224.257Z" fill="#09AD99" stroke="#00AE98" stroke-width="0.5"/>
<path d="M214.699 212.819V250.288L199.711 236.484L214.699 212.819Z" fill="#09BAA4" stroke="#00AE98" stroke-width="0.5"/>
<path d="M206.021 204.931L214.699 212.819L199.711 236.483L206.021 204.931Z" fill="#078A7A" stroke="#00AE98" stroke-width="0.5"/>
<path d="M186.695 224.257V211.241L206.021 204.931L186.695 224.257Z" fill="#0CC1AB" stroke="#00AE98" stroke-width="0.5"/>
<path d="M199.848 236.483L186.695 224.257L206.021 204.931L199.848 236.483Z" fill="#089E8B" stroke="#00AE98" stroke-width="0.5"/>
<path d="M194.189 204.931L186.695 211.241L206.021 204.931H194.189Z" fill="#09BAA4" stroke="#00AE98" stroke-width="0.5"/>
<path d="M120.039 249.104V292.095L166.974 267.642L120.039 249.104Z" fill="#089E8B" stroke="#00AE98" stroke-width="0.5"/>
<path d="M120.04 269.22V292.096L104.658 269.22H120.04Z" fill="#09BAA4" stroke="#00AE98" stroke-width="0.5"/>
<path d="M80.5996 292.096H120.041L104.659 269.22L80.5996 292.096Z" fill="#089E8B" stroke="#00AE98" stroke-width="0.5"/>
<path d="M74.2891 247.922V281.447L91.2487 274.742L74.2891 247.922Z" fill="#0CC1AB" stroke="#00AE98" stroke-width="0.5"/>
<path d="M104.659 269.22L80.5996 292.096L74.2891 281.447L104.659 269.22Z" fill="#078A7A" stroke="#00AE98" stroke-width="0.5"/>
<path d="M91.2487 274.742L74.2891 247.922L82.9661 240.034L91.2487 274.742Z" fill="#089E8B" stroke="#00AE98" stroke-width="0.5"/>
<path d="M94.4047 240.034H82.9668L101.504 247.922L94.4047 240.034Z" fill="#078A7A" stroke="#00AE98" stroke-width="0.5"/>
<path d="M91.2494 274.742L101.504 247.922L82.9668 240.034L91.2494 274.742Z" fill="#09BAA4" stroke="#00AE98" stroke-width="0.5"/>
<path d="M104.66 269.22L101.505 247.922L91.25 274.742L104.66 269.22Z" fill="#09AD99" stroke="#00AE98" stroke-width="0.5"/>
<path d="M120.039 342.975V381.627H166.974L120.039 342.975Z" fill="#078A7A" stroke="#00AE98" stroke-width="0.5"/>
<path d="M160.665 403.445L156.326 380.43C156.326 380.43 168.947 378.852 171.708 380.43C174.469 382.008 178.808 397.009 180.78 399.544C182.752 402.08 196.556 405.686 198.134 407.263C199.711 408.841 202.867 414.757 202.867 414.757H173.286L171.708 408.126L160.665 403.445Z" fill="#00917F" stroke="#00AE98" stroke-width="0.5"/>
<path d="M166.978 237.667L134.636 255.021L120.043 203.748L166.978 237.667Z" fill="#0CC1AB" stroke="#00AE98" stroke-width="0.5"/>
<path d="M27.0222 507.077L-17.75 566.254V465.03L27.0222 507.077Z" fill="#09AD99" stroke="#00AE98" stroke-width="0.5"/>
<path d="M107.947 466.388L115.462 452.862L158.296 450.232L107.947 466.388Z" fill="#09AD99" stroke="#00AE98" stroke-width="0.5"/>
<path d="M184.251 424.757L195.698 422.91L238.164 457.621L184.251 424.757Z" fill="#08A390" stroke="#00AE98" stroke-width="0.5"/>
<path d="M62.9662 536.468L-17.2836 566.465L52.0584 474.528L62.9662 536.468Z" fill="#089E8B" stroke="#00AE98" stroke-width="0.5"/>
<path d="M51.9375 474.25L27.8168 506.028L43.5144 428.305L51.9375 474.25Z" fill="#09AD99" stroke="#00AE98" stroke-width="0.5"/>
<path d="M26.9405 506.315L-17.6163 464.47L12.6048 440.836L26.9405 506.315Z" fill="#079180" stroke="#00AE98" stroke-width="0.5"/>
<path d="M160.222 449.547L129.494 433.031L182.883 424.581L160.222 449.547Z" fill="#079180" stroke="#00AE98" stroke-width="0.5"/>
<path d="M247.368 464.47L218.462 440.96L264.711 434.793L247.368 464.47Z" fill="#079180" stroke="#00AE98" stroke-width="0.5"/>
<path d="M27.347 505.835L13.0518 440.541L43.1876 427.405L27.347 505.835Z" fill="#09BAA4" stroke="#00AE98" stroke-width="0.5"/>
<path d="M159.386 449.667L100.775 453.498L128.74 433.195L159.386 449.667Z" fill="#078A7A" stroke="#00AE98" stroke-width="0.5"/>
<path d="M63.4649 536.425L49.5132 458.528L106.87 546.889L63.4649 536.425Z" fill="#08A390" stroke="#00AE98" stroke-width="0.5"/>
<path d="M100.089 453.377L90.0482 407.421L128.281 432.909L100.089 453.377Z" fill="#08A390" stroke="#00AE98" stroke-width="0.5"/>
<path d="M49.2036 456.806L43.8148 427.168L85.3856 416.391L49.2036 456.806Z" fill="#089E8B" stroke="#00AE98" stroke-width="0.5"/>
<path d="M216.332 444.818L191.978 485.794L183.86 425.103L216.332 444.818Z" fill="#089E8B" stroke="#00AE98" stroke-width="0.5"/>
<path d="M83.3457 509.719L49.4892 457.573L114.867 452.903L83.3457 509.719Z" fill="#09BAA4" stroke="#00AE98" stroke-width="0.5"/>
<path d="M220.124 508.622L192.28 486.579L240.62 460.282L220.124 508.622Z" fill="#09BAA4" stroke="#00AE98" stroke-width="0.5"/>
<path d="M192.508 485.885L216.761 445.078L240.63 459.707L192.508 485.885Z" fill="#11B09D" stroke="#00AE98" stroke-width="0.5"/>
<path d="M264.042 434.379L217.99 440.519L203.406 415.19L264.042 434.379Z" fill="#09BAA4" stroke="#00AE98" stroke-width="0.5"/>
<path d="M129.183 512.696L183.39 424.95L194.7 509.966L129.183 512.696Z" fill="#09BAA4" stroke="#00AE98" stroke-width="0.5"/>
<path d="M172.726 381.877L186.094 414.341L145.991 381.877H172.726Z" fill="#09BAA4" stroke="#00AE98" stroke-width="0.5"/>
<path d="M99.4951 453.583L49.6423 457.061L80.1723 422.667L99.4951 453.583Z" fill="#09AD99" stroke="#00AE98" stroke-width="0.5"/>
<path d="M99.3756 452.449L80.5012 422.25L89.5609 407.528L99.3756 452.449Z" fill="#079180" stroke="#00AE98" stroke-width="0.5"/>
<path d="M128.375 432.371L90.0895 406.847L119.867 382.097L128.375 432.371Z" fill="#09AD99" stroke="#00AE98" stroke-width="0.5"/>
<path d="M128.796 431.852L120.339 381.877H144.942L128.796 431.852Z" fill="#079180" stroke="#00AE98" stroke-width="0.5"/>
<path d="M169.574 446.496L161.101 449.321L181.931 426.372L169.574 446.496Z" fill="#007D6E" stroke="#00AE98" stroke-width="0.5"/>
<path d="M129.085 432.592L145.414 382.05L195.568 422.484L129.085 432.592Z" fill="#09AD99" stroke="#00AE98" stroke-width="0.5"/>
<path d="M83.6548 510.194L107.172 467.786V546.434L83.6548 510.194Z" fill="#09AD99" stroke="#00AE98" stroke-width="0.5"/>
<path d="M169.168 447.152L107.672 546.401V467.001L169.168 447.152Z" fill="#089E8B" stroke="#00AE98" stroke-width="0.5"/>
<path d="M197.62 407.317L186.813 414.77L180.85 400.236L197.62 407.317Z" fill="#089E8B" stroke="#00AE98" stroke-width="0.5"/>
<path d="M216.926 439.698L187.114 415.169L198.058 407.622L216.926 439.698Z" fill="#00917F" stroke="#00AE98" stroke-width="0.5"/>
<path d="M241.23 460.117L274.163 485.688L220.695 508.548L241.23 460.117Z" fill="#09A995" stroke="#00AE98" stroke-width="0.5"/>
<path d="M329.87 526.375L274.652 485.751L344.068 515.726L329.87 526.375Z" fill="#0DAC98" stroke="#00AE98" stroke-width="0.5"/>
<path d="M728.221 460.115L707.317 489.302L703.768 464.454L728.221 460.115Z" fill="#007D6E" stroke="#00AE98" stroke-width="0.5"/>
<path d="M707.316 489.302L728.22 460.115L764.111 488.907L707.316 489.302Z" fill="#079180" stroke="#00AE98" stroke-width="0.5"/>
</g>
</g>
<defs>
<filter id="filter0_d" x="-29.25" y="322.4" width="1158.4" height="205.803" filterUnits="userSpaceOnUse" color-interpolation-filters="sRGB">
<feFlood flood-opacity="0" result="BackgroundImageFix"/>
<feColorMatrix in="SourceAlpha" type="matrix" values="0 0 0 0 0 0 0 0 0 0 0 0 0 0 0 0 0 0 127 0"/>
<feOffset dy="-18"/>
<feGaussianBlur stdDeviation="5.5"/>
<feColorMatrix type="matrix" values="0 0 0 0 0 0 0 0 0 0 0 0 0 0 0 0 0 0 0.4 0"/>
<feBlend mode="normal" in2="BackgroundImageFix" result="effect1_dropShadow"/>
<feBlend mode="normal" in="SourceGraphic" in2="effect1_dropShadow" result="shape"/>
</filter>
<filter id="filter1_d" x="-29.25" y="351.085" width="1158.4" height="215.77" filterUnits="userSpaceOnUse" color-interpolation-filters="sRGB">
<feFlood flood-opacity="0" result="BackgroundImageFix"/>
<feColorMatrix in="SourceAlpha" type="matrix" values="0 0 0 0 0 0 0 0 0 0 0 0 0 0 0 0 0 0 127 0"/>
<feOffset dy="-17"/>
<feGaussianBlur stdDeviation="5.5"/>
<feColorMatrix type="matrix" values="0 0 0 0 0 0 0 0 0 0 0 0 0 0 0 0 0 0 0.4 0"/>
<feBlend mode="normal" in2="BackgroundImageFix" result="effect1_dropShadow"/>
<feBlend mode="normal" in="SourceGraphic" in2="effect1_dropShadow" result="shape"/>
</filter>
<clipPath id="clip0">
<rect width="725" height="486" fill="white"/>
</clipPath>
</defs>
</svg>
