<svg width="1440" height="690" viewBox="0 0 1440 690" fill="none" xmlns="http://www.w3.org/2000/svg">
<g clip-path="url(#clip0)">
<rect width="1440" height="690" fill="#222222"/>
<rect width="1440" height="690" fill="#222222"/>
<circle cx="733" cy="415" r="603" fill="#242424"/>
<circle cx="733" cy="415" r="435" fill="#272727"/>
<circle cx="733" cy="415" r="229" fill="#292929"/>
<g opacity="0.9">
<path d="M984.5 86.5L911.5 143L1066 213L984.5 86.5Z" fill="#017C70" stroke="#00544C" stroke-width="0.5"/>
<path d="M885 267.5L911.5 143L1066 213L885 267.5Z" fill="#003833" stroke="#00544C" stroke-width="0.5"/>
<path d="M1099.5 46L984.5 86.5L1066 213L1099.5 46Z" fill="#024741" stroke="#00544C" stroke-width="0.5"/>
<path d="M1066 213L1099.5 46L1170 86.5L1066 213Z" fill="#013D37" stroke="#00544C" stroke-width="0.5"/>
<path d="M1170 162.5V86.5L1066 213L1170 162.5Z" fill="#024741" stroke="#00544C" stroke-width="0.5"/>
<path d="M1066 213L1170 162.5L1227 357L1066 213Z" fill="#01685E" stroke="#00544C" stroke-width="0.5"/>
<path d="M1066 213L885 267.5L1096 453L1066 213Z" fill="#003833" stroke="#00544C" stroke-width="0.5"/>
<path d="M1066 213L1227 357L1096 453L1066 213Z" fill="#024741" stroke="#00544C" stroke-width="0.5"/>
<path d="M1203.5 458L1096 453L1161.5 405L1203.5 458Z" fill="#01685E" stroke="#00544C" stroke-width="0.5"/>
<path d="M1183.5 250L1133.5 313L1158.5 351.75L1183.5 250Z" fill="#024741" stroke="#00544C" stroke-width="0.5"/>
<path d="M1247 281.5L1183.5 250L1158.5 351.75L1247 281.5Z" fill="#01685E" stroke="#00544C" stroke-width="0.5"/>
<path d="M1133.5 313V453.5L1158.5 351.75L1133.5 313Z" fill="#017C70" stroke="#00544C" stroke-width="0.5"/>
<path d="M1275.5 355L1247 281.5L1217 353.5L1275.5 355Z" fill="#004B44" stroke="#00544C" stroke-width="0.5"/>
<path d="M1275.5 411V355L1217 353.375L1275.5 411Z" fill="#013D37" stroke="#00544C" stroke-width="0.5"/>
<path d="M1217 353.375L1275.5 411L1246 461L1217 353.375Z" fill="#017C70" stroke="#00544C" stroke-width="0.5"/>
<path d="M1158.5 351.75L1217 353.375L1247 281.5L1158.5 351.75Z" fill="#024741" stroke="#00544C" stroke-width="0.5"/>
<path d="M1294 455.5L1275.5 411L1246 461L1294 455.5Z" fill="#004B44" stroke="#00544C" stroke-width="0.5"/>
<path d="M1169.5 461H1246L1217 353.375L1169.5 461Z" fill="#01685E" stroke="#00544C" stroke-width="0.5"/>
<path d="M1169.5 461L1217 353.5L1158.5 351.5L1169.5 461Z" fill="#004B44" stroke="#00544C" stroke-width="0.5"/>
<path d="M1169.5 461L1133.5 453.5L1158.5 351.75L1169.5 461Z" fill="#013D37" stroke="#00544C" stroke-width="0.5"/>
<path d="M819.5 225.5L768.5 460L938.5 329L819.5 225.5Z" fill="#024741" stroke="#00544C" stroke-width="0.5"/>
<path d="M916 172L819.5 225.5L938.5 329L916 172Z" fill="#004B44" stroke="#00544C" stroke-width="0.5"/>
<path d="M938.5 329L916 172L1013.5 190.5L938.5 329Z" fill="#017C70" stroke="#00544C" stroke-width="0.5"/>
<path d="M1081 315L1013.5 190.5L938.5 329L1081 315Z" fill="#004B44" stroke="#00544C" stroke-width="0.5"/>
<path d="M938.5 329L1081 315L1095 454L938.5 329Z" fill="#013D37" stroke="#00544C" stroke-width="0.5"/>
<path d="M1095 454L938.5 329L768.5 460L1095 454Z" fill="#01685E" stroke="#00544C" stroke-width="0.5"/>
<path d="M175 424V455L139 445.5L175 424Z" fill="#01685E" stroke="#00544C" stroke-width="0.5"/>
<path d="M347 467.5L295 459L328.5 436L347 467.5Z" fill="#02897C" stroke="#00544C" stroke-width="0.5"/>
<path d="M400.5 488.5L347 467.5L372.5 464.5L400.5 488.5Z" fill="#004B44" stroke="#00544C" stroke-width="0.5"/>
<path d="M474 520.5L400.5 488.5L450.5 477L474 520.5Z" fill="#02897C" stroke="#00544C" stroke-width="0.5"/>
<path d="M547.5 539L474 520.5L486 480L547.5 539Z" fill="#017C70" stroke="#00544C" stroke-width="0.5"/>
<path d="M1310 476L1224 482L1246 461L1310 476Z" fill="#004B44" stroke="#00544C" stroke-width="0.5"/>
<path d="M30.5 494.5L0 517.5V440L30.5 494.5Z" fill="#01685E" stroke="#00544C" stroke-width="0.5"/>
<path d="M0 408V440L72 414L0 408Z" fill="#01685E" stroke="#00544C" stroke-width="0.5"/>
<path d="M72.5 478.5L30.5 494.5L52 445.5L72.5 478.5Z" fill="#02897C" stroke="#00544C" stroke-width="0.5"/>
<path d="M52 445.5L0 440L30.5 494.5L52 445.5Z" fill="#024741" stroke="#00544C" stroke-width="0.5"/>
<path d="M0 440L72 414L52 445.5L0 440Z" fill="#017C70" stroke="#00544C" stroke-width="0.5"/>
<path d="M92 456.5L72.5 478.5L52 445.5L92 456.5Z" fill="#004B44" stroke="#00544C" stroke-width="0.5"/>
<path d="M99 478.5H72.5L92 456.5L99 478.5Z" fill="#013D37" stroke="#00544C" stroke-width="0.5"/>
<path d="M72 414L52 445.5L92 456.5L72 414Z" fill="#024741" stroke="#00544C" stroke-width="0.5"/>
<path d="M72 414L102 417L92 456.5L72 414Z" fill="#01685E" stroke="#00544C" stroke-width="0.5"/>
<path d="M141 483.5L99 478.5L92 456.5L141 483.5Z" fill="#017C70" stroke="#00544C" stroke-width="0.5"/>
<path d="M102 417L92 456.5L139 445.5L102 417Z" fill="#02897C" stroke="#00544C" stroke-width="0.5"/>
<path d="M175 455L141 483.5L139 445.5L175 455Z" fill="#013D37" stroke="#00544C" stroke-width="0.5"/>
<path d="M175 424L139 445.5L102 417L175 424Z" fill="#024741" stroke="#00544C" stroke-width="0.5"/>
<path d="M234.5 452.5V429L242 455L234.5 452.5Z" fill="#013D37" stroke="#00544C" stroke-width="0.5"/>
<path d="M248.5 470.5L242 455L295 459L248.5 470.5Z" fill="#024741" stroke="#00544C" stroke-width="0.5"/>
<path d="M285 432.5L242 455L234.5 429L285 432.5Z" fill="#004B44" stroke="#00544C" stroke-width="0.5"/>
<path d="M285 432.5L295 459L328.5 436L285 432.5Z" fill="#017C70" stroke="#00544C" stroke-width="0.5"/>
<path d="M347 467.5L328.5 436L372.5 464.5L347 467.5Z" fill="#01685E" stroke="#00544C" stroke-width="0.5"/>
<path d="M356.5 438.5L372.5 464.5L328.5 436L356.5 438.5Z" fill="#004B44" stroke="#00544C" stroke-width="0.5"/>
<path d="M408 442.5L356.5 438.5L372.5 464.5L408 442.5Z" fill="#024741" stroke="#00544C" stroke-width="0.5"/>
<path d="M372.5 464.5L408 442.5L400.5 488.5L372.5 464.5Z" fill="#01685E" stroke="#00544C" stroke-width="0.5"/>
<path d="M444 445L408 442.5L400.5 488.5L444 445Z" fill="#013D37" stroke="#00544C" stroke-width="0.5"/>
<path d="M400.5 488.5L444 445L450.5 477L400.5 488.5Z" fill="#017C70" stroke="#00544C" stroke-width="0.5"/>
<path d="M444 445L472.5 447L450.5 477L444 445Z" fill="#004B44" stroke="#00544C" stroke-width="0.5"/>
<path d="M472.5 447L450.5 477L507 449.5L472.5 447Z" fill="#024741" stroke="#00544C" stroke-width="0.5"/>
<path d="M474 520.5L450.5 477L486 480L474 520.5Z" fill="#013D37" stroke="#00544C" stroke-width="0.5"/>
<path d="M507 449.5L486 480L547.5 539L507 449.5Z" fill="#004B44" stroke="#00544C" stroke-width="0.5"/>
<path d="M599 541L547.5 539L572 483L599 541Z" fill="#013D37" stroke="#00544C" stroke-width="0.5"/>
<path d="M572 483L507 449.5L606 455L572 483Z" fill="#01685E" stroke="#00544C" stroke-width="0.5"/>
<path d="M705 513L599 541L642.5 483L705 513Z" fill="#004B44" stroke="#00544C" stroke-width="0.5"/>
<path d="M705 513L671 457.5L642.5 483L705 513Z" fill="#01685E" stroke="#00544C" stroke-width="0.5"/>
<path d="M714.5 459L705 513L671 457.5L714.5 459Z" fill="#013D37" stroke="#00544C" stroke-width="0.5"/>
<path d="M642.5 483H572L606 455L642.5 483Z" fill="#02897C" stroke="#00544C" stroke-width="0.5"/>
<path d="M642.5 483L671 457.5L606 455L642.5 483Z" fill="#024741" stroke="#00544C" stroke-width="0.5"/>
<path d="M790 472L705 513L714.5 459L790 472Z" fill="#017C70" stroke="#00544C" stroke-width="0.5"/>
<path d="M714.5 459L790 472L817 461L714.5 459Z" fill="#013D37" stroke="#00544C" stroke-width="0.5"/>
<path d="M1440 518L1373 489.5L1440 459V518Z" fill="#004B44" stroke="#00544C" stroke-width="0.5"/>
<path d="M1440 459L1366 456.5L1373 489.5L1440 459Z" fill="#02897C" stroke="#00544C" stroke-width="0.5"/>
<path d="M1373 489.5L1310 476L1366 456.5L1373 489.5Z" fill="#017C70" stroke="#00544C" stroke-width="0.5"/>
<path d="M1294 455.5L1366 456.5L1310 476L1294 455.5Z" fill="#013D37" stroke="#00544C" stroke-width="0.5"/>
<path d="M1224 482L1169.5 461H1246L1224 482Z" fill="#02897C" stroke="#00544C" stroke-width="0.5"/>
<path d="M1310 476L1294 455.5L1246 461L1310 476Z" fill="#01685E" stroke="#00544C" stroke-width="0.5"/>
<path d="M506.5 449.5H472.5L506.5 415.5V449.5Z" fill="#004B44" stroke="#00544C" stroke-width="0.5"/>
<path d="M472.5 394.5V449.5L506.5 415.5L472.5 394.5Z" fill="#01685E" stroke="#00544C" stroke-width="0.5"/>
<path d="M506.5 377.5V334.5L489.5 386L506.5 377.5Z" fill="#024741" stroke="#00544C" stroke-width="0.5"/>
<path d="M506.5 319V334.5L489.5 345L506.5 319Z" fill="#013D37" stroke="#00544C" stroke-width="0.5"/>
<path d="M489.5 386L472.5 355L506.5 334.5L489.5 386Z" fill="#01685E" stroke="#00544C" stroke-width="0.5"/>
<path d="M498.5 309L506.5 319L480 309H498.5Z" fill="#004B44" stroke="#00544C" stroke-width="0.5"/>
<path d="M472.5 320L480 309L489.5 345L472.5 320Z" fill="#01685E" stroke="#00544C" stroke-width="0.5"/>
<path d="M489.5 345L506.5 319L480 309L489.5 345Z" fill="#017C70" stroke="#00544C" stroke-width="0.5"/>
<path d="M489.5 345L472.5 320V355L489.5 345Z" fill="#013D37" stroke="#00544C" stroke-width="0.5"/>
<path d="M506.5 415.5L472.5 394.5L506.5 377.5V415.5Z" fill="#013D37" stroke="#00544C" stroke-width="0.5"/>
<path d="M532 394.5H506.5L540 383L532 394.5Z" fill="#013D37" stroke="#00544C" stroke-width="0.5"/>
<path d="M522.5 377.5H506.5V394.5L522.5 377.5Z" fill="#004B44" stroke="#00544C" stroke-width="0.5"/>
<path d="M522.5 363V377.5L530 357L522.5 363Z" fill="#01685E" stroke="#00544C" stroke-width="0.5"/>
<path d="M522.5 377.5L530 357L540 383L522.5 377.5Z" fill="#02897C" stroke="#00544C" stroke-width="0.5"/>
<path d="M539.5 362L530 357L540 383L539.5 362Z" fill="#024741" stroke="#00544C" stroke-width="0.5"/>
<path d="M506.5 394.5L540 383L522.5 377.5L506.5 394.5Z" fill="#01685E" stroke="#00544C" stroke-width="0.5"/>
<path d="M472.5 355V377.25V394.5L489.5 386L472.5 355Z" fill="#02897C" stroke="#00544C" stroke-width="0.5"/>
<path d="M458 360H472.5V377.25L458 360Z" fill="#004B44" stroke="#00544C" stroke-width="0.5"/>
<path d="M446.5 378L472.5 377.25L458 360L446.5 378Z" fill="#01685E" stroke="#00544C" stroke-width="0.5"/>
<path d="M438 368L446.5 378L438 339V368Z" fill="#013D37" stroke="#00544C" stroke-width="0.5"/>
<path d="M457 339.5L458 360L448.5 331.5L457 339.5Z" fill="#02897C" stroke="#00544C" stroke-width="0.5"/>
<path d="M438 339L448.5 331.5L458 360L438 339Z" fill="#024741" stroke="#00544C" stroke-width="0.5"/>
<path d="M458 360L446.5 378L438 339L458 360Z" fill="#01685E" stroke="#00544C" stroke-width="0.5"/>
<path d="M139 445.5L141 483.5L92 456.5L139 445.5Z" fill="#004B44" stroke="#00544C" stroke-width="0.5"/>
<path d="M295 459L242 455L285 432.5L295 459Z" fill="#01685E" stroke="#00544C" stroke-width="0.5"/>
<path d="M486 480L450.5 477L507 449.5L486 480Z" fill="#01685E" stroke="#00544C" stroke-width="0.5"/>
<path d="M572 483L547.5 539L507 449.5L572 483Z" fill="#024741" stroke="#00544C" stroke-width="0.5"/>
<path d="M599 541L642.5 483H572L599 541Z" fill="#017C70" stroke="#00544C" stroke-width="0.5"/>
<g filter="url(#filter0_d)">
<path d="M39 529.5L78 512.5L72.5 478.5L39 529.5Z" fill="#222222"/>
<path d="M72.5 478.5L75.5 496L99 478.5H72.5Z" fill="#222222"/>
<path d="M128.5 499.5L78 512.5L99 478.5L128.5 499.5Z" fill="#222222"/>
<path d="M243.5 471.5L280 497L295 459L243.5 471.5Z" fill="#222222"/>
<path d="M305 483L347 467.5L295 459L305 483Z" fill="#222222"/>
<path d="M305 483L315.5 508L347 467.5L305 483Z" fill="#222222"/>
<path d="M400.5 488.5L359 522L347 467.5L400.5 488.5Z" fill="#222222"/>
<path d="M476 573L474 520.5L420 549L476 573Z" fill="#222222"/>
<path d="M656.5 538L712 605.5L608 563L656.5 538Z" fill="#222222"/>
<path d="M674 559.5L705 513L769 602.5L674 559.5Z" fill="#222222"/>
<path d="M944.5 445L879 459.5L917 421L944.5 445Z" fill="#222222"/>
<path d="M1385.5 561.5L1440 632V518L1385.5 561.5Z" fill="#222222"/>
<path d="M0 560L39 529.5L0 517.5V560Z" fill="#222222"/>
<path d="M1045.5 454L1061.5 522.762L1105 464L1045.5 454Z" fill="#222222"/>
<path d="M1120 452L1169.5 461L1127 517L1120 452Z" fill="#222222"/>
<path d="M1061.5 522.762L1102 546L1105 464L1061.5 522.762Z" fill="#222222"/>
<path d="M1127 517L1120 452L1104.01 491L1127 517Z" fill="#222222"/>
<path d="M1120 452L1106 447.5L1104 491L1120 452Z" fill="#222222"/>
<path d="M998 417L1045.5 454L972 468.5L998 417Z" fill="#222222"/>
<path d="M1106 447.5L1105 464L1052.5 431.5L1106 447.5Z" fill="#222222"/>
<path d="M1105 464L1045.5 454L1052.5 431.5L1105 464Z" fill="#222222"/>
<path d="M1052.5 431.5L998 417L1045.5 454L1052.5 431.5Z" fill="#222222"/>
<path d="M869 560L912.5 588.5L836.5 595.941L869 560Z" fill="#222222"/>
<path d="M769.5 602.5L836.5 595.941L803 541.5L769.5 602.5Z" fill="#222222"/>
<path d="M608 563L628.5 610L712 605.559L608 563Z" fill="#222222"/>
<path d="M628.5 610L579.5 605.5L599 541L628.5 610Z" fill="#222222"/>
<path d="M476 572.718L505 585L526.25 562L476 572.718Z" fill="#222222"/>
<path d="M476 572.718L474 520.5L526.25 562L476 572.718Z" fill="#222222"/>
<path d="M526.25 562L547.5 539L474 520.5L526.25 562Z" fill="#222222"/>
<path d="M579.5 605.5L505 585L547.5 539L579.5 605.5Z" fill="#222222"/>
<path d="M579.5 605.5L599 541L568.191 582L579.5 605.5Z" fill="#222222"/>
<path d="M547.5 539L599 541L568 582L547.5 539Z" fill="#222222"/>
<path d="M39 529.5L29.0036 526.424L30.5 494.5L39 529.5Z" fill="#222222"/>
<path d="M30.5 494.5L0 517.5L29 526.423L30.5 494.5Z" fill="#222222"/>
<path d="M72.5 478.5L30.5 494.5L39 529.5L72.5 478.5Z" fill="#222222"/>
<path d="M141 483.5L99 478.5L128.5 499.5L141 483.5Z" fill="#222222"/>
<path d="M75.25 495.5L78 512.5L99 478.5L75.25 495.5Z" fill="#222222"/>
<path d="M315.5 508.234L359 522L347 467.5L315.5 508.234Z" fill="#222222"/>
<path d="M280 497L295 459L315.5 508.234L280 497Z" fill="#222222"/>
<path d="M359 522L420 549L447 534.75L359 522Z" fill="#222222"/>
<path d="M474 520.5L447 534.75L400.5 488.5L474 520.5Z" fill="#222222"/>
<path d="M447 534.75L359 522L400.5 488.5L447 534.75Z" fill="#222222"/>
<path d="M705 513L599 541L608 563L656.5 538L705 513Z" fill="#222222"/>
<path d="M712 605.559L769.5 602.5L674 559.302L712 605.559Z" fill="#222222"/>
<path d="M656.5 538L705 513L674 559.302L656.5 538Z" fill="#222222"/>
<path d="M787 468.5L705 513L803 541.5L787 468.5Z" fill="#222222"/>
<path d="M803 541.5L769.5 602.5L705 513L803 541.5Z" fill="#222222"/>
<path d="M803 541.5L869 560L879 459.5L803 541.5Z" fill="#222222"/>
<path d="M836.5 595.941L803 541.5L869 560L836.5 595.941Z" fill="#222222"/>
<path d="M803 541.5L787 468.5L917 421L879 459.5L803 541.5Z" fill="#222222"/>
<path d="M998 417L917 421L944.5 444.75L972 468.5L998 417Z" fill="#222222"/>
<path d="M1395 638L1440 632L1385.5 561.5L1395 638Z" fill="#222222"/>
<path d="M1305 640.5L1395 638L1387 574L1305 640.5Z" fill="#222222"/>
<path d="M1373 489.5L1440 518L1410 542L1373 489.5Z" fill="#222222"/>
<path d="M1373 489.5L1410 542L1385.5 561.5L1373 489.5Z" fill="#222222"/>
<path d="M1377 513L1387 574L1312 571L1377 513Z" fill="#222222"/>
<path d="M1305 640.5L1236.5 638L1270 569L1305 640.5Z" fill="#222222"/>
<path d="M1162 556.5L1165 627L1236.5 638L1162 556.5Z" fill="#222222"/>
<path d="M1165 627L1137.5 622.5L1163 581L1165 627Z" fill="#222222"/>
<path d="M1137.5 622.5L1081 603L1163 581L1137.5 622.5Z" fill="#222222"/>
<path d="M1310 476L1373 489.5L1285.5 539L1310 476Z" fill="#222222"/>
<path d="M1377 513L1373 489.5L1326 516L1377 513Z" fill="#222222"/>
<path d="M1387 574L1305 640.5L1270 569L1387 574Z" fill="#222222"/>
<path d="M1326 516L1377 513L1312 571L1326 516Z" fill="#222222"/>
<path d="M1312 571L1326 516L1234.81 567.443L1312 571Z" fill="#222222"/>
<path d="M1270 569L1236.5 638L1208.5 565.5L1270 569Z" fill="#222222"/>
<path d="M1186 506L1236.5 638L1127 517L1186 506Z" fill="#222222"/>
<path d="M1224 481.5L1208.5 565.5L1235.5 567L1224 481.5Z" fill="#222222"/>
<path d="M1285.5 539L1235.5 567L1224 481.5L1285.5 539Z" fill="#222222"/>
<path d="M1224 481L1285.5 539L1310 476L1224 481Z" fill="#222222"/>
<path d="M1169.5 461L1208.5 565.5L1224 482L1169.5 461Z" fill="#222222"/>
<path d="M1081 603L1163 581L1062 523L1081 603Z" fill="#222222"/>
<path d="M1162 556.5L1163 581L1102 546L1162 556.5Z" fill="#222222"/>
<path d="M1104 491L1162 556.5L1102 546L1104 491Z" fill="#222222"/>
<path d="M1169.5 461L1127 517L1186.5 506L1169.5 461Z" fill="#222222"/>
<path d="M1072 471.5L1120 452M1120 452L1169.5 461M1120 452L1127 517M1120 452L1104.01 491L1127 517M1120 452L1106 447.5M1120 452L1104 491M78 512.5L39 529.5M78 512.5L72.5 478.5M78 512.5L128.5 499.5M78 512.5L99 478.5M78 512.5L75.25 495.5L99 478.5M39 529.5L72.5 478.5M39 529.5L0 560V517.5M39 529.5L0 517.5M39 529.5L29.0036 526.424M39 529.5L30.5 494.5M0 517.5L29 526.5L29.0036 526.424M0 517.5L30.5 494.5M0 517.5L29 526.423M72.5 478.5L75.5 496L99 478.5M72.5 478.5H99M72.5 478.5L30.5 494.5M99 478.5L128.5 499.5M99 478.5L141 483.5L128.5 499.5M280 497L243.5 471.5L295 459M280 497L295 459M280 497L315.5 508.234M295 459L305 483M295 459L347 467.5M295 459L315.5 508.234M347 467.5L305 483M347 467.5L315.5 508L305 483M347 467.5L400.5 488.5M347 467.5L359 522M347 467.5L315.5 508.234M359 522L400.5 488.5M359 522L315.5 508.234M359 522L420 549M359 522L447 534.75M400.5 488.5L474 520.5M400.5 488.5L447 534.75M474 520.5L476 573L420 549M474 520.5L420 549M474 520.5L476 572.718M474 520.5L526.25 562M474 520.5L547.5 539M474 520.5L447 534.75M420 549L447 534.75M656.5 538L712 605.5L608 563M656.5 538L608 563M656.5 538L705 513M656.5 538L674 559.302M608 563L628.5 610M608 563L712 605.559M608 563L599 541M705 513L674 559.5L769 602.5L705 513ZM705 513L599 541M705 513L674 559.302M705 513L787 468.5M705 513L803 541.5M705 513L769.5 602.5M1045.5 454L992 464.5L972 468.5M1045.5 454L1061.5 522.762M1045.5 454L1105 464M1045.5 454L998 417M1045.5 454L972 468.5M1045.5 454L1051 477.5L1061.5 523L1074 572L1081 603M1045.5 454L1052.5 431.5M972 468.5L998 417M972 468.5L944.5 444.75M879 459.5L944.5 445L917 421M879 459.5L917 421M879 459.5L869 560M879 459.5L803 541.5M879 459.5L944.5 444.75M917 421L787 468.5M917 421L998 417M917 421L944.5 444.75M1081 603L1137.5 622.5M1081 603L1163 581M1081 603L1062 523L1163 581M1440 632L1385.5 561.5M1440 632V518M1440 632L1395 638M1385.5 561.5L1440 518M1385.5 561.5L1395 638M1385.5 561.5L1373 489.5M1385.5 561.5L1410 542M1440 518L1373 489.5M1440 518L1410 542M1061.5 522.762L1105 464M1061.5 522.762L1102 546M1105 464L1102 546M1105 464L1106 447.5M1105 464L1052.5 431.5M1169.5 461L1127 517M1169.5 461L1208.5 565.5M1169.5 461L1224 482L1208.5 565.5M1169.5 461L1186.5 506L1127 517M1127 517L1236.5 638M1127 517L1186 506L1236.5 638M1102 546L1162 556.5M1102 546L1163 581M1102 546L1104 491M1106 447.5L1104 491M1106 447.5L1052.5 431.5M1104 491L1162 556.5M998 417L1052.5 431.5M869 560L912.5 588.5L836.5 595.941M869 560L836.5 595.941M869 560L803 541.5M836.5 595.941L769.5 602.5M836.5 595.941L803 541.5M769.5 602.5L803 541.5M769.5 602.5L712 605.559M769.5 602.5L674 559.302M803 541.5L787 468.5M628.5 610L712 605.559M628.5 610L579.5 605.5M628.5 610L599 541M712 605.559L674 559.302M579.5 605.5L599 541M579.5 605.5L505 585M579.5 605.5L547.5 539M579.5 605.5L568.191 582L599 541M599 541L547.5 539M599 541L568 582L547.5 539M505 585L476 572.718M505 585L526.25 562M505 585L547.5 539M476 572.718L526.25 562M526.25 562L547.5 539M29 526.423L29.0036 526.424M29 526.423L30.5 494.5M29.0036 526.424L30.5 494.5M1395 638L1305 640.5M1395 638L1387 574M1305 640.5L1387 574M1305 640.5L1236.5 638M1305 640.5L1270 569M1387 574L1377 513M1387 574L1312 571M1387 574L1270 569M1373 489.5L1410 542M1373 489.5L1310 476M1373 489.5L1285.5 539M1373 489.5L1377 513M1373 489.5L1326 516M1377 513L1312 571M1377 513L1326 516M1312 571L1326 516M1312 571L1234.81 567.443L1326 516M1236.5 638L1270 569M1236.5 638L1162 556.5M1236.5 638L1165 627M1236.5 638L1208.5 565.5M1270 569L1208.5 565.5M1165 627L1162 556.5M1165 627L1137.5 622.5M1165 627L1163 581M1162 556.5L1163 581M1137.5 622.5L1163 581M1310 476L1285.5 539M1310 476L1224 481L1285.5 539M1285.5 539L1235.5 567M1285.5 539L1224 481.5M1208.5 565.5L1224 481.5M1208.5 565.5L1235.5 567M1224 481.5L1235.5 567" stroke="#076E64" stroke-width="0.5"/>
</g>
<path d="M1120 452L1072 471.5V421L1120 452Z" fill="#098277" stroke="#076E64" stroke-width="0.5"/>
<path d="M1120 409.5V452L1085.5 429.719L1120 409.5Z" fill="#077368" stroke="#076E64" stroke-width="0.5"/>
<path d="M1120 409.5L1072 421L1085 430L1120 409.5Z" fill="#07665D" stroke="#076E64" stroke-width="0.5"/>
<path d="M1072 385V421L1120 409.5L1072 385Z" fill="#085A53" stroke="#076E64" stroke-width="0.5"/>
<path d="M1072 351V385L1104.5 351H1072Z" fill="#00887B" stroke="#076E64" stroke-width="0.5"/>
<path d="M1120 409.5L1072 385L1104.5 351L1120 409.5Z" fill="#099083" stroke="#076E64" stroke-width="0.5"/>
<path d="M1120 333.5L1104.5 351L1072 318L1120 333.5Z" fill="#07665D" stroke="#076E64" stroke-width="0.5"/>
<path d="M1120 333.5V296L1072 318L1120 333.5Z" fill="#099083" stroke="#076E64" stroke-width="0.5"/>
<path d="M1120 296L1072 318V290.5L1120 296Z" fill="#085A53" stroke="#076E64" stroke-width="0.5"/>
<path d="M1120 296V272.5L1072 290.5L1120 296Z" fill="#00887B" stroke="#076E64" stroke-width="0.5"/>
<path d="M1112 256L1120 272.5L1096 281.5L1112 256Z" fill="#07665D" stroke="#076E64" stroke-width="0.5"/>
<path d="M1085 256H1112L1096 281.5L1085 256Z" fill="#099083" stroke="#076E64" stroke-width="0.5"/>
<path d="M1096 281.5L1085 256L1072 269.5L1096 281.5Z" fill="#077368" stroke="#076E64" stroke-width="0.5"/>
<path d="M1096 281.5L1072 290.5V269.5L1096 281.5Z" fill="#098277" stroke="#076E64" stroke-width="0.5"/>
<path d="M1120 333.5L1104.5 351L1120 409.5V333.5Z" fill="#098277" stroke="#076E64" stroke-width="0.5"/>
<path d="M1152.5 375H1120L1136.5 362.5L1152.5 375Z" fill="#077368" stroke="#076E64" stroke-width="0.5"/>
<path d="M1136.39 362.5L1152.5 375L1166.5 364L1136.39 362.5Z" fill="#07665D" stroke="#076E64" stroke-width="0.5"/>
<path d="M1166.5 364L1149.5 352.5L1166.5 336V364Z" fill="#099083" stroke="#076E64" stroke-width="0.5"/>
<path d="M1120 375V352.5H1149.5L1120 375Z" fill="#099083" stroke="#076E64" stroke-width="0.5"/>
<path d="M1166.5 364L1136.5 362.5L1149.5 352.5L1166.5 364Z" fill="#085A53" stroke="#076E64" stroke-width="0.5"/>
<path d="M1141.5 332V352.5H1149.5L1141.5 332Z" fill="#098277" stroke="#076E64" stroke-width="0.5"/>
<path d="M1148 323L1141.5 332L1149.5 352.5L1148 323Z" fill="#07665D" stroke="#076E64" stroke-width="0.5"/>
<path d="M1159.5 323L1166.5 336L1149.5 352.5L1159.5 323Z" fill="#085A53" stroke="#076E64" stroke-width="0.5"/>
<path d="M1149.5 352.5L1148 323H1159.5L1149.5 352.5Z" fill="#099083" stroke="#076E64" stroke-width="0.5"/>
<path d="M1072 318V351H1104.5L1072 318Z" fill="#077368" stroke="#076E64" stroke-width="0.5"/>
<path d="M1072 327V351L1052 327H1072Z" fill="#098277" stroke="#076E64" stroke-width="0.5"/>
<path d="M1032 351H1072L1052 327L1032 351Z" fill="#077368" stroke="#076E64" stroke-width="0.5"/>
<path d="M1052 327L1032 351L1024 335.5L1052 327Z" fill="#085A53" stroke="#076E64" stroke-width="0.5"/>
<path d="M1024 307.5V335.5L1052 327L1024 307.5Z" fill="#07665D" stroke="#076E64" stroke-width="0.5"/>
<path d="M1050 300.5L1052 327L1036.5 316.206L1050 300.5Z" fill="#099083" stroke="#076E64" stroke-width="0.5"/>
<path d="M1045 288L1050 300.5L1036.5 316.205L1045 288Z" fill="#098277" stroke="#076E64" stroke-width="0.5"/>
<path d="M1024 297.5V307.5L1036.5 316L1024 297.5Z" fill="#00887B" stroke="#076E64" stroke-width="0.5"/>
<path d="M1045 288L1032 287L1036.5 316L1045 288Z" fill="#077368" stroke="#076E64" stroke-width="0.5"/>
<path d="M1036.5 316.205L1024 297.5L1032 287L1036.5 316.205Z" fill="#099083" stroke="#076E64" stroke-width="0.5"/>
<path d="M39 529.5L78 512.5L72.5 478.5L39 529.5Z" fill="#099083"/>
<path d="M29 526.5L0 517.5M78 512.5L39 529.5L72.5 478.5L78 512.5Z" stroke="#076E64" stroke-width="0.5"/>
<path d="M72.5 478.5L75.5 496L99 478.5H72.5Z" fill="#085A53" stroke="#076E64" stroke-width="0.5"/>
<path d="M128.5 499.5L78 512.5L99 478.5L128.5 499.5Z" fill="#077368" stroke="#076E64" stroke-width="0.5"/>
<path d="M243.5 471.5L280 497L295 459L243.5 471.5Z" fill="#098277" stroke="#076E64" stroke-width="0.5"/>
<path d="M305 483L347 467.5L295 459L305 483Z" fill="#099083" stroke="#076E64" stroke-width="0.5"/>
<path d="M305 483L315.5 508L347 467.5L305 483Z" fill="#085A53" stroke="#076E64" stroke-width="0.5"/>
<path d="M400.5 488.5L359 522L347 467.5L400.5 488.5Z" fill="#077368" stroke="#076E64" stroke-width="0.5"/>
<path d="M476 573L474 520.5L420 549L476 573Z" fill="#085A53" stroke="#076E64" stroke-width="0.5"/>
<path d="M656.5 538L712 605.5L608 563L656.5 538Z" fill="#099083" stroke="#076E64" stroke-width="0.5"/>
<path d="M674 559.5L705 513L769 602.5L674 559.5Z" fill="#00887B" stroke="#076E64" stroke-width="0.5"/>
<path d="M972 468.5L879 459.5L917 421L972 468.5Z" fill="#077368" stroke="#076E64" stroke-width="0.5"/>
<path d="M1385.5 561.5L1440 632V518L1385.5 561.5Z" fill="#07665D" stroke="#076E64" stroke-width="0.5"/>
<path d="M0 560L39 529.5L0 517.5V560Z" fill="#077368" stroke="#076E64" stroke-width="0.5"/>
<path d="M1045.5 454L1061.5 522.762L1105 464L1045.5 454Z" fill="#097B70" stroke="#076E64" stroke-width="0.5"/>
<path d="M1120 452L1169.5 461L1127 517L1120 452Z" fill="#076B62" stroke="#076E64" stroke-width="0.5"/>
<path d="M1061.5 522.762L1102 546L1105 464L1061.5 522.762Z" fill="#08756B" stroke="#076E64" stroke-width="0.5"/>
<path d="M1127 517L1120 452L1104.01 491L1127 517Z" fill="#08756B" stroke="#076E64" stroke-width="0.5"/>
<path d="M1120 452L1106 447.5L1104 491L1120 452Z" fill="#085A53" stroke="#076E64" stroke-width="0.5"/>
<path d="M998 417L1045.5 454L972 468.5L998 417Z" fill="#085A53" stroke="#076E64" stroke-width="0.5"/>
<path d="M1106 447.5L1105 464L1052.5 431.5L1106 447.5Z" fill="#098277" stroke="#076E64" stroke-width="0.5"/>
<path d="M1105 464L1045.5 454L1052.5 431.5L1105 464Z" fill="#077368" stroke="#076E64" stroke-width="0.5"/>
<path d="M1052.5 431.5L998 417L1045.5 454L1052.5 431.5Z" fill="#07665D" stroke="#076E64" stroke-width="0.5"/>
<path d="M869 560L912.5 588.5L836.5 595.941L869 560Z" fill="#098277" stroke="#076E64" stroke-width="0.5"/>
<path d="M769.5 602.5L836.5 595.94L803 541.5L769.5 602.5Z" fill="#07665D" stroke="#076E64" stroke-width="0.5"/>
<path d="M608 563L628.5 610L712 605.559L608 563Z" fill="#085A53" stroke="#076E64" stroke-width="0.5"/>
<path d="M628.5 610L579.5 605.5L599 541L628.5 610Z" fill="#00887B" stroke="#076E64" stroke-width="0.5"/>
<path d="M476 572.718L505 585L526.25 562L476 572.718Z" fill="#098277" stroke="#076E64" stroke-width="0.5"/>
<path d="M476 572.718L474 520.5L526.25 562L476 572.718Z" fill="#07665D" stroke="#076E64" stroke-width="0.5"/>
<path d="M526.25 562L547.5 539L474 520.5L526.25 562Z" fill="#077368" stroke="#076E64" stroke-width="0.5"/>
<path d="M579.5 605.5L505 585L547.5 539L579.5 605.5Z" fill="#077368" stroke="#076E64" stroke-width="0.5"/>
<path d="M579.5 605.5L599 541L568.191 582L579.5 605.5Z" fill="#098277" stroke="#076E64" stroke-width="0.5"/>
<path d="M547.5 539L599 541L568 582L547.5 539Z" fill="#07665D" stroke="#076E64" stroke-width="0.5"/>
<path d="M39 529.5L29.0036 526.424L30.5 494.5L39 529.5Z" fill="#085A53"/>
<path d="M29 526.423L39 529.5L30.5 494.5L29 526.5" stroke="#076E64" stroke-width="0.5"/>
<path d="M30.5 494.5L0 517.5L29 526.423L30.5 494.5Z" fill="#098277" stroke="#076E64" stroke-width="0.5"/>
<path d="M72.5 478.5L30.5 494.5L39 529.5L72.5 478.5Z" fill="#00887B" stroke="#076E64" stroke-width="0.5"/>
<path d="M141 483.5L99 478.5L128.5 499.5L141 483.5Z" fill="#098277" stroke="#076E64" stroke-width="0.5"/>
<path d="M75.25 495.5L78 512.5L99 478.5L75.25 495.5Z" fill="#07665D" stroke="#076E64" stroke-width="0.5"/>
<path d="M315.5 508.234L359 522L347 467.5L315.5 508.234Z" fill="#07665D" stroke="#076E64" stroke-width="0.5"/>
<path d="M280 497L295 459L315.5 508.234L280 497Z" fill="#00887B" stroke="#076E64" stroke-width="0.5"/>
<path d="M359 522L420 549L447 534.75L359 522Z" fill="#098277" stroke="#076E64" stroke-width="0.5"/>
<path d="M474 520.5L447 534.75L400.5 488.5L474 520.5Z" fill="#099083" stroke="#076E64" stroke-width="0.5"/>
<path d="M447 534.75L359 522L400.5 488.5L447 534.75Z" fill="#00887B" stroke="#076E64" stroke-width="0.5"/>
<path d="M705 513L599 541L608 563L656.5 538L705 513Z" fill="#07665D" stroke="#076E64" stroke-width="0.5"/>
<path d="M712 605.559L769.5 602.5L674 559.302L712 605.559Z" fill="#098277" stroke="#076E64" stroke-width="0.5"/>
<path d="M656.5 538L705 513L674 559.302L656.5 538Z" fill="#077368" stroke="#076E64" stroke-width="0.5"/>
<path d="M787 468.5L705 513L803 541.5L787 468.5Z" fill="#085A53" stroke="#076E64" stroke-width="0.5"/>
<path d="M803 541.5L769.5 602.5L705 513L803 541.5Z" fill="#099083" stroke="#076E64" stroke-width="0.5"/>
<path d="M803 541.5L869 560L879 459.5L803 541.5Z" fill="#099083" stroke="#076E64" stroke-width="0.5"/>
<path d="M911.5 588.5L1081 603L1061.5 523L911.5 588.5Z" fill="#098277" stroke="#076E64" stroke-width="0.5"/>
<path d="M972 468.5L1061.5 523L1045.5 454L972 468.5Z" fill="#099083" stroke="#076E64" stroke-width="0.5"/>
<path d="M972 468.633L990.001 554L1061.5 523L972 468.633Z" fill="#085A53" stroke="#076E64" stroke-width="0.5"/>
<path d="M972 468.5L912 588.5L990 554L972 468.5Z" fill="#077368" stroke="#076E64" stroke-width="0.5"/>
<path d="M869 560L912 588.5L972 468.5L869 560Z" fill="#098277" stroke="#076E64" stroke-width="0.5"/>
<path d="M879 459.5L869 560L972 468.5L879 459.5Z" fill="#00887B" stroke="#076E64" stroke-width="0.5"/>
<path d="M836.5 595.941L803 541.5L869 560L836.5 595.941Z" fill="#077368" stroke="#076E64" stroke-width="0.5"/>
<path d="M803 541.5L787 468.5L917 421L879 459.5L803 541.5Z" fill="#07665D" stroke="#076E64" stroke-width="0.5"/>
<path d="M998 417L917 421L944.5 444.75L972 468.5L998 417Z" fill="#098277" stroke="#076E64" stroke-width="0.5"/>
<path d="M1395 638L1440 632L1385.5 561.5L1395 638Z" fill="#076E64" stroke="#076E64" stroke-width="0.5"/>
<path d="M1305 640.5L1395 638L1387 574L1305 640.5Z" fill="#08756B" stroke="#076E64" stroke-width="0.5"/>
<path d="M1373 489.5L1440 518L1410 542L1373 489.5Z" fill="#077369" stroke="#076E64" stroke-width="0.5"/>
<path d="M1373 489.5L1410 542L1385.5 561.5L1373 489.5Z" fill="#076B62" stroke="#076E64" stroke-width="0.5"/>
<path d="M1377 513L1387 574L1312 571L1377 513Z" fill="#07665D" stroke="#076E64" stroke-width="0.5"/>
<path d="M1305 640.5L1236.5 638L1270 569L1305 640.5Z" fill="#07665D" stroke="#076E64" stroke-width="0.5"/>
<path d="M1162 556.5L1165 627L1236.5 638L1162 556.5Z" fill="#077368" stroke="#076E64" stroke-width="0.5"/>
<path d="M1165 627L1137.5 622.5L1163 581L1165 627Z" fill="#07665D" stroke="#076E64" stroke-width="0.5"/>
<path d="M1137.5 622.5L1081 603L1163 581L1137.5 622.5Z" fill="#08756B" stroke="#076E64" stroke-width="0.5"/>
<path d="M1310 476L1373 489.5L1285.5 539L1310 476Z" fill="#0A786E" stroke="#076E64" stroke-width="0.5"/>
<path d="M1377 513L1373 489.5L1326 516L1377 513Z" fill="#07665D" stroke="#076E64" stroke-width="0.5"/>
<path d="M1387 574L1305 640.5L1270 569L1387 574Z" fill="#076E64" stroke="#076E64" stroke-width="0.5"/>
<path d="M1326 516L1377 513L1312 571L1326 516Z" fill="#098277" stroke="#076E64" stroke-width="0.5"/>
<path d="M1312 571L1326 516L1234.8 567.443L1312 571Z" fill="#077368" stroke="#076E64" stroke-width="0.5"/>
<path d="M1270 569L1236.5 638L1208.5 565.5L1270 569Z" fill="#08756B" stroke="#076E64" stroke-width="0.5"/>
<path d="M1186 506L1236.5 638L1127 517L1186 506Z" fill="#076B62" stroke="#076E64" stroke-width="0.5"/>
<path d="M1224 481.5L1208.5 565.5L1235.5 567L1224 481.5Z" fill="#085A53" stroke="#076E64" stroke-width="0.5"/>
<path d="M1285.5 539L1235.5 567L1224 481.5L1285.5 539Z" fill="#07665D" stroke="#076E64" stroke-width="0.5"/>
<path d="M1224 482L1285.5 539L1310 476L1224 482Z" fill="#076B62" stroke="#076E64" stroke-width="0.5"/>
<path d="M1169.5 461L1208.5 565.5L1224 482L1169.5 461Z" fill="#097B70" stroke="#076E64" stroke-width="0.5"/>
<path d="M1081 603L1163 581L1062 523L1081 603Z" fill="#097B70" stroke="#076E64" stroke-width="0.5"/>
<path d="M1162 556.5L1163 581L1102 546L1162 556.5Z" fill="#077368" stroke="#076E64" stroke-width="0.5"/>
<path d="M1104 491L1162 556.5L1102 546L1104 491Z" fill="#07665D" stroke="#076E64" stroke-width="0.5"/>
<path d="M1169.5 461L1127 517L1186.5 506L1169.5 461Z" fill="#098277" stroke="#076E64" stroke-width="0.5"/>
<g filter="url(#filter1_d)">
<path d="M372 689.5L365 628.5L441 638L372 689.5Z" fill="#222222"/>
<path d="M502.5 660.5L485.5 689.5H577.5L502.5 660.5Z" fill="#222222"/>
<path d="M879 659.5L764 689.5H881.5L879 659.5Z" fill="#222222"/>
<path d="M764 689.5L789.5 627.5L879 659.5L764 689.5Z" fill="#222222"/>
<path d="M485.5 689.5L459 624.5L372 689.5H485.5Z" fill="#222222"/>
<path d="M502.5 660.5L469.5 650.5L485.5 689.5L502.5 660.5Z" fill="#222222"/>
<path d="M371 586.5L420 548.5L459 624.5L371 586.5Z" fill="#222222"/>
<path d="M338 625L371 586.5L441 637.948L338 625Z" fill="#222222"/>
<path d="M505 584.5L420 548.5L459 624.5L505 584.5Z" fill="#222222"/>
<path d="M606.483 644.5L577.5 689.5L502.5 660.5L606.483 644.5Z" fill="#222222"/>
<path d="M469.5 650.5L502.5 660.5L505 584.5L469.5 650.5Z" fill="#222222"/>
<path d="M606.5 644.5L502.5 660.5L505 584.5L606.5 644.5Z" fill="#222222"/>
<path d="M459 624.5L469.5 650.5L505 584.5L459 624.5Z" fill="#222222"/>
<path d="M579.5 605L505 584.5L606.5 644.5L579.5 605Z" fill="#222222"/>
<path d="M628.5 609.5L579.5 605L606.491 644.487L615.499 630.5L628.5 609.5Z" fill="#222222"/>
<path d="M668.5 689.5L615.499 630.5L666 635.648L668.5 689.5Z" fill="#222222"/>
<path d="M628.5 609.5L718.5 641L769.5 602L628.5 609.5Z" fill="#222222"/>
<path d="M764 689.5L666 635.5L718.5 641L764 689.5Z" fill="#222222"/>
<path d="M764 689.5L789.5 627.5L718.5 641L764 689.5Z" fill="#222222"/>
<path d="M789.5 627.5L769.5 602L912.5 588L789.5 627.5Z" fill="#222222"/>
<path d="M789.5 627.5L879 659.5L918 620.5L789.5 627.5Z" fill="#222222"/>
<path d="M881.5 689.5H977L879 659.5L881.5 689.5Z" fill="#222222"/>
<path d="M918 620.5L912.5 588L980 589.919L918 620.5Z" fill="#222222"/>
<path d="M977 689.5L918 620.5L1032.5 689.5H977Z" fill="#222222"/>
<path d="M1018 591L980 589.919L983.5 660L1018 591Z" fill="#222222"/>
<path d="M983.5 660L918 620.5L980 590L983.5 660Z" fill="#222222"/>
<path d="M1081 602.5L1018 591L983.5 660L1081 602.5Z" fill="#222222"/>
<path d="M1061.49 637.5L1032.5 689.5H1112.5L1061.49 637.5Z" fill="#222222"/>
<path d="M1165 626.5L1137.5 622L1100.5 677.267L1165 626.5Z" fill="#222222"/>
<path d="M1137.5 622L1081 602.5L1061.49 637.5L1137.5 622Z" fill="#222222"/>
<path d="M1165 626.306L1100.5 677.267L1220.5 689.5L1165 626.306Z" fill="#222222"/>
<path d="M1236.5 637.5L1220.5 689.5L1300 689.5L1236.5 637.5Z" fill="#222222"/>
<path d="M1220.5 689.5L1236.5 637.5L1165 626.5L1220.5 689.5Z" fill="#222222"/>
<path d="M1305 639.972L1236.5 637.5L1281 674L1305 639.972Z" fill="#222222"/>
<path d="M1300 689.5L1281 674L1305 640L1300 689.5Z" fill="#222222"/>
<path d="M1395 637.5L1305 640L1348.5 669L1395 637.5Z" fill="#222222"/>
<path d="M1305 639.972L1300 689.5H1380L1305 639.972Z" fill="#222222"/>
<path d="M1440 689.5V631.5L1380 689.5H1440Z" fill="#222222"/>
<path d="M1440 631.5L1395 637.5L1380 689.5L1440 631.5Z" fill="#222222"/>
<path d="M1137.5 622L1061.5 637.5L1100.5 677.5L1137.5 622Z" fill="#222222"/>
<path d="M1032.5 689.5L983.5 660L1081 602.5L1032.5 689.5Z" fill="#222222"/>
<path d="M918 620.5L879 659.5L977 689.5L918 620.5Z" fill="#222222"/>
<path d="M1348.5 669L1380 689.5L1395 637.5L1348.5 669Z" fill="#222222"/>
<path d="M336.5 560L359 521.5L371 586.5L336.5 560Z" fill="#222222"/>
<path d="M420 548.5L371 586.5L359 521.5L420 548.5Z" fill="#222222"/>
<path d="M343 689.5L309.5 677.5L336 601L343 689.5Z" fill="#222222"/>
<path d="M338 625L336 601.5L371 586.5L338 625Z" fill="#222222"/>
<path d="M372 689.5H343L365 628.5L372 689.5Z" fill="#222222"/>
<path d="M365 628.5L338 625L340.5 659L365 628.5Z" fill="#222222"/>
<path d="M919.5 591L869 559.5H915L919.5 591Z" fill="#222222"/>
<path d="M915 559.5L902 531.5L999 548L915 559.5Z" fill="#222222"/>
<path d="M977 516.5L941 538L999 548L977 516.5Z" fill="#222222"/>
<path d="M226.5 482.159L221 452.983C221 452.983 237 450.983 240.5 452.983C244 454.983 249.5 474 252 477.214C254.5 480.428 272 485 274 487C276 489 280 496.5 280 496.5H242.5L240.5 488.093L226.5 482.159Z" fill="#222222"/>
<path d="M0 559.5L57.5 613.5L0 689.5V559.5Z" fill="#222222"/>
<path d="M169 544.5L226 541L159 562.5L169 544.5Z" fill="#222222"/>
<path d="M271 506.5L328.5 553.5L255.5 509L271 506.5Z" fill="#222222"/>
<path d="M89 571.5L103 651L0 689.5L89 571.5Z" fill="#222222"/>
<path d="M336 601.5L309.5 677.5L225 647.5L336 601.5Z" fill="#222222"/>
<path d="M78 512L89 572L57.5 613.5L78 512Z" fill="#222222"/>
<path d="M39 529L0 559.5L57.5 613.5L39 529Z" fill="#222222"/>
<path d="M255.5 508.5L186 519.5L226 541L255.5 508.5Z" fill="#222222"/>
<path d="M359 521.5L299 529.5L336.5 560L359 521.5Z" fill="#222222"/>
<path d="M78 512L39 529L57.5 613.5L78 512Z" fill="#222222"/>
<path d="M186 519.5L149.5 546L226 541L186 519.5Z" fill="#222222"/>
<path d="M85 550.5L159 664.5L103 651L85 550.5Z" fill="#222222"/>
<path d="M136.5 486.5L186 519.5L149.5 546L136.5 486.5Z" fill="#222222"/>
<path d="M78 512L132 498L85 550.5L78 512Z" fill="#222222"/>
<path d="M255.5 509L297.5 534.5L266 587.5L255.5 509Z" fill="#222222"/>
<path d="M85 550.5L169 544.5L128.5 617.5L85 550.5Z" fill="#222222"/>
<path d="M266 587.5L328.5 553.5L302 616L266 587.5Z" fill="#222222"/>
<path d="M297.5 534.5L328.5 553.5L266 587.5L297.5 534.5Z" fill="#222222"/>
<path d="M205 689.5L225 647L343 689.5H205Z" fill="#222222"/>
<path d="M299 529.5L280 496.5L359 521.5L299 529.5Z" fill="#222222"/>
<path d="M255.5 508.5L270 617.5L186 621L255.5 508.5Z" fill="#222222"/>
<path d="M207 454.5H242L259.5 497L207 454.5Z" fill="#222222"/>
<path d="M85 550.5L124.5 506L149.5 546L85 550.5Z" fill="#222222"/>
<path d="M124.5 506L136.5 486.5L149.5 546L124.5 506Z" fill="#222222"/>
<path d="M136.5 486.5L175 454.5L186 519.5L136.5 486.5Z" fill="#222222"/>
<path d="M175 454.5H207L186 519.5L175 454.5Z" fill="#222222"/>
<path d="M103 651L122.5 689.5L174.5 668L103 651Z" fill="#222222"/>
<path d="M226 541L238 537L255.5 508.5L226 541Z" fill="#222222"/>
<path d="M186 519.5L271.5 506.5L207 454.5L186 519.5Z" fill="#222222"/>
<path d="M159 664.5L128.5 617.5L159 562.5V664.5Z" fill="#222222"/>
<path d="M302 616L270 617.5L266 587.5L302 616Z" fill="#222222"/>
<path d="M159 562.5V664.5L238 537L159 562.5Z" fill="#222222"/>
<path d="M251.5 477.5L259.5 497L274 487L251.5 477.5Z" fill="#222222"/>
<path d="M274 487L259.5 497L299 529.5L274 487Z" fill="#222222"/>
<path d="M159 664.5L174.5 668L186 621L159 664.5Z" fill="#222222"/>
<path d="M302 616L371 586.5L328.5 553.5L302 616Z" fill="#222222"/>
<path d="M122.5 689.5H205L225 647L122.5 689.5Z" fill="#222222"/>
<path d="M103 651L122.5 689.5L0 689.5L103 651Z" fill="#222222"/>
<path d="M186 621L302 616L174.5 668L186 621Z" fill="#222222"/>
<path d="M441 638L371 586.5L459 624.5L441 638Z" fill="#222222"/>
<path d="M668.5 689.5H577.5L615.499 630.5L668.5 689.5Z" fill="#222222"/>
<path d="M343 689.5L340.5 659L365 628.5L343 689.5Z" fill="#222222"/>
<path d="M628.5 609.5L615.499 630.5L718.5 641L628.5 609.5Z" fill="#222222"/>
<path d="M668.5 689.5L666 635.5L764 689.5H668.5Z" fill="#222222"/>
<path d="M718.5 641L769.5 602L789.5 627.5L718.5 641Z" fill="#222222"/>
<path d="M912.5 588L918 620.5L789.5 627.5L912.5 588Z" fill="#222222"/>
<path d="M1112.5 689.5L1100.5 677.5L1220.5 689.5L1112.5 689.5Z" fill="#222222"/>
<path d="M979 548.5L1036.5 547L991.5 590.5L979 548.5Z" fill="#222222"/>
<path d="M979 548.5L991.5 590.5L946 554L979 548.5Z" fill="#222222"/>
<path d="M1012 590.5H991.5L1020 563L1012 590.5Z" fill="#222222"/>
<path d="M1020 563L1054 577.5L1012 590.5L1020 563Z" fill="#222222"/>
<path d="M946 554L919.5 591L915 559.5L946 554Z" fill="#222222"/>
<path d="M919.5 591L946 554L991.5 590.5L919.5 591Z" fill="#222222"/>
<path d="M365 628.5L372 689.5M365 628.5L441 638M365 628.5L343 689.5M365 628.5L338 625M365 628.5L340.5 659M372 689.5L441 638M372 689.5L459 624.5M372 689.5H485.5M372 689.5H343M441 638L371 586.5M441 638L459 624.5M485.5 689.5L502.5 660.5M485.5 689.5H577.5M485.5 689.5L459 624.5M485.5 689.5L469.5 650.5M502.5 660.5L577.5 689.5M502.5 660.5L469.5 650.5M502.5 660.5L606.483 644.5M502.5 660.5L505 584.5M502.5 660.5L606.5 644.5M577.5 689.5L606.483 644.5M577.5 689.5H668.5M577.5 689.5L615.499 630.5M764 689.5L879 659.5M764 689.5H881.5M764 689.5L789.5 627.5M764 689.5L666 635.5M764 689.5L718.5 641M764 689.5H668.5M879 659.5L881.5 689.5M879 659.5L789.5 627.5M879 659.5L918 620.5M879 659.5L977 689.5M881.5 689.5H977M789.5 627.5L718.5 641M789.5 627.5L769.5 602M789.5 627.5L912.5 588M789.5 627.5L918 620.5M459 624.5L420 548.5M459 624.5L371 586.5M459 624.5L505 584.5M459 624.5L469.5 650.5M469.5 650.5L505 584.5M420 548.5L371 586.5M420 548.5L505 584.5M420 548.5L359 521.5M371 586.5L338 625M371 586.5L441 637.948L338 625M371 586.5L336.5 560M371 586.5L359 521.5M371 586.5L336 601.5M371 586.5L302 616M371 586.5L328.5 553.5M338 625L336 601.5M338 625L340.5 659M505 584.5L606.5 644.5M505 584.5L579.5 605M606.483 644.5L606.491 644.487M606.5 644.5L579.5 605M606.5 644.5L606.491 644.487M579.5 605L628.5 609.5M579.5 605L606.491 644.487M628.5 609.5L615.499 630.5M628.5 609.5L718.5 641M628.5 609.5L769.5 602M606.491 644.487L615.499 630.5M615.499 630.5L668.5 689.5M615.499 630.5L666 635.648L668.5 689.5M615.499 630.5L718.5 641M668.5 689.5L666 635.5M718.5 641L769.5 602M718.5 641L666 635.5M769.5 602L912.5 588M912.5 588L918 620.5M912.5 588L980 589.919M918 620.5L980 589.919M918 620.5L977 689.5M918 620.5L1032.5 689.5M918 620.5L983.5 660M918 620.5L980 590L983.5 660M977 689.5H1032.5M980 589.919L1018 591M980 589.919L983.5 660M1032.5 689.5L1061.49 637.5M1032.5 689.5H1112.5M1032.5 689.5L983.5 660M1032.5 689.5L1081 602.5M1018 591L983.5 660M1018 591L1081 602.5M983.5 660L1081 602.5M1081 602.5L1137.5 622M1081 602.5L1061.49 637.5M1061.49 637.5L1112.5 689.5M1061.49 637.5L1137.5 622M1112.5 689.5L1100.5 677.5M1112.5 689.5L1220.5 689.5M1137.5 622L1165 626.5M1137.5 622L1100.5 677.267M1137.5 622L1061.5 637.5L1100.5 677.5M1137.5 622L1100.5 677.5M1165 626.5L1100.5 677.267M1165 626.5L1220.5 689.5M1165 626.5L1236.5 637.5M1100.5 677.267L1165 626.306L1220.5 689.5M1100.5 677.267L1220.5 689.5M1220.5 689.5L1236.5 637.5M1220.5 689.5L1300 689.5M1220.5 689.5L1100.5 677.5M1236.5 637.5L1300 689.5M1236.5 637.5L1305 639.972M1236.5 637.5L1281 674M1300 689.5L1281 674M1300 689.5L1305 640M1300 689.5L1305 639.972M1300 689.5H1380M1305 639.972L1281 674M1305 639.972L1380 689.5M1281 674L1305 640M1305 640L1395 637.5M1305 640L1348.5 669M1395 637.5L1348.5 669M1395 637.5L1440 631.5M1395 637.5L1380 689.5M1348.5 669L1380 689.5M1380 689.5H1440V631.5M1380 689.5L1440 631.5M359 521.5L336.5 560M359 521.5L299 529.5M359 521.5L280 496.5M336.5 560L299 529.5M309.5 677.5L343 689.5M309.5 677.5L336 601L343 689.5M309.5 677.5L336 601.5M309.5 677.5L225 647.5L336 601.5M343 689.5L225 647M343 689.5H205M343 689.5L340.5 659M919.5 591L869 559.5H915M919.5 591L915 559.5M919.5 591L946 554M919.5 591L991.5 590.5M915 559.5L902 531.5L999 548M915 559.5L999 548M915 559.5L946 554M999 548L977 516.5L941 538L999 548ZM234.5 454.5H175M175 454.5L136.5 486.5M175 454.5L186 519.5M175 454.5H207M280 496.5H242.5L240.5 488.093L226.5 482.159L221 452.983C221 452.983 237 450.983 240.5 452.983C244 454.983 249.5 474 252 477.214C254.5 480.428 272 485 274 487M280 496.5C280 496.5 276 489 274 487M280 496.5L299 529.5M274 487L259.5 497M274 487L251.5 477.5L259.5 497M274 487L299 529.5M0 559.5L57.5 613.5M0 559.5V689.5M0 559.5L39 529M57.5 613.5L0 689.5M57.5 613.5L89 572L78 512M57.5 613.5L78 512M57.5 613.5L39 529M0 689.5L103 651M0 689.5L89 571.5L103 651M0 689.5L122.5 689.5M169 544.5L226 541M169 544.5L159 562.5M169 544.5L85 550.5M169 544.5L128.5 617.5M226 541L159 562.5M226 541L186 519.5M226 541L255.5 508.5M226 541L149.5 546M226 541L238 537M159 562.5L128.5 617.5M159 562.5V664.5M159 562.5L238 537M328.5 553.5L271 506.5L255.5 509M328.5 553.5L255.5 509M328.5 553.5L266 587.5M328.5 553.5L302 616M328.5 553.5L297.5 534.5M255.5 509L297.5 534.5M255.5 509L266 587.5M103 651L159 664.5M103 651L85 550.5M103 651L122.5 689.5M103 651L174.5 668M78 512L39 529M78 512L132 498L85 550.5M78 512L85 550.5M255.5 508.5L186 519.5M255.5 508.5L270 617.5M255.5 508.5L186 621M255.5 508.5L238 537M186 519.5L149.5 546M186 519.5L136.5 486.5M186 519.5L207 454.5M186 519.5L271.5 506.5L207 454.5M299 529.5L259.5 497M149.5 546L136.5 486.5M149.5 546L124.5 506M149.5 546L85 550.5M85 550.5L159 664.5M85 550.5L128.5 617.5M85 550.5L124.5 506M159 664.5L128.5 617.5M159 664.5L238 537M159 664.5L174.5 668M159 664.5L186 621M136.5 486.5L124.5 506M297.5 534.5L266 587.5M266 587.5L302 616M266 587.5L270 617.5M302 616L270 617.5M302 616L186 621M302 616L174.5 668M205 689.5L225 647M205 689.5H122.5M225 647L122.5 689.5M270 617.5L186 621M186 621L174.5 668M207 454.5H242L259.5 497M207 454.5L259.5 497M122.5 689.5L174.5 668M979 548.5L1036.5 547L991.5 590.5M979 548.5L991.5 590.5M979 548.5L946 554M991.5 590.5L946 554M991.5 590.5H1012M991.5 590.5L1020 563M1012 590.5L1020 563M1012 590.5L1054 577.5L1020 563" stroke="#00AE98" stroke-width="0.5"/>
</g>
<path d="M372 690L365 629L441 638.5L372 690Z" fill="#0CC1AB" stroke="#00AE98" stroke-width="0.5"/>
<path d="M502.5 661L485.5 690H577.5L502.5 661Z" fill="#0DD1B9" stroke="#00AE98" stroke-width="0.5"/>
<path d="M879 660L764 690H881.5L879 660Z" fill="#09AD99" stroke="#00AE98" stroke-width="0.5"/>
<path d="M764 690L789.5 628L879 660L764 690Z" fill="#089E8B" stroke="#00AE98" stroke-width="0.5"/>
<path d="M485.5 690L459 625L372 690H485.5Z" fill="#079180" stroke="#00AE98" stroke-width="0.5"/>
<path d="M502.5 661L469.5 651L485.5 690L502.5 661Z" fill="#09BAA4" stroke="#00AE98" stroke-width="0.5"/>
<path d="M371 587L420 549L459 625L371 587Z" fill="#09BAA4" stroke="#00AE98" stroke-width="0.5"/>
<path d="M338 625.5L371 587L441 638.448L338 625.5Z" fill="#079180" stroke="#00AE98" stroke-width="0.5"/>
<path d="M505 585L420 549L459 625L505 585Z" fill="#089E8B" stroke="#00AE98" stroke-width="0.5"/>
<path d="M606.483 645L577.5 690L502.5 661L606.483 645Z" fill="#079180" stroke="#00AE98" stroke-width="0.5"/>
<path d="M469.5 651L502.5 661L505.001 585L469.5 651Z" fill="#0D7C6F" stroke="#00AE98" stroke-width="0.5"/>
<path d="M606.5 645L502.5 661L505 585L606.5 645Z" fill="#089E8B" stroke="#00AE98" stroke-width="0.5"/>
<path d="M459 625L469.5 651L505 585L459 625Z" fill="#19AB99" stroke="#00AE98" stroke-width="0.5"/>
<path d="M579.5 605.5L505 585L606.5 645L579.5 605.5Z" fill="#08A390" stroke="#00AE98" stroke-width="0.5"/>
<path d="M628.5 610L579.5 605.5L606.491 644.987L615.499 631L628.5 610Z" fill="#0EC0AB"/>
<path d="M606.482 645L615.499 631L628.5 610L579.5 605.5L606.5 645" stroke="#00AE98" stroke-width="0.5"/>
<path d="M668.5 690L615.5 631L666 636.148L668.5 690Z" fill="#089E8B" stroke="#00AE98" stroke-width="0.5"/>
<path d="M628.5 610L718.5 641.5L769.5 602.5L628.5 610Z" fill="#09BAA4" stroke="#00AE98" stroke-width="0.5"/>
<path d="M764 690L666 636L718.5 641.5L764 690Z" fill="#09BAA4" stroke="#00AE98" stroke-width="0.5"/>
<path d="M764 690L789.5 628L718.5 641.5L764 690Z" fill="#11B09D" stroke="#00AE98" stroke-width="0.5"/>
<path d="M789.5 628L769.5 602.5L912.5 588.5L789.5 628Z" fill="#09BAA4" stroke="#00AE98" stroke-width="0.5"/>
<path d="M789.5 628L879 660L918 621L789.5 628Z" fill="#09BAA4" stroke="#00AE98" stroke-width="0.5"/>
<path d="M881.5 690H977L879 660L881.5 690Z" fill="#079180" stroke="#00AE98" stroke-width="0.5"/>
<path d="M918 621L912.5 588.5L980 590.419L918 621Z" fill="#19AB99" stroke="#00AE98" stroke-width="0.5"/>
<path d="M977 690L918 621L1032.5 690H977Z" fill="#007D6E" stroke="#00AE98" stroke-width="0.5"/>
<path d="M1018 591.5L980 590.419L983.5 660.5L1018 591.5Z" fill="#089E8B" stroke="#00AE98" stroke-width="0.5"/>
<path d="M983.5 660.5L918 621L980 590.5L983.5 660.5Z" fill="#11B09D" stroke="#00AE98" stroke-width="0.5"/>
<path d="M1081 603L1018 591.5L983.5 660.5L1081 603Z" fill="#09BAA4" stroke="#00AE98" stroke-width="0.5"/>
<path d="M1061.49 638L1032.5 690H1112.5L1061.49 638Z" fill="#09BAA4" stroke="#00AE98" stroke-width="0.5"/>
<path d="M1165 627L1137.5 622.5L1100.5 677.767L1165 627Z" fill="#09AD99" stroke="#00AE98" stroke-width="0.5"/>
<path d="M1137.5 622.5L1081 603L1061.49 638L1137.5 622.5Z" fill="#0DD1B9" stroke="#00AE98" stroke-width="0.5"/>
<path d="M1165 626.806L1100.5 677.768L1220.5 690L1165 626.806Z" fill="#0DD1B9" stroke="#00AE98" stroke-width="0.5"/>
<path d="M1236.5 638L1220.5 690H1300L1236.5 638Z" fill="#09BAA4" stroke="#00AE98" stroke-width="0.5"/>
<path d="M1220.5 690L1236.5 638L1165 627L1220.5 690Z" fill="#089E8B" stroke="#00AE98" stroke-width="0.5"/>
<path d="M1305 640.472L1236.5 638L1281 674.5L1305 640.472Z" fill="#19AB99" stroke="#00AE98" stroke-width="0.5"/>
<path d="M1300 690L1281 674.5L1305 640.5L1300 690Z" fill="#0D7C6F" stroke="#00AE98" stroke-width="0.5"/>
<path d="M1395 638L1305 640.5L1348.5 669.5L1395 638Z" fill="#0DD1B9" stroke="#00AE98" stroke-width="0.5"/>
<path d="M1305 640.472L1300 690L1380 690L1305 640.472Z" fill="#09BAA4" stroke="#00AE98" stroke-width="0.5"/>
<path d="M1440 690V632L1380 690H1440Z" fill="#00AE98" stroke="#00AE98" stroke-width="0.5"/>
<path d="M1440 632L1395 638L1380 690L1440 632Z" fill="#0C9685" stroke="#00AE98" stroke-width="0.5"/>
<path d="M1137.5 622.5L1061.5 638L1100.5 678L1137.5 622.5Z" fill="#089E8B" stroke="#00AE98" stroke-width="0.5"/>
<path d="M1032.5 690L983.5 660.5L1081 603L1032.5 690Z" fill="#11B09D" stroke="#00AE98" stroke-width="0.5"/>
<path d="M918 621L879 660L977 690L918 621Z" fill="#0DD1B9" stroke="#00AE98" stroke-width="0.5"/>
<path d="M1348.5 669.5L1380 690L1395 638L1348.5 669.5Z" fill="#16AA98" stroke="#00AE98" stroke-width="0.5"/>
<path d="M336.5 560.5L359 522L371 587L336.5 560.5Z" fill="#09BAA4" stroke="#00AE98" stroke-width="0.5"/>
<path d="M420 549L371 587L359 522L420 549Z" fill="#09AD99" stroke="#00AE98" stroke-width="0.5"/>
<path d="M343 690L309.5 678L336 601.5L343 690Z" fill="#079180" stroke="#00AE98" stroke-width="0.5"/>
<path d="M338 625.5L336 602L371 587L338 625.5Z" fill="#09BAA4" stroke="#00AE98" stroke-width="0.5"/>
<path d="M372 690H343L365 629L372 690Z" fill="#11B09D" stroke="#00AE98" stroke-width="0.5"/>
<path d="M365 629L338 625.5L340.5 659.5L365 629Z" fill="#007D6E" stroke="#00AE98" stroke-width="0.5"/>
<path d="M919.5 591.5L869 560H915L919.5 591.5Z" fill="#079180" stroke="#00AE98" stroke-width="0.5"/>
<path d="M915 560L902 532L999 548.5L915 560Z" fill="#19AB99" stroke="#00AE98" stroke-width="0.5"/>
<path d="M977 517L941 538.5L999 548.5L977 517Z" fill="#0A9685" stroke="#00AE98" stroke-width="0.5"/>
<path d="M175 341.5V406L210 386L175 341.5Z" fill="#118D7E" stroke="#00AE98" stroke-width="0.5"/>
<path d="M234.5 372V455L175 406L234.5 372Z" fill="#00AE98" stroke="#00AE98" stroke-width="0.5"/>
<path d="M234.5 310.5V372L210 386L234.5 310.5Z" fill="#118C7D" stroke="#00AE98" stroke-width="0.5"/>
<path d="M210 386L175 341.5L234.5 310.5L210 386Z" fill="#09BAA4" stroke="#00AE98" stroke-width="0.5"/>
<path d="M193.5 294.307L175 287V229.5L193.5 294.307Z" fill="#078A7A" stroke="#00AE98" stroke-width="0.5"/>
<path d="M175 204.5V229.5L190 192.5L175 204.5Z" fill="#089E8B" stroke="#00AE98" stroke-width="0.5"/>
<path d="M234.5 272.5L175 229.5L190 192.5L234.5 272.5Z" fill="#09BAA4" stroke="#00AE98" stroke-width="0.5"/>
<path d="M234.5 204.5V272.5L209.469 227.5L234.5 204.5Z" fill="#09AD99" stroke="#00AE98" stroke-width="0.5"/>
<path d="M234.5 204.5L209.5 227.5L190 192.5L234.5 204.5Z" fill="#078A7A" stroke="#00AE98" stroke-width="0.5"/>
<path d="M222.5 192.5L234.5 204.5L190 192.5H222.5Z" fill="#0CC1AB" stroke="#00AE98" stroke-width="0.5"/>
<path d="M284 310.5H234.5L295 288.5L284 310.5Z" fill="#078A7A" stroke="#00AE98" stroke-width="0.5"/>
<path d="M234.5 310.5L193.5 294.307L234.5 272.5V310.5Z" fill="#09BAA4" stroke="#00AE98" stroke-width="0.5"/>
<path d="M257.5 281.5H234.5V310.5L257.5 281.5Z" fill="#089E8B" stroke="#00AE98" stroke-width="0.5"/>
<path d="M234.5 310.5L295 288.5L257.5 281.5L234.5 310.5Z" fill="#0CC1AB" stroke="#00AE98" stroke-width="0.5"/>
<path d="M259.5 255.5L257.5 281.5L295 288.5L259.5 255.5Z" fill="#09AD99" stroke="#00AE98" stroke-width="0.5"/>
<path d="M295 241V288.5L276 271L295 241Z" fill="#09BAA4" stroke="#00AE98" stroke-width="0.5"/>
<path d="M284 231L295 241L276 271L284 231Z" fill="#078A7A" stroke="#00AE98" stroke-width="0.5"/>
<path d="M259.5 255.5V239L284 231L259.5 255.5Z" fill="#0CC1AB" stroke="#00AE98" stroke-width="0.5"/>
<path d="M276.174 271L259.5 255.5L284 231L276.174 271Z" fill="#089E8B" stroke="#00AE98" stroke-width="0.5"/>
<path d="M269 231L259.5 239L284 231H269Z" fill="#09BAA4" stroke="#00AE98" stroke-width="0.5"/>
<path d="M175 287V341.5L234.5 310.5L175 287Z" fill="#089E8B" stroke="#00AE98" stroke-width="0.5"/>
<path d="M175 312.5V341.5L155.5 312.5H175Z" fill="#09BAA4" stroke="#00AE98" stroke-width="0.5"/>
<path d="M125 341.5H175L155.5 312.5L125 341.5Z" fill="#089E8B" stroke="#00AE98" stroke-width="0.5"/>
<path d="M117 285.5V328L138.5 319.5L117 285.5Z" fill="#0CC1AB" stroke="#00AE98" stroke-width="0.5"/>
<path d="M155.5 312.5L125 341.5L117 328L155.5 312.5Z" fill="#078A7A" stroke="#00AE98" stroke-width="0.5"/>
<path d="M138.5 319.5L117 285.5L128 275.5L138.5 319.5Z" fill="#089E8B" stroke="#00AE98" stroke-width="0.5"/>
<path d="M142.5 275.5H128L151.5 285.5L142.5 275.5Z" fill="#078A7A" stroke="#00AE98" stroke-width="0.5"/>
<path d="M138.5 319.5L151.5 285.5L128 275.5L138.5 319.5Z" fill="#09BAA4" stroke="#00AE98" stroke-width="0.5"/>
<path d="M155.5 312.5L151.5 285.5L138.5 319.5L155.5 312.5Z" fill="#09AD99" stroke="#00AE98" stroke-width="0.5"/>
<path d="M175 406V455H234.5L175 406Z" fill="#078A7A" stroke="#00AE98" stroke-width="0.5"/>
<path d="M226.5 482.659L221 453.483C221 453.483 237 451.483 240.5 453.483C244 455.483 249.5 474.5 252 477.714C254.5 480.928 272 485.5 274 487.5C276 489.5 280 497 280 497H242.5L240.5 488.593L226.5 482.659Z" fill="#00917F" stroke="#00AE98" stroke-width="0.5"/>
<path d="M234.5 272.5L193.5 294.5L175 229.5L234.5 272.5Z" fill="#0CC1AB" stroke="#00AE98" stroke-width="0.5"/>
<path d="M57.165 614.028L0.25 689.255V560.578L57.165 614.028Z" fill="#09AD99" stroke="#00AE98" stroke-width="0.5"/>
<path d="M159.526 562.569L169.152 545.241L224.023 541.872L159.526 562.569Z" fill="#09AD99" stroke="#00AE98" stroke-width="0.5"/>
<path d="M256.208 509.639L270.929 507.265L325.537 551.901L256.208 509.639Z" fill="#08A390" stroke="#00AE98" stroke-width="0.5"/>
<path d="M102.718 651.339L0.716415 689.465L88.8535 572.609L102.718 651.339Z" fill="#089E8B" stroke="#00AE98" stroke-width="0.5"/>
<path d="M225.696 647.982L335.58 602.445L309.347 677.68L225.696 647.982Z" fill="#089E8B" stroke="#00AE98" stroke-width="0.5"/>
<path d="M88.7342 572.437L57.9613 612.979L77.9881 513.822L88.7342 572.437Z" fill="#09AD99" stroke="#00AE98" stroke-width="0.5"/>
<path d="M57.0833 613.266L0.383652 560.017L38.8408 529.942L57.0833 613.266Z" fill="#079180" stroke="#00AE98" stroke-width="0.5"/>
<path d="M225.946 541.187L186.772 520.131L254.837 509.358L225.946 541.187Z" fill="#079180" stroke="#00AE98" stroke-width="0.5"/>
<path d="M336.431 560.122L299.607 530.171L358.526 522.315L336.431 560.122Z" fill="#079180" stroke="#00AE98" stroke-width="0.5"/>
<path d="M57.4901 612.786L39.2881 529.647L77.6599 512.921L57.4901 612.786Z" fill="#09BAA4" stroke="#00AE98" stroke-width="0.5"/>
<path d="M225.114 541.307L150.347 546.194L186.02 520.295L225.114 541.307Z" fill="#078A7A" stroke="#00AE98" stroke-width="0.5"/>
<path d="M103.217 651.295L85.4643 552.174L158.449 664.61L103.217 651.295Z" fill="#08A390" stroke="#00AE98" stroke-width="0.5"/>
<path d="M149.663 546.073L136.876 487.551L185.562 520.009L149.663 546.073Z" fill="#08A390" stroke="#00AE98" stroke-width="0.5"/>
<path d="M85.1546 550.453L78.2875 512.684L131.262 498.95L85.1546 550.453Z" fill="#089E8B" stroke="#00AE98" stroke-width="0.5"/>
<path d="M297.159 535.085L266.152 587.254L255.817 509.985L297.159 535.085Z" fill="#089E8B" stroke="#00AE98" stroke-width="0.5"/>
<path d="M128.483 617.515L85.4404 551.219L168.558 545.282L128.483 617.515Z" fill="#09BAA4" stroke="#00AE98" stroke-width="0.5"/>
<path d="M301.898 616.1L266.452 588.039L327.99 554.562L301.898 616.1Z" fill="#09BAA4" stroke="#00AE98" stroke-width="0.5"/>
<path d="M266.68 587.346L297.585 535.346L328.001 553.987L266.68 587.346Z" fill="#11B09D" stroke="#00AE98" stroke-width="0.5"/>
<path d="M225.129 647.812L341.568 689.75H205.394L225.129 647.812Z" fill="#09BAA4" stroke="#00AE98" stroke-width="0.5"/>
<path d="M357.856 521.9L299.133 529.73L280.537 497.432L357.856 521.9Z" fill="#09BAA4" stroke="#00AE98" stroke-width="0.5"/>
<path d="M186.46 621.231L255.345 509.727L269.716 617.762L186.46 621.231Z" fill="#09BAA4" stroke="#00AE98" stroke-width="0.5"/>
<path d="M241.833 455.25L258.896 496.689L207.706 455.25H241.833Z" fill="#09BAA4" stroke="#00AE98" stroke-width="0.5"/>
<path d="M149.067 546.28L85.5935 550.708L124.465 506.916L149.067 546.28Z" fill="#09AD99" stroke="#00AE98" stroke-width="0.5"/>
<path d="M148.948 545.145L124.794 506.499L136.388 487.659L148.948 545.145Z" fill="#079180" stroke="#00AE98" stroke-width="0.5"/>
<path d="M185.657 519.471L136.918 486.978L174.826 455.47L185.657 519.471Z" fill="#09AD99" stroke="#00AE98" stroke-width="0.5"/>
<path d="M186.076 518.951L175.296 455.25H206.657L186.076 518.951Z" fill="#079180" stroke="#00AE98" stroke-width="0.5"/>
<path d="M122.618 689.681L103.467 651.868L173.69 668.564L122.618 689.681Z" fill="#09AD99" stroke="#00AE98" stroke-width="0.5"/>
<path d="M237.835 537.292L226.827 540.961L253.887 511.149L237.835 537.292Z" fill="#007D6E" stroke="#00AE98" stroke-width="0.5"/>
<path d="M186.362 519.692L207.126 455.423L270.901 506.838L186.362 519.692Z" fill="#09AD99" stroke="#00AE98" stroke-width="0.5"/>
<path d="M128.791 617.99L158.75 563.966V664.155L128.791 617.99Z" fill="#09AD99" stroke="#00AE98" stroke-width="0.5"/>
<path d="M270.217 617.74L266.33 588.58L301.321 616.282L270.217 617.74Z" fill="#09AD99" stroke="#00AE98" stroke-width="0.5"/>
<path d="M237.429 537.947L159.25 664.122V563.182L237.429 537.947Z" fill="#089E8B" stroke="#00AE98" stroke-width="0.5"/>
<path d="M273.483 487.553L259.614 497.118L251.961 478.466L273.483 487.553Z" fill="#089E8B" stroke="#00AE98" stroke-width="0.5"/>
<path d="M298.069 528.91L259.915 497.518L273.921 487.858L298.069 528.91Z" fill="#00917F" stroke="#00AE98" stroke-width="0.5"/>
<path d="M185.384 622.967L174.316 668.202L159.398 664.833L185.384 622.967Z" fill="#007D6E" stroke="#00AE98" stroke-width="0.5"/>
<path d="M328.603 554.397L370.511 586.937L302.472 616.026L328.603 554.397Z" fill="#09A995" stroke="#00AE98" stroke-width="0.5"/>
<path d="M224.498 647.979L204.841 689.75H123.756L224.498 647.979Z" fill="#078A7A" stroke="#00AE98" stroke-width="0.5"/>
<path d="M1.38286 689.75L102.878 651.812L122.093 689.75H1.38286Z" fill="#079180" stroke="#00AE98" stroke-width="0.5"/>
<path d="M174.859 668.083L186.198 621.742L300.574 616.812L174.859 668.083Z" fill="#079180" stroke="#00AE98" stroke-width="0.5"/>
<path d="M441 638.5L371 587L459 625L441 638.5Z" fill="#0DAC98" stroke="#00AE98" stroke-width="0.5"/>
<path d="M668.5 690H577.5L615.5 631L668.5 690Z" fill="#09BAA4" stroke="#00AE98" stroke-width="0.5"/>
<path d="M343 690L340.5 659.5L365 629L343 690Z" fill="#09BAA4" stroke="#00AE98" stroke-width="0.5"/>
<path d="M628.5 610L615.5 631L718.5 641.5L628.5 610Z" fill="#09AD99" stroke="#00AE98" stroke-width="0.5"/>
<path d="M668.5 690L666 636L764 690H668.5Z" fill="#09AD99" stroke="#00AE98" stroke-width="0.5"/>
<path d="M718.5 641.5L769.5 602.5L789.5 628L718.5 641.5Z" fill="#007D6E" stroke="#00AE98" stroke-width="0.5"/>
<path d="M912.5 588.5L918 621L789.5 628L912.5 588.5Z" fill="#089E8B" stroke="#00AE98" stroke-width="0.5"/>
<path d="M1112.5 690L1100.5 678L1220.5 690H1112.5Z" fill="#0D7C6F" stroke="#00AE98" stroke-width="0.5"/>
<path d="M979 549L1036.5 547.5L991.5 591L979 549Z" fill="#007D6E" stroke="#00AE98" stroke-width="0.5"/>
<path d="M979 549L991.5 591L946 554.5L979 549Z" fill="#0E9A89" stroke="#00AE98" stroke-width="0.5"/>
<path d="M1012 591H991.5L1020 563.5L1012 591Z" fill="#09BAA4" stroke="#00AE98" stroke-width="0.5"/>
<path d="M1020 563.5L1054 578L1012 591L1020 563.5Z" fill="#0D7C6F" stroke="#00AE98" stroke-width="0.5"/>
<path d="M946 554.5L919.5 591.5L915 560L946 554.5Z" fill="#007D6E" stroke="#00AE98" stroke-width="0.5"/>
<path d="M919.5 591.5L946 554.5L991.5 591L919.5 591.5Z" fill="#079180" stroke="#00AE98" stroke-width="0.5"/>
</g>
</g>
<defs>
<filter id="filter0_d" x="-11.25" y="387.749" width="1462.5" height="253.002" filterUnits="userSpaceOnUse" color-interpolation-filters="sRGB">
<feFlood flood-opacity="0" result="BackgroundImageFix"/>
<feColorMatrix in="SourceAlpha" type="matrix" values="0 0 0 0 0 0 0 0 0 0 0 0 0 0 0 0 0 0 127 0"/>
<feOffset dy="-18"/>
<feGaussianBlur stdDeviation="5.5"/>
<feColorMatrix type="matrix" values="0 0 0 0 0 0 0 0 0 0 0 0 0 0 0 0 0 0 0.4 0"/>
<feBlend mode="normal" in2="BackgroundImageFix" result="effect1_dropShadow"/>
<feBlend mode="normal" in="SourceGraphic" in2="effect1_dropShadow" result="shape"/>
</filter>
<filter id="filter1_d" x="-11.25" y="423.844" width="1462.5" height="265.906" filterUnits="userSpaceOnUse" color-interpolation-filters="sRGB">
<feFlood flood-opacity="0" result="BackgroundImageFix"/>
<feColorMatrix in="SourceAlpha" type="matrix" values="0 0 0 0 0 0 0 0 0 0 0 0 0 0 0 0 0 0 127 0"/>
<feOffset dy="-17"/>
<feGaussianBlur stdDeviation="5.5"/>
<feColorMatrix type="matrix" values="0 0 0 0 0 0 0 0 0 0 0 0 0 0 0 0 0 0 0.4 0"/>
<feBlend mode="normal" in2="BackgroundImageFix" result="effect1_dropShadow"/>
<feBlend mode="normal" in="SourceGraphic" in2="effect1_dropShadow" result="shape"/>
</filter>
<clipPath id="clip0">
<rect width="1440" height="690" fill="white"/>
</clipPath>
</defs>
</svg>
