<svg width="320" height="568" viewBox="0 0 320 568" fill="none" xmlns="http://www.w3.org/2000/svg">
<rect width="320" height="568" fill="#222222"/>
<g clip-path="url(#clip0)">
<rect width="320" height="568" fill="#222222"/>
<rect x="-130" y="161.956" width="712" height="341.167" fill="#222222"/>
<circle cx="232.427" cy="367.15" r="298.15" fill="#242424"/>
<circle cx="232.427" cy="367.15" r="215.083" fill="#272727"/>
<circle cx="232.427" cy="367.15" r="113.228" fill="#292929"/>
<g opacity="0.7">
<path d="M58.7496 430.4V450.55L35.3496 444.375L58.7496 430.4Z" fill="#01685E" stroke="#00544C" stroke-width="0.5"/>
<path d="M170.548 458.674L136.748 453.149L158.523 438.199L170.548 458.674Z" fill="#02897C" stroke="#00544C" stroke-width="0.5"/>
<path d="M205.328 472.325L170.553 458.675L187.128 456.725L205.328 472.325Z" fill="#004B44" stroke="#00544C" stroke-width="0.5"/>
<path d="M253.101 493.124L205.326 472.324L237.826 464.849L253.101 493.124Z" fill="#02897C" stroke="#00544C" stroke-width="0.5"/>
<path d="M300.875 505.149L253.1 493.124L260.9 466.799L300.875 505.149Z" fill="#017C70" stroke="#00544C" stroke-width="0.5"/>
<path d="M4.80073 451.524L-7.87424 465.824L-21.1992 444.375L4.80073 451.524Z" fill="#004B44" stroke="#00544C" stroke-width="0.5"/>
<path d="M9.34997 465.824H-7.875L4.79998 451.524L9.34997 465.824Z" fill="#013D37" stroke="#00544C" stroke-width="0.5"/>
<path d="M-8.19924 423.9L-21.1992 444.375L4.80073 451.525L-8.19924 423.9Z" fill="#024741" stroke="#00544C" stroke-width="0.5"/>
<path d="M-8.19922 423.9L11.3007 425.85L4.80076 451.525L-8.19922 423.9Z" fill="#01685E" stroke="#00544C" stroke-width="0.5"/>
<path d="M36.6507 469.074L9.35077 465.824L4.80078 451.524L36.6507 469.074Z" fill="#017C70" stroke="#00544C" stroke-width="0.5"/>
<path d="M11.3008 425.85L4.80078 451.525L35.3507 444.375L11.3008 425.85Z" fill="#02897C" stroke="#00544C" stroke-width="0.5"/>
<path d="M58.7496 450.55L36.6496 469.074L35.3496 444.375L58.7496 450.55Z" fill="#013D37" stroke="#00544C" stroke-width="0.5"/>
<path d="M58.7507 430.4L35.3507 444.375L11.3008 425.85L58.7507 430.4Z" fill="#024741" stroke="#00544C" stroke-width="0.5"/>
<path d="M97.4238 448.925V433.65L102.299 450.55L97.4238 448.925Z" fill="#013D37" stroke="#00544C" stroke-width="0.5"/>
<path d="M106.528 460.625L102.303 450.55L136.753 453.15L106.528 460.625Z" fill="#024741" stroke="#00544C" stroke-width="0.5"/>
<path d="M130.249 435.925L102.299 450.55L97.4238 433.65L130.249 435.925Z" fill="#004B44" stroke="#00544C" stroke-width="0.5"/>
<path d="M130.25 435.925L136.75 453.15L158.525 438.2L130.25 435.925Z" fill="#017C70" stroke="#00544C" stroke-width="0.5"/>
<path d="M170.548 458.674L158.523 438.199L187.123 456.724L170.548 458.674Z" fill="#01685E" stroke="#00544C" stroke-width="0.5"/>
<path d="M176.723 439.824L187.123 456.724L158.523 438.199L176.723 439.824Z" fill="#004B44" stroke="#00544C" stroke-width="0.5"/>
<path d="M210.2 442.425L176.725 439.825L187.125 456.725L210.2 442.425Z" fill="#024741" stroke="#00544C" stroke-width="0.5"/>
<path d="M187.125 456.725L210.2 442.425L205.325 472.325L187.125 456.725Z" fill="#01685E" stroke="#00544C" stroke-width="0.5"/>
<path d="M233.601 444.05L210.201 442.425L205.326 472.325L233.601 444.05Z" fill="#013D37" stroke="#00544C" stroke-width="0.5"/>
<path d="M205.326 472.325L233.601 444.05L237.826 464.85L205.326 472.325Z" fill="#017C70" stroke="#00544C" stroke-width="0.5"/>
<path d="M233.6 444.05L252.125 445.35L237.825 464.85L233.6 444.05Z" fill="#004B44" stroke="#00544C" stroke-width="0.5"/>
<path d="M252.124 445.349L237.824 464.849L274.549 446.974L252.124 445.349Z" fill="#024741" stroke="#00544C" stroke-width="0.5"/>
<path d="M253.099 493.124L237.824 464.849L260.899 466.799L253.099 493.124Z" fill="#013D37" stroke="#00544C" stroke-width="0.5"/>
<path d="M274.55 446.975L260.9 466.8L300.875 505.15L274.55 446.975Z" fill="#004B44" stroke="#00544C" stroke-width="0.5"/>
<path d="M334.35 506.449L300.875 505.149L316.8 468.75L334.35 506.449Z" fill="#013D37" stroke="#00544C" stroke-width="0.5"/>
<path d="M316.801 468.75L274.551 446.975L338.901 450.55L316.801 468.75Z" fill="#01685E" stroke="#00544C" stroke-width="0.5"/>
<path d="M362.628 468.75H316.803L338.903 450.55L362.628 468.75Z" fill="#02897C" stroke="#00544C" stroke-width="0.5"/>
<path d="M274.225 446.974H252.125L274.225 424.875V446.974Z" fill="#004B44" stroke="#00544C" stroke-width="0.5"/>
<path d="M252.125 411.225V446.975L274.225 424.875L252.125 411.225Z" fill="#01685E" stroke="#00544C" stroke-width="0.5"/>
<path d="M274.224 400.175V372.225L263.174 405.7L274.224 400.175Z" fill="#024741" stroke="#00544C" stroke-width="0.5"/>
<path d="M274.224 362.15V372.225L263.174 379.05L274.224 362.15Z" fill="#013D37" stroke="#00544C" stroke-width="0.5"/>
<path d="M263.175 405.7L252.125 385.55L274.225 372.225L263.175 405.7Z" fill="#01685E" stroke="#00544C" stroke-width="0.5"/>
<path d="M269.025 355.65L274.225 362.15L257 355.65H269.025Z" fill="#004B44" stroke="#00544C" stroke-width="0.5"/>
<path d="M252.125 362.8L257 355.65L263.175 379.05L252.125 362.8Z" fill="#01685E" stroke="#00544C" stroke-width="0.5"/>
<path d="M263.175 379.05L274.225 362.15L257 355.65L263.175 379.05Z" fill="#017C70" stroke="#00544C" stroke-width="0.5"/>
<path d="M263.175 379.05L252.125 362.8V385.55L263.175 379.05Z" fill="#013D37" stroke="#00544C" stroke-width="0.5"/>
<path d="M274.225 424.875L252.125 411.225L274.225 400.175V424.875Z" fill="#013D37" stroke="#00544C" stroke-width="0.5"/>
<path d="M290.798 411.225H274.223L295.998 403.75L290.798 411.225Z" fill="#013D37" stroke="#00544C" stroke-width="0.5"/>
<path d="M284.623 400.175H274.223V411.225L284.623 400.175Z" fill="#004B44" stroke="#00544C" stroke-width="0.5"/>
<path d="M284.623 390.75V400.175L289.498 386.85L284.623 390.75Z" fill="#01685E" stroke="#00544C" stroke-width="0.5"/>
<path d="M284.623 400.175L289.498 386.85L295.998 403.75L284.623 400.175Z" fill="#02897C" stroke="#00544C" stroke-width="0.5"/>
<path d="M295.675 390.1L289.5 386.85L296 403.75L295.675 390.1Z" fill="#024741" stroke="#00544C" stroke-width="0.5"/>
<path d="M274.223 411.225L295.998 403.75L284.623 400.175L274.223 411.225Z" fill="#01685E" stroke="#00544C" stroke-width="0.5"/>
<path d="M252.125 385.55V400.013V411.225L263.175 405.7L252.125 385.55Z" fill="#02897C" stroke="#00544C" stroke-width="0.5"/>
<path d="M242.699 388.8H252.124V400.012L242.699 388.8Z" fill="#004B44" stroke="#00544C" stroke-width="0.5"/>
<path d="M235.227 400.5L252.127 400.012L242.702 388.8L235.227 400.5Z" fill="#01685E" stroke="#00544C" stroke-width="0.5"/>
<path d="M229.699 394L235.224 400.5L229.699 375.15V394Z" fill="#013D37" stroke="#00544C" stroke-width="0.5"/>
<path d="M242.05 375.475L242.7 388.8L236.525 370.275L242.05 375.475Z" fill="#02897C" stroke="#00544C" stroke-width="0.5"/>
<path d="M229.699 375.15L236.524 370.275L242.699 388.8L229.699 375.15Z" fill="#024741" stroke="#00544C" stroke-width="0.5"/>
<path d="M242.699 388.8L235.224 400.5L229.699 375.15L242.699 388.8Z" fill="#01685E" stroke="#00544C" stroke-width="0.5"/>
<path d="M35.3488 444.375L36.6488 469.075L4.79883 451.525L35.3488 444.375Z" fill="#004B44" stroke="#00544C" stroke-width="0.5"/>
<path d="M136.751 453.15L102.301 450.55L130.251 435.925L136.751 453.15Z" fill="#01685E" stroke="#00544C" stroke-width="0.5"/>
<path d="M260.899 466.8L237.824 464.85L274.549 446.975L260.899 466.8Z" fill="#01685E" stroke="#00544C" stroke-width="0.5"/>
<path d="M316.799 468.75L300.874 505.15L274.549 446.975L316.799 468.75Z" fill="#024741" stroke="#00544C" stroke-width="0.5"/>
<path d="M334.349 506.449L362.624 468.75H316.799L334.349 506.449Z" fill="#017C70" stroke="#00544C" stroke-width="0.5"/>
<g filter="url(#filter0_d)">
<path d="M-29.65 498.974L-4.30009 487.924L-7.87509 465.824L-29.65 498.974Z" fill="#222222"/>
<path d="M-7.87509 465.824L-5.92509 477.199L9.34988 465.824H-7.87509Z" fill="#222222"/>
<path d="M28.5248 479.474L-4.30009 487.924L9.34988 465.824L28.5248 479.474Z" fill="#222222"/>
<path d="M103.275 461.274L127 477.849L136.75 453.149L103.275 461.274Z" fill="#222222"/>
<path d="M143.25 468.749L170.55 458.674L136.75 453.149L143.25 468.749Z" fill="#222222"/>
<path d="M143.25 468.749L150.075 484.999L170.55 458.674L143.25 468.749Z" fill="#222222"/>
<path d="M205.325 472.324L178.35 494.099L170.55 458.674L205.325 472.324Z" fill="#222222"/>
<path d="M254.399 527.249L253.099 493.124L217.999 511.649L254.399 527.249Z" fill="#222222"/>
<path d="M371.724 504.499L407.799 548.374L340.199 520.749L371.724 504.499Z" fill="#222222"/>
<path d="M383.099 518.474L403.249 488.249L444.849 546.424L383.099 518.474Z" fill="#222222"/>
<path d="M558.924 444.049L516.349 453.474L541.049 428.449L558.924 444.049Z" fill="#222222"/>
<path d="M845.573 519.774L880.998 565.599V491.499L845.573 519.774Z" fill="#222222"/>
<path d="M-55 518.799L-29.65 498.974L-55 491.174V518.799Z" fill="#222222"/>
<path d="M624.574 449.899L634.974 494.595L663.249 456.399L624.574 449.899Z" fill="#222222"/>
<path d="M672.999 448.599L705.174 454.449L677.549 490.849L672.999 448.599Z" fill="#222222"/>
<path d="M634.974 494.595L661.299 509.699L663.249 456.399L634.974 494.595Z" fill="#222222"/>
<path d="M677.549 490.849L672.999 448.599L662.606 473.949L677.549 490.849Z" fill="#222222"/>
<path d="M672.999 448.599L663.899 445.674L662.599 473.949L672.999 448.599Z" fill="#222222"/>
<path d="M593.699 425.849L624.574 449.899L576.799 459.324L593.699 425.849Z" fill="#222222"/>
<path d="M663.899 445.674L663.249 456.399L629.124 435.274L663.899 445.674Z" fill="#222222"/>
<path d="M663.249 456.399L624.574 449.899L629.124 435.274L663.249 456.399Z" fill="#222222"/>
<path d="M629.124 435.274L593.699 425.849L624.574 449.899L629.124 435.274Z" fill="#222222"/>
<path d="M509.849 518.799L538.124 537.324L488.724 542.161L509.849 518.799Z" fill="#222222"/>
<path d="M445.174 546.424L488.724 542.161L466.949 506.774L445.174 546.424Z" fill="#222222"/>
<path d="M340.199 520.749L353.524 551.299L407.799 548.412L340.199 520.749Z" fill="#222222"/>
<path d="M353.524 551.299L321.674 548.374L334.349 506.449L353.524 551.299Z" fill="#222222"/>
<path d="M254.399 527.066L273.249 535.049L287.062 520.099L254.399 527.066Z" fill="#222222"/>
<path d="M254.399 527.066L253.099 493.124L287.062 520.099L254.399 527.066Z" fill="#222222"/>
<path d="M287.062 520.099L300.874 505.149L253.099 493.124L287.062 520.099Z" fill="#222222"/>
<path d="M321.674 548.374L273.249 535.049L300.874 505.149L321.674 548.374Z" fill="#222222"/>
<path d="M321.674 548.374L334.349 506.449L314.324 533.099L321.674 548.374Z" fill="#222222"/>
<path d="M300.874 505.149L334.349 506.449L314.199 533.099L300.874 505.149Z" fill="#222222"/>
<path d="M-29.65 498.974L-36.1477 496.975L-35.175 476.224L-29.65 498.974Z" fill="#222222"/>
<path d="M-35.175 476.224L-55 491.174L-36.15 496.974L-35.175 476.224Z" fill="#222222"/>
<path d="M-7.87509 465.824L-35.175 476.224L-29.65 498.974L-7.87509 465.824Z" fill="#222222"/>
<path d="M36.6498 469.074L9.34988 465.824L28.5248 479.474L36.6498 469.074Z" fill="#222222"/>
<path d="M-6.08759 476.874L-4.30009 487.924L9.34988 465.824L-6.08759 476.874Z" fill="#222222"/>
<path d="M150.075 485.152L178.35 494.099L170.55 458.674L150.075 485.152Z" fill="#222222"/>
<path d="M127 477.849L136.75 453.149L150.075 485.152L127 477.849Z" fill="#222222"/>
<path d="M178.35 494.099L217.999 511.649L235.549 502.387L178.35 494.099Z" fill="#222222"/>
<path d="M253.099 493.124L235.549 502.387L205.325 472.324L253.099 493.124Z" fill="#222222"/>
<path d="M235.549 502.387L178.35 494.099L205.325 472.324L235.549 502.387Z" fill="#222222"/>
<path d="M403.249 488.249L334.349 506.449L340.199 520.749L371.724 504.499L403.249 488.249Z" fill="#222222"/>
<path d="M407.799 548.412L445.174 546.424L383.099 518.346L407.799 548.412Z" fill="#222222"/>
<path d="M371.724 504.499L403.249 488.249L383.099 518.346L371.724 504.499Z" fill="#222222"/>
<path d="M456.549 459.324L403.249 488.249L466.949 506.774L456.549 459.324Z" fill="#222222"/>
<path d="M466.949 506.774L445.174 546.424L403.249 488.249L466.949 506.774Z" fill="#222222"/>
<path d="M466.949 506.774L509.849 518.799L516.349 453.474L466.949 506.774Z" fill="#222222"/>
<path d="M488.724 542.161L466.949 506.774L509.849 518.799L488.724 542.161Z" fill="#222222"/>
<path d="M466.949 506.774L456.549 459.324L541.049 428.449L516.349 453.474L466.949 506.774Z" fill="#222222"/>
<path d="M593.699 425.849L541.049 428.449L558.924 443.887L576.799 459.324L593.699 425.849Z" fill="#222222"/>
<path d="M851.748 569.499L880.998 565.599L845.573 519.774L851.748 569.499Z" fill="#222222"/>
<path d="M793.248 571.124L851.748 569.499L846.548 527.899L793.248 571.124Z" fill="#222222"/>
<path d="M837.448 472.974L880.998 491.499L861.498 507.099L837.448 472.974Z" fill="#222222"/>
<path d="M837.448 472.974L861.498 507.099L845.573 519.774L837.448 472.974Z" fill="#222222"/>
<path d="M840.048 488.249L846.548 527.899L797.798 525.949L840.048 488.249Z" fill="#222222"/>
<path d="M793.248 571.124L748.724 569.499L770.498 524.649L793.248 571.124Z" fill="#222222"/>
<path d="M700.299 516.524L702.249 562.349L748.724 569.499L700.299 516.524Z" fill="#222222"/>
<path d="M702.249 562.349L684.374 559.424L700.949 532.449L702.249 562.349Z" fill="#222222"/>
<path d="M684.374 559.424L647.649 546.749L700.949 532.449L684.374 559.424Z" fill="#222222"/>
<path d="M796.498 464.199L837.448 472.974L780.573 505.149L796.498 464.199Z" fill="#222222"/>
<path d="M840.048 488.249L837.448 472.974L806.898 490.199L840.048 488.249Z" fill="#222222"/>
<path d="M846.548 527.899L793.248 571.124L770.498 524.649L846.548 527.899Z" fill="#222222"/>
<path d="M806.898 490.199L840.048 488.249L797.798 525.949L806.898 490.199Z" fill="#222222"/>
<path d="M797.798 525.949L806.898 490.199L747.623 523.637L797.798 525.949Z" fill="#222222"/>
<path d="M770.498 524.649L748.724 569.499L730.524 522.374L770.498 524.649Z" fill="#222222"/>
<path d="M715.899 483.699L748.724 569.499L677.549 490.849L715.899 483.699Z" fill="#222222"/>
<path d="M740.599 467.774L730.524 522.374L748.073 523.349L740.599 467.774Z" fill="#222222"/>
<path d="M780.573 505.149L748.073 523.349L740.599 467.774L780.573 505.149Z" fill="#222222"/>
<path d="M740.599 467.449L780.573 505.149L796.498 464.199L740.599 467.449Z" fill="#222222"/>
<path d="M705.174 454.449L730.524 522.374L740.599 468.099L705.174 454.449Z" fill="#222222"/>
<path d="M647.649 546.749L700.949 532.449L635.299 494.749L647.649 546.749Z" fill="#222222"/>
<path d="M700.299 516.524L700.949 532.449L661.299 509.699L700.299 516.524Z" fill="#222222"/>
<path d="M662.599 473.949L700.299 516.524L661.299 509.699L662.599 473.949Z" fill="#222222"/>
<path d="M705.174 454.449L677.549 490.849L716.224 483.699L705.174 454.449Z" fill="#222222"/>
<path d="M641.799 461.274L672.999 448.599M672.999 448.599L705.174 454.449M672.999 448.599L677.549 490.849M672.999 448.599L662.606 473.949L677.549 490.849M672.999 448.599L663.899 445.674M672.999 448.599L662.599 473.949M-4.30009 487.924L-29.65 498.974M-4.30009 487.924L-7.87509 465.824M-4.30009 487.924L28.5248 479.474M-4.30009 487.924L9.34988 465.824M-4.30009 487.924L-6.08759 476.874L9.34988 465.824M-29.65 498.974L-7.87509 465.824M-29.65 498.974L-55 518.799V491.174M-29.65 498.974L-55 491.174M-29.65 498.974L-36.1477 496.975M-29.65 498.974L-35.175 476.224M-55 491.174L-36.15 497.024L-36.1477 496.975M-55 491.174L-35.175 476.224M-55 491.174L-36.15 496.974M-7.87509 465.824L-5.92509 477.199L9.34988 465.824M-7.87509 465.824H9.34988M-7.87509 465.824L-35.175 476.224M9.34988 465.824L28.5248 479.474M9.34988 465.824L36.6498 469.074L28.5248 479.474M127 477.849L103.275 461.274L136.75 453.149M127 477.849L136.75 453.149M127 477.849L150.075 485.152M136.75 453.149L143.25 468.749M136.75 453.149L170.55 458.674M136.75 453.149L150.075 485.152M170.55 458.674L143.25 468.749M170.55 458.674L150.075 484.999L143.25 468.749M170.55 458.674L205.325 472.324M170.55 458.674L178.35 494.099M170.55 458.674L150.075 485.152M178.35 494.099L205.325 472.324M178.35 494.099L150.075 485.152M178.35 494.099L217.999 511.649M178.35 494.099L235.549 502.387M205.325 472.324L253.099 493.124M205.325 472.324L235.549 502.387M253.099 493.124L254.399 527.249L217.999 511.649M253.099 493.124L217.999 511.649M253.099 493.124L254.399 527.066M253.099 493.124L287.062 520.099M253.099 493.124L300.874 505.149M253.099 493.124L235.549 502.387M217.999 511.649L235.549 502.387M371.724 504.499L407.799 548.374L340.199 520.749M371.724 504.499L340.199 520.749M371.724 504.499L403.249 488.249M371.724 504.499L383.099 518.346M340.199 520.749L353.524 551.299M340.199 520.749L407.799 548.412M340.199 520.749L334.349 506.449M403.249 488.249L383.099 518.474L444.849 546.424L403.249 488.249ZM403.249 488.249L334.349 506.449M403.249 488.249L383.099 518.346M403.249 488.249L456.549 459.324M403.249 488.249L466.949 506.774M403.249 488.249L445.174 546.424M624.574 449.899L589.799 456.724L576.799 459.324M624.574 449.899L634.974 494.595M624.574 449.899L663.249 456.399M624.574 449.899L593.699 425.849M624.574 449.899L576.799 459.324M624.574 449.899L628.149 465.174L634.974 494.749L643.099 526.599L647.649 546.749M624.574 449.899L629.124 435.274M576.799 459.324L593.699 425.849M576.799 459.324L558.924 443.887M516.349 453.474L558.924 444.049L541.049 428.449M516.349 453.474L541.049 428.449M516.349 453.474L509.849 518.799M516.349 453.474L466.949 506.774M516.349 453.474L558.924 443.887M541.049 428.449L456.549 459.324M541.049 428.449L593.699 425.849M541.049 428.449L558.924 443.887M647.649 546.749L684.374 559.424M647.649 546.749L700.949 532.449M647.649 546.749L635.299 494.749L700.949 532.449M880.998 565.599L845.573 519.774M880.998 565.599V491.499M880.998 565.599L851.748 569.499M845.573 519.774L880.998 491.499M845.573 519.774L851.748 569.499M845.573 519.774L837.448 472.974M845.573 519.774L861.498 507.099M880.998 491.499L837.448 472.974M880.998 491.499L861.498 507.099M634.974 494.595L663.249 456.399M634.974 494.595L661.299 509.699M663.249 456.399L661.299 509.699M663.249 456.399L663.899 445.674M663.249 456.399L629.124 435.274M705.174 454.449L677.549 490.849M705.174 454.449L730.524 522.374M705.174 454.449L740.599 468.099L730.524 522.374M705.174 454.449L716.224 483.699L677.549 490.849M677.549 490.849L748.723 569.499M677.549 490.849L715.899 483.699L748.723 569.499M661.299 509.699L700.299 516.524M661.299 509.699L700.949 532.449M661.299 509.699L662.599 473.949M663.899 445.674L662.599 473.949M663.899 445.674L629.124 435.274M662.599 473.949L700.299 516.524M593.699 425.849L629.124 435.274M509.849 518.799L538.124 537.324L488.724 542.161M509.849 518.799L488.724 542.161M509.849 518.799L466.949 506.774M488.724 542.161L445.174 546.424M488.724 542.161L466.949 506.774M445.174 546.424L466.949 506.774M445.174 546.424L407.799 548.412M445.174 546.424L383.099 518.346M466.949 506.774L456.549 459.324M353.524 551.299L407.799 548.412M353.524 551.299L321.674 548.374M353.524 551.299L334.349 506.449M407.799 548.412L383.099 518.346M321.674 548.374L334.349 506.449M321.674 548.374L273.249 535.049M321.674 548.374L300.874 505.149M321.674 548.374L314.324 533.099L334.349 506.449M334.349 506.449L300.874 505.149M334.349 506.449L314.199 533.099L300.874 505.149M273.249 535.049L254.399 527.066M273.249 535.049L287.062 520.099M273.249 535.049L300.874 505.149M254.399 527.066L287.062 520.099M287.062 520.099L300.874 505.149M-36.15 496.974L-36.1477 496.975M-36.15 496.974L-35.175 476.224M-36.1477 496.975L-35.175 476.224M851.748 569.499L793.248 571.124M851.748 569.499L846.548 527.899M793.248 571.124L846.548 527.899M793.248 571.124L748.723 569.499M793.248 571.124L770.498 524.649M846.548 527.899L840.048 488.249M846.548 527.899L797.798 525.949M846.548 527.899L770.498 524.649M837.448 472.974L861.498 507.099M837.448 472.974L796.498 464.199M837.448 472.974L780.573 505.149M837.448 472.974L840.048 488.249M837.448 472.974L806.898 490.199M840.048 488.249L797.798 525.949M840.048 488.249L806.898 490.199M797.798 525.949L806.898 490.199M797.798 525.949L747.623 523.637L806.898 490.199M748.723 569.499L770.498 524.649M748.723 569.499L700.299 516.524M748.723 569.499L702.249 562.349M748.723 569.499L730.524 522.374M770.498 524.649L730.524 522.374M702.249 562.349L700.299 516.524M702.249 562.349L684.374 559.424M702.249 562.349L700.949 532.449M700.299 516.524L700.949 532.449M684.374 559.424L700.949 532.449M796.498 464.199L780.573 505.149M796.498 464.199L740.599 467.449L780.573 505.149M780.573 505.149L748.073 523.349M780.573 505.149L740.599 467.774M730.524 522.374L740.599 467.774M730.524 522.374L748.073 523.349M740.599 467.774L748.073 523.349" stroke="#076E64" stroke-width="0.5"/>
</g>
<path d="M-7.875 465.824L-5.925 477.199L9.34997 465.824H-7.875Z" fill="#085A53" stroke="#076E64" stroke-width="0.5"/>
<path d="M28.5242 479.474L-4.30078 487.924L9.3492 465.824L28.5242 479.474Z" fill="#077368" stroke="#076E64" stroke-width="0.5"/>
<path d="M103.275 461.274L127 477.849L136.75 453.149L103.275 461.274Z" fill="#098277" stroke="#076E64" stroke-width="0.5"/>
<path d="M143.248 468.749L170.548 458.674L136.748 453.149L143.248 468.749Z" fill="#099083" stroke="#076E64" stroke-width="0.5"/>
<path d="M143.25 468.75L150.075 485L170.55 458.675L143.25 468.75Z" fill="#085A53" stroke="#076E64" stroke-width="0.5"/>
<path d="M205.328 472.325L178.353 494.099L170.553 458.675L205.328 472.325Z" fill="#077368" stroke="#076E64" stroke-width="0.5"/>
<path d="M254.398 527.249L253.098 493.124L217.998 511.649L254.398 527.249Z" fill="#085A53" stroke="#076E64" stroke-width="0.5"/>
<path d="M254.398 527.065L273.248 535.049L287.061 520.099L254.398 527.065Z" fill="#098277" stroke="#076E64" stroke-width="0.5"/>
<path d="M254.398 527.066L253.098 493.124L287.06 520.099L254.398 527.066Z" fill="#07665D" stroke="#076E64" stroke-width="0.5"/>
<path d="M287.06 520.099L300.873 505.149L253.098 493.124L287.06 520.099Z" fill="#077368" stroke="#076E64" stroke-width="0.5"/>
<path d="M321.675 548.374L273.25 535.049L300.875 505.149L321.675 548.374Z" fill="#077368" stroke="#076E64" stroke-width="0.5"/>
<path d="M321.675 548.374L334.35 506.449L314.324 533.099L321.675 548.374Z" fill="#098277" stroke="#076E64" stroke-width="0.5"/>
<path d="M300.875 505.149L334.35 506.449L314.2 533.099L300.875 505.149Z" fill="#07665D" stroke="#076E64" stroke-width="0.5"/>
<path d="M36.6496 469.074L9.34961 465.824L28.5246 479.474L36.6496 469.074Z" fill="#098277" stroke="#076E64" stroke-width="0.5"/>
<path d="M-6.08594 476.874L-4.29844 487.924L9.35154 465.824L-6.08594 476.874Z" fill="#07665D" stroke="#076E64" stroke-width="0.5"/>
<path d="M150.076 485.152L178.351 494.099L170.551 458.674L150.076 485.152Z" fill="#07665D" stroke="#076E64" stroke-width="0.5"/>
<path d="M126.998 477.849L136.748 453.149L150.073 485.152L126.998 477.849Z" fill="#00887B" stroke="#076E64" stroke-width="0.5"/>
<path d="M178.352 494.099L218.001 511.649L235.551 502.386L178.352 494.099Z" fill="#098277" stroke="#076E64" stroke-width="0.5"/>
<path d="M253.099 493.124L235.549 502.387L205.324 472.324L253.099 493.124Z" fill="#099083" stroke="#076E64" stroke-width="0.5"/>
<path d="M235.551 502.387L178.352 494.099L205.327 472.324L235.551 502.387Z" fill="#00887B" stroke="#076E64" stroke-width="0.5"/>
<g filter="url(#filter1_d)">
<path d="M186.8 602.974L182.25 563.324L231.649 569.499L186.8 602.974Z" fill="#222222"/>
<path d="M271.624 584.124L260.574 602.974H320.374L271.624 584.124Z" fill="#222222"/>
<path d="M516.349 583.474L441.599 602.974H517.974L516.349 583.474Z" fill="#222222"/>
<path d="M441.599 602.974L458.174 562.674L516.349 583.474L441.599 602.974Z" fill="#222222"/>
<path d="M260.574 602.974L243.349 560.724L186.8 602.974H260.574Z" fill="#222222"/>
<path d="M271.624 584.124L250.174 577.624L260.574 602.974L271.624 584.124Z" fill="#222222"/>
<path d="M186.15 536.024L217.999 511.325L243.349 560.724L186.15 536.024Z" fill="#222222"/>
<path d="M164.7 561.049L186.15 536.024L231.649 569.466L164.7 561.049Z" fill="#222222"/>
<path d="M273.249 534.724L217.999 511.325L243.349 560.724L273.249 534.724Z" fill="#222222"/>
<path d="M339.213 573.724L320.374 602.974L271.624 584.124L339.213 573.724Z" fill="#222222"/>
<path d="M250.174 577.624L271.624 584.124L273.249 534.724L250.174 577.624Z" fill="#222222"/>
<path d="M339.224 573.724L271.624 584.124L273.249 534.724L339.224 573.724Z" fill="#222222"/>
<path d="M243.349 560.724L250.174 577.624L273.249 534.724L243.349 560.724Z" fill="#222222"/>
<path d="M321.674 548.049L273.249 534.724L339.224 573.724L321.674 548.049Z" fill="#222222"/>
<path d="M353.524 550.974L321.674 548.049L339.218 573.716L345.074 564.624L353.524 550.974Z" fill="#222222"/>
<path d="M379.524 602.974L345.074 564.624L377.899 567.971L379.524 602.974Z" fill="#222222"/>
<path d="M353.524 550.974L412.024 571.449L445.174 546.099L353.524 550.974Z" fill="#222222"/>
<path d="M441.599 602.974L377.899 567.874L412.024 571.449L441.599 602.974Z" fill="#222222"/>
<path d="M441.599 602.974L458.174 562.674L412.024 571.449L441.599 602.974Z" fill="#222222"/>
<path d="M458.174 562.674L445.174 546.099L538.124 536.999L458.174 562.674Z" fill="#222222"/>
<path d="M458.174 562.674L516.349 583.474L541.699 558.124L458.174 562.674Z" fill="#222222"/>
<path d="M517.974 602.974H580.049L516.349 583.474L517.974 602.974Z" fill="#222222"/>
<path d="M541.699 558.124L538.124 536.999L581.999 538.247L541.699 558.124Z" fill="#222222"/>
<path d="M580.049 602.974L541.699 558.124L616.124 602.974H580.049Z" fill="#222222"/>
<path d="M606.699 538.949L581.999 538.247L584.274 583.799L606.699 538.949Z" fill="#222222"/>
<path d="M584.274 583.799L541.699 558.124L581.999 538.299L584.274 583.799Z" fill="#222222"/>
<path d="M647.649 546.424L606.699 538.949L584.274 583.799L647.649 546.424Z" fill="#222222"/>
<path d="M634.966 569.174L616.124 602.974H668.124L634.966 569.174Z" fill="#222222"/>
<path d="M702.249 562.024L684.374 559.099L660.324 595.023L702.249 562.024Z" fill="#222222"/>
<path d="M684.374 559.099L647.649 546.424L634.966 569.174L684.374 559.099Z" fill="#222222"/>
<path d="M702.249 561.898L660.324 595.023L738.323 602.974L702.249 561.898Z" fill="#222222"/>
<path d="M748.724 569.174L738.323 602.974L789.998 602.974L748.724 569.174Z" fill="#222222"/>
<path d="M738.323 602.974L748.724 569.174L702.249 562.024L738.323 602.974Z" fill="#222222"/>
<path d="M793.248 570.781L748.724 569.174L777.648 592.899L793.248 570.781Z" fill="#222222"/>
<path d="M789.998 602.974L777.648 592.899L793.248 570.799L789.998 602.974Z" fill="#222222"/>
<path d="M851.748 569.174L793.248 570.799L821.523 589.649L851.748 569.174Z" fill="#222222"/>
<path d="M793.248 570.781L789.998 602.974H841.998L793.248 570.781Z" fill="#222222"/>
<path d="M880.998 602.974V565.274L841.998 602.974H880.998Z" fill="#222222"/>
<path d="M880.998 565.274L851.748 569.174L841.998 602.974L880.998 565.274Z" fill="#222222"/>
<path d="M684.374 559.099L634.974 569.174L660.324 595.174L684.374 559.099Z" fill="#222222"/>
<path d="M616.124 602.974L584.274 583.799L647.649 546.424L616.124 602.974Z" fill="#222222"/>
<path d="M541.699 558.124L516.349 583.474L580.049 602.974L541.699 558.124Z" fill="#222222"/>
<path d="M821.523 589.649L841.998 602.974L851.748 569.174L821.523 589.649Z" fill="#222222"/>
<path d="M163.725 518.8L178.35 493.775L186.15 536.024L163.725 518.8Z" fill="#222222"/>
<path d="M217.999 511.325L186.15 536.024L178.35 493.775L217.999 511.325Z" fill="#222222"/>
<path d="M167.95 602.974L146.175 595.174L163.4 545.449L167.95 602.974Z" fill="#222222"/>
<path d="M164.7 561.049L163.4 545.774L186.15 536.024L164.7 561.049Z" fill="#222222"/>
<path d="M186.8 602.974H167.95L182.25 563.324L186.8 602.974Z" fill="#222222"/>
<path d="M182.25 563.324L164.7 561.049L166.325 583.149L182.25 563.324Z" fill="#222222"/>
<path d="M542.674 538.949L509.849 518.475H539.749L542.674 538.949Z" fill="#222222"/>
<path d="M539.749 518.475L531.299 500.275L594.349 511L539.749 518.475Z" fill="#222222"/>
<path d="M580.049 490.525L556.649 504.5L594.349 511L580.049 490.525Z" fill="#222222"/>
<path d="M92.2247 468.203L88.6497 449.239C88.6497 449.239 99.0497 447.939 101.325 449.239C103.6 450.539 107.175 462.899 108.8 464.989C110.425 467.078 121.8 470.049 123.1 471.349C124.4 472.649 127 477.524 127 477.524H102.625L101.325 472.06L92.2247 468.203Z" fill="#222222"/>
<path d="M-55 518.475L-17.6251 553.574L-55 602.974V518.475Z" fill="#222222"/>
<path d="M54.8498 508.725L91.8997 506.45L48.3498 520.425L54.8498 508.725Z" fill="#222222"/>
<path d="M121.15 484.025L158.525 514.575L111.075 485.65L121.15 484.025Z" fill="#222222"/>
<path d="M2.84989 526.275L11.9499 577.949L-55 602.974L2.84989 526.275Z" fill="#222222"/>
<path d="M163.4 545.774L146.175 595.174L91.2497 575.674L163.4 545.774Z" fill="#222222"/>
<path d="M-4.30009 487.6L2.84989 526.6L-17.6251 553.574L-4.30009 487.6Z" fill="#222222"/>
<path d="M-29.65 498.65L-55 518.475L-17.6251 553.574L-29.65 498.65Z" fill="#222222"/>
<path d="M111.075 485.325L65.8998 492.475L91.8997 506.45L111.075 485.325Z" fill="#222222"/>
<path d="M178.35 493.775L139.35 498.975L163.725 518.8L178.35 493.775Z" fill="#222222"/>
<path d="M-4.30009 487.6L-29.65 498.65L-17.6251 553.574L-4.30009 487.6Z" fill="#222222"/>
<path d="M65.8998 492.475L42.1748 509.7L91.8997 506.45L65.8998 492.475Z" fill="#222222"/>
<path d="M0.249897 512.625L48.3498 586.724L11.9499 577.949L0.249897 512.625Z" fill="#222222"/>
<path d="M33.7248 471.025L65.8998 492.475L42.1748 509.7L33.7248 471.025Z" fill="#222222"/>
<path d="M-4.30009 487.6L30.7998 478.5L0.249897 512.625L-4.30009 487.6Z" fill="#222222"/>
<path d="M111.075 485.65L138.375 502.225L117.9 536.674L111.075 485.65Z" fill="#222222"/>
<path d="M0.249897 512.625L54.8498 508.725L28.5248 556.174L0.249897 512.625Z" fill="#222222"/>
<path d="M117.9 536.674L158.525 514.575L141.3 555.199L117.9 536.674Z" fill="#222222"/>
<path d="M138.375 502.225L158.525 514.575L117.9 536.674L138.375 502.225Z" fill="#222222"/>
<path d="M78.2498 602.974L91.2497 575.349L167.95 602.974H78.2498Z" fill="#222222"/>
<path d="M139.35 498.975L127 477.524L178.35 493.775L139.35 498.975Z" fill="#222222"/>
<path d="M111.075 485.325L120.5 556.174L65.8998 558.449L111.075 485.325Z" fill="#222222"/>
<path d="M79.5497 450.225H102.3L113.675 477.85L79.5497 450.225Z" fill="#222222"/>
<path d="M0.249897 512.625L25.9249 483.7L42.1748 509.7L0.249897 512.625Z" fill="#222222"/>
<path d="M25.9249 483.7L33.7248 471.025L42.1748 509.7L25.9249 483.7Z" fill="#222222"/>
<path d="M33.7248 471.025L58.7498 450.225L65.8998 492.475L33.7248 471.025Z" fill="#222222"/>
<path d="M58.7498 450.225H79.5497L65.8998 492.475L58.7498 450.225Z" fill="#222222"/>
<path d="M11.9499 577.949L24.6248 602.974L58.4248 588.999L11.9499 577.949Z" fill="#222222"/>
<path d="M91.8997 506.45L99.6997 503.85L111.075 485.325L91.8997 506.45Z" fill="#222222"/>
<path d="M65.8998 492.475L121.475 484.025L79.5497 450.225L65.8998 492.475Z" fill="#222222"/>
<path d="M48.3498 586.724L28.5248 556.174L48.3498 520.425V586.724Z" fill="#222222"/>
<path d="M141.3 555.199L120.5 556.174L117.9 536.674L141.3 555.199Z" fill="#222222"/>
<path d="M48.3498 520.425V586.724L99.6997 503.85L48.3498 520.425Z" fill="#222222"/>
<path d="M108.475 465.175L113.675 477.85L123.1 471.349L108.475 465.175Z" fill="#222222"/>
<path d="M123.1 471.349L113.675 477.85L139.35 498.975L123.1 471.349Z" fill="#222222"/>
<path d="M48.3498 586.724L58.4248 588.999L65.8998 558.449L48.3498 586.724Z" fill="#222222"/>
<path d="M141.3 555.199L186.15 536.024L158.525 514.575L141.3 555.199Z" fill="#222222"/>
<path d="M24.6248 602.974H78.2498L91.2497 575.349L24.6248 602.974Z" fill="#222222"/>
<path d="M11.9499 577.949L24.6248 602.974L-55 602.974L11.9499 577.949Z" fill="#222222"/>
<path d="M65.8998 558.449L141.3 555.199L58.4248 588.999L65.8998 558.449Z" fill="#222222"/>
<path d="M231.649 569.499L186.15 536.024L243.349 560.724L231.649 569.499Z" fill="#222222"/>
<path d="M379.524 602.974H320.374L345.074 564.624L379.524 602.974Z" fill="#222222"/>
<path d="M167.95 602.974L166.325 583.149L182.25 563.324L167.95 602.974Z" fill="#222222"/>
<path d="M353.524 550.974L345.074 564.624L412.024 571.449L353.524 550.974Z" fill="#222222"/>
<path d="M379.524 602.974L377.899 567.874L441.599 602.974H379.524Z" fill="#222222"/>
<path d="M412.024 571.449L445.174 546.099L458.174 562.674L412.024 571.449Z" fill="#222222"/>
<path d="M538.124 536.999L541.699 558.124L458.174 562.674L538.124 536.999Z" fill="#222222"/>
<path d="M668.124 602.974L660.324 595.174L738.323 602.974L668.124 602.974Z" fill="#222222"/>
<path d="M581.349 511.325L618.724 510.35L589.474 538.624L581.349 511.325Z" fill="#222222"/>
<path d="M581.349 511.325L589.474 538.624L559.899 514.9L581.349 511.325Z" fill="#222222"/>
<path d="M602.799 538.624H589.474L607.999 520.75L602.799 538.624Z" fill="#222222"/>
<path d="M607.999 520.75L630.099 530.174L602.799 538.624L607.999 520.75Z" fill="#222222"/>
<path d="M559.899 514.9L542.674 538.949L539.749 518.475L559.899 514.9Z" fill="#222222"/>
<path d="M542.674 538.949L559.899 514.9L589.474 538.624L542.674 538.949Z" fill="#222222"/>
<path d="M182.25 563.324L186.8 602.974M182.25 563.324L231.649 569.499M182.25 563.324L167.95 602.974M182.25 563.324L164.7 561.049M182.25 563.324L166.325 583.149M186.8 602.974L231.649 569.499M186.8 602.974L243.349 560.724M186.8 602.974H260.574M186.8 602.974H167.95M231.649 569.499L186.15 536.024M231.649 569.499L243.349 560.724M260.574 602.974L271.624 584.124M260.574 602.974H320.374M260.574 602.974L243.349 560.724M260.574 602.974L250.174 577.624M271.624 584.124L320.374 602.974M271.624 584.124L250.174 577.624M271.624 584.124L339.213 573.724M271.624 584.124L273.249 534.724M271.624 584.124L339.224 573.724M320.374 602.974L339.213 573.724M320.374 602.974H379.524M320.374 602.974L345.074 564.624M441.599 602.974L516.349 583.474M441.599 602.974H517.974M441.599 602.974L458.174 562.674M441.599 602.974L377.899 567.874M441.599 602.974L412.024 571.449M441.599 602.974H379.524M516.349 583.474L517.974 602.974M516.349 583.474L458.174 562.674M516.349 583.474L541.699 558.124M516.349 583.474L580.049 602.974M517.974 602.974H580.049M458.174 562.674L412.024 571.449M458.174 562.674L445.174 546.099M458.174 562.674L538.124 536.999M458.174 562.674L541.699 558.124M243.349 560.724L217.999 511.325M243.349 560.724L186.15 536.024M243.349 560.724L273.249 534.724M243.349 560.724L250.174 577.624M250.174 577.624L273.249 534.724M217.999 511.325L186.15 536.024M217.999 511.325L273.249 534.724M217.999 511.325L178.35 493.775M186.15 536.024L164.7 561.049M186.15 536.024L231.649 569.466L164.7 561.049M186.15 536.024L163.725 518.8M186.15 536.024L178.35 493.775M186.15 536.024L163.4 545.774M186.15 536.024L141.3 555.199M186.15 536.024L158.525 514.575M164.7 561.049L163.4 545.774M164.7 561.049L166.325 583.149M273.249 534.724L339.224 573.724M273.249 534.724L321.674 548.049M339.213 573.724L339.218 573.716M339.224 573.724L321.674 548.049M339.224 573.724L339.218 573.716M321.674 548.049L353.524 550.974M321.674 548.049L339.218 573.716M353.524 550.974L345.074 564.624M353.524 550.974L412.024 571.449M353.524 550.974L445.174 546.099M339.218 573.716L345.074 564.624M345.074 564.624L379.524 602.974M345.074 564.624L377.899 567.971L379.524 602.974M345.074 564.624L412.024 571.449M379.524 602.974L377.899 567.874M412.024 571.449L445.174 546.099M412.024 571.449L377.899 567.874M445.174 546.099L538.124 536.999M538.124 536.999L541.699 558.124M538.124 536.999L581.999 538.247M541.699 558.124L581.999 538.247M541.699 558.124L580.049 602.974M541.699 558.124L616.124 602.974M541.699 558.124L584.274 583.799M541.699 558.124L581.999 538.299L584.274 583.799M580.049 602.974H616.124M581.999 538.247L606.699 538.949M581.999 538.247L584.274 583.799M616.124 602.974L634.966 569.174M616.124 602.974H668.124M616.124 602.974L584.274 583.799M616.124 602.974L647.649 546.424M606.699 538.949L584.274 583.799M606.699 538.949L647.649 546.424M584.274 583.799L647.649 546.424M647.649 546.424L684.374 559.099M647.649 546.424L634.966 569.174M634.966 569.174L668.124 602.974M634.966 569.174L684.374 559.099M668.124 602.974L660.324 595.174M668.124 602.974L738.324 602.974M684.374 559.099L702.249 562.024M684.374 559.099L660.324 595.023M684.374 559.099L634.974 569.174L660.324 595.174M684.374 559.099L660.324 595.174M702.249 562.024L660.324 595.023M702.249 562.024L738.324 602.974M702.249 562.024L748.723 569.174M660.324 595.023L702.249 561.898L738.324 602.974M660.324 595.023L738.324 602.974M738.324 602.974L748.723 569.174M738.324 602.974L789.998 602.974M738.324 602.974L660.324 595.174M748.723 569.174L789.998 602.974M748.723 569.174L793.248 570.781M748.723 569.174L777.648 592.899M789.998 602.974L777.648 592.899M789.998 602.974L793.248 570.799M789.998 602.974L793.248 570.781M789.998 602.974H841.998M793.248 570.781L777.648 592.899M793.248 570.781L841.998 602.974M777.648 592.899L793.248 570.799M793.248 570.799L851.748 569.174M793.248 570.799L821.523 589.649M851.748 569.174L821.523 589.649M851.748 569.174L880.998 565.274M851.748 569.174L841.998 602.974M821.523 589.649L841.998 602.974M841.998 602.974H880.998V565.274M841.998 602.974L880.998 565.274M178.35 493.775L163.725 518.8M178.35 493.775L139.35 498.975M178.35 493.775L127 477.524M163.725 518.8L139.35 498.975M146.175 595.174L167.95 602.974M146.175 595.174L163.4 545.449L167.95 602.974M146.175 595.174L163.4 545.774M146.175 595.174L91.2497 575.674L163.4 545.774M167.95 602.974L91.2497 575.349M167.95 602.974H78.2498M167.95 602.974L166.325 583.149M542.674 538.949L509.849 518.475H539.749M542.674 538.949L539.749 518.475M542.674 538.949L559.899 514.9M542.674 538.949L589.474 538.624M539.749 518.475L531.299 500.275L594.349 511M539.749 518.475L594.349 511M539.749 518.475L559.899 514.9M594.349 511L580.049 490.525L556.649 504.5L594.349 511ZM97.4247 450.225H58.7498M58.7498 450.225L33.7248 471.025M58.7498 450.225L65.8998 492.475M58.7498 450.225H79.5497M127 477.524H102.625L101.325 472.06L92.2247 468.203L88.6497 449.239C88.6497 449.239 99.0497 447.939 101.325 449.239C103.6 450.539 107.175 462.899 108.8 464.989C110.425 467.078 121.8 470.049 123.1 471.349M127 477.524C127 477.524 124.4 472.649 123.1 471.349M127 477.524L139.35 498.975M123.1 471.349L113.675 477.85M123.1 471.349L108.475 465.175L113.675 477.85M123.1 471.349L139.35 498.975M-55 518.475L-17.6251 553.574M-55 518.475V602.974M-55 518.475L-29.65 498.65M-17.6251 553.574L-55 602.974M-17.6251 553.574L2.84989 526.6L-4.30009 487.6M-17.6251 553.574L-4.30009 487.6M-17.6251 553.574L-29.65 498.65M-55 602.974L11.9499 577.949M-55 602.974L2.84989 526.275L11.9499 577.949M-55 602.974L24.6249 602.974M54.8498 508.725L91.8997 506.45M54.8498 508.725L48.3498 520.425M54.8498 508.725L0.249897 512.625M54.8498 508.725L28.5248 556.174M91.8997 506.45L48.3498 520.425M91.8997 506.45L65.8998 492.475M91.8997 506.45L111.075 485.325M91.8997 506.45L42.1748 509.7M91.8997 506.45L99.6997 503.85M48.3498 520.425L28.5248 556.174M48.3498 520.425V586.724M48.3498 520.425L99.6997 503.85M158.525 514.575L121.15 484.025L111.075 485.65M158.525 514.575L111.075 485.65M158.525 514.575L117.9 536.674M158.525 514.575L141.3 555.199M158.525 514.575L138.375 502.225M111.075 485.65L138.375 502.225M111.075 485.65L117.9 536.674M11.9499 577.949L48.3498 586.724M11.9499 577.949L0.249897 512.625M11.9499 577.949L24.6249 602.974M11.9499 577.949L58.4248 588.999M-4.30009 487.6L-29.65 498.65M-4.30009 487.6L30.7998 478.5L0.249897 512.625M-4.30009 487.6L0.249897 512.625M111.075 485.325L65.8998 492.475M111.075 485.325L120.5 556.174M111.075 485.325L65.8998 558.449M111.075 485.325L99.6997 503.85M65.8998 492.475L42.1748 509.7M65.8998 492.475L33.7248 471.025M65.8998 492.475L79.5497 450.225M65.8998 492.475L121.475 484.025L79.5497 450.225M139.35 498.975L113.675 477.85M42.1748 509.7L33.7248 471.025M42.1748 509.7L25.9248 483.7M42.1748 509.7L0.249897 512.625M0.249897 512.625L48.3498 586.724M0.249897 512.625L28.5248 556.174M0.249897 512.625L25.9248 483.7M48.3498 586.724L28.5248 556.174M48.3498 586.724L99.6997 503.85M48.3498 586.724L58.4248 588.999M48.3498 586.724L65.8998 558.449M33.7248 471.025L25.9248 483.7M138.375 502.225L117.9 536.674M117.9 536.674L141.3 555.199M117.9 536.674L120.5 556.174M141.3 555.199L120.5 556.174M141.3 555.199L65.8998 558.449M141.3 555.199L58.4248 588.999M78.2498 602.974L91.2497 575.349M78.2498 602.974H24.6249M91.2497 575.349L24.6249 602.974M120.5 556.174L65.8998 558.449M65.8998 558.449L58.4248 588.999M79.5497 450.225H102.3L113.675 477.85M79.5497 450.225L113.675 477.85M24.6249 602.974L58.4248 588.999M581.349 511.325L618.724 510.35L589.474 538.624M581.349 511.325L589.474 538.624M581.349 511.325L559.899 514.9M589.474 538.624L559.899 514.9M589.474 538.624H602.799M589.474 538.624L607.999 520.75M602.799 538.624L607.999 520.75M602.799 538.624L630.099 530.175L607.999 520.75" stroke="#00AE98" stroke-width="0.5"/>
</g>
<path d="M186.8 603.3L182.25 563.65L231.65 569.825L186.8 603.3Z" fill="#0CC1AB" stroke="#00AE98" stroke-width="0.5"/>
<path d="M260.574 603.3L243.349 561.05L186.799 603.3H260.574Z" fill="#079180" stroke="#00AE98" stroke-width="0.5"/>
<path d="M186.148 536.35L217.998 511.65L243.348 561.05L186.148 536.35Z" fill="#09BAA4" stroke="#00AE98" stroke-width="0.5"/>
<path d="M164.699 561.374L186.149 536.349L231.649 569.791L164.699 561.374Z" fill="#079180" stroke="#00AE98" stroke-width="0.5"/>
<path d="M273.248 535.05L217.998 511.65L243.348 561.05L273.248 535.05Z" fill="#089E8B" stroke="#00AE98" stroke-width="0.5"/>
<path d="M250.174 577.95L271.624 584.45L273.249 535.05L250.174 577.95Z" fill="#0D7C6F" stroke="#00AE98" stroke-width="0.5"/>
<path d="M339.223 574.05L271.623 584.45L273.248 535.05L339.223 574.05Z" fill="#089E8B" stroke="#00AE98" stroke-width="0.5"/>
<path d="M243.348 561.05L250.173 577.95L273.248 535.05L243.348 561.05Z" fill="#19AB99" stroke="#00AE98" stroke-width="0.5"/>
<path d="M321.675 548.375L273.25 535.05L339.225 574.05L321.675 548.375Z" fill="#08A390" stroke="#00AE98" stroke-width="0.5"/>
<path d="M163.725 519.125L178.35 494.1L186.15 536.35L163.725 519.125Z" fill="#09BAA4" stroke="#00AE98" stroke-width="0.5"/>
<path d="M217.998 511.65L186.148 536.35L178.348 494.1L217.998 511.65Z" fill="#09AD99" stroke="#00AE98" stroke-width="0.5"/>
<path d="M167.949 603.3L146.174 595.5L163.399 545.775L167.949 603.3Z" fill="#079180" stroke="#00AE98" stroke-width="0.5"/>
<path d="M164.698 561.375L163.398 546.1L186.148 536.35L164.698 561.375Z" fill="#09BAA4" stroke="#00AE98" stroke-width="0.5"/>
<path d="M186.799 603.299H167.949L182.249 563.649L186.799 603.299Z" fill="#11B09D" stroke="#00AE98" stroke-width="0.5"/>
<path d="M182.249 563.65L164.699 561.375L166.324 583.475L182.249 563.65Z" fill="#007D6E" stroke="#00AE98" stroke-width="0.5"/>
<path d="M58.748 376.774V418.699L81.498 405.699L58.748 376.774Z" fill="#118D7E" stroke="#00AE98" stroke-width="0.5"/>
<path d="M97.423 396.599V450.549L58.748 418.699L97.423 396.599Z" fill="#00AE98" stroke="#00AE98" stroke-width="0.5"/>
<path d="M97.425 356.624V396.599L81.5 405.699L97.425 356.624Z" fill="#118C7D" stroke="#00AE98" stroke-width="0.5"/>
<path d="M81.498 405.699L58.748 376.774L97.423 356.624L81.498 405.699Z" fill="#09BAA4" stroke="#00AE98" stroke-width="0.5"/>
<path d="M70.773 346.099L58.748 341.349V303.974L70.773 346.099Z" fill="#078A7A" stroke="#00AE98" stroke-width="0.5"/>
<path d="M58.748 287.725V303.975L68.498 279.925L58.748 287.725Z" fill="#089E8B" stroke="#00AE98" stroke-width="0.5"/>
<path d="M97.423 331.924L58.748 303.975L68.498 279.925L97.423 331.924Z" fill="#09BAA4" stroke="#00AE98" stroke-width="0.5"/>
<path d="M97.4246 287.725V331.925L81.1543 302.675L97.4246 287.725Z" fill="#09AD99" stroke="#00AE98" stroke-width="0.5"/>
<path d="M97.423 287.725L81.173 302.675L68.498 279.925L97.423 287.725Z" fill="#078A7A" stroke="#00AE98" stroke-width="0.5"/>
<path d="M89.623 279.925L97.423 287.725L68.498 279.925H89.623Z" fill="#0CC1AB" stroke="#00AE98" stroke-width="0.5"/>
<path d="M129.601 356.624H97.4258L136.751 342.324L129.601 356.624Z" fill="#078A7A" stroke="#00AE98" stroke-width="0.5"/>
<path d="M97.4253 356.624L70.7754 346.099L97.4253 331.925V356.624Z" fill="#09BAA4" stroke="#00AE98" stroke-width="0.5"/>
<path d="M112.376 337.775H97.4258V356.625L112.376 337.775Z" fill="#089E8B" stroke="#00AE98" stroke-width="0.5"/>
<path d="M97.4258 356.625L136.751 342.325L112.376 337.775L97.4258 356.625Z" fill="#0CC1AB" stroke="#00AE98" stroke-width="0.5"/>
<path d="M113.673 320.875L112.373 337.774L136.748 342.324L113.673 320.875Z" fill="#09AD99" stroke="#00AE98" stroke-width="0.5"/>
<path d="M136.748 311.449V342.324L124.398 330.949L136.748 311.449Z" fill="#09BAA4" stroke="#00AE98" stroke-width="0.5"/>
<path d="M129.598 304.949L136.748 311.449L124.398 330.949L129.598 304.949Z" fill="#078A7A" stroke="#00AE98" stroke-width="0.5"/>
<path d="M113.674 320.874V310.149L129.599 304.949L113.674 320.874Z" fill="#0CC1AB" stroke="#00AE98" stroke-width="0.5"/>
<path d="M124.512 330.949L113.674 320.874L129.599 304.949L124.512 330.949Z" fill="#089E8B" stroke="#00AE98" stroke-width="0.5"/>
<path d="M119.849 304.949L113.674 310.149L129.599 304.949H119.849Z" fill="#09BAA4" stroke="#00AE98" stroke-width="0.5"/>
<path d="M58.748 341.349V376.774L97.423 356.624L58.748 341.349Z" fill="#089E8B" stroke="#00AE98" stroke-width="0.5"/>
<path d="M58.7472 357.925V376.775L46.0723 357.925H58.7472Z" fill="#09BAA4" stroke="#00AE98" stroke-width="0.5"/>
<path d="M26.25 376.775H58.7499L46.075 357.925L26.25 376.775Z" fill="#089E8B" stroke="#00AE98" stroke-width="0.5"/>
<path d="M21.0488 340.375V368L35.0238 362.475L21.0488 340.375Z" fill="#0CC1AB" stroke="#00AE98" stroke-width="0.5"/>
<path d="M46.0738 357.925L26.2488 376.775L21.0488 368L46.0738 357.925Z" fill="#078A7A" stroke="#00AE98" stroke-width="0.5"/>
<path d="M35.0238 362.474L21.0488 340.374L28.1988 333.875L35.0238 362.474Z" fill="#089E8B" stroke="#00AE98" stroke-width="0.5"/>
<path d="M37.6242 333.875H28.1992L43.4742 340.374L37.6242 333.875Z" fill="#078A7A" stroke="#00AE98" stroke-width="0.5"/>
<path d="M35.0242 362.474L43.4742 340.374L28.1992 333.875L35.0242 362.474Z" fill="#09BAA4" stroke="#00AE98" stroke-width="0.5"/>
<path d="M46.0754 357.925L43.4754 340.375L35.0254 362.475L46.0754 357.925Z" fill="#09AD99" stroke="#00AE98" stroke-width="0.5"/>
<path d="M58.748 418.7V450.55H97.423L58.748 418.7Z" fill="#078A7A" stroke="#00AE98" stroke-width="0.5"/>
<path d="M92.2215 468.528L88.6465 449.563C88.6465 449.563 99.0465 448.263 101.321 449.563C103.596 450.863 107.171 463.224 108.796 465.313C110.421 467.403 121.796 470.374 123.096 471.674C124.396 472.974 126.996 477.849 126.996 477.849H102.621L101.321 472.385L92.2215 468.528Z" fill="#00917F" stroke="#00AE98" stroke-width="0.5"/>
<path d="M97.423 331.925L70.773 346.225L58.748 303.975L97.423 331.925Z" fill="#0CC1AB" stroke="#00AE98" stroke-width="0.5"/>
<path d="M48.8752 520.318L55.0016 509.29L89.9225 507.146L48.8752 520.318Z" fill="#09AD99" stroke="#00AE98" stroke-width="0.5"/>
<path d="M111.783 486.113L121.078 484.614L155.561 512.8L111.783 486.113Z" fill="#08A390" stroke="#00AE98" stroke-width="0.5"/>
<path d="M11.6676 578.112L-54.2836 602.764L2.70337 527.208L11.6676 578.112Z" fill="#089E8B" stroke="#00AE98" stroke-width="0.5"/>
<path d="M91.9465 575.981L162.98 546.544L146.022 595.179L91.9465 575.981Z" fill="#089E8B" stroke="#00AE98" stroke-width="0.5"/>
<path d="M2.58223 526.86L-17.1656 552.877L-4.31385 489.245L2.58223 526.86Z" fill="#09AD99" stroke="#00AE98" stroke-width="0.5"/>
<path d="M91.8485 506.461L66.6741 492.93L110.415 486.007L91.8485 506.461Z" fill="#079180" stroke="#00AE98" stroke-width="0.5"/>
<path d="M163.654 518.746L139.954 499.47L177.874 494.414L163.654 518.746Z" fill="#079180" stroke="#00AE98" stroke-width="0.5"/>
<path d="M91.0124 506.581L43.0207 509.718L65.9187 493.094L91.0124 506.581Z" fill="#078A7A" stroke="#00AE98" stroke-width="0.5"/>
<path d="M12.1653 578.069L0.712381 514.123L47.7967 586.659L12.1653 578.069Z" fill="#08A390" stroke="#00AE98" stroke-width="0.5"/>
<path d="M42.3352 509.597L34.099 471.9L65.46 492.808L42.3352 509.597Z" fill="#08A390" stroke="#00AE98" stroke-width="0.5"/>
<path d="M0.40377 512.402L-4.01328 488.108L30.0611 479.274L0.40377 512.402Z" fill="#089E8B" stroke="#00AE98" stroke-width="0.5"/>
<path d="M138.033 502.634L118.052 536.253L111.391 486.459L138.033 502.634Z" fill="#089E8B" stroke="#00AE98" stroke-width="0.5"/>
<path d="M28.5062 556.014L0.688421 513.168L54.4055 509.331L28.5062 556.014Z" fill="#09BAA4" stroke="#00AE98" stroke-width="0.5"/>
<path d="M141.2 555.124L118.354 537.038L158.017 515.461L141.2 555.124Z" fill="#09BAA4" stroke="#00AE98" stroke-width="0.5"/>
<path d="M118.582 536.344L138.463 502.894L158.028 514.886L118.582 536.344Z" fill="#11B09D" stroke="#00AE98" stroke-width="0.5"/>
<path d="M177.204 494L139.481 499.029L127.535 478.282L177.204 494Z" fill="#09BAA4" stroke="#00AE98" stroke-width="0.5"/>
<path d="M66.3626 558.505L110.922 486.376L120.218 556.261L66.3626 558.505Z" fill="#09BAA4" stroke="#00AE98" stroke-width="0.5"/>
<path d="M102.131 450.799L113.07 477.363L80.255 450.799H102.131Z" fill="#09BAA4" stroke="#00AE98" stroke-width="0.5"/>
<path d="M41.7404 509.803L0.841531 512.657L25.8881 484.44L41.7404 509.803Z" fill="#09AD99" stroke="#00AE98" stroke-width="0.5"/>
<path d="M41.6219 508.669L26.218 484.023L33.6119 472.008L41.6219 508.669Z" fill="#079180" stroke="#00AE98" stroke-width="0.5"/>
<path d="M65.5545 492.27L34.1403 471.327L58.5736 451.019L65.5545 492.27Z" fill="#09AD99" stroke="#00AE98" stroke-width="0.5"/>
<path d="M65.9741 491.75L59.0439 450.799H79.2045L65.9741 491.75Z" fill="#079180" stroke="#00AE98" stroke-width="0.5"/>
<path d="M99.533 503.966L92.7255 506.235L109.461 487.798L99.533 503.966Z" fill="#007D6E" stroke="#00AE98" stroke-width="0.5"/>
<path d="M66.2646 492.491L79.6784 450.972L120.878 484.187L66.2646 492.491Z" fill="#09AD99" stroke="#00AE98" stroke-width="0.5"/>
<path d="M28.8149 556.488L48.0984 521.715V586.204L28.8149 556.488Z" fill="#09AD99" stroke="#00AE98" stroke-width="0.5"/>
<path d="M120.72 556.239L118.232 537.579L140.624 555.306L120.72 556.239Z" fill="#09AD99" stroke="#00AE98" stroke-width="0.5"/>
<path d="M99.1284 504.621L48.5996 586.171V520.931L99.1284 504.621Z" fill="#089E8B" stroke="#00AE98" stroke-width="0.5"/>
<path d="M122.582 471.727L113.788 477.792L108.936 465.965L122.582 471.727Z" fill="#089E8B" stroke="#00AE98" stroke-width="0.5"/>
<path d="M138.42 498.209L114.091 478.191L123.022 472.032L138.42 498.209Z" fill="#00917F" stroke="#00AE98" stroke-width="0.5"/>
<path d="M65.2832 560.241L58.2401 589.026L48.7472 586.882L65.2832 560.241Z" fill="#007D6E" stroke="#00AE98" stroke-width="0.5"/>
<path d="M158.627 515.296L185.66 536.286L141.771 555.05L158.627 515.296Z" fill="#09A995" stroke="#00AE98" stroke-width="0.5"/>
<path d="M58.7831 588.907L66.0971 559.016L139.872 555.836L58.7831 588.907Z" fill="#079180" stroke="#00AE98" stroke-width="0.5"/>
<path d="M231.65 569.824L186.15 536.349L243.35 561.049L231.65 569.824Z" fill="#0DAC98" stroke="#00AE98" stroke-width="0.5"/>
<path d="M379.523 603.299H320.373L345.073 564.949L379.523 603.299Z" fill="#09BAA4" stroke="#00AE98" stroke-width="0.5"/>
<path d="M167.949 603.299L166.324 583.474L182.249 563.649L167.949 603.299Z" fill="#09BAA4" stroke="#00AE98" stroke-width="0.5"/>
</g>
</g>
<defs>
<filter id="filter0_d" x="-66.25" y="396.598" width="958.498" height="174.777" filterUnits="userSpaceOnUse" color-interpolation-filters="sRGB">
<feFlood flood-opacity="0" result="BackgroundImageFix"/>
<feColorMatrix in="SourceAlpha" type="matrix" values="0 0 0 0 0 0 0 0 0 0 0 0 0 0 0 0 0 0 127 0"/>
<feOffset dy="-18"/>
<feGaussianBlur stdDeviation="5.5"/>
<feColorMatrix type="matrix" values="0 0 0 0 0 0 0 0 0 0 0 0 0 0 0 0 0 0 0.4 0"/>
<feBlend mode="normal" in2="BackgroundImageFix" result="effect1_dropShadow"/>
<feBlend mode="normal" in="SourceGraphic" in2="effect1_dropShadow" result="shape"/>
</filter>
<filter id="filter1_d" x="-66.25" y="420.411" width="958.498" height="182.814" filterUnits="userSpaceOnUse" color-interpolation-filters="sRGB">
<feFlood flood-opacity="0" result="BackgroundImageFix"/>
<feColorMatrix in="SourceAlpha" type="matrix" values="0 0 0 0 0 0 0 0 0 0 0 0 0 0 0 0 0 0 127 0"/>
<feOffset dy="-17"/>
<feGaussianBlur stdDeviation="5.5"/>
<feColorMatrix type="matrix" values="0 0 0 0 0 0 0 0 0 0 0 0 0 0 0 0 0 0 0.4 0"/>
<feBlend mode="normal" in2="BackgroundImageFix" result="effect1_dropShadow"/>
<feBlend mode="normal" in="SourceGraphic" in2="effect1_dropShadow" result="shape"/>
</filter>
<clipPath id="clip0">
<rect width="320" height="568" fill="white"/>
</clipPath>
</defs>
</svg>
