<svg width="1440" height="690" viewBox="0 0 1440 690" fill="none" xmlns="http://www.w3.org/2000/svg">
<g opacity="0.7" clip-path="url(#clip0)">
<rect width="1440" height="690" fill="#222222"/>
<circle cx="733" cy="415" r="603" fill="#262626"/>
<circle cx="733" cy="415" r="435" fill="#292929"/>
<circle cx="733" cy="415" r="229" fill="#2E2E2E"/>
<path d="M911.5 143L846 455L1225 467.5V322L1198.5 263.5L1170 161V86.5L1099.5 46L984.5 86.5L911.5 143Z" fill="#003833"/>
<path d="M1440 709H0V517.5V407.5C192.267 426.441 587.237 460.514 768.5 459.969L819.5 225L916 172L1013.5 191L1081 313L1095.5 453.25C1108.13 453.289 1120.82 453.35 1133.5 453.429V313L1183.5 250L1247 281.5L1275.5 355V411.5L1294 455.336C1350.77 456.3 1401.63 457.455 1440 458.5V518V709Z" fill="#004B44"/>
<path d="M482.293 464.291L496.526 464.702C502.16 464.865 506.815 460.343 506.815 454.707V394.558L529.982 394.6C535.512 394.61 540 390.13 540 384.6V365.92C540 360.904 535.934 356.838 530.918 356.838C525.902 356.838 521.836 360.904 521.836 365.92V372.243C521.836 375.523 519.177 378.181 515.897 378.181H506.815V319C506.815 313.477 502.338 309 496.815 309H482.582C477.059 309 472.582 313.477 472.582 319V360.087H466.644C461.435 360.087 457.212 355.864 457.212 350.655V340.931C457.212 335.625 452.911 331.324 447.606 331.324C442.301 331.324 438 335.625 438 340.931V367.873C438 373.515 442.664 378.04 448.303 377.869L472.582 377.132V454.295C472.582 459.705 476.885 464.134 482.293 464.291Z" fill="#004B44"/>
<path d="M0 709H1440V518C1406.17 494.334 1337.5 473.7 1205.5 464.5C1040.5 453 1027 388.5 897.5 426.5C768 464.5 687.5 538 578 542.5C468.5 547 351.994 434.533 264.5 464.5C101 520.5 101.5 431 0 517.5V709Z" fill="#076E64"/>
<path d="M1081.85 471.903L1109.51 472.703C1115.15 472.865 1119.8 468.343 1119.8 462.707V375.014L1155.98 375.079C1161.51 375.089 1166 370.609 1166 365.079V332.544C1166 327.021 1161.52 322.544 1156 322.544H1150.71C1145.19 322.544 1140.71 327.021 1140.71 332.544V343.966C1140.71 348.532 1137.01 352.233 1132.45 352.233H1119.8V266C1119.8 260.477 1115.32 256 1109.8 256H1082.14C1076.62 256 1072.14 260.477 1072.14 266V327.063H1063.88H1060.75C1055.22 327.063 1050.75 322.586 1050.75 317.063V297.054C1050.75 291.531 1046.27 287.054 1040.75 287.054H1034C1028.48 287.054 1024 291.531 1024 297.054V341.925C1024 347.567 1028.66 352.091 1034.3 351.92L1072.14 350.773V461.907C1072.14 467.318 1076.45 471.747 1081.85 471.903Z" fill="#076E64"/>
<path d="M576.611 544C590.09 542.454 620.837 536.661 636 525.864C625.952 522.479 607.6 518.188 592.314 519.352C600.807 515.657 610.175 510.632 619.152 504.354C605.5 499 587 494 564.818 507.306C569 504.354 573.242 491.11 573.242 482C564.678 482.422 546.707 486.977 543.337 501.823C535.194 494.231 514.359 481.578 496.163 491.701C498.125 499.329 504.49 513.113 515.865 517.402C505.039 516.221 489.871 516.54 481 523.333C486.054 530.785 500.88 544.844 519.75 541.469L576.611 544Z" fill="#076E64"/>
<path d="M1434 952H5.99999C2.68629 952 0 949.314 0 946V555.201C0 553.501 0.706719 551.885 1.99146 550.772C19.556 535.565 58.2803 509.856 132 496.746L135.554 487.351C135.848 486.574 136.301 485.866 136.883 485.272L145.614 476.373C146.514 475.456 147.685 474.852 148.954 474.65L158.562 473.121C160.688 472.782 162.47 471.331 163.231 469.318L167.084 459.131C167.941 456.864 170.078 455.335 172.5 455.256L225 453.54L237.336 453.136C239.84 453.054 242.131 454.536 243.083 456.853L250.526 474.977C251.148 476.491 252.362 477.686 253.886 478.283L272.233 485.479C273.383 485.93 274.366 486.725 275.047 487.755L280 495.243C392.131 517.535 488.099 595.13 615.5 602.659C721.805 608.94 841.06 581.793 954 581.631C1004.14 581.559 1053.04 586.806 1099 602.659C1214.49 642.49 1365.39 635.073 1433.1 625.632C1436.74 625.124 1440 627.939 1440 631.618V946C1440 949.314 1437.31 952 1434 952Z" fill="#089E8B"/>
<path d="M940.5 593.5C924.5 591.667 888 584.8 870 572C881.217 568.226 901.073 563.661 918.492 564.277C910.324 561.048 900.84 555.852 890 546.5C905.634 537.852 940.354 526.448 954.411 549.852C951.129 544.269 949.036 531.389 953 519C963.167 519.5 976 525.9 980 543.5C989.667 534.5 1016.9 524 1038.5 536C1031 551.5 1022 555.5 1003 563.5C1017 559 1041 559 1064.5 570.5C1047 584.5 1038.5 589 1008 590.5L940.5 593.5Z" fill="#089E8B"/>
<path d="M224.94 463.554L185.2 464.703C179.566 464.865 174.911 460.343 174.911 454.707V342.179L127.018 342.265C121.488 342.275 117 337.795 117 332.265V286.41C117 280.887 121.477 276.41 127 276.41H141.5C147.023 276.41 151.5 280.887 151.5 286.41V306.062C151.5 310.238 154.885 313.624 159.062 313.624H174.911V203C174.911 197.477 179.388 193 184.911 193H224.651C230.174 193 234.651 197.477 234.651 203V282.074H245.014H248.5C254.023 282.074 258.5 277.597 258.5 272.074V241.925C258.5 236.402 262.977 231.925 268.5 231.925H285C290.523 231.925 295 236.402 295 241.925V303.316C295 308.958 290.336 313.482 284.697 313.311L234.651 311.794V453.558C234.651 458.969 230.348 463.398 224.94 463.554Z" fill="#089E8B"/>
<path d="M226.5 482.659L221 453.483C221 453.483 237 451.483 240.5 453.483C244 455.483 249.5 474.5 252 477.714C254.5 480.928 272 485.5 274 487.5C276 489.5 280 497 280 497H242.5L240.5 488.593L226.5 482.659Z" fill="#00917F"/>
</g>
<defs>
<clipPath id="clip0">
<rect width="1440" height="690" fill="white"/>
</clipPath>
</defs>
</svg>
