<svg width="1440" height="690" viewBox="0 0 1440 690" fill="none" xmlns="http://www.w3.org/2000/svg">
<g clip-path="url(#clip0)">
<rect width="1440" height="690" fill="#222222"/>
<rect width="1440" height="690" fill="#222222"/>
<circle cx="733" cy="415" r="603" fill="#242424"/>
<circle cx="733" cy="415" r="435" fill="#272727"/>
<circle cx="733" cy="415" r="229" fill="#292929"/>
<path d="M911.5 143L846 455L1225 467.5V322L1198.5 263.5L1170 161V86.5L1099.5 46L984.5 86.5L911.5 143Z" fill="#003833"/>
<path d="M1440 709H0V517.5V407.5C192.267 426.441 587.237 460.514 768.5 459.969L819.5 225L916 172L1013.5 191L1081 313L1095.5 453.25C1108.13 453.289 1120.82 453.35 1133.5 453.429V313L1183.5 250L1247 281.5L1275.5 355V411.5L1294 455.336C1350.77 456.3 1401.63 457.455 1440 458.5V518V709Z" fill="#004B44"/>
<path d="M482.293 464.291L496.526 464.702C502.16 464.865 506.815 460.343 506.815 454.707V394.558L529.982 394.6C535.512 394.61 540 390.13 540 384.6V365.92C540 360.904 535.934 356.838 530.918 356.838C525.902 356.838 521.836 360.904 521.836 365.92V372.243C521.836 375.523 519.177 378.181 515.897 378.181H506.815V319C506.815 313.477 502.338 309 496.815 309H482.582C477.059 309 472.582 313.477 472.582 319V360.087H466.644C461.435 360.087 457.212 355.864 457.212 350.655V340.931C457.212 335.625 452.911 331.324 447.606 331.324C442.301 331.324 438 335.625 438 340.931V367.873C438 373.515 442.664 378.04 448.303 377.869L472.582 377.132V454.295C472.582 459.705 476.885 464.134 482.293 464.291Z" fill="#004B44"/>
<path d="M0 709H1440V518C1406.17 494.334 1337.5 473.7 1205.5 464.5C1040.5 453 1027 388.5 897.5 426.5C768 464.5 687.5 538 578 542.5C468.5 547 351.994 434.533 264.5 464.5C101 520.5 101.5 431 0 517.5V709Z" fill="#076E64"/>
<path d="M1081.85 471.903L1109.51 472.703C1115.15 472.865 1119.8 468.343 1119.8 462.707V375.014L1155.98 375.079C1161.51 375.089 1166 370.609 1166 365.079V332.544C1166 327.021 1161.52 322.544 1156 322.544H1150.71C1145.19 322.544 1140.71 327.021 1140.71 332.544V343.966C1140.71 348.532 1137.01 352.233 1132.45 352.233H1119.8V266C1119.8 260.477 1115.32 256 1109.8 256H1082.14C1076.62 256 1072.14 260.477 1072.14 266V327.063H1063.88H1060.75C1055.22 327.063 1050.75 322.586 1050.75 317.063V297.054C1050.75 291.531 1046.27 287.054 1040.75 287.054H1034C1028.48 287.054 1024 291.531 1024 297.054V341.925C1024 347.567 1028.66 352.091 1034.3 351.92L1072.14 350.773V461.907C1072.14 467.318 1076.45 471.747 1081.85 471.903Z" fill="#076E64"/>
<path d="M576.611 544C590.09 542.454 620.837 536.661 636 525.864C620.977 520.803 587.394 513.717 573.242 525.864C580.964 517.991 600.957 502.667 619.152 504.354C606.011 497.075 576.863 487.481 564.971 507.051C567.825 502.255 573.242 490.948 573.242 482C564.678 482.422 546.707 486.977 543.337 501.823C535.194 494.231 514.359 481.578 496.163 491.701C498.125 499.329 504.49 513.113 515.865 517.402C505.039 516.221 489.871 516.54 481 523.333C486.054 530.785 500.88 544.844 519.75 541.469L576.611 544Z" fill="#076E64"/>
<path d="M1434 696.5H5.99999C2.68629 696.5 0 693.814 0 690.5V559.587C0 557.936 0.668838 556.359 1.89099 555.249C19.4081 539.333 58.1394 512.33 132 498.574L135.58 488.662C135.857 487.895 136.287 487.193 136.845 486.598L145.611 477.24C146.512 476.278 147.704 475.64 149.004 475.423L158.536 473.835C160.676 473.478 162.456 471.994 163.193 469.954L167.121 459.077C167.954 456.77 170.107 455.202 172.559 455.118L225 453.322L237.258 452.903C239.8 452.816 242.121 454.341 243.049 456.709L250.564 475.872C251.162 477.395 252.356 478.609 253.87 479.231L272.229 486.772C273.381 487.245 274.357 488.065 275.022 489.118L280 497C392.131 520.347 488.099 601.615 615.5 609.5C721.805 616.079 841.06 587.646 954 587.477C1004.14 587.401 1053.04 592.897 1099 609.5C1214.47 651.208 1365.33 643.451 1433.06 633.567C1436.71 633.033 1440 635.853 1440 639.549V690.5C1440 693.814 1437.31 696.5 1434 696.5Z" fill="#089E8B"/>
<path d="M940.5 593.5C924.5 591.667 888 584.8 870 572C887.833 566 927.7 557.6 944.5 572C935.333 562.667 911.6 544.5 890 546.5C905.599 537.871 940.201 526.498 954.318 549.698C950.931 544.012 944.5 530.607 944.5 520C954.667 520.5 976 525.9 980 543.5C989.667 534.5 1014.4 519.5 1036 531.5C1033.67 540.543 1026.12 556.884 1012.61 561.969C1025.46 560.569 1043.47 560.947 1054 569C1048 577.833 1030.4 594.5 1008 590.5L940.5 593.5Z" fill="#089E8B"/>
<path d="M224.94 463.554L185.2 464.703C179.566 464.865 174.911 460.343 174.911 454.707V342.179L127.018 342.265C121.488 342.275 117 337.795 117 332.265V286.41C117 280.887 121.477 276.41 127 276.41H141.5C147.023 276.41 151.5 280.887 151.5 286.41V306.062C151.5 310.238 154.885 313.624 159.062 313.624H174.911V203C174.911 197.477 179.388 193 184.911 193H224.651C230.174 193 234.651 197.477 234.651 203V282.074H245.014H248.5C254.023 282.074 258.5 277.597 258.5 272.074V241.925C258.5 236.402 262.977 231.925 268.5 231.925H285C290.523 231.925 295 236.402 295 241.925V303.316C295 308.958 290.336 313.482 284.697 313.311L234.651 311.794V453.558C234.651 458.969 230.348 463.398 224.94 463.554Z" fill="#089E8B"/>
<path d="M226.5 482.659L221 453.483C221 453.483 237 451.483 240.5 453.483C244 455.483 249.5 474.5 252 477.714C254.5 480.928 272 485.5 274 487.5C276 489.5 280 497 280 497H242.5L240.5 488.593L226.5 482.659Z" fill="#00917F"/>
</g>
<defs>
<clipPath id="clip0">
<rect width="1440" height="690" fill="white"/>
</clipPath>
</defs>
</svg>
