<svg width="320" height="568" viewBox="0 0 320 568" fill="none" xmlns="http://www.w3.org/2000/svg">
<g clip-path="url(#clip0)">
<rect width="320" height="570" fill="#222222"/>
<g opacity="0.7">
<rect x="-49" y="213.977" width="796.418" height="381.617" fill="#222222"/>
<circle cx="356.398" cy="443.5" r="333.5" fill="#262626"/>
<circle cx="356.399" cy="443.5" r="240.585" fill="#292929"/>
<circle cx="356.399" cy="443.5" r="126.653" fill="#2E2E2E"/>
</g>
<g opacity="0.7">
<path d="M747.418 606.102H-49V439.352C57.3367 449.828 275.782 468.672 376.033 468.371L404.239 338.417L457.61 309.104L511.534 319.613L548.867 387.087L556.886 464.655C563.872 464.677 570.888 464.71 577.903 464.754V387.087L605.556 352.244L640.676 369.665L656.438 410.316V441.564L666.67 465.809C698.067 466.342 726.195 466.98 747.418 467.558V606.102Z" fill="#004B44"/>
<path d="M217.741 470.761L225.613 470.989C228.728 471.079 231.303 468.578 231.303 465.46V432.194L244.116 432.217C247.174 432.223 249.657 429.745 249.657 426.687V416.356C249.657 413.581 247.408 411.333 244.634 411.333C241.859 411.333 239.611 413.581 239.611 416.356V419.852C239.611 421.666 238.14 423.137 236.326 423.137H231.303V390.405C231.303 387.351 228.827 384.875 225.772 384.875H217.901C214.846 384.875 212.37 387.351 212.37 390.405V413.129H209.086C206.205 413.129 203.87 410.794 203.87 407.913V402.535C203.87 399.6 201.491 397.222 198.557 397.222C195.622 397.222 193.244 399.6 193.244 402.535V417.436C193.244 420.556 195.823 423.058 198.942 422.964L212.37 422.556V465.233C212.37 468.225 214.75 470.675 217.741 470.761Z" fill="#004B44"/>
<path d="M-49 606.102H747.418V500.466C728.706 487.377 690.728 475.965 617.723 470.877C526.467 464.517 519.001 428.844 447.379 449.86C375.756 470.877 331.234 511.527 270.673 514.016C210.112 516.505 145.677 454.303 97.2865 470.877C6.85987 501.849 7.1364 452.349 -49 500.189V606.102Z" fill="#076E64"/>
<path d="M549.339 474.971L564.636 475.413C567.752 475.503 570.326 473.002 570.326 469.885V421.385L590.337 421.421C593.395 421.426 595.877 418.948 595.877 415.89V397.896C595.877 394.842 593.401 392.365 590.347 392.365H587.422C584.368 392.365 581.891 394.842 581.891 397.896V404.213C581.891 406.738 579.844 408.785 577.319 408.785H570.326V361.093C570.326 358.038 567.85 355.562 564.796 355.562H549.499C546.445 355.562 543.968 358.038 543.968 361.093V394.865H537.665C534.61 394.865 532.134 392.389 532.134 389.334V378.268C532.134 375.213 529.658 372.737 526.604 372.737H522.872C519.818 372.737 517.342 375.213 517.342 378.268V403.084C517.342 406.205 519.921 408.707 523.04 408.613L543.968 407.978V469.443C543.968 472.435 546.348 474.885 549.339 474.971Z" fill="#076E64"/>
<path d="M269.906 514.846C277.36 513.991 294.366 510.787 302.752 504.815C297.195 502.943 287.045 500.57 278.59 501.214C283.288 499.17 288.469 496.391 293.434 492.919C285.883 489.958 275.652 487.192 263.383 494.552C265.696 492.919 268.042 485.594 268.042 480.556C263.306 480.789 253.367 483.308 251.503 491.519C246.999 487.32 235.476 480.322 225.413 485.921C226.498 490.14 230.018 497.763 236.309 500.135C230.321 499.482 221.933 499.659 217.026 503.416C219.822 507.537 228.022 515.312 238.458 513.446L269.906 514.846Z" fill="#076E64"/>
<path d="M744.099 740.497H-45.6816C-47.5143 740.497 -49 739.012 -49 737.179V521.04C-49 520.101 -48.6091 519.206 -47.8986 518.591C-38.1842 510.18 -16.767 495.961 24.005 488.711L25.9705 483.515C26.1332 483.085 26.3835 482.693 26.7056 482.365L31.5346 477.443C32.0323 476.936 32.6799 476.602 33.3818 476.49L38.6957 475.644C39.8715 475.457 40.8569 474.655 41.2781 473.541L43.4089 467.907C43.883 466.653 45.0647 465.808 46.4043 465.764L82.2632 464.592C83.6478 464.546 84.9149 465.366 85.4412 466.648L89.5581 476.671C89.9021 477.509 90.5732 478.169 91.4161 478.5L101.564 482.48C102.199 482.729 102.743 483.169 103.12 483.738L105.859 487.88C167.875 500.209 220.952 543.124 291.413 547.288C350.207 550.762 416.164 535.747 478.627 535.658C506.358 535.618 533.4 538.52 558.822 547.288C622.697 569.317 706.154 565.215 743.601 559.994C745.616 559.713 747.418 561.27 747.418 563.304V737.179C747.418 739.012 745.932 740.497 744.099 740.497Z" fill="#089E8B"/>
<path d="M75.4069 470.354L53.4281 470.989C50.3123 471.079 47.7377 468.578 47.7377 465.46V403.225L21.2495 403.272C18.1912 403.278 15.709 400.8 15.709 397.742V372.381C15.709 369.326 18.1851 366.85 21.2396 366.85H29.2591C32.3136 366.85 34.7898 369.326 34.7898 372.381V383.25C34.7898 385.56 36.6622 387.432 38.9719 387.432H47.7377V326.249C47.7377 323.195 50.2138 320.719 53.2683 320.719H75.2471C78.3016 320.719 80.7778 323.195 80.7778 326.249V369.983H88.4374C91.4919 369.983 93.9681 367.507 93.9681 364.452V347.777C93.9681 344.723 96.4442 342.247 99.4987 342.247H108.624C111.679 342.247 114.155 344.723 114.155 347.777V381.731C114.155 384.851 111.575 387.354 108.457 387.259L80.7778 386.42V464.825C80.7778 467.818 78.3979 470.267 75.4069 470.354Z" fill="#089E8B"/>
<path d="M76.2704 480.92L73.2285 464.784C73.2285 464.784 82.0776 463.677 84.0133 464.784C85.9491 465.89 88.991 476.407 90.3736 478.185C91.7563 479.963 101.435 482.491 102.541 483.597C103.647 484.703 105.86 488.851 105.86 488.851H85.1195L84.0133 484.202L76.2704 480.92Z" fill="#00917F"/>
</g>
</g>
<defs>
<clipPath id="clip0">
<rect width="320" height="568" fill="white"/>
</clipPath>
</defs>
</svg>
