<svg width="725" height="486" viewBox="0 0 725 486" fill="none" xmlns="http://www.w3.org/2000/svg">
<g clip-path="url(#clip0)">
<rect width="725" height="486" fill="#222222"/>
<g opacity="0.7">
<rect x="25.8652" y="88.5391" width="698.933" height="324.953" fill="#222222"/>
<ellipse cx="381.641" cy="283.981" rx="292.678" ry="283.981" fill="#242424"/>
<ellipse cx="381.642" cy="283.982" rx="211.136" ry="204.862" fill="#272727"/>
<ellipse cx="381.642" cy="283.982" rx="111.15" ry="107.847" fill="#292929"/>
<path d="M480.426 185.24L444.537 351.581L652.198 358.245V280.673L637.678 249.484L622.062 194.836V155.117L583.434 133.524L520.424 155.117L480.426 185.24Z" fill="#003833"/>
<path d="M770 487H-19V384.902V326.256C86.3463 336.355 302.757 354.52 402.074 354.23L430.018 228.957L482.892 200.701L536.314 210.83L573.298 275.874L581.243 350.648C588.164 350.669 595.115 350.701 602.064 350.743V275.874L629.459 242.286L664.252 259.08L679.868 298.266V328.389L690.004 351.76C721.109 352.274 748.975 352.889 770 353.447V385.169V487Z" fill="#004B44"/>
<path d="M244.795 356.521L253.552 356.768C256.367 356.847 258.692 354.586 258.692 351.77V319.357L271.866 319.38C274.631 319.385 276.875 317.145 276.875 314.38V304.223C276.875 301.474 274.647 299.246 271.899 299.246C269.15 299.246 266.922 301.474 266.922 304.223V307.372C266.922 309.169 265.466 310.625 263.669 310.625H258.692V278.742C258.692 275.98 256.454 273.742 253.692 273.742H244.936C242.174 273.742 239.936 275.98 239.936 278.742V300.978H236.682H236.514C233.753 300.978 231.514 298.74 231.514 295.978V290.644C231.514 287.882 229.276 285.644 226.514 285.644H225.987C223.226 285.644 220.987 287.882 220.987 290.644V305.476C220.987 308.295 223.317 310.557 226.135 310.473L239.936 310.066V351.523C239.936 354.23 242.089 356.445 244.795 356.521Z" fill="#004B44"/>
<path d="M-19 487H770V385.169C751.462 372.551 713.839 361.551 641.514 356.646C551.107 350.515 543.71 316.127 472.755 336.386C401.8 356.646 357.693 395.832 297.696 398.231C237.699 400.63 173.863 340.669 125.924 356.646C36.3396 386.502 36.6135 338.785 -19 384.902V487Z" fill="#076E64"/>
<path d="M573.305 360.58L589.418 361.033C592.233 361.112 594.558 358.851 594.558 356.035V308.937L614.862 308.972C617.627 308.977 619.871 306.737 619.871 303.972V285.963C619.871 283.201 617.633 280.963 614.871 280.963H611.016C608.254 280.963 606.016 283.201 606.016 285.963V292.261C606.016 294.763 603.988 296.791 601.486 296.791H594.558V250.485C594.558 247.723 592.32 245.485 589.558 245.485H573.446C570.684 245.485 568.446 247.723 568.446 250.485V283.372H563.916H561.722C558.96 283.372 556.722 281.133 556.722 278.372V267.041C556.722 264.28 554.483 262.041 551.722 262.041H547.067C544.305 262.041 542.067 264.28 542.067 267.041V291.641C542.067 294.46 544.396 296.722 547.214 296.639L568.446 296.013V355.582C568.446 358.288 570.6 360.504 573.305 360.58Z" fill="#076E64"/>
<path d="M296.935 399.031C304.32 398.206 321.167 395.118 329.475 389.361C321.243 386.663 302.843 382.885 295.088 389.361C299.319 385.164 310.274 376.994 320.243 377.893C313.043 374.013 297.073 368.898 290.557 379.332C292.12 376.774 295.088 370.746 295.088 365.976C290.396 366.2 280.549 368.629 278.703 376.544C274.241 372.497 262.825 365.751 252.856 371.147C253.931 375.214 257.418 382.563 263.651 384.85C257.719 384.22 249.408 384.391 244.548 388.012C247.317 391.985 255.44 399.48 265.779 397.681L296.935 399.031Z" fill="#076E64"/>
<path d="M764 486.5H-13C-16.3137 486.5 -19 483.814 -19 480.5V408.597C-19 406.918 -18.3069 405.309 -17.0307 404.216C-7.02211 395.651 14.119 381.917 53.325 374.812L55.0815 370.08C55.3685 369.307 55.8119 368.601 56.384 368.007L60.1564 364.089C61.0569 363.153 62.2366 362.535 63.5183 362.327L66.3135 361.874C68.4453 361.528 70.2268 360.064 70.9782 358.039L71.923 355.493C72.7704 353.21 74.9141 351.665 77.3483 351.584L104.281 350.687L109.126 350.525C111.646 350.441 113.949 351.941 114.891 354.279L117.843 361.603C118.455 363.122 119.661 364.324 121.181 364.932L129.36 368.201C130.511 368.661 131.491 369.466 132.166 370.506L134.417 373.973C195.855 386.42 248.438 429.748 318.243 433.952C376.489 437.459 441.831 422.3 503.712 422.21C531.185 422.17 557.976 425.1 583.16 433.952C644.703 455.582 724.592 452.259 763.059 447.211C766.714 446.731 770 449.547 770 453.233V480.5C770 483.814 767.314 486.5 764 486.5Z" fill="#089E8B"/>
<path d="M496.316 425.421C487.549 424.444 467.55 420.783 457.688 413.959C467.459 410.76 489.302 406.282 498.507 413.959C493.485 408.983 480.481 399.297 468.646 400.364C477.193 395.763 496.152 389.7 503.887 402.069C502.031 399.037 498.507 391.891 498.507 386.235C504.078 386.502 515.767 389.381 517.958 398.764C523.255 393.966 536.807 385.969 548.642 392.367C547.365 397.188 543.226 405.9 535.827 408.611C542.869 407.864 552.734 408.066 558.504 412.359C555.217 417.069 545.573 425.955 533.3 423.822L496.316 425.421Z" fill="#089E8B"/>
<path d="M104.709 356.129L81.9764 356.768C79.161 356.847 76.8358 354.586 76.8358 351.77V291.431L50.1142 291.478C47.3494 291.482 45.1055 289.242 45.1055 286.478V261.367C45.1055 258.605 47.344 256.367 50.1055 256.367H59.0086C61.77 256.367 64.0086 258.605 64.0086 261.367V272.064C64.0086 274.352 65.8635 276.207 68.1517 276.207H76.8358V216.897C76.8358 214.136 79.0744 211.897 81.8358 211.897H104.568C107.33 211.897 109.568 214.136 109.568 216.897V259.387H115.246H117.636C120.397 259.387 122.636 257.148 122.636 254.387V237.649C122.636 234.888 124.874 232.649 127.636 232.649H137.635C140.396 232.649 142.635 234.888 142.635 237.649V271.057C142.635 273.876 140.305 276.138 137.487 276.055L109.568 275.231V351.131C109.568 353.837 107.414 356.053 104.709 356.129Z" fill="#089E8B"/>
<path d="M105.103 366.327L102.09 350.772C102.09 350.772 110.857 349.706 112.774 350.772C114.692 351.839 117.705 361.977 119.075 363.691C120.445 365.405 130.034 367.842 131.129 368.908C132.225 369.974 134.417 373.973 134.417 373.973H113.87L112.774 369.491L105.103 366.327Z" fill="#00917F"/>
</g>
</g>
<defs>
<clipPath id="clip0">
<rect width="725" height="486" fill="white"/>
</clipPath>
</defs>
</svg>
