<svg width="1440" height="690" viewBox="0 0 1440 690" fill="none" xmlns="http://www.w3.org/2000/svg">
<g clip-path="url(#clip0)">
<rect width="1440" height="690" fill="#222222"/>
<rect width="1440" height="690" fill="#222222"/>
<circle cx="733" cy="415" r="603" fill="#242424"/>
<circle cx="733" cy="415" r="435" fill="#272727"/>
<circle cx="733" cy="415" r="229" fill="#292929"/>
<g opacity="0.7">
<path d="M984.5 86.5L911.5 143L1066 213L984.5 86.5Z" fill="#017C70"/>
<path d="M885 267.5L911.5 143L1066 213L885 267.5Z" fill="#003833"/>
<path d="M1099.5 46L984.5 86.5L1066 213L1099.5 46Z" fill="#024741"/>
<path d="M1066 213L1099.5 46L1170 86.5L1066 213Z" fill="#013D37"/>
<path d="M1170 162.5V86.5L1066 213L1170 162.5Z" fill="#024741"/>
<path d="M1066 213L1170 162.5L1227 357L1066 213Z" fill="#01685E"/>
<path d="M1066 213L885 267.5L1096 453L1066 213Z" fill="#003833"/>
<path d="M1066 213L1227 357L1096 453L1066 213Z" fill="#024741"/>
<path d="M1183.5 250L1133.5 313L1158.5 351.75L1183.5 250Z" fill="#024741"/>
<path d="M1247 281.5L1183.5 250L1158.5 351.75L1247 281.5Z" fill="#01685E"/>
<path d="M1133.5 313V453.5L1158.5 351.75L1133.5 313Z" fill="#017C70"/>
<path d="M1275.5 355L1247 281.5L1217 353.5L1275.5 355Z" fill="#004B44"/>
<path d="M1275.5 411V355L1217 353.375L1275.5 411Z" fill="#013D37"/>
<path d="M1217 353.375L1275.5 411L1246 461L1217 353.375Z" fill="#017C70"/>
<path d="M1158.5 351.75L1217 353.375L1247 281.5L1158.5 351.75Z" fill="#024741"/>
<path d="M1294 455.5L1275.5 411L1246 461L1294 455.5Z" fill="#004B44"/>
<path d="M1169.5 461H1246L1217 353.375L1169.5 461Z" fill="#01685E"/>
<path d="M1169.5 461L1217 353.5L1158.5 351.5L1169.5 461Z" fill="#004B44"/>
<path d="M1169.5 461L1133.5 453.5L1158.5 351.75L1169.5 461Z" fill="#013D37"/>
<path d="M819.5 225.5L768.5 460L938.5 329L819.5 225.5Z" fill="#024741"/>
<path d="M916 172L819.5 225.5L938.5 329L916 172Z" fill="#004B44"/>
<path d="M938.5 329L916 172L1013.5 190.5L938.5 329Z" fill="#017C70"/>
<path d="M1081 315L1013.5 190.5L938.5 329L1081 315Z" fill="#004B44"/>
<path d="M938.5 329L1081 315L1095 454L938.5 329Z" fill="#013D37"/>
<path d="M1095 454L938.5 329L768.5 460L1095 454Z" fill="#01685E"/>
<path d="M175 424V455L139 445.5L175 424Z" fill="#01685E"/>
<path d="M347 467.5L295 459L328.5 436L347 467.5Z" fill="#02897C"/>
<path d="M400.5 488.5L347 467.5L372.5 464.5L400.5 488.5Z" fill="#004B44"/>
<path d="M474 520.5L400.5 488.5L450.5 477L474 520.5Z" fill="#02897C"/>
<path d="M547.5 539L474 520.5L486 480L547.5 539Z" fill="#017C70"/>
<path d="M1310 476L1224 482L1246 461L1310 476Z" fill="#004B44"/>
<path d="M30.5 494.5L0 517.5V440L30.5 494.5Z" fill="#01685E"/>
<path d="M0 408V440L72 414L0 408Z" fill="#01685E"/>
<path d="M72.5 478.5L30.5 494.5L52 445.5L72.5 478.5Z" fill="#02897C"/>
<path d="M52 445.5L0 440L30.5 494.5L52 445.5Z" fill="#024741"/>
<path d="M0 440L72 414L52 445.5L0 440Z" fill="#017C70"/>
<path d="M92 456.5L72.5 478.5L52 445.5L92 456.5Z" fill="#004B44"/>
<path d="M99 478.5H72.5L92 456.5L99 478.5Z" fill="#013D37"/>
<path d="M72 414L52 445.5L92 456.5L72 414Z" fill="#024741"/>
<path d="M72 414L102 417L92 456.5L72 414Z" fill="#01685E"/>
<path d="M141 483.5L99 478.5L92 456.5L141 483.5Z" fill="#017C70"/>
<path d="M102 417L92 456.5L139 445.5L102 417Z" fill="#02897C"/>
<path d="M175 455L141 483.5L139 445.5L175 455Z" fill="#013D37"/>
<path d="M175 424L139 445.5L102 417L175 424Z" fill="#024741"/>
<path d="M234.5 452.5V429L242 455L234.5 452.5Z" fill="#013D37"/>
<path d="M248.5 470.5L242 455L295 459L248.5 470.5Z" fill="#024741"/>
<path d="M285 432.5L242 455L234.5 429L285 432.5Z" fill="#004B44"/>
<path d="M285 432.5L295 459L328.5 436L285 432.5Z" fill="#017C70"/>
<path d="M347 467.5L328.5 436L372.5 464.5L347 467.5Z" fill="#01685E"/>
<path d="M356.5 438.5L372.5 464.5L328.5 436L356.5 438.5Z" fill="#004B44"/>
<path d="M408 442.5L356.5 438.5L372.5 464.5L408 442.5Z" fill="#024741"/>
<path d="M372.5 464.5L408 442.5L400.5 488.5L372.5 464.5Z" fill="#01685E"/>
<path d="M444 445L408 442.5L400.5 488.5L444 445Z" fill="#013D37"/>
<path d="M400.5 488.5L444 445L450.5 477L400.5 488.5Z" fill="#017C70"/>
<path d="M444 445L472.5 447L450.5 477L444 445Z" fill="#004B44"/>
<path d="M472.5 447L450.5 477L507 449.5L472.5 447Z" fill="#024741"/>
<path d="M474 520.5L450.5 477L486 480L474 520.5Z" fill="#013D37"/>
<path d="M507 449.5L486 480L547.5 539L507 449.5Z" fill="#004B44"/>
<path d="M599 541L547.5 539L572 483L599 541Z" fill="#013D37"/>
<path d="M572 483L507 449.5L606 455L572 483Z" fill="#01685E"/>
<path d="M705 513L599 541L642.5 483L705 513Z" fill="#004B44"/>
<path d="M705 513L671 457.5L642.5 483L705 513Z" fill="#01685E"/>
<path d="M714.5 459L705 513L671 457.5L714.5 459Z" fill="#013D37"/>
<path d="M642.5 483H572L606 455L642.5 483Z" fill="#02897C"/>
<path d="M642.5 483L671 457.5L606 455L642.5 483Z" fill="#024741"/>
<path d="M790 472L705 513L714.5 459L790 472Z" fill="#017C70"/>
<path d="M714.5 459L790 472L817 461L714.5 459Z" fill="#013D37"/>
<path d="M1440 518L1373 489.5L1440 459V518Z" fill="#004B44"/>
<path d="M1440 459L1366 456.5L1373 489.5L1440 459Z" fill="#02897C"/>
<path d="M1373 489.5L1310 476L1366 456.5L1373 489.5Z" fill="#017C70"/>
<path d="M1294 455.5L1366 456.5L1310 476L1294 455.5Z" fill="#013D37"/>
<path d="M1224 482L1169.5 461H1246L1224 482Z" fill="#02897C"/>
<path d="M1310 476L1294 455.5L1246 461L1310 476Z" fill="#01685E"/>
<path d="M506.5 449.5H472.5L506.5 415.5V449.5Z" fill="#004B44"/>
<path d="M472.5 394.5V449.5L506.5 415.5L472.5 394.5Z" fill="#01685E"/>
<path d="M506.5 377.5V334.5L489.5 386L506.5 377.5Z" fill="#024741"/>
<path d="M506.5 319V334.5L489.5 345L506.5 319Z" fill="#013D37"/>
<path d="M489.5 386L472.5 355L506.5 334.5L489.5 386Z" fill="#01685E"/>
<path d="M498.5 309L506.5 319L480 309H498.5Z" fill="#004B44"/>
<path d="M472.5 320L480 309L489.5 345L472.5 320Z" fill="#01685E"/>
<path d="M489.5 345L506.5 319L480 309L489.5 345Z" fill="#017C70"/>
<path d="M489.5 345L472.5 320V355L489.5 345Z" fill="#013D37"/>
<path d="M506.5 415.5L472.5 394.5L506.5 377.5V415.5Z" fill="#013D37"/>
<path d="M532 394.5H506.5L540 383L532 394.5Z" fill="#013D37"/>
<path d="M522.5 377.5H506.5V394.5L522.5 377.5Z" fill="#004B44"/>
<path d="M522.5 363V377.5L530 357L522.5 363Z" fill="#01685E"/>
<path d="M522.5 377.5L530 357L540 383L522.5 377.5Z" fill="#02897C"/>
<path d="M539.5 362L530 357L540 383L539.5 362Z" fill="#024741"/>
<path d="M506.5 394.5L540 383L522.5 377.5L506.5 394.5Z" fill="#01685E"/>
<path d="M472.5 355V377.25V394.5L489.5 386L472.5 355Z" fill="#02897C"/>
<path d="M458 360H472.5V377.25L458 360Z" fill="#004B44"/>
<path d="M446.5 378L472.5 377.25L458 360L446.5 378Z" fill="#01685E"/>
<path d="M438 368L446.5 378L438 339V368Z" fill="#013D37"/>
<path d="M457 339.5L458 360L448.5 331.5L457 339.5Z" fill="#02897C"/>
<path d="M438 339L448.5 331.5L458 360L438 339Z" fill="#024741"/>
<path d="M458 360L446.5 378L438 339L458 360Z" fill="#01685E"/>
<path d="M139 445.5L141 483.5L92 456.5L139 445.5Z" fill="#004B44"/>
<path d="M295 459L242 455L285 432.5L295 459Z" fill="#01685E"/>
<path d="M486 480L450.5 477L507 449.5L486 480Z" fill="#01685E"/>
<path d="M572 483L547.5 539L507 449.5L572 483Z" fill="#024741"/>
<path d="M599 541L642.5 483H572L599 541Z" fill="#017C70"/>
<g opacity="0.65" filter="url(#filter0_f)">
<path d="M984.5 86.5L911.5 143L1066 213L984.5 86.5Z" fill="#222222"/>
<path d="M885 267.5L911.5 143L1066 213L885 267.5Z" fill="#222222"/>
<path d="M1099.5 46L984.5 86.5L1066 213L1099.5 46Z" fill="#222222"/>
<path d="M1066 213L1099.5 46L1170 86.5L1066 213Z" fill="#222222"/>
<path d="M1170 162.5V86.5L1066 213L1170 162.5Z" fill="#222222"/>
<path d="M1066 213L1170 162.5L1227 357L1066 213Z" fill="#222222"/>
<path d="M1066 213L885 267.5L1096 453L1066 213Z" fill="#222222"/>
<path d="M1066 213L1227 357L1096 453L1066 213Z" fill="#222222"/>
<path d="M1203.5 458L1096 453L1161.5 405L1203.5 458Z" fill="#222222"/>
<path d="M1183.5 250L1133.5 313L1158.5 351.75L1183.5 250Z" fill="#222222"/>
<path d="M1247 281.5L1183.5 250L1158.5 351.75L1247 281.5Z" fill="#222222"/>
<path d="M1133.5 313V453.5L1158.5 351.75L1133.5 313Z" fill="#222222"/>
<path d="M1275.5 355L1247 281.5L1217 353.5L1275.5 355Z" fill="#222222"/>
<path d="M1275.5 411V355L1217 353.375L1275.5 411Z" fill="#222222"/>
<path d="M1217 353.375L1275.5 411L1246 461L1217 353.375Z" fill="#222222"/>
<path d="M1158.5 351.75L1217 353.375L1247 281.5L1158.5 351.75Z" fill="#222222"/>
<path d="M1294 455.5L1275.5 411L1246 461L1294 455.5Z" fill="#222222"/>
<path d="M1169.5 461H1246L1217 353.375L1169.5 461Z" fill="#222222"/>
<path d="M1169.5 461L1217 353.5L1158.5 351.5L1169.5 461Z" fill="#222222"/>
<path d="M1169.5 461L1133.5 453.5L1158.5 351.75L1169.5 461Z" fill="#222222"/>
<path d="M819.5 225.5L768.5 460L938.5 329L819.5 225.5Z" fill="#222222"/>
<path d="M916 172L819.5 225.5L938.5 329L916 172Z" fill="#222222"/>
<path d="M938.5 329L916 172L1013.5 190.5L938.5 329Z" fill="#222222"/>
<path d="M1081 315L1013.5 190.5L938.5 329L1081 315Z" fill="#222222"/>
<path d="M938.5 329L1081 315L1095 454L938.5 329Z" fill="#222222"/>
<path d="M1095 454L938.5 329L768.5 460L1095 454Z" fill="#222222"/>
<path d="M175 424V455L139 445.5L175 424Z" fill="#222222"/>
<path d="M347 467.5L295 459L328.5 436L347 467.5Z" fill="#222222"/>
<path d="M400.5 488.5L347 467.5L372.5 464.5L400.5 488.5Z" fill="#222222"/>
<path d="M474 520.5L400.5 488.5L450.5 477L474 520.5Z" fill="#222222"/>
<path d="M547.5 539L474 520.5L486 480L547.5 539Z" fill="#222222"/>
<path d="M1310 476L1224 482L1246 461L1310 476Z" fill="#222222"/>
<path d="M30.5 494.5L0 517.5V440L30.5 494.5Z" fill="#222222"/>
<path d="M0 408V440L72 414L0 408Z" fill="#222222"/>
<path d="M72.5 478.5L30.5 494.5L52 445.5L72.5 478.5Z" fill="#222222"/>
<path d="M52 445.5L0 440L30.5 494.5L52 445.5Z" fill="#222222"/>
<path d="M0 440L72 414L52 445.5L0 440Z" fill="#222222"/>
<path d="M92 456.5L72.5 478.5L52 445.5L92 456.5Z" fill="#222222"/>
<path d="M99 478.5H72.5L92 456.5L99 478.5Z" fill="#222222"/>
<path d="M72 414L52 445.5L92 456.5L72 414Z" fill="#222222"/>
<path d="M72 414L102 417L92 456.5L72 414Z" fill="#222222"/>
<path d="M141 483.5L99 478.5L92 456.5L141 483.5Z" fill="#222222"/>
<path d="M102 417L92 456.5L139 445.5L102 417Z" fill="#222222"/>
<path d="M175 455L141 483.5L139 445.5L175 455Z" fill="#222222"/>
<path d="M175 424L139 445.5L102 417L175 424Z" fill="#222222"/>
<path d="M234.5 452.5V429L242 455L234.5 452.5Z" fill="#222222"/>
<path d="M248.5 470.5L242 455L295 459L248.5 470.5Z" fill="#222222"/>
<path d="M285 432.5L242 455L234.5 429L285 432.5Z" fill="#222222"/>
<path d="M285 432.5L295 459L328.5 436L285 432.5Z" fill="#222222"/>
<path d="M347 467.5L328.5 436L372.5 464.5L347 467.5Z" fill="#222222"/>
<path d="M356.5 438.5L372.5 464.5L328.5 436L356.5 438.5Z" fill="#222222"/>
<path d="M408 442.5L356.5 438.5L372.5 464.5L408 442.5Z" fill="#222222"/>
<path d="M372.5 464.5L408 442.5L400.5 488.5L372.5 464.5Z" fill="#222222"/>
<path d="M444 445L408 442.5L400.5 488.5L444 445Z" fill="#222222"/>
<path d="M400.5 488.5L444 445L450.5 477L400.5 488.5Z" fill="#222222"/>
<path d="M444 445L472.5 447L450.5 477L444 445Z" fill="#222222"/>
<path d="M472.5 447L450.5 477L507 449.5L472.5 447Z" fill="#222222"/>
<path d="M474 520.5L450.5 477L486 480L474 520.5Z" fill="#222222"/>
<path d="M507 449.5L486 480L547.5 539L507 449.5Z" fill="#222222"/>
<path d="M599 541L547.5 539L572 483L599 541Z" fill="#222222"/>
<path d="M572 483L507 449.5L606 455L572 483Z" fill="#222222"/>
<path d="M705 513L599 541L642.5 483L705 513Z" fill="#222222"/>
<path d="M705 513L671 457.5L642.5 483L705 513Z" fill="#222222"/>
<path d="M714.5 459L705 513L671 457.5L714.5 459Z" fill="#222222"/>
<path d="M642.5 483H572L606 455L642.5 483Z" fill="#222222"/>
<path d="M642.5 483L671 457.5L606 455L642.5 483Z" fill="#222222"/>
<path d="M790 472L705 513L714.5 459L790 472Z" fill="#222222"/>
<path d="M714.5 459L790 472L817 461L714.5 459Z" fill="#222222"/>
<path d="M1440 518L1373 489.5L1440 459V518Z" fill="#222222"/>
<path d="M1440 459L1366 456.5L1373 489.5L1440 459Z" fill="#222222"/>
<path d="M1373 489.5L1310 476L1366 456.5L1373 489.5Z" fill="#222222"/>
<path d="M1294 455.5L1366 456.5L1310 476L1294 455.5Z" fill="#222222"/>
<path d="M1224 482L1169.5 461H1246L1224 482Z" fill="#222222"/>
<path d="M1310 476L1294 455.5L1246 461L1310 476Z" fill="#222222"/>
<path d="M506.5 449.5H472.5L506.5 415.5V449.5Z" fill="#222222"/>
<path d="M472.5 394.5V449.5L506.5 415.5L472.5 394.5Z" fill="#222222"/>
<path d="M506.5 377.5V334.5L489.5 386L506.5 377.5Z" fill="#222222"/>
<path d="M506.5 319V334.5L489.5 345L506.5 319Z" fill="#222222"/>
<path d="M489.5 386L472.5 355L506.5 334.5L489.5 386Z" fill="#222222"/>
<path d="M498.5 309L506.5 319L480 309H498.5Z" fill="#222222"/>
<path d="M472.5 320L480 309L489.5 345L472.5 320Z" fill="#222222"/>
<path d="M489.5 345L506.5 319L480 309L489.5 345Z" fill="#222222"/>
<path d="M489.5 345L472.5 320V355L489.5 345Z" fill="#222222"/>
<path d="M506.5 415.5L472.5 394.5L506.5 377.5V415.5Z" fill="#222222"/>
<path d="M532 394.5H506.5L540 383L532 394.5Z" fill="#222222"/>
<path d="M522.5 377.5H506.5V394.5L522.5 377.5Z" fill="#222222"/>
<path d="M522.5 363V377.5L530 357L522.5 363Z" fill="#222222"/>
<path d="M522.5 377.5L530 357L540 383L522.5 377.5Z" fill="#222222"/>
<path d="M539.5 362L530 357L540 383L539.5 362Z" fill="#222222"/>
<path d="M506.5 394.5L540 383L522.5 377.5L506.5 394.5Z" fill="#222222"/>
<path d="M472.5 355V377.25V394.5L489.5 386L472.5 355Z" fill="#222222"/>
<path d="M458 360H472.5V377.25L458 360Z" fill="#222222"/>
<path d="M446.5 378L472.5 377.25L458 360L446.5 378Z" fill="#222222"/>
<path d="M438 368L446.5 378L438 339V368Z" fill="#222222"/>
<path d="M457 339.5L458 360L448.5 331.5L457 339.5Z" fill="#222222"/>
<path d="M438 339L448.5 331.5L458 360L438 339Z" fill="#222222"/>
<path d="M458 360L446.5 378L438 339L458 360Z" fill="#222222"/>
<path d="M139 445.5L141 483.5L92 456.5L139 445.5Z" fill="#222222"/>
<path d="M295 459L242 455L285 432.5L295 459Z" fill="#222222"/>
<path d="M486 480L450.5 477L507 449.5L486 480Z" fill="#222222"/>
<path d="M572 483L547.5 539L507 449.5L572 483Z" fill="#222222"/>
<path d="M599 541L642.5 483H572L599 541Z" fill="#222222"/>
</g>
<path d="M1120 452L1072 471.5V421L1120 452Z" fill="#098277"/>
<path d="M1120 409.5V452L1085.5 429.719L1120 409.5Z" fill="#077368"/>
<path d="M1120 409.5L1072 421L1085 430L1120 409.5Z" fill="#07665D"/>
<path d="M1072 385V421L1120 409.5L1072 385Z" fill="#085A53"/>
<path d="M1072 351V385L1104.5 351H1072Z" fill="#00887B"/>
<path d="M1120 409.5L1072 385L1104.5 351L1120 409.5Z" fill="#099083"/>
<path d="M1120 333.5L1104.5 351L1072 318L1120 333.5Z" fill="#07665D"/>
<path d="M1120 333.5V296L1072 318L1120 333.5Z" fill="#099083"/>
<path d="M1120 296L1072 318V290.5L1120 296Z" fill="#085A53"/>
<path d="M1120 296V272.5L1072 290.5L1120 296Z" fill="#00887B"/>
<path d="M1112 256L1120 272.5L1096 281.5L1112 256Z" fill="#07665D"/>
<path d="M1085 256H1112L1096 281.5L1085 256Z" fill="#099083"/>
<path d="M1096 281.5L1085 256L1072 269.5L1096 281.5Z" fill="#077368"/>
<path d="M1096 281.5L1072 290.5V269.5L1096 281.5Z" fill="#098277"/>
<path d="M1120 333.5L1104.5 351L1120 409.5V333.5Z" fill="#098277"/>
<path d="M1152.5 375H1120L1136.5 362.5L1152.5 375Z" fill="#077368"/>
<path d="M1136.39 362.5L1152.5 375L1166.5 364L1136.39 362.5Z" fill="#07665D"/>
<path d="M1166.5 364L1149.5 352.5L1166.5 336V364Z" fill="#099083"/>
<path d="M1120 375V352.5H1149.5L1120 375Z" fill="#099083"/>
<path d="M1166.5 364L1136.5 362.5L1149.5 352.5L1166.5 364Z" fill="#085A53"/>
<path d="M1141.5 332V352.5H1149.5L1141.5 332Z" fill="#098277"/>
<path d="M1148 323L1141.5 332L1149.5 352.5L1148 323Z" fill="#07665D"/>
<path d="M1159.5 323L1166.5 336L1149.5 352.5L1159.5 323Z" fill="#085A53"/>
<path d="M1149.5 352.5L1148 323H1159.5L1149.5 352.5Z" fill="#099083"/>
<path d="M1072 318V351H1104.5L1072 318Z" fill="#077368"/>
<path d="M1072 327V351L1052 327H1072Z" fill="#098277"/>
<path d="M1032 351H1072L1052 327L1032 351Z" fill="#077368"/>
<path d="M1052 327L1032 351L1024 335.5L1052 327Z" fill="#085A53"/>
<path d="M1024 307.5V335.5L1052 327L1024 307.5Z" fill="#07665D"/>
<path d="M1050 300.5L1052 327L1036.5 316.206L1050 300.5Z" fill="#099083"/>
<path d="M1045 288L1050 300.5L1036.5 316.205L1045 288Z" fill="#098277"/>
<path d="M1024 297.5V307.5L1036.5 316L1024 297.5Z" fill="#00887B"/>
<path d="M1045 288L1032 287L1036.5 316L1045 288Z" fill="#077368"/>
<path d="M1036.5 316.205L1024 297.5L1032 287L1036.5 316.205Z" fill="#099083"/>
<path d="M39 529.5L78 512.5L72.5 478.5L39 529.5Z" fill="#099083"/>
<path d="M72.5 478.5L75.5 496L99 478.5H72.5Z" fill="#085A53"/>
<path d="M128.5 499.5L78 512.5L99 478.5L128.5 499.5Z" fill="#077368"/>
<path d="M243.5 471.5L280 497L295 459L243.5 471.5Z" fill="#098277"/>
<path d="M305 483L347 467.5L295 459L305 483Z" fill="#099083"/>
<path d="M305 483L315.5 508L347 467.5L305 483Z" fill="#085A53"/>
<path d="M400.5 488.5L359 522L347 467.5L400.5 488.5Z" fill="#077368"/>
<path d="M476 573L474 520.5L420 549L476 573Z" fill="#085A53"/>
<path d="M656.5 538L712 605.5L608 563L656.5 538Z" fill="#099083"/>
<path d="M674 559.5L705 513L769 602.5L674 559.5Z" fill="#00887B"/>
<path d="M998 507L992 464.5L1045.5 454L998 507Z" fill="#099083"/>
<path d="M972 468.5L992 464.5L978 502.5L972 468.5Z" fill="#00887B"/>
<path d="M944.5 445L879 459.5L917 421L944.5 445Z" fill="#077368"/>
<path d="M1012 591L1081 603L1074 572L1012 591Z" fill="#077368"/>
<path d="M1054.5 578L1020 563.5L1074 572L1054.5 578Z" fill="#07665D"/>
<path d="M1061.5 523L1020 563.5L1074 572L1061.5 523Z" fill="#076B62"/>
<path d="M1051 477.5L999 548.5L1061.5 523L1051 477.5Z" fill="#098277"/>
<path d="M1036.5 547.5L1061.5 523L999 548.5L1036.5 547.5Z" fill="#07665D"/>
<path d="M977.5 517.5L999 548.5L1051 477.5L977.5 517.5Z" fill="#077368"/>
<path d="M1385.5 561.5L1440 632V518L1385.5 561.5Z" fill="#07665D"/>
<path d="M0 560L39 529.5L0 517.5V560Z" fill="#077368"/>
<path d="M1045.5 454L1061.5 522.762L1105 464L1045.5 454Z" fill="#097B70"/>
<path d="M1120 452L1169.5 461L1127 517L1120 452Z" fill="#076B62"/>
<path d="M1061.5 522.762L1102 546L1105 464L1061.5 522.762Z" fill="#08756B"/>
<path d="M1127 517L1120 452L1104.01 491L1127 517Z" fill="#08756B"/>
<path d="M1120 452L1106 447.5L1104 491L1120 452Z" fill="#085A53"/>
<path d="M998 417L1045.5 454L972 468.5L998 417Z" fill="#085A53"/>
<path d="M998 507L1045.5 454L1051 477.5L998 507Z" fill="#00887B"/>
<path d="M879 459.5L965 524L941 538.5L879 459.5Z" fill="#00887B"/>
<path d="M965 524L998 507L921 491L965 524Z" fill="#099083"/>
<path d="M941 495.156L972 468.5L978 502.844L941 495.156Z" fill="#00887B"/>
<path d="M992 464.554L998 507L978 502.844L992 464.554Z" fill="#085A53"/>
<path d="M1106 447.5L1105 464L1052.5 431.5L1106 447.5Z" fill="#098277"/>
<path d="M1105 464L1045.5 454L1052.5 431.5L1105 464Z" fill="#077368"/>
<path d="M1052.5 431.5L998 417L1045.5 454L1052.5 431.5Z" fill="#07665D"/>
<path d="M869 560L912.5 588.5L836.5 595.941L869 560Z" fill="#098277"/>
<path d="M769.5 602.5L836.5 595.94L803 541.5L769.5 602.5Z" fill="#07665D"/>
<path d="M608 563L628.5 610L712 605.559L608 563Z" fill="#085A53"/>
<path d="M628.5 610L579.5 605.5L599 541L628.5 610Z" fill="#00887B"/>
<path d="M476 572.718L505 585L526.25 562L476 572.718Z" fill="#098277"/>
<path d="M476 572.718L474 520.5L526.25 562L476 572.718Z" fill="#07665D"/>
<path d="M526.25 562L547.5 539L474 520.5L526.25 562Z" fill="#077368"/>
<path d="M579.5 605.5L505 585L547.5 539L579.5 605.5Z" fill="#077368"/>
<path d="M579.5 605.5L599 541L568.191 582L579.5 605.5Z" fill="#098277"/>
<path d="M547.5 539L599 541L568 582L547.5 539Z" fill="#07665D"/>
<path d="M39 529.5L29.0036 526.424L30.5 494.5L39 529.5Z" fill="#085A53"/>
<path d="M30.5 494.5L0 517.5L29 526.423L30.5 494.5Z" fill="#098277"/>
<path d="M72.5 478.5L30.5 494.5L39 529.5L72.5 478.5Z" fill="#00887B"/>
<path d="M141 483.5L99 478.5L128.5 499.5L141 483.5Z" fill="#098277"/>
<path d="M75.25 495.5L78 512.5L99 478.5L75.25 495.5Z" fill="#07665D"/>
<path d="M315.5 508.234L359 522L347 467.5L315.5 508.234Z" fill="#07665D"/>
<path d="M280 497L295 459L315.5 508.234L280 497Z" fill="#00887B"/>
<path d="M359 522L420 549L447 534.75L359 522Z" fill="#098277"/>
<path d="M474 520.5L447 534.75L400.5 488.5L474 520.5Z" fill="#099083"/>
<path d="M447 534.75L359 522L400.5 488.5L447 534.75Z" fill="#00887B"/>
<path d="M705 513L599 541L608 563L656.5 538L705 513Z" fill="#07665D"/>
<path d="M712 605.559L769.5 602.5L674 559.302L712 605.559Z" fill="#098277"/>
<path d="M656.5 538L705 513L674 559.302L656.5 538Z" fill="#077368"/>
<path d="M787 468.5L705 513L803 541.5L787 468.5Z" fill="#085A53"/>
<path d="M803 541.5L769.5 602.5L705 513L803 541.5Z" fill="#099083"/>
<path d="M869 560L879 459.5L915 560H869Z" fill="#00887B"/>
<path d="M803 541.5L869 560L879 459.5L803 541.5Z" fill="#099083"/>
<path d="M836.5 595.941L803 541.5L869 560L836.5 595.941Z" fill="#077368"/>
<path d="M803 541.5L787 468.5L917 421L879 459.5L803 541.5Z" fill="#07665D"/>
<path d="M879 459.5L941 538.5L905 532.5L879 459.5Z" fill="#085A53"/>
<path d="M944.5 444.75L972 468.5L941 495L944.5 444.75Z" fill="#077368"/>
<path d="M998 417L917 421L944.5 444.75L972 468.5L998 417Z" fill="#098277"/>
<path d="M944.5 444.75L941 495.156L921 491L944.5 444.75Z" fill="#098277"/>
<path d="M921 491L879 459.5L944.5 444.75L921 491Z" fill="#07665D"/>
<path d="M1395 638L1440 632L1385.5 561.5L1395 638Z" fill="#076E64"/>
<path d="M1305 640.5L1395 638L1387 574L1305 640.5Z" fill="#08756B"/>
<path d="M1373 489.5L1440 518L1410 542L1373 489.5Z" fill="#077369"/>
<path d="M1373 489.5L1410 542L1385.5 561.5L1373 489.5Z" fill="#076B62"/>
<path d="M1377 513L1387 574L1312 571L1377 513Z" fill="#07665D"/>
<path d="M1305 640.5L1236.5 638L1270 569L1305 640.5Z" fill="#07665D"/>
<path d="M1162 556.5L1165 627L1236.5 638L1162 556.5Z" fill="#077368"/>
<path d="M1165 627L1137.5 622.5L1163 581L1165 627Z" fill="#07665D"/>
<path d="M1137.5 622.5L1081 603L1163 581L1137.5 622.5Z" fill="#08756B"/>
<path d="M1310 476L1373 489.5L1285.5 539L1310 476Z" fill="#0A786E"/>
<path d="M1377 513L1373 489.5L1326 516L1377 513Z" fill="#07665D"/>
<path d="M1387 574L1305 640.5L1270 569L1387 574Z" fill="#076E64"/>
<path d="M1326 516L1377 513L1312 571L1326 516Z" fill="#098277"/>
<path d="M1312 571L1326 516L1234.81 567.443L1312 571Z" fill="#077368"/>
<path d="M1270 569L1236.5 638L1208.5 565.5L1270 569Z" fill="#08756B"/>
<path d="M1186 506L1236.5 638L1127 517L1186 506Z" fill="#076B62"/>
<path d="M1224 481.5L1208.5 565.5L1235.5 567L1224 481.5Z" fill="#085A53"/>
<path d="M1285.5 539L1235.5 567L1224 481.5L1285.5 539Z" fill="#07665D"/>
<path d="M1224 482L1285.5 539L1310 476L1224 482Z" fill="#076B62"/>
<path d="M1169.5 461L1208.5 565.5L1224 482L1169.5 461Z" fill="#097B70"/>
<path d="M1081 603L1163 581L1062 523L1081 603Z" fill="#097B70"/>
<path d="M1162 556.5L1163 581L1102 546L1162 556.5Z" fill="#077368"/>
<path d="M1104 491L1162 556.5L1102 546L1104 491Z" fill="#07665D"/>
<path d="M1169.5 461L1127 517L1186.5 506L1169.5 461Z" fill="#098277"/>
<g opacity="0.4" filter="url(#filter1_f)">
<path d="M1120 452L1072 471.5V421L1120 452Z" fill="#222222"/>
<path d="M1120 409.5V452L1085.5 429.719L1120 409.5Z" fill="#222222"/>
<path d="M1120 409.5L1072 421L1085 430L1120 409.5Z" fill="#222222"/>
<path d="M1072 385V421L1120 409.5L1072 385Z" fill="#222222"/>
<path d="M1072 351V385L1104.5 351H1072Z" fill="#222222"/>
<path d="M1120 409.5L1072 385L1104.5 351L1120 409.5Z" fill="#222222"/>
<path d="M1120 333.5L1104.5 351L1072 318L1120 333.5Z" fill="#222222"/>
<path d="M1120 333.5V296L1072 318L1120 333.5Z" fill="#222222"/>
<path d="M1120 296L1072 318V290.5L1120 296Z" fill="#222222"/>
<path d="M1120 296V272.5L1072 290.5L1120 296Z" fill="#222222"/>
<path d="M1112 256L1120 272.5L1096 281.5L1112 256Z" fill="#222222"/>
<path d="M1085 256H1112L1096 281.5L1085 256Z" fill="#222222"/>
<path d="M1096 281.5L1085 256L1072 269.5L1096 281.5Z" fill="#222222"/>
<path d="M1096 281.5L1072 290.5V269.5L1096 281.5Z" fill="#222222"/>
<path d="M1120 333.5L1104.5 351L1120 409.5V333.5Z" fill="#222222"/>
<path d="M1152.5 375H1120L1136.5 362.5L1152.5 375Z" fill="#222222"/>
<path d="M1136.39 362.5L1152.5 375L1166.5 364L1136.39 362.5Z" fill="#222222"/>
<path d="M1166.5 364L1149.5 352.5L1166.5 336V364Z" fill="#222222"/>
<path d="M1120 375V352.5H1149.5L1120 375Z" fill="#222222"/>
<path d="M1166.5 364L1136.5 362.5L1149.5 352.5L1166.5 364Z" fill="#222222"/>
<path d="M1141.5 332V352.5H1149.5L1141.5 332Z" fill="#222222"/>
<path d="M1148 323L1141.5 332L1149.5 352.5L1148 323Z" fill="#222222"/>
<path d="M1159.5 323L1166.5 336L1149.5 352.5L1159.5 323Z" fill="#222222"/>
<path d="M1149.5 352.5L1148 323H1159.5L1149.5 352.5Z" fill="#222222"/>
<path d="M1072 318V351H1104.5L1072 318Z" fill="#222222"/>
<path d="M1072 327V351L1052 327H1072Z" fill="#222222"/>
<path d="M1032 351H1072L1052 327L1032 351Z" fill="#222222"/>
<path d="M1052 327L1032 351L1024 335.5L1052 327Z" fill="#222222"/>
<path d="M1024 307.5V335.5L1052 327L1024 307.5Z" fill="#222222"/>
<path d="M1050 300.5L1052 327L1036.5 316.206L1050 300.5Z" fill="#222222"/>
<path d="M1045 288L1050 300.5L1036.5 316.206L1045 288Z" fill="#222222"/>
<path d="M1024 297.5V307.5L1036.5 316L1024 297.5Z" fill="#222222"/>
<path d="M1045 288L1032 287L1036.5 316L1045 288Z" fill="#222222"/>
<path d="M1036.5 316.206L1024 297.5L1032 287L1036.5 316.206Z" fill="#222222"/>
<path d="M39 529.5L78 512.5L72.5 478.5L39 529.5Z" fill="#222222"/>
<path d="M72.5 478.5L75.5 496L99 478.5H72.5Z" fill="#222222"/>
<path d="M128.5 499.5L78 512.5L99 478.5L128.5 499.5Z" fill="#222222"/>
<path d="M243.5 471.5L280 497L295 459L243.5 471.5Z" fill="#222222"/>
<path d="M305 483L347 467.5L295 459L305 483Z" fill="#222222"/>
<path d="M305 483L315.5 508L347 467.5L305 483Z" fill="#222222"/>
<path d="M400.5 488.5L359 522L347 467.5L400.5 488.5Z" fill="#222222"/>
<path d="M476 573L474 520.5L420 549L476 573Z" fill="#222222"/>
<path d="M656.5 538L712 605.5L608 563L656.5 538Z" fill="#222222"/>
<path d="M674 559.5L705 513L769 602.5L674 559.5Z" fill="#222222"/>
<path d="M998 507L992 464.5L1045.5 454L998 507Z" fill="#222222"/>
<path d="M972 468.5L992 464.5L978 502.5L972 468.5Z" fill="#222222"/>
<path d="M944.5 445L879 459.5L917 421L944.5 445Z" fill="#222222"/>
<path d="M1012 591L1081 603L1074 572L1012 591Z" fill="#222222"/>
<path d="M1054.5 578L1020 563.5L1074 572L1054.5 578Z" fill="#222222"/>
<path d="M1061.5 523L1020 563.5L1074 572L1061.5 523Z" fill="#222222"/>
<path d="M1051 477.5L999 548.5L1061.5 523L1051 477.5Z" fill="#222222"/>
<path d="M1036.5 547.5L1061.5 523L999 548.5L1036.5 547.5Z" fill="#222222"/>
<path d="M977.5 517.5L999 548.5L1051 477.5L977.5 517.5Z" fill="#222222"/>
<path d="M1385.5 561.5L1440 632V518L1385.5 561.5Z" fill="#222222"/>
<path d="M0 560L39 529.5L0 517.5V560Z" fill="#222222"/>
<path d="M1045.5 454L1061.5 522.762L1105 464L1045.5 454Z" fill="#222222"/>
<path d="M1120 452L1169.5 461L1127 517L1120 452Z" fill="#222222"/>
<path d="M1061.5 522.762L1102 546L1105 464L1061.5 522.762Z" fill="#222222"/>
<path d="M1127 517L1120 452L1104.01 491L1127 517Z" fill="#222222"/>
<path d="M1120 452L1106 447.5L1104 491L1120 452Z" fill="#222222"/>
<path d="M998 417L1045.5 454L972 468.5L998 417Z" fill="#222222"/>
<path d="M998 507L1045.5 454L1051 477.5L998 507Z" fill="#222222"/>
<path d="M879 459.5L965 524L941 538.5L879 459.5Z" fill="#222222"/>
<path d="M965 524L998 507L921 491L965 524Z" fill="#222222"/>
<path d="M941 495.156L972 468.5L978 502.844L941 495.156Z" fill="#222222"/>
<path d="M992 464.554L998 507L978 502.844L992 464.554Z" fill="#222222"/>
<path d="M1106 447.5L1105 464L1052.5 431.5L1106 447.5Z" fill="#222222"/>
<path d="M1105 464L1045.5 454L1052.5 431.5L1105 464Z" fill="#222222"/>
<path d="M1052.5 431.5L998 417L1045.5 454L1052.5 431.5Z" fill="#222222"/>
<path d="M869 560L912.5 588.5L836.5 595.941L869 560Z" fill="#222222"/>
<path d="M769.5 602.5L836.5 595.941L803 541.5L769.5 602.5Z" fill="#222222"/>
<path d="M608 563L628.5 610L712 605.559L608 563Z" fill="#222222"/>
<path d="M628.5 610L579.5 605.5L599 541L628.5 610Z" fill="#222222"/>
<path d="M476 572.718L505 585L526.25 562L476 572.718Z" fill="#222222"/>
<path d="M476 572.718L474 520.5L526.25 562L476 572.718Z" fill="#222222"/>
<path d="M526.25 562L547.5 539L474 520.5L526.25 562Z" fill="#222222"/>
<path d="M579.5 605.5L505 585L547.5 539L579.5 605.5Z" fill="#222222"/>
<path d="M579.5 605.5L599 541L568.191 582L579.5 605.5Z" fill="#222222"/>
<path d="M547.5 539L599 541L568 582L547.5 539Z" fill="#222222"/>
<path d="M39 529.5L29.0036 526.424L30.5 494.5L39 529.5Z" fill="#222222"/>
<path d="M30.5 494.5L0 517.5L29 526.423L30.5 494.5Z" fill="#222222"/>
<path d="M72.5 478.5L30.5 494.5L39 529.5L72.5 478.5Z" fill="#222222"/>
<path d="M141 483.5L99 478.5L128.5 499.5L141 483.5Z" fill="#222222"/>
<path d="M75.25 495.5L78 512.5L99 478.5L75.25 495.5Z" fill="#222222"/>
<path d="M315.5 508.234L359 522L347 467.5L315.5 508.234Z" fill="#222222"/>
<path d="M280 497L295 459L315.5 508.234L280 497Z" fill="#222222"/>
<path d="M359 522L420 549L447 534.75L359 522Z" fill="#222222"/>
<path d="M474 520.5L447 534.75L400.5 488.5L474 520.5Z" fill="#222222"/>
<path d="M447 534.75L359 522L400.5 488.5L447 534.75Z" fill="#222222"/>
<path d="M705 513L599 541L608 563L656.5 538L705 513Z" fill="#222222"/>
<path d="M712 605.559L769.5 602.5L674 559.302L712 605.559Z" fill="#222222"/>
<path d="M656.5 538L705 513L674 559.302L656.5 538Z" fill="#222222"/>
<path d="M787 468.5L705 513L803 541.5L787 468.5Z" fill="#222222"/>
<path d="M803 541.5L769.5 602.5L705 513L803 541.5Z" fill="#222222"/>
<path d="M869 560L879 459.5L915 560H869Z" fill="#222222"/>
<path d="M803 541.5L869 560L879 459.5L803 541.5Z" fill="#222222"/>
<path d="M836.5 595.941L803 541.5L869 560L836.5 595.941Z" fill="#222222"/>
<path d="M803 541.5L787 468.5L917 421L879 459.5L803 541.5Z" fill="#222222"/>
<path d="M879 459.5L941 538.5L905 532.5L879 459.5Z" fill="#222222"/>
<path d="M944.5 444.75L972 468.5L941 495L944.5 444.75Z" fill="#222222"/>
<path d="M998 417L917 421L944.5 444.75L972 468.5L998 417Z" fill="#222222"/>
<path d="M944.5 444.75L941 495.156L921 491L944.5 444.75Z" fill="#222222"/>
<path d="M921 491L879 459.5L944.5 444.75L921 491Z" fill="#222222"/>
<path d="M1395 638L1440 632L1385.5 561.5L1395 638Z" fill="#222222"/>
<path d="M1305 640.5L1395 638L1387 574L1305 640.5Z" fill="#222222"/>
<path d="M1373 489.5L1440 518L1410 542L1373 489.5Z" fill="#222222"/>
<path d="M1373 489.5L1410 542L1385.5 561.5L1373 489.5Z" fill="#222222"/>
<path d="M1377 513L1387 574L1312 571L1377 513Z" fill="#222222"/>
<path d="M1305 640.5L1236.5 638L1270 569L1305 640.5Z" fill="#222222"/>
<path d="M1162 556.5L1165 627L1236.5 638L1162 556.5Z" fill="#222222"/>
<path d="M1165 627L1137.5 622.5L1163 581L1165 627Z" fill="#222222"/>
<path d="M1137.5 622.5L1081 603L1163 581L1137.5 622.5Z" fill="#222222"/>
<path d="M1310 476L1373 489.5L1285.5 539L1310 476Z" fill="#222222"/>
<path d="M1377 513L1373 489.5L1326 516L1377 513Z" fill="#222222"/>
<path d="M1387 574L1305 640.5L1270 569L1387 574Z" fill="#222222"/>
<path d="M1326 516L1377 513L1312 571L1326 516Z" fill="#222222"/>
<path d="M1312 571L1326 516L1234.81 567.443L1312 571Z" fill="#222222"/>
<path d="M1270 569L1236.5 638L1208.5 565.5L1270 569Z" fill="#222222"/>
<path d="M1186 506L1236.5 638L1127 517L1186 506Z" fill="#222222"/>
<path d="M1224 481.5L1208.5 565.5L1235.5 567L1224 481.5Z" fill="#222222"/>
<path d="M1285.5 539L1235.5 567L1224 481.5L1285.5 539Z" fill="#222222"/>
<path d="M1224 481L1285.5 539L1310 476L1224 481Z" fill="#222222"/>
<path d="M1169.5 461L1208.5 565.5L1224 482L1169.5 461Z" fill="#222222"/>
<path d="M1081 603L1163 581L1062 523L1081 603Z" fill="#222222"/>
<path d="M1162 556.5L1163 581L1102 546L1162 556.5Z" fill="#222222"/>
<path d="M1104 491L1162 556.5L1102 546L1104 491Z" fill="#222222"/>
<path d="M1169.5 461L1127 517L1186.5 506L1169.5 461Z" fill="#222222"/>
</g>
<path d="M372 690L365 629L441 638.5L372 690Z" fill="#0CC1AB"/>
<path d="M502.5 661L485.5 690H577.5L502.5 661Z" fill="#0DD1B9"/>
<path d="M879 660L764 690H881.5L879 660Z" fill="#09AD99"/>
<path d="M764 690L789.5 628L879 660L764 690Z" fill="#089E8B"/>
<path d="M485.5 690L459 625L372 690H485.5Z" fill="#079180"/>
<path d="M502.5 661L469.5 651L485.5 690L502.5 661Z" fill="#09BAA4"/>
<path d="M371 587L420 549L459 625L371 587Z" fill="#09BAA4"/>
<path d="M338 625.5L371 587L441 638.448L338 625.5Z" fill="#079180"/>
<path d="M505 585L420 549L459 625L505 585Z" fill="#089E8B"/>
<path d="M606.483 645L577.5 690L502.5 661L606.483 645Z" fill="#079180"/>
<path d="M469.5 651L502.5 661L505.001 585L469.5 651Z" fill="#0D7C6F"/>
<path d="M606.5 645L502.5 661L505 585L606.5 645Z" fill="#089E8B"/>
<path d="M459 625L469.5 651L505 585L459 625Z" fill="#19AB99"/>
<path d="M579.5 605.5L505 585L606.5 645L579.5 605.5Z" fill="#08A390"/>
<path d="M628.5 610L579.5 605.5L606.491 644.987L615.499 631L628.5 610Z" fill="#0EC0AB"/>
<path d="M668.5 690L615.5 631L666 636.148L668.5 690Z" fill="#089E8B"/>
<path d="M628.5 610L718.5 641.5L769.5 602.5L628.5 610Z" fill="#09BAA4"/>
<path d="M764 690L666 636L718.5 641.5L764 690Z" fill="#09BAA4"/>
<path d="M764 690L789.5 628L718.5 641.5L764 690Z" fill="#11B09D"/>
<path d="M789.5 628L769.5 602.5L912.5 588.5L789.5 628Z" fill="#09BAA4"/>
<path d="M789.5 628L879 660L918 621L789.5 628Z" fill="#09BAA4"/>
<path d="M881.5 690H977L879 660L881.5 690Z" fill="#079180"/>
<path d="M918 621L912.5 588.5L980 590.419L918 621Z" fill="#19AB99"/>
<path d="M977 690L918 621L1032.5 690H977Z" fill="#007D6E"/>
<path d="M1018 591.5L980 590.419L983.5 660.5L1018 591.5Z" fill="#089E8B"/>
<path d="M983.5 660.5L918 621L980 590.5L983.5 660.5Z" fill="#11B09D"/>
<path d="M1081 603L1018 591.5L983.5 660.5L1081 603Z" fill="#09BAA4"/>
<path d="M1061.49 638L1032.5 690H1112.5L1061.49 638Z" fill="#09BAA4"/>
<path d="M1165 627L1137.5 622.5L1100.5 677.767L1165 627Z" fill="#09AD99"/>
<path d="M1137.5 622.5L1081 603L1061.49 638L1137.5 622.5Z" fill="#0DD1B9"/>
<path d="M1165 626.806L1100.5 677.768L1220.5 690L1165 626.806Z" fill="#0DD1B9"/>
<path d="M1236.5 638L1220.5 690H1300L1236.5 638Z" fill="#09BAA4"/>
<path d="M1220.5 690L1236.5 638L1165 627L1220.5 690Z" fill="#089E8B"/>
<path d="M1305 640.472L1236.5 638L1281 674.5L1305 640.472Z" fill="#19AB99"/>
<path d="M1300 690L1281 674.5L1305 640.5L1300 690Z" fill="#0D7C6F"/>
<path d="M1395 638L1305 640.5L1348.5 669.5L1395 638Z" fill="#0DD1B9"/>
<path d="M1305 640.472L1300 690L1380 690L1305 640.472Z" fill="#09BAA4"/>
<path d="M1440 690V632L1380 690H1440Z" fill="#00AE98"/>
<path d="M1440 632L1395 638L1380 690L1440 632Z" fill="#0C9685"/>
<path d="M1137.5 622.5L1061.5 638L1100.5 678L1137.5 622.5Z" fill="#089E8B"/>
<path d="M1032.5 690L983.5 660.5L1081 603L1032.5 690Z" fill="#11B09D"/>
<path d="M918 621L879 660L977 690L918 621Z" fill="#0DD1B9"/>
<path d="M1348.5 669.5L1380 690L1395 638L1348.5 669.5Z" fill="#16AA98"/>
<path d="M336.5 560.5L359 522L371 587L336.5 560.5Z" fill="#09BAA4"/>
<path d="M420 549L371 587L359 522L420 549Z" fill="#09AD99"/>
<path d="M343 690L309.5 678L336 601.5L343 690Z" fill="#079180"/>
<path d="M338 625.5L336 602L371 587L338 625.5Z" fill="#09BAA4"/>
<path d="M372 690H343L365 629L372 690Z" fill="#11B09D"/>
<path d="M365 629L338 625.5L340.5 659.5L365 629Z" fill="#007D6E"/>
<path d="M919.5 591.5L869 560H915L919.5 591.5Z" fill="#079180"/>
<path d="M915 560L902 532L999 548.5L915 560Z" fill="#19AB99"/>
<path d="M977 517L941 538.5L999 548.5L977 517Z" fill="#0A9685"/>
<path d="M234.5 455H221L234.5 423V455Z" fill="#089E8B"/>
<path d="M234.5 423L175 406L221 455L234.5 423Z" fill="#09BAA4"/>
<path d="M175 406V455H221L175 406Z" fill="#078A7A"/>
<path d="M226.5 482.659L221 453.483C221 453.483 237 451.483 240.5 453.483C244 455.483 249.5 474.5 252 477.714C254.5 480.928 272 485.5 274 487.5C276 489.5 280 497 280 497H242.5L240.5 488.593L226.5 482.659Z" fill="#00917F"/>
<path d="M0 560L57.5 614L0 690V560Z" fill="#09AD99"/>
<path d="M169 545L226 541.5L159 563L169 545Z" fill="#09AD99"/>
<path d="M271 507L328.5 554L255.5 509.5L271 507Z" fill="#08A390"/>
<path d="M89 572L103 651.5L0 690L89 572Z" fill="#089E8B"/>
<path d="M336 602L309.5 678L225 648L336 602Z" fill="#089E8B"/>
<path d="M78 512.5L89 572.5L57.5 614L78 512.5Z" fill="#09AD99"/>
<path d="M39 529.5L0 560L57.5 614L39 529.5Z" fill="#079180"/>
<path d="M255.5 509L186 520L226 541.5L255.5 509Z" fill="#079180"/>
<path d="M359 522L299 530L336.5 560.5L359 522Z" fill="#079180"/>
<path d="M78 512.5L39 529.5L57.5 614L78 512.5Z" fill="#09BAA4"/>
<path d="M186 520L149.5 546.5L226 541.5L186 520Z" fill="#078A7A"/>
<path d="M85 551L159 665L103 651.5L85 551Z" fill="#08A390"/>
<path d="M136.5 487L186 520L149.5 546.5L136.5 487Z" fill="#08A390"/>
<path d="M78 512.5L132 498.5L85 551L78 512.5Z" fill="#089E8B"/>
<path d="M255.5 509.5L297.5 535L266 588L255.5 509.5Z" fill="#089E8B"/>
<path d="M85 551L169 545L128.5 618L85 551Z" fill="#09BAA4"/>
<path d="M266 588L328.5 554L302 616.5L266 588Z" fill="#09BAA4"/>
<path d="M297.5 535L328.5 554L266 588L297.5 535Z" fill="#11B09D"/>
<path d="M205 690L225 647.5L343 690H205Z" fill="#09BAA4"/>
<path d="M299 530L280 497L359 522L299 530Z" fill="#09BAA4"/>
<path d="M255.5 509L270 618L186 621.5L255.5 509Z" fill="#09BAA4"/>
<path d="M207 455H242L259.5 497.5L207 455Z" fill="#09BAA4"/>
<path d="M85 551L124.5 506.5L149.5 546.5L85 551Z" fill="#09AD99"/>
<path d="M124.5 506.5L136.5 487L149.5 546.5L124.5 506.5Z" fill="#079180"/>
<path d="M136.5 487L175 455L186 520L136.5 487Z" fill="#09AD99"/>
<path d="M175 455H207L186 520L175 455Z" fill="#079180"/>
<path d="M103 651.5L122.5 690L174.5 668.5L103 651.5Z" fill="#09AD99"/>
<path d="M226 541.5L238 537.5L255.5 509L226 541.5Z" fill="#007D6E"/>
<path d="M186 520L271.5 507L207 455L186 520Z" fill="#09AD99"/>
<path d="M159 665L128.5 618L159 563V665Z" fill="#09AD99"/>
<path d="M302 616.5L270 618L266 588L302 616.5Z" fill="#09AD99"/>
<path d="M159 563V665L238 537.5L159 563Z" fill="#089E8B"/>
<path d="M251.5 478L259.5 497.5L274 487.5L251.5 478Z" fill="#089E8B"/>
<path d="M274 487.5L259.5 497.5L299 530L274 487.5Z" fill="#00917F"/>
<path d="M159 665L174.5 668.5L186 621.5L159 665Z" fill="#007D6E"/>
<path d="M302 616.5L371 587L328.5 554L302 616.5Z" fill="#09A995"/>
<path d="M122.5 690H205L225 647.5L122.5 690Z" fill="#078A7A"/>
<path d="M103 651.5L122.5 690H0L103 651.5Z" fill="#079180"/>
<path d="M186 621.5L302 616.5L174.5 668.5L186 621.5Z" fill="#079180"/>
<path d="M441 638.5L371 587L459 625L441 638.5Z" fill="#0DAC98"/>
<path d="M668.5 690H577.5L615.5 631L668.5 690Z" fill="#09BAA4"/>
<path d="M343 690L340.5 659.5L365 629L343 690Z" fill="#09BAA4"/>
<path d="M628.5 610L615.5 631L718.5 641.5L628.5 610Z" fill="#09AD99"/>
<path d="M668.5 690L666 636L764 690H668.5Z" fill="#09AD99"/>
<path d="M718.5 641.5L769.5 602.5L789.5 628L718.5 641.5Z" fill="#007D6E"/>
<path d="M912.5 588.5L918 621L789.5 628L912.5 588.5Z" fill="#089E8B"/>
<path d="M1112.5 690L1100.5 678L1220.5 690H1112.5Z" fill="#0D7C6F"/>
<path d="M175 354.5V406L217 367L175 354.5Z" fill="#09BAA4"/>
<path d="M234.5 381.5V423L197.5 385L234.5 381.5Z" fill="#09BAA4"/>
<path d="M197.5 385L175 406L234.5 423L197.5 385Z" fill="#079180"/>
<path d="M234.5 351L197.5 385L234.5 381.5V351Z" fill="#007D6E"/>
<path d="M234.5 282L225.5 300L217 265L234.5 282Z" fill="#089E8B"/>
<path d="M197.5 246L185 234L189.5 224L197.5 246Z" fill="#089E8B"/>
<path d="M234.5 312V282L258 303L234.5 312Z" fill="#09BAA4"/>
<path d="M175 343V313L151 334L175 343Z" fill="#09BAA4"/>
<path d="M268 312H234.5L258 303L268 312Z" fill="#089E8B"/>
<path d="M140.999 343H175L150.999 334L140.999 343Z" fill="#089E8B"/>
<path d="M284 312H268L272 277L284 312Z" fill="#08A390"/>
<path d="M125 343H141L137 308L125 343Z" fill="#08A390"/>
<path d="M295 304L284 312L275 286L295 304Z" fill="#089E8B"/>
<path d="M114 335L125 343L134 317L114 335Z" fill="#089E8B"/>
<path d="M259 274L252 282L268 312L259 274Z" fill="#08A390"/>
<path d="M150 305L157 313L141 343L150 305Z" fill="#08A390"/>
<path d="M252 282H234.5L268 312L252 282Z" fill="#09AD99"/>
<path d="M157 313H175L141 343L157 313Z" fill="#09AD99"/>
<path d="M295 263V304L275 286L295 263Z" fill="#09BAA4"/>
<path d="M114 294V335L134 317L114 294Z" fill="#09BAA4"/>
<path d="M259 274L268 312L274 259L259 274Z" fill="#00AE98"/>
<path d="M150 305L141 343L135 290L150 305Z" fill="#00AE98"/>
<path d="M272 277L275 286L295 263L272 277Z" fill="#079180"/>
<path d="M137 308L134 317L114 294L137 308Z" fill="#079180"/>
<path d="M295 263L272 277L277 232L295 263Z" fill="#0FCCB5"/>
<path d="M114 294L137 308L132 263L114 294Z" fill="#0FCCB5"/>
<path d="M295 241V263L277 232L295 241Z" fill="#09BAA4"/>
<path d="M114 272V294L132 263L114 272Z" fill="#09BAA4"/>
<path d="M288.5 232L295 241L277 232H288.5Z" fill="#09AD99"/>
<path d="M120.5 263L114 272L132 263H120.5Z" fill="#09AD99"/>
<path d="M259 248.5V274L274 259L259 248.5Z" fill="#09BAA4"/>
<path d="M150 279.5V305L135 290L150 279.5Z" fill="#09BAA4"/>
<path d="M267 232L259 241L275 249L267 232Z" fill="#0DD1B9"/>
<path d="M142 263L150 272L134 280L142 263Z" fill="#0DD1B9"/>
<path d="M277 232H267L275 249L277 232Z" fill="#09BAA4"/>
<path d="M132 263H142L134 280L132 263Z" fill="#09BAA4"/>
<path d="M259 241V248.5L274 259L259 241Z" fill="#09AD99"/>
<path d="M150 272V279.5L135 290L150 272Z" fill="#09AD99"/>
<path d="M274 259L275 249L259 241L274 259Z" fill="#007D6E"/>
<path d="M135 290L134 280L150 272L135 290Z" fill="#007D6E"/>
<path d="M204.5 267.5L175 354.5L212 325.5L204.5 267.5Z" fill="#09AD99"/>
<path d="M234.5 351L217 367L208.5 300L234.5 351Z" fill="#08A390"/>
<path d="M234.5 268.5V351L208.5 300L234.5 268.5Z" fill="#09BAA4"/>
<path d="M175 303V354.5L193.5 300L175 303Z" fill="#09BAA4"/>
<path d="M175 303L193.5 300L186.5 275L175 303Z" fill="#079180"/>
<path d="M234.5 268.5L208.5 300L211 248L234.5 268.5Z" fill="#079180"/>
<path d="M204.5 267.5L208.5 300L211 248L204.5 267.5Z" fill="#007D6E"/>
<path d="M175 235L193.5 300L214 239L175 235Z" fill="#08A390"/>
<path d="M175 268L186.5 275L175 303V268Z" fill="#09BAA4"/>
<path d="M175 235V210L214 220L175 235Z" fill="#0DD1B9"/>
<path d="M175 235L186.5 275L175 268V235Z" fill="#007D6E"/>
<path d="M211 248L234.5 268.5L218 227L211 248Z" fill="#0FCCB5"/>
<path d="M175 235L214 239L221.5 217L175 235Z" fill="#09AD99"/>
<path d="M218 227L234.5 268.5V224L218 227Z" fill="#09BAA4"/>
<path d="M184 193L175 202L202 217L184 193Z" fill="#079180"/>
<path d="M175 202V210L202 217L175 202Z" fill="#00AE98"/>
<path d="M234.5 212.5L225 193L214 220L234.5 212.5Z" fill="#09BAA4"/>
<path d="M221.4 217.2L218 227L234.5 212.5L221.4 217.2Z" fill="#0F8778"/>
<path d="M234.5 224V212.5L218 227L234.5 224Z" fill="#089E8B"/>
<path d="M225 193L214 220L202 193H225Z" fill="#0DD1B9"/>
<path d="M202 193H184L202 217V193Z" fill="#09BAA4"/>
<path d="M202 193L214 220L202 217V193Z" fill="#007D6E"/>
<path d="M217 367L175 354.5L212 325.5L217 367Z" fill="#0FCCB5"/>
<path d="M979 549L1036.5 547.5L991.5 591L979 549Z" fill="#007D6E"/>
<path d="M979 549L991.5 591L946 554.5L979 549Z" fill="#0E9A89"/>
<path d="M1012 591H991.5L1020 563.5L1012 591Z" fill="#09BAA4"/>
<path d="M1020 563.5L1054 578L1012 591L1020 563.5Z" fill="#0D7C6F"/>
<path d="M946 554.5L919.5 591.5L915 560L946 554.5Z" fill="#007D6E"/>
<path d="M919.5 591.5L946 554.5L991.5 591L919.5 591.5Z" fill="#079180"/>
</g>
</g>
<defs>
<filter id="filter0_f" x="-4" y="42" width="1448" height="503" filterUnits="userSpaceOnUse" color-interpolation-filters="sRGB">
<feFlood flood-opacity="0" result="BackgroundImageFix"/>
<feBlend mode="normal" in="SourceGraphic" in2="BackgroundImageFix" result="shape"/>
<feGaussianBlur stdDeviation="2" result="effect1_foregroundBlur"/>
</filter>
<filter id="filter1_f" x="-23" y="233" width="1486" height="430.5" filterUnits="userSpaceOnUse" color-interpolation-filters="sRGB">
<feFlood flood-opacity="0" result="BackgroundImageFix"/>
<feBlend mode="normal" in="SourceGraphic" in2="BackgroundImageFix" result="shape"/>
<feGaussianBlur stdDeviation="11.5" result="effect1_foregroundBlur"/>
</filter>
<clipPath id="clip0">
<rect width="1440" height="690" fill="white"/>
</clipPath>
</defs>
</svg>
