<svg width="1440" height="690" viewBox="0 0 1440 690" fill="none" xmlns="http://www.w3.org/2000/svg">
<g clip-path="url(#clip0)">
<rect width="1440" height="690" fill="#222222"/>
<rect width="1440" height="690" fill="#222222"/>
<circle cx="733" cy="415" r="603" fill="#242424"/>
<circle cx="733" cy="415" r="435" fill="#272727"/>
<circle cx="733" cy="415" r="229" fill="#292929"/>
<path d="M911.5 143L846 455L1225 467.5V322L1198.5 263.5L1170 161V86.5L1099.5 46L984.5 86.5L911.5 143Z" fill="#003833"/>
<path d="M1440 709H0V517.5V407.5C192.267 426.441 587.237 460.514 768.5 459.969L819.5 225L916 172L1013.5 191L1081 313L1095.5 453.25C1108.13 453.289 1120.82 453.35 1133.5 453.429V313L1183.5 250L1247 281.5L1275.5 355V411.5L1294 455.336C1350.77 456.3 1401.63 457.455 1440 458.5V518V709Z" fill="#004B44"/>
<path d="M482.293 464.291L496.526 464.702C502.16 464.865 506.815 460.343 506.815 454.707V394.558L529.982 394.6C535.512 394.61 540 390.13 540 384.6V365.92C540 360.904 535.934 356.838 530.918 356.838C525.902 356.838 521.836 360.904 521.836 365.92V372.243C521.836 375.523 519.177 378.181 515.897 378.181H506.815V319C506.815 313.477 502.338 309 496.815 309H482.582C477.059 309 472.582 313.477 472.582 319V360.087H466.644C461.435 360.087 457.212 355.864 457.212 350.655V340.931C457.212 335.625 452.911 331.324 447.606 331.324C442.301 331.324 438 335.625 438 340.931V367.873C438 373.515 442.664 378.04 448.303 377.869L472.582 377.132V454.295C472.582 459.705 476.885 464.134 482.293 464.291Z" fill="#004B44"/>
<path d="M0 709H1440V518C1406.17 494.334 1337.5 473.7 1205.5 464.5C1040.5 453 1027 388.5 897.5 426.5C768 464.5 687.5 538 578 542.5C468.5 547 351.994 434.533 264.5 464.5C101 520.5 101.5 431 0 517.5V709Z" fill="#076E64"/>
<path d="M1081.85 471.903L1109.51 472.703C1115.15 472.865 1119.8 468.343 1119.8 462.707V375.014L1155.98 375.079C1161.51 375.089 1166 370.609 1166 365.079V332.544C1166 327.021 1161.52 322.544 1156 322.544H1150.71C1145.19 322.544 1140.71 327.021 1140.71 332.544V343.966C1140.71 348.532 1137.01 352.233 1132.45 352.233H1119.8V266C1119.8 260.477 1115.32 256 1109.8 256H1082.14C1076.62 256 1072.14 260.477 1072.14 266V327.063H1063.88H1060.75C1055.22 327.063 1050.75 322.586 1050.75 317.063V297.054C1050.75 291.531 1046.27 287.054 1040.75 287.054H1034C1028.48 287.054 1024 291.531 1024 297.054V341.925C1024 347.567 1028.66 352.091 1034.3 351.92L1072.14 350.773V461.907C1072.14 467.318 1076.45 471.747 1081.85 471.903Z" fill="#076E64"/>
<path d="M576.611 544C590.09 542.454 620.837 536.661 636 525.864C620.977 520.803 587.394 513.717 573.242 525.864C580.964 517.991 600.957 502.667 619.152 504.354C606.011 497.075 576.863 487.481 564.971 507.051C567.825 502.255 573.242 490.948 573.242 482C564.678 482.422 546.707 486.977 543.337 501.823C535.194 494.231 514.359 481.578 496.163 491.701C498.125 499.329 504.49 513.113 515.865 517.402C505.039 516.221 489.871 516.54 481 523.333C486.054 530.785 500.88 544.844 519.75 541.469L576.611 544Z" fill="#076E64"/>
<path d="M1434 696.743H5.99999C2.68629 696.743 0 694.056 0 690.743V559.829C0 558.178 0.668838 556.602 1.89099 555.491C19.4081 539.576 58.1394 512.573 132 498.817L135.58 488.904C135.857 488.138 136.287 487.436 136.845 486.841L145.611 477.482C146.512 476.521 147.704 475.883 149.004 475.666L158.536 474.077C160.676 473.721 162.456 472.237 163.193 470.197L167.121 459.32C167.954 457.013 170.107 455.445 172.559 455.361L225 453.565L237.258 453.145C239.8 453.058 242.121 454.583 243.049 456.951L250.564 476.114C251.162 477.638 252.356 478.852 253.87 479.474L272.229 487.015C273.381 487.488 274.357 488.308 275.022 489.361L280 497.243C392.131 520.59 488.099 601.858 615.5 609.742C721.805 616.321 841.06 587.889 954 587.719C1004.14 587.644 1053.04 593.14 1099 609.742C1214.47 651.45 1365.33 643.694 1433.06 633.809C1436.71 633.276 1440 636.096 1440 639.792V690.743C1440 694.056 1437.31 696.743 1434 696.743Z" fill="#ABABAB"/>
<path d="M1137.5 622.5L1061.5 638L1100.5 678L1137.5 622.5Z" fill="#089E8B"/>
<path d="M1032.5 690L983.5 660.5L1081 603L1032.5 690Z" fill="#11B09D"/>
<path d="M918 621L879 660L977 690L918 621Z" fill="#0DD1B9"/>
<path d="M372 690L365 629L441 638.5L372 690Z" fill="#0CC1AB"/>
<path d="M502.5 661L485.5 690H577.5L502.5 661Z" fill="#0DD1B9"/>
<path d="M879 660L764 690H881.5L879 660Z" fill="#09AD99"/>
<path d="M764 690L789.5 628L879 660L764 690Z" fill="#089E8B"/>
<path d="M485.5 690L459 625L372 690H485.5Z" fill="#079180"/>
<path d="M502.5 661L469.5 651L485.5 690L502.5 661Z" fill="#09BAA4"/>
<path d="M371 587L420 549L459 625L371 587Z" fill="#09BAA4"/>
<path d="M338 625.5L371 587L441 638.448L338 625.5Z" fill="#079180"/>
<path d="M505 585L420 549L459 625L505 585Z" fill="#089E8B"/>
<path d="M606.483 645L577.5 690L502.5 661L606.483 645Z" fill="#079180"/>
<path d="M469.5 651L502.5 661L505.001 585L469.5 651Z" fill="#0D7C6F"/>
<path d="M606.5 645L502.5 661L505 585L606.5 645Z" fill="#089E8B"/>
<path d="M459 625L469.5 651L505 585L459 625Z" fill="#19AB99"/>
<path d="M579.5 605.5L505 585L606.5 645L579.5 605.5Z" fill="#08A390"/>
<path d="M628.5 610L579.5 605.5L606.491 644.987L615.499 631L628.5 610Z" fill="#0EC0AB"/>
<path d="M668.5 690L615.5 631L666 636.148L668.5 690Z" fill="#089E8B"/>
<path d="M628.5 610L718.5 641.5L769.5 602.5L628.5 610Z" fill="#09BAA4"/>
<path d="M764 690L666 636L718.5 641.5L764 690Z" fill="#09BAA4"/>
<path d="M764 690L789.5 628L718.5 641.5L764 690Z" fill="#11B09D"/>
<path d="M789.5 628L769.5 602.5L912.5 588.5L789.5 628Z" fill="#09BAA4"/>
<path d="M789.5 628L879 660L918 621L789.5 628Z" fill="#09BAA4"/>
<path d="M881.5 690H977L879 660L881.5 690Z" fill="#079180"/>
<path d="M918 621L912.5 588.5L980 590.419L918 621Z" fill="#19AB99"/>
<path d="M977 690L918 621L1032.5 690H977Z" fill="#007D6E"/>
<path d="M1018 591.5L980 590.419L983.5 660.5L1018 591.5Z" fill="#089E8B"/>
<path d="M983.5 660.5L918 621L980 590.5L983.5 660.5Z" fill="#11B09D"/>
<path d="M1081 603L1018 591.5L983.5 660.5L1081 603Z" fill="#09BAA4"/>
<path d="M1061.49 638L1032.5 690H1112.5L1061.49 638Z" fill="#09BAA4"/>
<path d="M1165 627L1137.5 622.5L1100.5 677.767L1165 627Z" fill="#09AD99"/>
<path d="M1137.5 622.5L1081 603L1061.49 638L1137.5 622.5Z" fill="#0DD1B9"/>
<path d="M1165 626.806L1100.5 677.768L1220.5 690L1165 626.806Z" fill="#0DD1B9"/>
<path d="M1236.5 638L1220.5 690H1300L1236.5 638Z" fill="#09BAA4"/>
<path d="M1220.5 690L1236.5 638L1165 627L1220.5 690Z" fill="#089E8B"/>
<path d="M1305 640.472L1236.5 638L1281 674.5L1305 640.472Z" fill="#19AB99"/>
<path d="M1300 690L1281 674.5L1305 640.5L1300 690Z" fill="#0D7C6F"/>
<path d="M1395 638L1305 640.5L1348.5 669.5L1395 638Z" fill="#0DD1B9"/>
<path d="M1305 640.472L1300 690L1380 690L1305 640.472Z" fill="#09BAA4"/>
<path d="M1440 690V632L1380 690H1440Z" fill="#00AE98"/>
<path d="M1440 632L1395 638L1380 690L1440 632Z" fill="#0C9685"/>
<path d="M336.5 560.5L359 522L371 587L336.5 560.5Z" fill="#09BAA4"/>
<path d="M420 549L371 587L359 522L420 549Z" fill="#09AD99"/>
<path d="M343 690L309.5 678L336 601.5L343 690Z" fill="#079180"/>
<path d="M338 625.5L336 602L371 587L338 625.5Z" fill="#09BAA4"/>
<path d="M372 690H343L365 629L372 690Z" fill="#11B09D"/>
<path d="M365 629L338 625.5L340.5 659.5L365 629Z" fill="#007D6E"/>
<path d="M940.5 598.5C924.5 596.667 888 589.8 870 577C887.833 571 927.7 562.6 944.5 577C935.333 567.667 911.6 549.5 890 551.5C905.599 542.871 940.201 531.498 954.318 554.698C950.931 549.012 944.5 535.607 944.5 525C954.667 525.5 976 530.9 980 548.5C989.667 539.5 1014.4 524.5 1036 536.5C1033.67 545.543 1026.12 561.884 1012.61 566.969C1025.46 565.569 1043.47 565.947 1054 574C1048 582.833 1030.4 599.5 1008 595.5L940.5 598.5Z" fill="#089E8B"/>
<path d="M224.94 463.554L185.2 464.703C179.566 464.865 174.911 460.343 174.911 454.707V342.179L127.018 342.265C121.488 342.275 117 337.795 117 332.265V286.41C117 280.887 121.477 276.41 127 276.41H141.5C147.023 276.41 151.5 280.887 151.5 286.41V306.062C151.5 310.238 154.885 313.624 159.062 313.624H174.911V203C174.911 197.477 179.388 193 184.911 193H224.651C230.174 193 234.651 197.477 234.651 203V282.074H245.014H248.5C254.023 282.074 258.5 277.597 258.5 272.074V241.925C258.5 236.402 262.977 231.925 268.5 231.925H285C290.523 231.925 295 236.402 295 241.925V303.316C295 308.958 290.336 313.482 284.697 313.311L234.651 311.794V453.558C234.651 458.969 230.348 463.398 224.94 463.554Z" fill="#089E8B"/>
<path d="M234.5 455H221L234.5 423V455Z" fill="#089E8B"/>
<path d="M234.5 423L175 406L221 455L234.5 423Z" fill="#09BAA4"/>
<path d="M175 406V455H221L175 406Z" fill="#078A7A"/>
<path d="M226.5 482.659L221 453.483C221 453.483 237 451.483 240.5 453.483C244 455.483 249.5 474.5 252 477.714C254.5 480.928 272 485.5 274 487.5C276 489.5 280 497 280 497H242.5L240.5 488.593L226.5 482.659Z" fill="#00917F"/>
<path d="M0 560L57.5 614L0 690V560Z" fill="#09AD99"/>
<path d="M169 545L226 541.5L159 563L169 545Z" fill="#09AD99"/>
<path d="M271 507L328.5 554L255.5 509.5L271 507Z" fill="#08A390"/>
<path d="M89 572L103 651.5L0 690L89 572Z" fill="#089E8B"/>
<path d="M336 602L309.5 678L225 648L336 602Z" fill="#089E8B"/>
<path d="M78 512.5L89 572.5L57.5 614L78 512.5Z" fill="#09AD99"/>
<path d="M39 529.5L0 560L57.5 614L39 529.5Z" fill="#079180"/>
<path d="M255.5 509L186 520L226 541.5L255.5 509Z" fill="#079180"/>
<path d="M359 522L299 530L336.5 560.5L359 522Z" fill="#079180"/>
<path d="M78 512.5L39 529.5L57.5 614L78 512.5Z" fill="#09BAA4"/>
<path d="M186 520L149.5 546.5L226 541.5L186 520Z" fill="#078A7A"/>
<path d="M85 551L159 665L103 651.5L85 551Z" fill="#08A390"/>
<path d="M136.5 487L186 520L149.5 546.5L136.5 487Z" fill="#08A390"/>
<path d="M78 512.5L132 498.5L85 551L78 512.5Z" fill="#089E8B"/>
<path d="M255.5 509.5L297.5 535L266 588L255.5 509.5Z" fill="#089E8B"/>
<path d="M85 551L169 545L128.5 618L85 551Z" fill="#09BAA4"/>
<path d="M266 588L328.5 554L302 616.5L266 588Z" fill="#09BAA4"/>
<path d="M297.5 535L328.5 554L266 588L297.5 535Z" fill="#11B09D"/>
<path d="M205 690L225 647.5L343 690H205Z" fill="#09BAA4"/>
<path d="M299 530L280 497L359 522L299 530Z" fill="#09BAA4"/>
<path d="M255.5 509L270 618L186 621.5L255.5 509Z" fill="#09BAA4"/>
<path d="M207 455H242L259.5 497.5L207 455Z" fill="#09BAA4"/>
<path d="M85 551L124.5 506.5L149.5 546.5L85 551Z" fill="#09AD99"/>
<path d="M124.5 506.5L136.5 487L149.5 546.5L124.5 506.5Z" fill="#079180"/>
<path d="M136.5 487L175 455L186 520L136.5 487Z" fill="#09AD99"/>
<path d="M175 455H207L186 520L175 455Z" fill="#079180"/>
<path d="M103 651.5L122.5 690L174.5 668.5L103 651.5Z" fill="#09AD99"/>
<path d="M226 541.5L238 537.5L255.5 509L226 541.5Z" fill="#007D6E"/>
<path d="M186 520L271.5 507L207 455L186 520Z" fill="#09AD99"/>
<path d="M159 665L128.5 618L159 563V665Z" fill="#09AD99"/>
<path d="M302 616.5L270 618L266 588L302 616.5Z" fill="#09AD99"/>
<path d="M159 563V665L238 537.5L159 563Z" fill="#089E8B"/>
<path d="M251.5 478L259.5 497.5L274 487.5L251.5 478Z" fill="#089E8B"/>
<path d="M274 487.5L259.5 497.5L299 530L274 487.5Z" fill="#00917F"/>
<path d="M159 665L174.5 668.5L186 621.5L159 665Z" fill="#007D6E"/>
<path d="M302 616.5L371 587L328.5 554L302 616.5Z" fill="#09A995"/>
<path d="M122.5 690H205L225 647.5L122.5 690Z" fill="#078A7A"/>
<path d="M103 651.5L122.5 690H0L103 651.5Z" fill="#079180"/>
<path d="M186 621.5L302 616.5L174.5 668.5L186 621.5Z" fill="#079180"/>
<path d="M441 638.5L371 587L459 625L441 638.5Z" fill="#0DAC98"/>
<path d="M668.5 690H577.5L615.5 631L668.5 690Z" fill="#09BAA4"/>
<path d="M343 690L340.5 659.5L365 629L343 690Z" fill="#09BAA4"/>
<path d="M628.5 610L615.5 631L718.5 641.5L628.5 610Z" fill="#09AD99"/>
<path d="M668.5 690L666 636L764 690H668.5Z" fill="#09AD99"/>
<path d="M718.5 641.5L769.5 602.5L789.5 628L718.5 641.5Z" fill="#007D6E"/>
<path d="M912.5 588.5L918 621L789.5 628L912.5 588.5Z" fill="#089E8B"/>
<path d="M1112.5 690L1100.5 678L1220.5 690H1112.5Z" fill="#0D7C6F"/>
<path d="M175 381.5V406L217 367L175 381.5Z" fill="#09BAA4"/>
<path d="M234.5 381.5V423L197.5 385L234.5 381.5Z" fill="#09BAA4"/>
<path d="M197.5 385L175 406L234.5 423L197.5 385Z" fill="#079180"/>
<path d="M234.5 351L197.5 385L234.5 381.5V351Z" fill="#007D6E"/>
<path d="M199.5 330.5L175 381.5L207 370.5L199.5 330.5Z" fill="#089E8B"/>
<path d="M175 324.5V381.5L193 344L175 324.5Z" fill="#09BAA4"/>
<path d="M217 367L207 370.5L234.5 333L217 367Z" fill="#078A7A"/>
<path d="M234.5 333L217 367L234.5 351V333Z" fill="#09AD99"/>
<path d="M195 308L207 370.5L227 343L195 308Z" fill="#09AD99"/>
<path d="M234.5 333L227 343L212 327L234.5 333Z" fill="#007D6E"/>
<path d="M199.5 330.5L193 344L175 299L199.5 330.5Z" fill="#09BAA4"/>
<path d="M175 299V324.5L193 344L175 299Z" fill="#09AD99"/>
<path d="M212 327L234.5 333V282L212 327Z" fill="#079180"/>
<path d="M189 277.5L199.5 330.5L175 299L189 277.5Z" fill="#089E8B"/>
<path d="M195 308L212 327L225.5 300L195 308Z" fill="#09BAA4"/>
<path d="M209.5 281L195 308L225.5 300L209.5 281Z" fill="#09AD99"/>
<path d="M175 258V299L196.5 266L175 258Z" fill="#09BAA4"/>
<path d="M234.5 282L225.5 300L217 265L234.5 282Z" fill="#089E8B"/>
<path d="M234 241L234.5 282L197.5 246L234 241Z" fill="#0DD1B9"/>
<path d="M189 277.5L195 308L209.5 281L189 277.5Z" fill="#08A390"/>
<path d="M196.5 266L225.5 300L217 265L196.5 266Z" fill="#09BAA4"/>
<path d="M209.5 281L189 277.5L196.5 266L209.5 281Z" fill="#00AE98"/>
<path d="M217 265L196.5 266L175 224L217 265Z" fill="#079180"/>
<path d="M175 258L196.5 266L175 224V258Z" fill="#0FCCB5"/>
<path d="M234 241L197.5 246L207 193L234 241Z" fill="#09BAA4"/>
<path d="M178 196L175 204L196.5 210L178 196Z" fill="#09BAA4"/>
<path d="M186 193L178 196L205.5 201L186 193Z" fill="#09AD99"/>
<path d="M175 204V224L193 217L175 204Z" fill="#09AD99"/>
<path d="M203 215L178 196L205.5 201L203 215Z" fill="#089E8B"/>
<path d="M203 215L196.5 210L189.5 224L203 215Z" fill="#0DD1B9"/>
<path d="M185 234L193 217L175 224L185 234Z" fill="#09BAA4"/>
<path d="M193 217L175 204L196.5 210L193 217Z" fill="#007D6E"/>
<path d="M197.5 246L185 234L189.5 224L197.5 246Z" fill="#089E8B"/>
<path d="M197.5 246L189.5 224L203 215L197.5 246Z" fill="#19AB99"/>
<path d="M186 193L205.5 201L207 193H186Z" fill="#09BAA4"/>
<path d="M232 196L223 193L225 209L232 196Z" fill="#09AD99"/>
<path d="M232 196L234.5 204L220.5 217.5L232 196Z" fill="#09BAA4"/>
<path d="M234 241L234.5 204L220.5 217.5L234 241Z" fill="#09AD99"/>
<path d="M220.5 217.5L225 209L207 193L220.5 217.5Z" fill="#007D6E"/>
<path d="M223 193H207L225 209L223 193Z" fill="#0DD1B9"/>
<path d="M234.5 312V282L258 303L234.5 312Z" fill="#09BAA4"/>
<path d="M175 343V313L151 334L175 343Z" fill="#09BAA4"/>
<path d="M268 312H234.5L258 303L268 312Z" fill="#089E8B"/>
<path d="M140.999 343H175L150.999 334L140.999 343Z" fill="#089E8B"/>
<path d="M284 312H268L272 277L284 312Z" fill="#08A390"/>
<path d="M125 343H141L137 308L125 343Z" fill="#08A390"/>
<path d="M295 304L284 312L275 286L295 304Z" fill="#089E8B"/>
<path d="M114 335L125 343L134 317L114 335Z" fill="#089E8B"/>
<path d="M259 274L252 282L268 312L259 274Z" fill="#08A390"/>
<path d="M150 305L157 313L141 343L150 305Z" fill="#08A390"/>
<path d="M252 282H234.5L268 312L252 282Z" fill="#09AD99"/>
<path d="M157 313H175L141 343L157 313Z" fill="#09AD99"/>
<path d="M295 263V304L275 286L295 263Z" fill="#09BAA4"/>
<path d="M114 294V335L134 317L114 294Z" fill="#09BAA4"/>
<path d="M259 274L268 312L274 259L259 274Z" fill="#00AE98"/>
<path d="M150 305L141 343L135 290L150 305Z" fill="#00AE98"/>
<path d="M272 277L275 286L295 263L272 277Z" fill="#079180"/>
<path d="M137 308L134 317L114 294L137 308Z" fill="#079180"/>
<path d="M295 263L272 277L277 232L295 263Z" fill="#0FCCB5"/>
<path d="M114 294L137 308L132 263L114 294Z" fill="#0FCCB5"/>
<path d="M295 241V263L277 232L295 241Z" fill="#09BAA4"/>
<path d="M114 272V294L132 263L114 272Z" fill="#09BAA4"/>
<path d="M288.5 232L295 241L277 232H288.5Z" fill="#09AD99"/>
<path d="M120.5 263L114 272L132 263H120.5Z" fill="#09AD99"/>
<path d="M259 248.5V274L274 259L259 248.5Z" fill="#09BAA4"/>
<path d="M150 279.5V305L135 290L150 279.5Z" fill="#09BAA4"/>
<path d="M267 232L259 241L275 249L267 232Z" fill="#0DD1B9"/>
<path d="M142 263L150 272L134 280L142 263Z" fill="#0DD1B9"/>
<path d="M277 232H267L275 249L277 232Z" fill="#09BAA4"/>
<path d="M132 263H142L134 280L132 263Z" fill="#09BAA4"/>
<path d="M259 241V248.5L274 259L259 241Z" fill="#09AD99"/>
<path d="M150 272V279.5L135 290L150 272Z" fill="#09AD99"/>
<path d="M274 259L275 249L259 241L274 259Z" fill="#007D6E"/>
<path d="M135 290L134 280L150 272L135 290Z" fill="#007D6E"/>
<path d="M1348.5 669.5L1380 690L1395 638L1348.5 669.5Z" fill="#16AA98"/>
</g>
<defs>
<clipPath id="clip0">
<rect width="1440" height="690" fill="white"/>
</clipPath>
</defs>
</svg>
