<svg width="255" height="328" viewBox="0 0 255 328" fill="none" xmlns="http://www.w3.org/2000/svg">
<path d="M2 2C7.81788 2 11.9735 7.616 11.9735 14.96V144.56C11.9735 152.12 16.2954 157.52 21.947 157.52H42.7252" stroke="#222222" stroke-width="3" stroke-linecap="round" stroke-linejoin="round"/>
<path d="M2 326C7.81788 326 11.9735 320.384 11.9735 313.04V183.44C11.9735 175.88 16.2954 170.48 21.947 170.48H42.7252" stroke="#222222" stroke-width="3" stroke-linecap="round" stroke-linejoin="round"/>
<path d="M253 2C247.182 2 243.026 7.616 243.026 14.96V144.56C243.026 152.12 238.705 157.52 233.053 157.52H212.275" stroke="#222222" stroke-width="3" stroke-linecap="round" stroke-linejoin="round"/>
<path d="M253 326C247.182 326 243.026 320.384 243.026 313.04V183.44C243.026 175.88 238.705 170.48 233.053 170.48H212.275" stroke="#222222" stroke-width="3" stroke-linecap="round" stroke-linejoin="round"/>
</svg>
