<svg width="284" height="324" viewBox="0 0 284 324" fill="none" xmlns="http://www.w3.org/2000/svg">
<path d="M2 2C8.49007 2 13.1258 7.54667 13.1258 14.8V142.8C13.1258 150.267 17.947 155.6 24.2517 155.6H47.4305" stroke="#222222" stroke-width="3" stroke-linecap="round" stroke-linejoin="round"/>
<path d="M2 322C8.49007 322 13.1258 316.453 13.1258 309.2V181.2C13.1258 173.733 17.947 168.4 24.2517 168.4H47.4305" stroke="#222222" stroke-width="3" stroke-linecap="round" stroke-linejoin="round"/>
<path d="M282 2C275.51 2 270.874 7.54667 270.874 14.8V142.8C270.874 150.267 266.053 155.6 259.748 155.6H236.57" stroke="#222222" stroke-width="3" stroke-linecap="round" stroke-linejoin="round"/>
<path d="M282 322C275.51 322 270.874 316.453 270.874 309.2V181.2C270.874 173.733 266.053 168.4 259.748 168.4H236.57" stroke="#222222" stroke-width="3" stroke-linecap="round" stroke-linejoin="round"/>
</svg>
